<?xml version="1.0" encoding="UTF-8" standalone="no"?>
<!DOCTYPE svg PUBLIC "-//W3C//DTD SVG 1.1//EN"
 "http://www.w3.org/Graphics/SVG/1.1/DTD/svg11.dtd">
<!-- Generated by graphviz version 7.1.0 (20230121.1956)
 -->
<!-- Title: split_join Pages: 1 -->
<svg width="166pt" height="204pt"
 viewBox="0.00 0.00 166.19 204.00" xmlns="http://www.w3.org/2000/svg" xmlns:xlink="http://www.w3.org/1999/xlink">
<g id="graph0" class="graph" transform="scale(1 1) rotate(0) translate(4 200)">
<title>split_join</title>
<polygon fill="white" stroke="none" points="-4,4 -4,-200 162.19,-200 162.19,4 -4,4"/>
<!-- head -->
<g id="node1" class="node">
<title>head</title>
<ellipse fill="none" stroke="black" cx="79.1" cy="-178" rx="39.79" ry="18"/>
<text text-anchor="middle" x="79.1" y="-174.3" font-family="Times,serif" font-size="14.00">Head(3)</text>
</g>
<!-- left -->
<g id="node2" class="node">
<title>left</title>
<ellipse fill="none" stroke="black" cx="35.1" cy="-105" rx="35.19" ry="18"/>
<text text-anchor="middle" x="35.1" y="-101.3" font-family="Times,serif" font-size="14.00">Tail(2)</text>
</g>
<!-- head&#45;&gt;left -->
<g id="edge1" class="edge">
<title>head&#45;&gt;left</title>
<path fill="none" stroke="black" d="M68.67,-160.17C63.44,-151.74 57,-141.34 51.16,-131.92"/>
<polygon fill="black" stroke="black" points="54.19,-130.16 45.94,-123.5 48.24,-133.85 54.19,-130.16"/>
</g>
<!-- right -->
<g id="node3" class="node">
<title>right</title>
<ellipse fill="none" stroke="black" cx="123.1" cy="-105" rx="35.19" ry="18"/>
<text text-anchor="middle" x="123.1" y="-101.3" font-family="Times,serif" font-size="14.00">Tail(1)</text>
</g>
<!-- head&#45;&gt;right -->
<g id="edge2" class="edge">
<title>head&#45;&gt;right</title>
<path fill="none" stroke="black" d="M89.52,-160.17C94.75,-151.74 101.19,-141.34 107.03,-131.92"/>
<polygon fill="black" stroke="black" points="109.96,-133.85 112.25,-123.5 104.01,-130.16 109.96,-133.85"/>
</g>
<!-- cat -->
<g id="node4" class="node">
<title>cat</title>
<ellipse fill="none" stroke="black" cx="78.1" cy="-18" rx="28.7" ry="18"/>
<text text-anchor="middle" x="78.1" y="-14.3" font-family="Times,serif" font-size="14.00">Cat()</text>
</g>
<!-- left&#45;&gt;cat -->
<g id="edge3" class="edge">
<title>left&#45;&gt;cat</title>
<path fill="none" stroke="black" d="M41.43,-87.02C45.29,-77.19 50.54,-64.69 56.1,-54 57.7,-50.92 59.48,-47.75 61.32,-44.63"/>
<polygon fill="black" stroke="black" points="64.17,-46.69 66.44,-36.34 58.21,-43.02 64.17,-46.69"/>
<text text-anchor="middle" x="75.1" y="-57.8" font-family="Times,serif" font-size="14.00">second</text>
</g>
<!-- right&#45;&gt;cat -->
<g id="edge4" class="edge">
<title>right&#45;&gt;cat</title>
<path fill="none" stroke="black" d="M114.21,-87.21C107.88,-75.25 99.25,-58.96 92.02,-45.29"/>
<polygon fill="black" stroke="black" points="95.3,-44.01 87.52,-36.81 89.11,-47.28 95.3,-44.01"/>
<text text-anchor="middle" x="114.1" y="-57.8" font-family="Times,serif" font-size="14.00">first</text>
</g>
</g>
</svg>
