<?xml version="1.0" encoding="UTF-8" standalone="no"?>
<!DOCTYPE svg PUBLIC "-//W3C//DTD SVG 1.1//EN"
 "http://www.w3.org/Graphics/SVG/1.1/DTD/svg11.dtd">
<!-- Generated by graphviz version 8.0.5 (20230430.1635)
 -->
<!-- Pages: 1 -->
<svg width="778pt" height="538pt"
 viewBox="0.00 0.00 778.00 538.00" xmlns="http://www.w3.org/2000/svg" xmlns:xlink="http://www.w3.org/1999/xlink">
<g id="graph0" class="graph" transform="scale(1 1) rotate(0) translate(4 534)">
<polygon fill="white" stroke="none" points="-4,4 -4,-534 774,-534 774,4 -4,4"/>
<!-- oop -->
<g id="node1" class="node">
<title>oop</title>
<polygon fill="aquamarine" stroke="aquamarine" points="167.38,-217 102.62,-217 102.62,-181 167.38,-181 167.38,-217"/>
<text text-anchor="start" x="110.62" y="-201.9" font-family="Verdana" font-size="8.00">Objects and</text>
<text text-anchor="start" x="120" y="-191.4" font-family="Verdana" font-size="8.00">Classes</text>
</g>
<!-- interp -->
<g id="node6" class="node">
<title>interp</title>
<polygon fill="cornsilk" stroke="cornsilk" points="264,-167 203.75,-167 203.75,-131 264,-131 264,-167"/>
<text text-anchor="start" x="228.62" y="-151.9" font-family="Verdana" font-size="8.00">An</text>
<text text-anchor="start" x="211.75" y="-141.4" font-family="Verdana" font-size="8.00">Interpreter</text>
</g>
<!-- oop&#45;&gt;interp -->
<g id="edge3" class="edge">
<title>oop&#45;&gt;interp</title>
<path fill="none" stroke="black" d="M167.72,-182.63C176.06,-178.32 185.15,-173.63 193.83,-169.15"/>
<polygon fill="black" stroke="black" points="195.1,-171.92 202.38,-164.22 191.89,-165.7 195.1,-171.92"/>
</g>
<!-- mock -->
<g id="node8" class="node">
<title>mock</title>
<polygon fill="cornsilk" stroke="cornsilk" points="465.88,-223 407.12,-223 407.12,-173 465.88,-173 465.88,-223"/>
<text text-anchor="start" x="422.62" y="-211.4" font-family="Verdana" font-size="8.00">Mocks,</text>
<text text-anchor="start" x="417" y="-200.9" font-family="Verdana" font-size="8.00">Protocols,</text>
<text text-anchor="start" x="429" y="-190.4" font-family="Verdana" font-size="8.00">and</text>
<text text-anchor="start" x="415.12" y="-179.9" font-family="Verdana" font-size="8.00">Decorators</text>
</g>
<!-- oop&#45;&gt;mock -->
<g id="edge6" class="edge">
<title>oop&#45;&gt;mock</title>
<path fill="none" stroke="black" d="M167.77,-198.89C222.79,-198.71 335.66,-198.33 395.77,-198.13"/>
<polygon fill="black" stroke="black" points="395.72,-201.63 405.71,-198.1 395.7,-194.63 395.72,-201.63"/>
</g>
<!-- dup -->
<g id="node2" class="node">
<title>dup</title>
<polygon fill="aquamarine" stroke="aquamarine" points="463.5,-349.75 409.5,-349.75 409.5,-310.25 463.5,-310.25 463.5,-349.75"/>
<text text-anchor="start" x="421.5" y="-338.15" font-family="Verdana" font-size="8.00">Finding</text>
<text text-anchor="start" x="417.75" y="-327.65" font-family="Verdana" font-size="8.00">Duplicate</text>
<text text-anchor="start" x="427.5" y="-317.15" font-family="Verdana" font-size="8.00">Files</text>
</g>
<!-- archive -->
<g id="node9" class="node">
<title>archive</title>
<polygon fill="cornsilk" stroke="cornsilk" points="562,-348 508,-348 508,-312 562,-312 562,-348"/>
<text text-anchor="start" x="524.12" y="-332.9" font-family="Verdana" font-size="8.00">A File</text>
<text text-anchor="start" x="518.12" y="-322.4" font-family="Verdana" font-size="8.00">Archiver</text>
</g>
<!-- dup&#45;&gt;archive -->
<g id="edge7" class="edge">
<title>dup&#45;&gt;archive</title>
<path fill="none" stroke="black" d="M463.87,-330C474.08,-330 485.95,-330 496.99,-330"/>
<polygon fill="black" stroke="black" points="496.66,-333.5 506.66,-330 496.66,-326.5 496.66,-333.5"/>
</g>
<!-- glob -->
<g id="node3" class="node">
<title>glob</title>
<polygon fill="aquamarine" stroke="aquamarine" points="60.12,-368 6.12,-368 6.12,-332 60.12,-332 60.12,-368"/>
<text text-anchor="start" x="14.75" y="-352.9" font-family="Verdana" font-size="8.00">Matching</text>
<text text-anchor="start" x="16.62" y="-342.4" font-family="Verdana" font-size="8.00">Patterns</text>
</g>
<!-- parse -->
<g id="node4" class="node">
<title>parse</title>
<polygon fill="cornsilk" stroke="cornsilk" points="167.75,-336 102.25,-336 102.25,-300 167.75,-300 167.75,-336"/>
<text text-anchor="start" x="110.25" y="-315.65" font-family="Verdana" font-size="8.00">Parsing Text</text>
</g>
<!-- glob&#45;&gt;parse -->
<g id="edge1" class="edge">
<title>glob&#45;&gt;parse</title>
<path fill="none" stroke="black" d="M60.37,-341.59C69.9,-338.54 80.94,-335 91.52,-331.61"/>
<polygon fill="black" stroke="black" points="92.42,-334.68 100.87,-328.29 90.28,-328.01 92.42,-334.68"/>
</g>
<!-- glob&#45;&gt;archive -->
<g id="edge8" class="edge">
<title>glob&#45;&gt;archive</title>
<path fill="none" stroke="black" d="M60.58,-357.24C98.44,-366.96 170.44,-383 232.88,-383 232.88,-383 232.88,-383 335.25,-383 395.43,-383 410.97,-376.64 468.5,-359 478.28,-356 488.54,-351.94 497.95,-347.8"/>
<polygon fill="black" stroke="black" points="499.13,-350.66 506.78,-343.33 496.23,-344.28 499.13,-350.66"/>
</g>
<!-- check -->
<g id="node10" class="node">
<title>check</title>
<polygon fill="cornsilk" stroke="cornsilk" points="260.88,-326 206.88,-326 206.88,-290 260.88,-290 260.88,-326"/>
<text text-anchor="start" x="215.88" y="-310.9" font-family="Verdana" font-size="8.00">An HTML</text>
<text text-anchor="start" x="216.25" y="-300.4" font-family="Verdana" font-size="8.00">Validator</text>
</g>
<!-- parse&#45;&gt;check -->
<g id="edge10" class="edge">
<title>parse&#45;&gt;check</title>
<path fill="none" stroke="black" d="M167.99,-314.7C176.84,-313.78 186.53,-312.78 195.66,-311.84"/>
<polygon fill="black" stroke="black" points="195.83,-315.24 205.41,-310.73 195.11,-308.28 195.83,-315.24"/>
</g>
<!-- test -->
<g id="node5" class="node">
<title>test</title>
<polygon fill="aquamarine" stroke="aquamarine" points="162,-163 108,-163 108,-127 162,-127 162,-163"/>
<text text-anchor="start" x="118.12" y="-147.9" font-family="Verdana" font-size="8.00">Running</text>
<text text-anchor="start" x="124.5" y="-137.4" font-family="Verdana" font-size="8.00">Tests</text>
</g>
<!-- test&#45;&gt;interp -->
<g id="edge2" class="edge">
<title>test&#45;&gt;interp</title>
<path fill="none" stroke="black" d="M162.47,-146.09C171.77,-146.48 182.44,-146.92 192.61,-147.34"/>
<polygon fill="black" stroke="black" points="192.23,-150.87 202.37,-147.78 192.52,-143.87 192.23,-150.87"/>
</g>
<!-- func -->
<g id="node7" class="node">
<title>func</title>
<polygon fill="cornsilk" stroke="cornsilk" points="368.5,-171 300,-171 300,-135 368.5,-135 368.5,-171"/>
<text text-anchor="start" x="314.75" y="-155.9" font-family="Verdana" font-size="8.00">Functions</text>
<text text-anchor="start" x="308" y="-145.4" font-family="Verdana" font-size="8.00">and Closures</text>
</g>
<!-- interp&#45;&gt;func -->
<g id="edge4" class="edge">
<title>interp&#45;&gt;func</title>
<path fill="none" stroke="black" d="M264.39,-150.2C272.1,-150.51 280.59,-150.86 288.89,-151.2"/>
<polygon fill="black" stroke="black" points="288.48,-154.72 298.61,-151.63 288.76,-147.73 288.48,-154.72"/>
</g>
<!-- template -->
<g id="node11" class="node">
<title>template</title>
<polygon fill="cornsilk" stroke="cornsilk" points="364.38,-263 304.12,-263 304.12,-227 364.38,-227 364.38,-263"/>
<text text-anchor="start" x="312.12" y="-247.9" font-family="Verdana" font-size="8.00">A Template</text>
<text text-anchor="start" x="315.12" y="-237.4" font-family="Verdana" font-size="8.00">Expander</text>
</g>
<!-- interp&#45;&gt;template -->
<g id="edge12" class="edge">
<title>interp&#45;&gt;template</title>
<path fill="none" stroke="black" d="M253.38,-167.06C268.4,-181.71 289.77,-202.57 306.63,-219.02"/>
<polygon fill="black" stroke="black" points="303.89,-221.22 313.49,-225.7 308.78,-216.21 303.89,-221.22"/>
</g>
<!-- persist -->
<g id="node15" class="node">
<title>persist</title>
<polygon fill="cornsilk" stroke="cornsilk" points="365.12,-117 303.38,-117 303.38,-81 365.12,-81 365.12,-117"/>
<text text-anchor="start" x="321.12" y="-101.9" font-family="Verdana" font-size="8.00">Object</text>
<text text-anchor="start" x="311.38" y="-91.4" font-family="Verdana" font-size="8.00">Persistence</text>
</g>
<!-- interp&#45;&gt;persist -->
<g id="edge16" class="edge">
<title>interp&#45;&gt;persist</title>
<path fill="none" stroke="black" d="M264.39,-134C273.56,-129.34 283.82,-124.12 293.56,-119.17"/>
<polygon fill="black" stroke="black" points="294.75,-121.99 302.07,-114.34 291.57,-115.75 294.75,-121.99"/>
</g>
<!-- vm -->
<g id="node24" class="node">
<title>vm</title>
<polygon fill="cornsilk" stroke="cornsilk" points="562,-90 508,-90 508,-54 562,-54 562,-90"/>
<text text-anchor="start" x="517.75" y="-74.9" font-family="Verdana" font-size="8.00">A Virtual</text>
<text text-anchor="start" x="518.5" y="-64.4" font-family="Verdana" font-size="8.00">Machine</text>
</g>
<!-- interp&#45;&gt;vm -->
<g id="edge25" class="edge">
<title>interp&#45;&gt;vm</title>
<path fill="none" stroke="black" d="M244.17,-130.65C254.79,-111.94 274.11,-84.01 300,-72 364.1,-42.26 449.13,-52.94 497.05,-62.83"/>
<polygon fill="black" stroke="black" points="496.03,-66.41 506.55,-65.11 497.52,-59.57 496.03,-66.41"/>
</g>
<!-- func&#45;&gt;mock -->
<g id="edge5" class="edge">
<title>func&#45;&gt;mock</title>
<path fill="none" stroke="black" d="M368.91,-168.11C377.93,-172.16 387.76,-176.57 397.02,-180.73"/>
<polygon fill="black" stroke="black" points="395.23,-184.21 405.78,-185.11 398.1,-177.82 395.23,-184.21"/>
</g>
<!-- mock&#45;&gt;archive -->
<g id="edge9" class="edge">
<title>mock&#45;&gt;archive</title>
<path fill="none" stroke="black" d="M456.11,-223.45C472.84,-246.33 497.33,-279.84 514.37,-303.14"/>
<polygon fill="black" stroke="black" points="511.99,-304.83 520.72,-310.84 517.65,-300.7 511.99,-304.83"/>
</g>
<!-- db -->
<g id="node17" class="node">
<title>db</title>
<polygon fill="pink" stroke="pink" points="565.5,-163 504.5,-163 504.5,-127 565.5,-127 565.5,-163"/>
<text text-anchor="start" x="512.5" y="-142.65" font-family="Verdana" font-size="8.00">A Database</text>
</g>
<!-- mock&#45;&gt;db -->
<g id="edge20" class="edge">
<title>mock&#45;&gt;db</title>
<path fill="none" stroke="black" d="M466.19,-182.24C475.19,-177.3 485.29,-171.76 494.88,-166.49"/>
<polygon fill="black" stroke="black" points="496.17,-169.22 503.25,-161.34 492.8,-163.09 496.17,-169.22"/>
</g>
<!-- ftp -->
<g id="node20" class="node">
<title>ftp</title>
<polygon fill="cornsilk" stroke="cornsilk" points="667,-348 601.5,-348 601.5,-312 667,-312 667,-348"/>
<text text-anchor="start" x="609.5" y="-332.9" font-family="Verdana" font-size="8.00">Transferring</text>
<text text-anchor="start" x="625.25" y="-322.4" font-family="Verdana" font-size="8.00">Files</text>
</g>
<!-- archive&#45;&gt;ftp -->
<g id="edge21" class="edge">
<title>archive&#45;&gt;ftp</title>
<path fill="none" stroke="black" d="M562.32,-330C570.89,-330 580.64,-330 590.11,-330"/>
<polygon fill="black" stroke="black" points="590.01,-333.5 600.01,-330 590.01,-326.5 590.01,-333.5"/>
</g>
<!-- check&#45;&gt;template -->
<g id="edge11" class="edge">
<title>check&#45;&gt;template</title>
<path fill="none" stroke="black" d="M261.24,-291.12C271.75,-284.39 284.04,-276.51 295.47,-269.2"/>
<polygon fill="black" stroke="black" points="296.86,-271.82 303.39,-263.48 293.08,-265.93 296.86,-271.82"/>
</g>
<!-- lint -->
<g id="node12" class="node">
<title>lint</title>
<polygon fill="pink" stroke="pink" points="361.25,-317 307.25,-317 307.25,-281 361.25,-281 361.25,-317"/>
<text text-anchor="start" x="320.38" y="-301.9" font-family="Verdana" font-size="8.00">A Code</text>
<text text-anchor="start" x="322.62" y="-291.4" font-family="Verdana" font-size="8.00">Linter</text>
</g>
<!-- check&#45;&gt;lint -->
<g id="edge13" class="edge">
<title>check&#45;&gt;lint</title>
<path fill="none" stroke="black" d="M261.24,-305.59C271.93,-304.61 284.48,-303.46 296.08,-302.4"/>
<polygon fill="black" stroke="black" points="296.18,-305.82 305.81,-301.42 295.54,-298.84 296.18,-305.82"/>
</g>
<!-- layout -->
<g id="node13" class="node">
<title>layout</title>
<polygon fill="pink" stroke="pink" points="468.5,-287 404.5,-287 404.5,-251 468.5,-251 468.5,-287"/>
<text text-anchor="start" x="412.5" y="-266.65" font-family="Verdana" font-size="8.00">Page Layout</text>
</g>
<!-- check&#45;&gt;layout -->
<g id="edge14" class="edge">
<title>check&#45;&gt;layout</title>
<path fill="none" stroke="black" d="M261.3,-318.79C288.85,-328.41 332.91,-339.09 368.5,-326 377.75,-322.6 394.71,-308.13 409.25,-294.63"/>
<polygon fill="black" stroke="black" points="411.14,-297.71 416.01,-288.3 406.34,-292.62 411.14,-297.71"/>
</g>
<!-- template&#45;&gt;layout -->
<g id="edge15" class="edge">
<title>template&#45;&gt;layout</title>
<path fill="none" stroke="black" d="M364.79,-252.07C373.77,-254.22 383.81,-256.63 393.45,-258.93"/>
<polygon fill="black" stroke="black" points="392.54,-262.55 403.08,-261.48 394.17,-255.75 392.54,-262.55"/>
</g>
<!-- perf -->
<g id="node14" class="node">
<title>perf</title>
<polygon fill="aquamarine" stroke="aquamarine" points="66.25,-422 0,-422 0,-386 66.25,-386 66.25,-422"/>
<text text-anchor="start" x="8" y="-406.9" font-family="Verdana" font-size="8.00">Performance</text>
<text text-anchor="start" x="16.62" y="-396.4" font-family="Verdana" font-size="8.00">Profiling</text>
</g>
<!-- binary -->
<g id="node16" class="node">
<title>binary</title>
<polygon fill="cornsilk" stroke="cornsilk" points="467.75,-117 405.25,-117 405.25,-81 467.75,-81 467.75,-117"/>
<text text-anchor="start" x="413.25" y="-96.65" font-family="Verdana" font-size="8.00">Binary Data</text>
</g>
<!-- persist&#45;&gt;binary -->
<g id="edge17" class="edge">
<title>persist&#45;&gt;binary</title>
<path fill="none" stroke="black" d="M365.6,-99C374.55,-99 384.5,-99 394.01,-99"/>
<polygon fill="black" stroke="black" points="393.91,-102.5 403.91,-99 393.91,-95.5 393.91,-102.5"/>
</g>
<!-- persist&#45;&gt;db -->
<g id="edge18" class="edge">
<title>persist&#45;&gt;db</title>
<path fill="none" stroke="black" d="M365.44,-112.48C377.4,-117.37 391.4,-122.53 404.5,-126 433.68,-133.72 467.45,-138.55 493.18,-141.4"/>
<polygon fill="black" stroke="black" points="492.73,-144.98 503.04,-142.54 493.46,-138.02 492.73,-144.98"/>
</g>
<!-- binary&#45;&gt;db -->
<g id="edge19" class="edge">
<title>binary&#45;&gt;db</title>
<path fill="none" stroke="black" d="M468.03,-113.55C476.46,-117.57 485.72,-121.99 494.57,-126.21"/>
<polygon fill="black" stroke="black" points="492.79,-129.71 503.33,-130.85 495.8,-123.39 492.79,-129.71"/>
</g>
<!-- binary&#45;&gt;vm -->
<g id="edge24" class="edge">
<title>binary&#45;&gt;vm</title>
<path fill="none" stroke="black" d="M468.03,-90.46C477.26,-87.88 487.49,-85.01 497.09,-82.33"/>
<polygon fill="black" stroke="black" points="497.88,-85.46 506.57,-79.4 495.99,-78.72 497.88,-85.46"/>
</g>
<!-- build -->
<g id="node18" class="node">
<title>build</title>
<polygon fill="aquamarine" stroke="aquamarine" points="60.12,-476 6.12,-476 6.12,-440 60.12,-440 60.12,-476"/>
<text text-anchor="start" x="18.88" y="-460.9" font-family="Verdana" font-size="8.00">A Build</text>
<text text-anchor="start" x="15.88" y="-450.4" font-family="Verdana" font-size="8.00">Manager</text>
</g>
<!-- pack -->
<g id="node19" class="node">
<title>pack</title>
<polygon fill="aquamarine" stroke="aquamarine" points="61.38,-530 4.88,-530 4.88,-494 61.38,-494 61.38,-530"/>
<text text-anchor="start" x="12.88" y="-514.9" font-family="Verdana" font-size="8.00">A Package</text>
<text text-anchor="start" x="15.88" y="-504.4" font-family="Verdana" font-size="8.00">Manager</text>
</g>
<!-- http -->
<g id="node21" class="node">
<title>http</title>
<polygon fill="pink" stroke="pink" points="770,-348 703,-348 703,-312 770,-312 770,-348"/>
<text text-anchor="start" x="711" y="-332.9" font-family="Verdana" font-size="8.00">Serving Web</text>
<text text-anchor="start" x="724.88" y="-322.4" font-family="Verdana" font-size="8.00">Pages</text>
</g>
<!-- ftp&#45;&gt;http -->
<g id="edge22" class="edge">
<title>ftp&#45;&gt;http</title>
<path fill="none" stroke="black" d="M667.25,-330C675.13,-330 683.72,-330 692.05,-330"/>
<polygon fill="black" stroke="black" points="691.78,-333.5 701.78,-330 691.78,-326.5 691.78,-333.5"/>
</g>
<!-- viewer -->
<g id="node22" class="node">
<title>viewer</title>
<polygon fill="aquamarine" stroke="aquamarine" points="562,-36 508,-36 508,0 562,0 562,-36"/>
<text text-anchor="start" x="524.12" y="-20.9" font-family="Verdana" font-size="8.00">A File</text>
<text text-anchor="start" x="521.5" y="-10.4" font-family="Verdana" font-size="8.00">Viewer</text>
</g>
<!-- undo -->
<g id="node23" class="node">
<title>undo</title>
<polygon fill="pink" stroke="pink" points="661.75,-36 606.75,-36 606.75,0 661.75,0 661.75,-36"/>
<text text-anchor="start" x="614.75" y="-20.9" font-family="Verdana" font-size="8.00">Undo and</text>
<text text-anchor="start" x="624.5" y="-10.4" font-family="Verdana" font-size="8.00">Redo</text>
</g>
<!-- viewer&#45;&gt;undo -->
<g id="edge23" class="edge">
<title>viewer&#45;&gt;undo</title>
<path fill="none" stroke="black" d="M562.32,-18C572.61,-18 584.61,-18 595.78,-18"/>
<polygon fill="black" stroke="black" points="595.57,-21.5 605.57,-18 595.57,-14.5 595.57,-21.5"/>
</g>
<!-- debugger -->
<g id="node25" class="node">
<title>debugger</title>
<polygon fill="pink" stroke="pink" points="666.25,-90 602.25,-90 602.25,-54 666.25,-54 666.25,-90"/>
<text text-anchor="start" x="610.25" y="-69.65" font-family="Verdana" font-size="8.00">A Debugger</text>
</g>
<!-- viewer&#45;&gt;debugger -->
<g id="edge26" class="edge">
<title>viewer&#45;&gt;debugger</title>
<path fill="none" stroke="black" d="M562.32,-32.61C571.61,-37.77 582.29,-43.7 592.5,-49.37"/>
<polygon fill="black" stroke="black" points="590.63,-52.89 601.08,-54.69 594.03,-46.78 590.63,-52.89"/>
</g>
<!-- vm&#45;&gt;debugger -->
<g id="edge27" class="edge">
<title>vm&#45;&gt;debugger</title>
<path fill="none" stroke="black" d="M562.32,-72C571.23,-72 581.41,-72 591.23,-72"/>
<polygon fill="black" stroke="black" points="591.08,-75.5 601.08,-72 591.08,-68.5 591.08,-75.5"/>
</g>
</g>
</svg>
