<?xml version="1.0" encoding="UTF-8" standalone="no"?>
<!DOCTYPE svg PUBLIC "-//W3C//DTD SVG 1.1//EN"
 "http://www.w3.org/Graphics/SVG/1.1/DTD/svg11.dtd">
<!-- Generated by graphviz version 6.0.1 (20220911.1526)
 -->
<!-- Pages: 1 -->
<svg width="784pt" height="548pt"
 viewBox="0.00 0.00 784.00 548.00" xmlns="http://www.w3.org/2000/svg" xmlns:xlink="http://www.w3.org/1999/xlink">
<g id="graph0" class="graph" transform="scale(1 1) rotate(0) translate(4 544)">
<polygon fill="white" stroke="none" points="-4,4 -4,-544 780,-544 780,4 -4,4"/>
<!-- oop -->
<g id="node1" class="node">
<title>oop</title>
<polygon fill="aquamarine" stroke="aquamarine" points="168.5,-217 103.5,-217 103.5,-181 168.5,-181 168.5,-217"/>
<text text-anchor="start" x="111.5" y="-201.6" font-family="Verdana" font-size="8.00">Objects and</text>
<text text-anchor="start" x="120.5" y="-192.6" font-family="Verdana" font-size="8.00">Classes</text>
</g>
<!-- interp -->
<g id="node6" class="node">
<title>interp</title>
<polygon fill="cornsilk" stroke="cornsilk" points="266,-167 205,-167 205,-131 266,-131 266,-167"/>
<text text-anchor="start" x="230" y="-151.6" font-family="Verdana" font-size="8.00">An</text>
<text text-anchor="start" x="213" y="-142.6" font-family="Verdana" font-size="8.00">Interpreter</text>
</g>
<!-- oop&#45;&gt;interp -->
<g id="edge3" class="edge">
<title>oop&#45;&gt;interp</title>
<path fill="none" stroke="black" d="M168.66,-182.77C177.32,-178.32 186.81,-173.45 195.83,-168.83"/>
<polygon fill="black" stroke="black" points="197.69,-171.81 204.99,-164.13 194.49,-165.58 197.69,-171.81"/>
</g>
<!-- mock -->
<g id="node8" class="node">
<title>mock</title>
<polygon fill="cornsilk" stroke="cornsilk" points="469,-219 410,-219 410,-175 469,-175 469,-219"/>
<text text-anchor="start" x="425.5" y="-208.6" font-family="Verdana" font-size="8.00">Mocks,</text>
<text text-anchor="start" x="419.5" y="-199.6" font-family="Verdana" font-size="8.00">Protocols,</text>
<text text-anchor="start" x="431.5" y="-190.6" font-family="Verdana" font-size="8.00">and</text>
<text text-anchor="start" x="418" y="-181.6" font-family="Verdana" font-size="8.00">Decorators</text>
</g>
<!-- oop&#45;&gt;mock -->
<g id="edge6" class="edge">
<title>oop&#45;&gt;mock</title>
<path fill="none" stroke="black" d="M168.7,-198.79C224.32,-198.42 339.32,-197.66 399.64,-197.26"/>
<polygon fill="black" stroke="black" points="399.91,-200.76 409.89,-197.19 399.86,-193.76 399.91,-200.76"/>
</g>
<!-- dup -->
<g id="node2" class="node">
<title>dup</title>
<polygon fill="aquamarine" stroke="aquamarine" points="466.5,-348 412.5,-348 412.5,-312 466.5,-312 466.5,-348"/>
<text text-anchor="start" x="424" y="-337.1" font-family="Verdana" font-size="8.00">Finding</text>
<text text-anchor="start" x="420.5" y="-328.1" font-family="Verdana" font-size="8.00">Duplicate</text>
<text text-anchor="start" x="430" y="-319.1" font-family="Verdana" font-size="8.00">Files</text>
</g>
<!-- archive -->
<g id="node9" class="node">
<title>archive</title>
<polygon fill="cornsilk" stroke="cornsilk" points="566,-348 512,-348 512,-312 566,-312 566,-348"/>
<text text-anchor="start" x="528" y="-332.6" font-family="Verdana" font-size="8.00">A File</text>
<text text-anchor="start" x="522" y="-323.6" font-family="Verdana" font-size="8.00">Archiver</text>
</g>
<!-- dup&#45;&gt;archive -->
<g id="edge7" class="edge">
<title>dup&#45;&gt;archive</title>
<path fill="none" stroke="black" d="M466.63,-330C477.34,-330 489.92,-330 501.51,-330"/>
<polygon fill="black" stroke="black" points="501.8,-333.5 511.8,-330 501.8,-326.5 501.8,-333.5"/>
</g>
<!-- glob -->
<g id="node3" class="node">
<title>glob</title>
<polygon fill="aquamarine" stroke="aquamarine" points="60.5,-378 6.5,-378 6.5,-342 60.5,-342 60.5,-378"/>
<text text-anchor="start" x="15" y="-362.6" font-family="Verdana" font-size="8.00">Matching</text>
<text text-anchor="start" x="16.5" y="-353.6" font-family="Verdana" font-size="8.00">Patterns</text>
</g>
<!-- parse -->
<g id="node4" class="node">
<title>parse</title>
<polygon fill="cornsilk" stroke="cornsilk" points="169,-355 103,-355 103,-319 169,-319 169,-355"/>
<text text-anchor="start" x="111" y="-335.1" font-family="Verdana" font-size="8.00">Parsing Text</text>
</g>
<!-- glob&#45;&gt;parse -->
<g id="edge1" class="edge">
<title>glob&#45;&gt;parse</title>
<path fill="none" stroke="black" d="M60.64,-354.02C70.53,-351.75 82.04,-349.12 93.02,-346.61"/>
<polygon fill="black" stroke="black" points="93.92,-349.99 102.88,-344.35 92.36,-343.17 93.92,-349.99"/>
</g>
<!-- glob&#45;&gt;archive -->
<g id="edge8" class="edge">
<title>glob&#45;&gt;archive</title>
<path fill="none" stroke="black" d="M60.6,-364.93C98.68,-371.69 171.76,-383 234.5,-383 234.5,-383 234.5,-383 337.5,-383 398.38,-383 413.65,-374.39 472,-357 482.06,-354 492.69,-350.03 502.41,-346.06"/>
<polygon fill="black" stroke="black" points="503.91,-349.22 511.78,-342.12 501.2,-342.77 503.91,-349.22"/>
</g>
<!-- check -->
<g id="node10" class="node">
<title>check</title>
<polygon fill="cornsilk" stroke="cornsilk" points="262.5,-336 208.5,-336 208.5,-300 262.5,-300 262.5,-336"/>
<text text-anchor="start" x="217" y="-320.6" font-family="Verdana" font-size="8.00">An HTML</text>
<text text-anchor="start" x="217.5" y="-311.6" font-family="Verdana" font-size="8.00">Validator</text>
</g>
<!-- parse&#45;&gt;check -->
<g id="edge10" class="edge">
<title>parse&#45;&gt;check</title>
<path fill="none" stroke="black" d="M169.2,-330.73C178.48,-328.92 188.68,-326.93 198.2,-325.07"/>
<polygon fill="black" stroke="black" points="199.04,-328.48 208.19,-323.13 197.7,-321.61 199.04,-328.48"/>
</g>
<!-- test -->
<g id="node5" class="node">
<title>test</title>
<polygon fill="aquamarine" stroke="aquamarine" points="163,-163 109,-163 109,-127 163,-127 163,-163"/>
<text text-anchor="start" x="119" y="-147.6" font-family="Verdana" font-size="8.00">Running</text>
<text text-anchor="start" x="125" y="-138.6" font-family="Verdana" font-size="8.00">Tests</text>
</g>
<!-- test&#45;&gt;interp -->
<g id="edge2" class="edge">
<title>test&#45;&gt;interp</title>
<path fill="none" stroke="black" d="M163.13,-146.07C172.87,-146.47 184.17,-146.94 194.86,-147.37"/>
<polygon fill="black" stroke="black" points="194.72,-150.87 204.85,-147.78 195.01,-143.88 194.72,-150.87"/>
</g>
<!-- func -->
<g id="node7" class="node">
<title>func</title>
<polygon fill="cornsilk" stroke="cornsilk" points="371,-171 302,-171 302,-135 371,-135 371,-171"/>
<text text-anchor="start" x="316.5" y="-155.6" font-family="Verdana" font-size="8.00">Functions</text>
<text text-anchor="start" x="310" y="-146.6" font-family="Verdana" font-size="8.00">and Closures</text>
</g>
<!-- interp&#45;&gt;func -->
<g id="edge4" class="edge">
<title>interp&#45;&gt;func</title>
<path fill="none" stroke="black" d="M266.2,-150.2C274.14,-150.52 282.89,-150.87 291.42,-151.22"/>
<polygon fill="black" stroke="black" points="291.52,-154.73 301.65,-151.63 291.8,-147.73 291.52,-154.73"/>
</g>
<!-- template -->
<g id="node11" class="node">
<title>template</title>
<polygon fill="cornsilk" stroke="cornsilk" points="367,-263 306,-263 306,-227 367,-227 367,-263"/>
<text text-anchor="start" x="314" y="-247.6" font-family="Verdana" font-size="8.00">A Template</text>
<text text-anchor="start" x="317" y="-238.6" font-family="Verdana" font-size="8.00">Expander</text>
</g>
<!-- interp&#45;&gt;template -->
<g id="edge12" class="edge">
<title>interp&#45;&gt;template</title>
<path fill="none" stroke="black" d="M255.12,-167.06C270.37,-181.85 292.14,-202.95 309.17,-219.47"/>
<polygon fill="black" stroke="black" points="307.01,-222.25 316.63,-226.7 311.88,-217.22 307.01,-222.25"/>
</g>
<!-- persist -->
<g id="node15" class="node">
<title>persist</title>
<polygon fill="cornsilk" stroke="cornsilk" points="367.5,-117 305.5,-117 305.5,-81 367.5,-81 367.5,-117"/>
<text text-anchor="start" x="323" y="-101.6" font-family="Verdana" font-size="8.00">Object</text>
<text text-anchor="start" x="313.5" y="-92.6" font-family="Verdana" font-size="8.00">Persistence</text>
</g>
<!-- interp&#45;&gt;persist -->
<g id="edge16" class="edge">
<title>interp&#45;&gt;persist</title>
<path fill="none" stroke="black" d="M266.2,-134C275.71,-129.2 286.38,-123.81 296.45,-118.72"/>
<polygon fill="black" stroke="black" points="298.13,-121.8 305.48,-114.16 294.97,-115.55 298.13,-121.8"/>
</g>
<!-- vm -->
<g id="node24" class="node">
<title>vm</title>
<polygon fill="cornsilk" stroke="cornsilk" points="566,-90 512,-90 512,-54 566,-54 566,-90"/>
<text text-anchor="start" x="521.5" y="-74.6" font-family="Verdana" font-size="8.00">A Virtual</text>
<text text-anchor="start" x="522" y="-65.6" font-family="Verdana" font-size="8.00">Machine</text>
</g>
<!-- interp&#45;&gt;vm -->
<g id="edge24" class="edge">
<title>interp&#45;&gt;vm</title>
<path fill="none" stroke="black" d="M245.68,-130.99C256.34,-112.28 275.87,-84.08 302,-72 367.14,-41.89 453.62,-52.98 501.74,-62.99"/>
<polygon fill="black" stroke="black" points="501.18,-66.45 511.69,-65.16 502.67,-59.61 501.18,-66.45"/>
</g>
<!-- func&#45;&gt;mock -->
<g id="edge5" class="edge">
<title>func&#45;&gt;mock</title>
<path fill="none" stroke="black" d="M371.13,-167.65C380.51,-171.74 390.77,-176.21 400.39,-180.4"/>
<polygon fill="black" stroke="black" points="399.18,-183.69 409.75,-184.47 401.98,-177.27 399.18,-183.69"/>
</g>
<!-- mock&#45;&gt;archive -->
<g id="edge9" class="edge">
<title>mock&#45;&gt;archive</title>
<path fill="none" stroke="black" d="M456.82,-219.26C473.89,-242.55 500.67,-279.07 518.76,-303.75"/>
<polygon fill="black" stroke="black" points="516.03,-305.95 524.76,-311.94 521.67,-301.81 516.03,-305.95"/>
</g>
<!-- db -->
<g id="node17" class="node">
<title>db</title>
<polygon fill="pink" stroke="pink" points="570,-163 508,-163 508,-127 570,-127 570,-163"/>
<text text-anchor="start" x="516" y="-143.1" font-family="Verdana" font-size="8.00">A Database</text>
</g>
<!-- mock&#45;&gt;db -->
<g id="edge19" class="edge">
<title>mock&#45;&gt;db</title>
<path fill="none" stroke="black" d="M469.23,-181.68C478.52,-176.73 488.98,-171.14 498.89,-165.86"/>
<polygon fill="black" stroke="black" points="500.61,-168.91 507.78,-161.11 497.31,-162.73 500.61,-168.91"/>
</g>
<!-- ftp -->
<g id="node20" class="node">
<title>ftp</title>
<polygon fill="cornsilk" stroke="cornsilk" points="672,-348 606,-348 606,-312 672,-312 672,-348"/>
<text text-anchor="start" x="614" y="-332.6" font-family="Verdana" font-size="8.00">Transferring</text>
<text text-anchor="start" x="629.5" y="-323.6" font-family="Verdana" font-size="8.00">Files</text>
</g>
<!-- archive&#45;&gt;ftp -->
<g id="edge21" class="edge">
<title>archive&#45;&gt;ftp</title>
<path fill="none" stroke="black" d="M566,-330C575.1,-330 585.55,-330 595.63,-330"/>
<polygon fill="black" stroke="black" points="595.92,-333.5 605.92,-330 595.92,-326.5 595.92,-333.5"/>
</g>
<!-- check&#45;&gt;template -->
<g id="edge11" class="edge">
<title>check&#45;&gt;template</title>
<path fill="none" stroke="black" d="M260.97,-299.96C273.59,-290.65 289.14,-279.18 302.77,-269.13"/>
<polygon fill="black" stroke="black" points="305,-271.84 310.97,-263.09 300.84,-266.21 305,-271.84"/>
</g>
<!-- lint -->
<g id="node12" class="node">
<title>lint</title>
<polygon fill="pink" stroke="pink" points="363.5,-317 309.5,-317 309.5,-281 363.5,-281 363.5,-317"/>
<text text-anchor="start" x="322.5" y="-301.6" font-family="Verdana" font-size="8.00">A Code</text>
<text text-anchor="start" x="324.5" y="-292.6" font-family="Verdana" font-size="8.00">Linter</text>
</g>
<!-- check&#45;&gt;lint -->
<g id="edge13" class="edge">
<title>check&#45;&gt;lint</title>
<path fill="none" stroke="black" d="M262.51,-313.01C273.79,-310.84 287.19,-308.27 299.41,-305.93"/>
<polygon fill="black" stroke="black" points="300.16,-309.35 309.32,-304.02 298.84,-302.47 300.16,-309.35"/>
</g>
<!-- layout -->
<g id="node13" class="node">
<title>layout</title>
<polygon fill="pink" stroke="pink" points="472,-287 407,-287 407,-251 472,-251 472,-287"/>
<text text-anchor="start" x="415" y="-267.1" font-family="Verdana" font-size="8.00">Page Layout</text>
</g>
<!-- check&#45;&gt;layout -->
<g id="edge15" class="edge">
<title>check&#45;&gt;layout</title>
<path fill="none" stroke="black" d="M262.68,-325.59C290.45,-332.27 335.19,-339.1 371,-326 380.45,-322.55 397.93,-307.67 412.73,-293.99"/>
<polygon fill="black" stroke="black" points="415.28,-296.4 420.17,-287 410.49,-291.29 415.28,-296.4"/>
</g>
<!-- template&#45;&gt;layout -->
<g id="edge14" class="edge">
<title>template&#45;&gt;layout</title>
<path fill="none" stroke="black" d="M367.26,-252.07C376.6,-254.29 387.08,-256.78 397.08,-259.16"/>
<polygon fill="black" stroke="black" points="396.31,-262.57 406.85,-261.48 397.93,-255.76 396.31,-262.57"/>
</g>
<!-- perf -->
<g id="node14" class="node">
<title>perf</title>
<polygon fill="aquamarine" stroke="aquamarine" points="67,-432 0,-432 0,-396 67,-396 67,-432"/>
<text text-anchor="start" x="8" y="-416.6" font-family="Verdana" font-size="8.00">Performance</text>
<text text-anchor="start" x="16.5" y="-407.6" font-family="Verdana" font-size="8.00">Profiling</text>
</g>
<!-- binary -->
<g id="node16" class="node">
<title>binary</title>
<polygon fill="cornsilk" stroke="cornsilk" points="471,-117 408,-117 408,-81 471,-81 471,-117"/>
<text text-anchor="start" x="416" y="-97.1" font-family="Verdana" font-size="8.00">Binary Data</text>
</g>
<!-- persist&#45;&gt;binary -->
<g id="edge17" class="edge">
<title>persist&#45;&gt;binary</title>
<path fill="none" stroke="black" d="M367.53,-99C376.94,-99 387.49,-99 397.52,-99"/>
<polygon fill="black" stroke="black" points="397.71,-102.5 407.71,-99 397.71,-95.5 397.71,-102.5"/>
</g>
<!-- persist&#45;&gt;db -->
<g id="edge18" class="edge">
<title>persist&#45;&gt;db</title>
<path fill="none" stroke="black" d="M367.8,-112.49C379.8,-117.38 393.86,-122.54 407,-126 436.89,-133.86 471.52,-138.71 497.67,-141.54"/>
<polygon fill="black" stroke="black" points="497.65,-145.05 507.96,-142.59 498.37,-138.09 497.65,-145.05"/>
</g>
<!-- binary&#45;&gt;db -->
<g id="edge20" class="edge">
<title>binary&#45;&gt;db</title>
<path fill="none" stroke="black" d="M471.08,-113.43C479.79,-117.54 489.39,-122.07 498.54,-126.39"/>
<polygon fill="black" stroke="black" points="497.32,-129.68 507.86,-130.78 500.31,-123.35 497.32,-129.68"/>
</g>
<!-- binary&#45;&gt;vm -->
<g id="edge25" class="edge">
<title>binary&#45;&gt;vm</title>
<path fill="none" stroke="black" d="M471.08,-90.53C480.88,-87.82 491.83,-84.79 501.98,-81.97"/>
<polygon fill="black" stroke="black" points="503.09,-85.3 511.8,-79.26 501.23,-78.55 503.09,-85.3"/>
</g>
<!-- build -->
<g id="node18" class="node">
<title>build</title>
<polygon fill="aquamarine" stroke="aquamarine" points="60.5,-486 6.5,-486 6.5,-450 60.5,-450 60.5,-486"/>
<text text-anchor="start" x="19" y="-470.6" font-family="Verdana" font-size="8.00">A Build</text>
<text text-anchor="start" x="16" y="-461.6" font-family="Verdana" font-size="8.00">Manager</text>
</g>
<!-- pack -->
<g id="node19" class="node">
<title>pack</title>
<polygon fill="aquamarine" stroke="aquamarine" points="62,-540 5,-540 5,-504 62,-504 62,-540"/>
<text text-anchor="start" x="13" y="-524.6" font-family="Verdana" font-size="8.00">A Package</text>
<text text-anchor="start" x="16" y="-515.6" font-family="Verdana" font-size="8.00">Manager</text>
</g>
<!-- http -->
<g id="node21" class="node">
<title>http</title>
<polygon fill="pink" stroke="pink" points="776,-348 708,-348 708,-312 776,-312 776,-348"/>
<text text-anchor="start" x="716" y="-332.6" font-family="Verdana" font-size="8.00">Serving Web</text>
<text text-anchor="start" x="730" y="-323.6" font-family="Verdana" font-size="8.00">Pages</text>
</g>
<!-- ftp&#45;&gt;http -->
<g id="edge22" class="edge">
<title>ftp&#45;&gt;http</title>
<path fill="none" stroke="black" d="M672.23,-330C680.28,-330 689.04,-330 697.53,-330"/>
<polygon fill="black" stroke="black" points="697.68,-333.5 707.68,-330 697.68,-326.5 697.68,-333.5"/>
</g>
<!-- viewer -->
<g id="node22" class="node">
<title>viewer</title>
<polygon fill="aquamarine" stroke="aquamarine" points="566,-36 512,-36 512,0 566,0 566,-36"/>
<text text-anchor="start" x="528" y="-20.6" font-family="Verdana" font-size="8.00">A File</text>
<text text-anchor="start" x="525" y="-11.6" font-family="Verdana" font-size="8.00">Viewer</text>
</g>
<!-- undo -->
<g id="node23" class="node">
<title>undo</title>
<polygon fill="pink" stroke="pink" points="667,-36 611,-36 611,0 667,0 667,-36"/>
<text text-anchor="start" x="619" y="-20.6" font-family="Verdana" font-size="8.00">Undo and</text>
<text text-anchor="start" x="629" y="-11.6" font-family="Verdana" font-size="8.00">Redo</text>
</g>
<!-- viewer&#45;&gt;undo -->
<g id="edge23" class="edge">
<title>viewer&#45;&gt;undo</title>
<path fill="none" stroke="black" d="M566,-18C576.6,-18 589.05,-18 600.58,-18"/>
<polygon fill="black" stroke="black" points="600.85,-21.5 610.85,-18 600.85,-14.5 600.85,-21.5"/>
</g>
<!-- debugger -->
<g id="node25" class="node">
<title>debugger</title>
<polygon fill="pink" stroke="pink" points="671.5,-90 606.5,-90 606.5,-54 671.5,-54 671.5,-90"/>
<text text-anchor="start" x="614.5" y="-70.1" font-family="Verdana" font-size="8.00">A Debugger</text>
</g>
<!-- viewer&#45;&gt;debugger -->
<g id="edge26" class="edge">
<title>viewer&#45;&gt;debugger</title>
<path fill="none" stroke="black" d="M566,-32.33C575.66,-37.65 586.86,-43.82 597.51,-49.69"/>
<polygon fill="black" stroke="black" points="595.83,-52.76 606.27,-54.52 599.2,-46.63 595.83,-52.76"/>
</g>
<!-- vm&#45;&gt;debugger -->
<g id="edge27" class="edge">
<title>vm&#45;&gt;debugger</title>
<path fill="none" stroke="black" d="M566,-72C575.28,-72 585.97,-72 596.23,-72"/>
<polygon fill="black" stroke="black" points="596.27,-75.5 606.27,-72 596.27,-68.5 596.27,-75.5"/>
</g>
</g>
</svg>
