<?xml version="1.0" encoding="UTF-8" standalone="no"?>
<!DOCTYPE svg PUBLIC "-//W3C//DTD SVG 1.1//EN"
 "http://www.w3.org/Graphics/SVG/1.1/DTD/svg11.dtd">
<!-- Generated by graphviz version 6.0.1 (20220911.1526)
 -->
<!-- Title: syllabus Pages: 1 -->
<svg width="692pt" height="449pt"
 viewBox="0.00 0.00 692.00 449.00" xmlns="http://www.w3.org/2000/svg" xmlns:xlink="http://www.w3.org/1999/xlink">
<g id="graph0" class="graph" transform="scale(1 1) rotate(0) translate(4 445)">
<title>syllabus</title>
<polygon fill="white" stroke="none" points="-4,4 -4,-445 688,-445 688,4 -4,4"/>
<!-- archive -->
<g id="node1" class="node">
<title>archive</title>
<polygon fill="cornsilk" stroke="black" points="371.5,-144 317.5,-144 317.5,-108 371.5,-108 371.5,-144"/>
<text text-anchor="start" x="328" y="-128.8" font-family="Verdana" font-size="9.00">version</text>
<text text-anchor="start" x="329" y="-118.8" font-family="Verdana" font-size="9.00">control</text>
</g>
<!-- dup -->
<g id="node9" class="node">
<title>dup</title>
<polygon fill="aquamarine" stroke="black" points="266.5,-225 208.5,-225 208.5,-189 266.5,-189 266.5,-225"/>
<text text-anchor="start" x="217.5" y="-209.8" font-family="Verdana" font-size="9.00">duplicate</text>
<text text-anchor="start" x="216.5" y="-199.8" font-family="Verdana" font-size="9.00">file finder</text>
</g>
<!-- archive&#45;&gt;dup -->
<g id="edge1" class="edge">
<title>archive&#45;&gt;dup</title>
<path fill="none" stroke="black" d="M312.42,-150.26C300.43,-159.59 286.6,-170.31 274,-180 270.32,-182.83 266.41,-185.82 262.59,-188.73"/>
<polygon fill="black" stroke="black" points="314.64,-152.97 320.38,-144.06 310.34,-147.44 314.64,-152.97"/>
</g>
<!-- glob -->
<g id="node13" class="node">
<title>glob</title>
<polygon fill="cornsilk" stroke="black" points="267,-63 208,-63 208,-27 267,-27 267,-63"/>
<text text-anchor="start" x="216" y="-47.8" font-family="Verdana" font-size="9.00">matching</text>
<text text-anchor="start" x="218.5" y="-37.8" font-family="Verdana" font-size="9.00">patterns</text>
</g>
<!-- archive&#45;&gt;glob -->
<g id="edge2" class="edge">
<title>archive&#45;&gt;glob</title>
<path fill="none" stroke="black" d="M312.42,-101.74C300.43,-92.41 286.6,-81.69 274,-72 270.32,-69.17 266.41,-66.18 262.59,-63.27"/>
<polygon fill="black" stroke="black" points="310.34,-104.56 320.38,-107.94 314.64,-99.03 310.34,-104.56"/>
</g>
<!-- mock -->
<g id="node19" class="node">
<title>mock</title>
<polygon fill="cornsilk" stroke="black" points="264.5,-117 210.5,-117 210.5,-81 264.5,-81 264.5,-117"/>
<text text-anchor="start" x="225" y="-101.8" font-family="Verdana" font-style="italic" font-size="9.00">mock</text>
<text text-anchor="start" x="221.5" y="-92.8" font-family="Verdana" font-style="italic" font-size="9.00">objects</text>
</g>
<!-- archive&#45;&gt;mock -->
<g id="edge3" class="edge">
<title>archive&#45;&gt;mock</title>
<path fill="none" stroke="black" d="M307.44,-116.73C293.42,-113.12 277.66,-109.07 264.75,-105.75"/>
<polygon fill="black" stroke="black" points="306.72,-120.16 317.27,-119.26 308.46,-113.38 306.72,-120.16"/>
</g>
<!-- binary -->
<g id="node2" class="node">
<title>binary</title>
<polygon fill="cornsilk" stroke="black" points="371.5,-225 317.5,-225 317.5,-189 371.5,-189 371.5,-225"/>
<text text-anchor="start" x="330.5" y="-209.8" font-family="Verdana" font-size="9.00">binary</text>
<text text-anchor="start" x="334.5" y="-199.8" font-family="Verdana" font-size="9.00">data</text>
</g>
<!-- binary&#45;&gt;dup -->
<g id="edge4" class="edge">
<title>binary&#45;&gt;dup</title>
<path fill="none" stroke="black" d="M307.04,-207C293.78,-207 279.02,-207 266.6,-207"/>
<polygon fill="black" stroke="black" points="307.27,-210.5 317.27,-207 307.27,-203.5 307.27,-210.5"/>
</g>
<!-- build -->
<g id="node3" class="node">
<title>build</title>
<polygon fill="aquamarine" stroke="black" points="586.5,-387 530.5,-387 530.5,-351 586.5,-351 586.5,-387"/>
<text text-anchor="start" x="547.5" y="-371.8" font-family="Verdana" font-size="9.00">build</text>
<text text-anchor="start" x="538.5" y="-361.8" font-family="Verdana" font-size="9.00">manager</text>
</g>
<!-- cache -->
<g id="node4" class="node">
<title>cache</title>
<polygon fill="cornsilk" stroke="black" points="482.5,-90 424.5,-90 424.5,-54 482.5,-54 482.5,-90"/>
<text text-anchor="start" x="432.5" y="-70.8" font-family="Verdana" font-style="italic" font-size="9.00">file cache</text>
</g>
<!-- cache&#45;&gt;archive -->
<g id="edge5" class="edge">
<title>cache&#45;&gt;archive</title>
<path fill="none" stroke="black" d="M415.23,-90.81C400.83,-98.08 384.7,-106.21 371.59,-112.83"/>
<polygon fill="black" stroke="black" points="417.04,-93.82 424.39,-86.19 413.88,-87.57 417.04,-93.82"/>
</g>
<!-- server -->
<g id="node25" class="node">
<title>server</title>
<polygon fill="aquamarine" stroke="black" points="371.5,-90 317.5,-90 317.5,-54 371.5,-54 371.5,-90"/>
<text text-anchor="start" x="335" y="-74.8" font-family="Verdana" font-size="9.00">web</text>
<text text-anchor="start" x="330.5" y="-64.8" font-family="Verdana" font-size="9.00">server</text>
</g>
<!-- cache&#45;&gt;server -->
<g id="edge6" class="edge">
<title>cache&#45;&gt;server</title>
<path fill="none" stroke="black" d="M413.99,-72C399.91,-72 384.33,-72 371.59,-72"/>
<polygon fill="black" stroke="black" points="414.39,-75.5 424.39,-72 414.39,-68.5 414.39,-75.5"/>
</g>
<!-- check -->
<g id="node5" class="node">
<title>check</title>
<polygon fill="aquamarine" stroke="black" points="481.5,-387 425.5,-387 425.5,-351 481.5,-351 481.5,-387"/>
<text text-anchor="start" x="433.5" y="-371.8" font-family="Verdana" font-style="italic" font-size="9.00">checking</text>
<text text-anchor="start" x="441" y="-362.8" font-family="Verdana" font-style="italic" font-size="9.00">HTML</text>
</g>
<!-- compiler -->
<g id="node6" class="node">
<title>compiler</title>
<polygon fill="cornsilk" stroke="black" points="585.5,-225 531.5,-225 531.5,-189 585.5,-189 585.5,-225"/>
<text text-anchor="start" x="539.5" y="-205.8" font-family="Verdana" font-style="italic" font-size="9.00">compiler</text>
</g>
<!-- vm -->
<g id="node29" class="node">
<title>vm</title>
<polygon fill="cornsilk" stroke="black" points="481,-225 426,-225 426,-189 481,-189 481,-225"/>
<text text-anchor="start" x="439" y="-209.8" font-family="Verdana" font-size="9.00">virtual</text>
<text text-anchor="start" x="434" y="-199.8" font-family="Verdana" font-size="9.00">machine</text>
</g>
<!-- compiler&#45;&gt;vm -->
<g id="edge7" class="edge">
<title>compiler&#45;&gt;vm</title>
<path fill="none" stroke="black" d="M521.05,-207C507.87,-207 493.24,-207 481.07,-207"/>
<polygon fill="black" stroke="black" points="521.24,-210.5 531.24,-207 521.24,-203.5 521.24,-210.5"/>
</g>
<!-- debug -->
<g id="node7" class="node">
<title>debug</title>
<polygon fill="pink" stroke="black" points="683.5,-225 625.5,-225 625.5,-189 683.5,-189 683.5,-225"/>
<text text-anchor="start" x="633.5" y="-205.8" font-family="Verdana" font-style="italic" font-size="9.00">debugger</text>
</g>
<!-- debug&#45;&gt;compiler -->
<g id="edge10" class="edge">
<title>debug&#45;&gt;compiler</title>
<path fill="none" stroke="black" d="M615.24,-207C605.34,-207 594.89,-207 585.75,-207"/>
<polygon fill="black" stroke="black" points="615.3,-210.5 625.3,-207 615.3,-203.5 615.3,-210.5"/>
</g>
<!-- editor -->
<g id="node10" class="node">
<title>editor</title>
<polygon fill="aquamarine" stroke="black" points="585.5,-171 531.5,-171 531.5,-135 585.5,-135 585.5,-171"/>
<text text-anchor="start" x="549" y="-155.8" font-family="Verdana" font-size="9.00">text</text>
<text text-anchor="start" x="545.5" y="-145.8" font-family="Verdana" font-size="9.00">editor</text>
</g>
<!-- debug&#45;&gt;editor -->
<g id="edge11" class="edge">
<title>debug&#45;&gt;editor</title>
<path fill="none" stroke="black" d="M616.49,-185.74C606.22,-179.84 595.28,-173.55 585.75,-168.08"/>
<polygon fill="black" stroke="black" points="614.88,-188.85 625.3,-190.8 618.37,-182.78 614.88,-188.85"/>
</g>
<!-- db -->
<g id="node8" class="node">
<title>db</title>
<polygon fill="pink" stroke="black" points="586.5,-63 530.5,-63 530.5,-27 586.5,-27 586.5,-63"/>
<text text-anchor="start" x="538.5" y="-42.8" font-family="Verdana" font-size="9.00">database</text>
</g>
<!-- db&#45;&gt;cache -->
<g id="edge8" class="edge">
<title>db&#45;&gt;cache</title>
<path fill="none" stroke="black" d="M520.76,-54.63C508.28,-57.9 494.54,-61.5 482.82,-64.58"/>
<polygon fill="black" stroke="black" points="521.65,-58.02 530.44,-52.09 519.88,-51.24 521.65,-58.02"/>
</g>
<!-- persist -->
<g id="node24" class="node">
<title>persist</title>
<polygon fill="cornsilk" stroke="black" points="487,-36 420,-36 420,0 487,0 487,-36"/>
<text text-anchor="start" x="439.5" y="-20.8" font-family="Verdana" font-size="9.00">object</text>
<text text-anchor="start" x="428" y="-10.8" font-family="Verdana" font-size="9.00">persistence</text>
</g>
<!-- db&#45;&gt;persist -->
<g id="edge9" class="edge">
<title>db&#45;&gt;persist</title>
<path fill="none" stroke="black" d="M520.74,-35.36C509.81,-32.5 497.91,-29.38 487.25,-26.59"/>
<polygon fill="black" stroke="black" points="519.88,-38.76 530.44,-37.91 521.65,-31.98 519.88,-38.76"/>
</g>
<!-- flow -->
<g id="node11" class="node">
<title>flow</title>
<polygon fill="pink" stroke="black" points="682.5,-387 626.5,-387 626.5,-351 682.5,-351 682.5,-387"/>
<text text-anchor="start" x="634.5" y="-371.8" font-family="Verdana" font-size="9.00">workflow</text>
<text text-anchor="start" x="639" y="-361.8" font-family="Verdana" font-size="9.00">runner</text>
</g>
<!-- flow&#45;&gt;build -->
<g id="edge12" class="edge">
<title>flow&#45;&gt;build</title>
<path fill="none" stroke="black" d="M616.29,-369C606.39,-369 595.88,-369 586.63,-369"/>
<polygon fill="black" stroke="black" points="616.31,-372.5 626.31,-369 616.31,-365.5 616.31,-372.5"/>
</g>
<!-- func -->
<g id="node12" class="node">
<title>func</title>
<polygon fill="cornsilk" stroke="black" points="492,-279 415,-279 415,-243 492,-243 492,-279"/>
<text text-anchor="start" x="432.5" y="-263.8" font-family="Verdana" font-style="italic" font-size="9.00">functions</text>
<text text-anchor="start" x="423" y="-254.8" font-family="Verdana" font-style="italic" font-size="9.00">and call stack</text>
</g>
<!-- interp -->
<g id="node15" class="node">
<title>interp</title>
<polygon fill="aquamarine" stroke="black" points="379,-279 310,-279 310,-243 379,-243 379,-279"/>
<text text-anchor="start" x="318" y="-263.8" font-family="Verdana" font-size="9.00">interpreting</text>
<text text-anchor="start" x="318.5" y="-253.8" font-family="Verdana" font-size="9.00">expressions</text>
</g>
<!-- func&#45;&gt;interp -->
<g id="edge13" class="edge">
<title>func&#45;&gt;interp</title>
<path fill="none" stroke="black" d="M404.55,-261C396.04,-261 387.33,-261 379.32,-261"/>
<polygon fill="black" stroke="black" points="404.78,-264.5 414.78,-261 404.78,-257.5 404.78,-264.5"/>
</g>
<!-- test -->
<g id="node27" class="node">
<title>test</title>
<polygon fill="cornsilk" stroke="black" points="156,-90 102,-90 102,-54 156,-54 156,-90"/>
<text text-anchor="start" x="119.5" y="-74.8" font-family="Verdana" font-size="9.00">unit</text>
<text text-anchor="start" x="113.5" y="-64.8" font-family="Verdana" font-size="9.00">testing</text>
</g>
<!-- glob&#45;&gt;test -->
<g id="edge14" class="edge">
<title>glob&#45;&gt;test</title>
<path fill="none" stroke="black" d="M198.12,-54.73C184.16,-58.27 168.71,-62.19 156.06,-65.39"/>
<polygon fill="black" stroke="black" points="199.13,-58.09 207.96,-52.24 197.41,-51.3 199.13,-58.09"/>
</g>
<!-- install -->
<g id="node14" class="node">
<title>install</title>
<polygon fill="pink" stroke="black" points="681.5,-333 627.5,-333 627.5,-297 681.5,-297 681.5,-333"/>
<text text-anchor="start" x="636.5" y="-313.8" font-family="Verdana" font-style="italic" font-size="9.00">installer</text>
</g>
<!-- install&#45;&gt;build -->
<g id="edge15" class="edge">
<title>install&#45;&gt;build</title>
<path fill="none" stroke="black" d="M618.34,-335.2C607.82,-341.24 596.44,-347.78 586.53,-353.47"/>
<polygon fill="black" stroke="black" points="620.39,-338.06 627.32,-330.04 616.9,-331.99 620.39,-338.06"/>
</g>
<!-- pack -->
<g id="node21" class="node">
<title>pack</title>
<polygon fill="aquamarine" stroke="black" points="586.5,-333 530.5,-333 530.5,-297 586.5,-297 586.5,-333"/>
<text text-anchor="start" x="540" y="-317.8" font-family="Verdana" font-size="9.00">package</text>
<text text-anchor="start" x="538.5" y="-307.8" font-family="Verdana" font-size="9.00">manager</text>
</g>
<!-- install&#45;&gt;pack -->
<g id="edge16" class="edge">
<title>install&#45;&gt;pack</title>
<path fill="none" stroke="black" d="M617.06,-315C606.9,-315 596.04,-315 586.53,-315"/>
<polygon fill="black" stroke="black" points="617.32,-318.5 627.32,-315 617.32,-311.5 617.32,-318.5"/>
</g>
<!-- template -->
<g id="node26" class="node">
<title>template</title>
<polygon fill="cornsilk" stroke="black" points="589,-279 528,-279 528,-243 589,-243 589,-279"/>
<text text-anchor="start" x="546" y="-263.8" font-family="Verdana" font-size="9.00">HTML</text>
<text text-anchor="start" x="536" y="-253.8" font-family="Verdana" font-size="9.00">templates</text>
</g>
<!-- install&#45;&gt;template -->
<g id="edge17" class="edge">
<title>install&#45;&gt;template</title>
<path fill="none" stroke="black" d="M618.38,-294.82C608.77,-289.31 598.46,-283.38 589.19,-278.05"/>
<polygon fill="black" stroke="black" points="616.9,-298.01 627.32,-299.96 620.39,-291.94 616.9,-298.01"/>
</g>
<!-- layout -->
<g id="node16" class="node">
<title>layout</title>
<polygon fill="pink" stroke="black" points="681.5,-279 627.5,-279 627.5,-243 681.5,-243 681.5,-279"/>
<text text-anchor="start" x="643.5" y="-263.8" font-family="Verdana" font-style="italic" font-size="9.00">page</text>
<text text-anchor="start" x="640.5" y="-254.8" font-family="Verdana" font-style="italic" font-size="9.00">layout</text>
</g>
<!-- layout&#45;&gt;template -->
<g id="edge18" class="edge">
<title>layout&#45;&gt;template</title>
<path fill="none" stroke="black" d="M617.19,-261C607.92,-261 598.08,-261 589.19,-261"/>
<polygon fill="black" stroke="black" points="617.32,-264.5 627.32,-261 617.32,-257.5 617.32,-264.5"/>
</g>
<!-- lint -->
<g id="node17" class="node">
<title>lint</title>
<polygon fill="pink" stroke="black" points="585.5,-441 531.5,-441 531.5,-405 585.5,-405 585.5,-441"/>
<text text-anchor="start" x="544.5" y="-420.8" font-family="Verdana" font-size="9.00">linting</text>
</g>
<!-- lint&#45;&gt;check -->
<g id="edge19" class="edge">
<title>lint&#45;&gt;check</title>
<path fill="none" stroke="black" d="M522.37,-404.58C509.11,-397.63 494.23,-389.83 481.79,-383.31"/>
<polygon fill="black" stroke="black" points="520.76,-407.69 531.24,-409.23 524.01,-401.49 520.76,-407.69"/>
</g>
<!-- meta -->
<g id="node18" class="node">
<title>meta</title>
<polygon fill="cornsilk" stroke="black" points="165,-144 93,-144 93,-108 165,-108 165,-144"/>
<text text-anchor="start" x="101" y="-128.8" font-family="Verdana" font-style="italic" font-size="9.00">closures and</text>
<text text-anchor="start" x="105.5" y="-119.8" font-family="Verdana" font-style="italic" font-size="9.00">decorators</text>
</g>
<!-- oop -->
<g id="node20" class="node">
<title>oop</title>
<polygon fill="aquamarine" stroke="black" points="57,-117 0,-117 0,-81 57,-81 57,-117"/>
<text text-anchor="start" x="8" y="-101.8" font-family="Verdana" font-style="italic" font-size="9.00">class and</text>
<text text-anchor="start" x="12.5" y="-92.8" font-family="Verdana" font-style="italic" font-size="9.00">objects</text>
</g>
<!-- meta&#45;&gt;oop -->
<g id="edge20" class="edge">
<title>meta&#45;&gt;oop</title>
<path fill="none" stroke="black" d="M83.18,-113.71C74.35,-111.29 65.34,-108.82 57.28,-106.61"/>
<polygon fill="black" stroke="black" points="82.43,-117.14 93,-116.4 84.28,-110.39 82.43,-117.14"/>
</g>
<!-- mock&#45;&gt;meta -->
<g id="edge21" class="edge">
<title>mock&#45;&gt;meta</title>
<path fill="none" stroke="black" d="M200.71,-108.07C189.21,-110.99 176.48,-114.22 165.03,-117.12"/>
<polygon fill="black" stroke="black" points="201.61,-111.46 210.45,-105.6 199.89,-104.67 201.61,-111.46"/>
</g>
<!-- mock&#45;&gt;test -->
<g id="edge22" class="edge">
<title>mock&#45;&gt;test</title>
<path fill="none" stroke="black" d="M200.72,-89.93C186.13,-86.23 169.58,-82.03 156.15,-78.63"/>
<polygon fill="black" stroke="black" points="199.89,-93.33 210.45,-92.4 201.61,-86.54 199.89,-93.33"/>
</g>
<!-- parse -->
<g id="node22" class="node">
<title>parse</title>
<polygon fill="cornsilk" stroke="black" points="371.5,-36 317.5,-36 317.5,0 371.5,0 371.5,-36"/>
<text text-anchor="start" x="328" y="-20.8" font-family="Verdana" font-size="9.00">parsing</text>
<text text-anchor="start" x="335" y="-10.8" font-family="Verdana" font-size="9.00">text</text>
</g>
<!-- parse&#45;&gt;glob -->
<g id="edge23" class="edge">
<title>parse&#45;&gt;glob</title>
<path fill="none" stroke="black" d="M307.21,-27.33C294.17,-30.68 279.66,-34.42 267.34,-37.58"/>
<polygon fill="black" stroke="black" points="308.46,-30.62 317.27,-24.74 306.72,-23.84 308.46,-30.62"/>
</g>
<!-- perf -->
<g id="node23" class="node">
<title>perf</title>
<polygon fill="pink" stroke="black" points="274,-171 201,-171 201,-135 274,-135 274,-171"/>
<text text-anchor="start" x="209" y="-155.8" font-family="Verdana" font-size="9.00">performance</text>
<text text-anchor="start" x="219.5" y="-145.8" font-family="Verdana" font-size="9.00">profiling</text>
</g>
<!-- perf&#45;&gt;meta -->
<g id="edge24" class="edge">
<title>perf&#45;&gt;meta</title>
<path fill="none" stroke="black" d="M190.82,-141.42C182.21,-139.24 173.34,-136.99 165.12,-134.9"/>
<polygon fill="black" stroke="black" points="190.19,-144.87 200.74,-143.93 191.91,-138.08 190.19,-144.87"/>
</g>
<!-- persist&#45;&gt;parse -->
<g id="edge25" class="edge">
<title>persist&#45;&gt;parse</title>
<path fill="none" stroke="black" d="M409.71,-18C396.8,-18 383.02,-18 371.55,-18"/>
<polygon fill="black" stroke="black" points="409.82,-21.5 419.82,-18 409.82,-14.5 409.82,-21.5"/>
</g>
<!-- template&#45;&gt;check -->
<g id="edge26" class="edge">
<title>template&#45;&gt;check</title>
<path fill="none" stroke="black" d="M529.96,-286.05C529.3,-286.7 528.64,-287.35 528,-288 507.23,-308.86 484.67,-334.15 470.1,-350.86"/>
<polygon fill="black" stroke="black" points="532.47,-288.5 537.27,-279.05 527.63,-283.44 532.47,-288.5"/>
</g>
<!-- template&#45;&gt;func -->
<g id="edge27" class="edge">
<title>template&#45;&gt;func</title>
<path fill="none" stroke="black" d="M517.93,-261C509.45,-261 500.52,-261 492.11,-261"/>
<polygon fill="black" stroke="black" points="517.98,-264.5 527.98,-261 517.98,-257.5 517.98,-264.5"/>
</g>
<!-- test&#45;&gt;oop -->
<g id="edge28" class="edge">
<title>test&#45;&gt;oop</title>
<path fill="none" stroke="black" d="M92.08,-81.85C80.55,-85.01 67.98,-88.45 57.14,-91.42"/>
<polygon fill="black" stroke="black" points="93.14,-85.18 101.86,-79.16 91.29,-78.43 93.14,-85.18"/>
</g>
<!-- undo -->
<g id="node28" class="node">
<title>undo</title>
<polygon fill="pink" stroke="black" points="684,-171 625,-171 625,-135 684,-135 684,-171"/>
<text text-anchor="start" x="633" y="-155.8" font-family="Verdana" font-style="italic" font-size="9.00">undo and</text>
<text text-anchor="start" x="644.5" y="-146.8" font-family="Verdana" font-style="italic" font-size="9.00">redo</text>
</g>
<!-- undo&#45;&gt;editor -->
<g id="edge29" class="edge">
<title>undo&#45;&gt;editor</title>
<path fill="none" stroke="black" d="M614.54,-153C604.86,-153 594.71,-153 585.8,-153"/>
<polygon fill="black" stroke="black" points="614.79,-156.5 624.79,-153 614.79,-149.5 614.79,-156.5"/>
</g>
<!-- vm&#45;&gt;binary -->
<g id="edge30" class="edge">
<title>vm&#45;&gt;binary</title>
<path fill="none" stroke="black" d="M415.6,-207C401.08,-207 384.76,-207 371.51,-207"/>
<polygon fill="black" stroke="black" points="415.78,-210.5 425.78,-207 415.78,-203.5 415.78,-210.5"/>
</g>
<!-- vm&#45;&gt;interp -->
<g id="edge31" class="edge">
<title>vm&#45;&gt;interp</title>
<path fill="none" stroke="black" d="M416.81,-225.01C404.67,-231.14 391.15,-237.96 379.17,-244.01"/>
<polygon fill="black" stroke="black" points="418.42,-228.12 425.78,-220.49 415.27,-221.87 418.42,-228.12"/>
</g>
</g>
</svg>
