<?xml version="1.0" encoding="UTF-8" standalone="no"?>
<!DOCTYPE svg PUBLIC "-//W3C//DTD SVG 1.1//EN"
 "http://www.w3.org/Graphics/SVG/1.1/DTD/svg11.dtd">
<!-- Generated by graphviz version 6.0.1 (20220911.1526)
 -->
<!-- Pages: 1 -->
<svg width="2370pt" height="302pt"
 viewBox="0.00 0.00 2370.00 302.00" xmlns="http://www.w3.org/2000/svg" xmlns:xlink="http://www.w3.org/1999/xlink">
<g id="graph0" class="graph" transform="scale(1 1) rotate(0) translate(4 298)">
<polygon fill="white" stroke="none" points="-4,4 -4,-298 2366,-298 2366,4 -4,4"/>
<!-- dup -->
<g id="node1" class="node">
<title>dup</title>
<polygon fill="aquamarine" stroke="aquamarine" points="54,-41 0,-41 0,-5 54,-5 54,-41"/>
<text text-anchor="start" x="11.5" y="-30.1" font-family="Verdana" font-size="8.00">Finding</text>
<text text-anchor="start" x="8" y="-21.1" font-family="Verdana" font-size="8.00">Duplicate</text>
<text text-anchor="start" x="17.5" y="-12.1" font-family="Verdana" font-size="8.00">Files</text>
</g>
<!-- glob -->
<g id="node2" class="node">
<title>glob</title>
<polygon fill="aquamarine" stroke="aquamarine" points="144,-83 90,-83 90,-47 144,-47 144,-83"/>
<text text-anchor="start" x="98.5" y="-67.6" font-family="Verdana" font-size="8.00">Matching</text>
<text text-anchor="start" x="100" y="-58.6" font-family="Verdana" font-size="8.00">Patterns</text>
</g>
<!-- dup&#45;&gt;glob -->
<g id="edge28" class="edge">
<title>dup&#45;&gt;glob</title>
<path fill="none" stroke="black" stroke-dasharray="5,2" d="M54.4,-35.6C65.64,-40.97 78.72,-47.2 89.92,-52.55"/>
</g>
<!-- archive -->
<g id="node9" class="node">
<title>archive</title>
<polygon fill="cornsilk" stroke="cornsilk" points="824,-60 770,-60 770,-24 824,-24 824,-60"/>
<text text-anchor="start" x="786" y="-44.6" font-family="Verdana" font-size="8.00">A File</text>
<text text-anchor="start" x="780" y="-35.6" font-family="Verdana" font-size="8.00">Archiver</text>
</g>
<!-- dup&#45;&gt;archive -->
<g id="edge9" class="edge">
<title>dup&#45;&gt;archive</title>
<path fill="none" stroke="black" d="M54.08,-17.67C89.62,-10.87 155.34,0 212,0 212,0 212,0 605.5,0 660.53,0 722.44,-16.92 760.34,-29.28"/>
<polygon fill="black" stroke="black" points="759.3,-32.63 769.9,-32.47 761.52,-25.98 759.3,-32.63"/>
</g>
<!-- parse -->
<g id="node3" class="node">
<title>parse</title>
<polygon fill="cornsilk" stroke="cornsilk" points="246,-123 180,-123 180,-87 246,-87 246,-123"/>
<text text-anchor="start" x="188" y="-103.1" font-family="Verdana" font-size="8.00">Parsing Text</text>
</g>
<!-- glob&#45;&gt;parse -->
<g id="edge1" class="edge">
<title>glob&#45;&gt;parse</title>
<path fill="none" stroke="black" d="M144.18,-70.02C153.67,-73.44 164.57,-77.92 174.81,-82.56"/>
<polygon fill="black" stroke="black" points="173.44,-85.78 183.98,-86.84 176.41,-79.44 173.44,-85.78"/>
</g>
<!-- glob&#45;&gt;parse -->
<g id="edge29" class="edge">
<title>glob&#45;&gt;parse</title>
<path fill="none" stroke="black" stroke-dasharray="5,2" d="M144.18,-82.27C155.27,-87.69 168.28,-93.34 179.93,-97.79"/>
</g>
<!-- glob&#45;&gt;archive -->
<g id="edge7" class="edge">
<title>glob&#45;&gt;archive</title>
<path fill="none" stroke="black" d="M144.27,-58.87C180.78,-50.91 249.03,-38 308,-38 308,-38 308,-38 605.5,-38 659.17,-38 721.33,-39.61 759.66,-40.78"/>
<polygon fill="black" stroke="black" points="759.71,-44.29 769.81,-41.1 759.93,-37.29 759.71,-44.29"/>
</g>
<!-- test -->
<g id="node4" class="node">
<title>test</title>
<polygon fill="aquamarine" stroke="aquamarine" points="336,-190 282,-190 282,-154 336,-154 336,-190"/>
<text text-anchor="start" x="292" y="-174.6" font-family="Verdana" font-size="8.00">Running</text>
<text text-anchor="start" x="298" y="-165.6" font-family="Verdana" font-size="8.00">Tests</text>
</g>
<!-- parse&#45;&gt;test -->
<g id="edge30" class="edge">
<title>parse&#45;&gt;test</title>
<path fill="none" stroke="black" stroke-dasharray="5,2" d="M239.69,-123.31C253.06,-132.84 269.35,-144.45 282.67,-153.95"/>
</g>
<!-- check -->
<g id="node10" class="node">
<title>check</title>
<polygon fill="cornsilk" stroke="cornsilk" points="914,-169 860,-169 860,-133 914,-133 914,-169"/>
<text text-anchor="start" x="868.5" y="-153.6" font-family="Verdana" font-size="8.00">An HTML</text>
<text text-anchor="start" x="869" y="-144.6" font-family="Verdana" font-size="8.00">Validator</text>
</g>
<!-- parse&#45;&gt;check -->
<g id="edge10" class="edge">
<title>parse&#45;&gt;check</title>
<path fill="none" stroke="black" d="M246.41,-107.22C358.79,-114.91 731.25,-140.41 849.58,-148.51"/>
<polygon fill="black" stroke="black" points="849.69,-152.02 859.9,-149.21 850.16,-145.04 849.69,-152.02"/>
</g>
<!-- interp -->
<g id="node5" class="node">
<title>interp</title>
<polygon fill="cornsilk" stroke="cornsilk" points="433,-190 372,-190 372,-154 433,-154 433,-190"/>
<text text-anchor="start" x="397" y="-174.6" font-family="Verdana" font-size="8.00">An</text>
<text text-anchor="start" x="380" y="-165.6" font-family="Verdana" font-size="8.00">Interpreter</text>
</g>
<!-- test&#45;&gt;interp -->
<g id="edge2" class="edge">
<title>test&#45;&gt;interp</title>
<path fill="none" stroke="black" d="M336.47,-165.81C344.35,-165.33 353.16,-165.15 361.69,-165.3"/>
<polygon fill="black" stroke="black" points="361.77,-168.81 371.88,-165.64 362,-161.81 361.77,-168.81"/>
</g>
<!-- test&#45;&gt;interp -->
<g id="edge31" class="edge">
<title>test&#45;&gt;interp</title>
<path fill="none" stroke="black" stroke-dasharray="5,2" d="M336.47,-178.19C347.55,-178.87 360.48,-178.93 371.88,-178.36"/>
</g>
<!-- oop -->
<g id="node6" class="node">
<title>oop</title>
<polygon fill="cornsilk" stroke="cornsilk" points="534,-190 469,-190 469,-154 534,-154 534,-190"/>
<text text-anchor="start" x="477" y="-174.6" font-family="Verdana" font-size="8.00">Objects and</text>
<text text-anchor="start" x="486" y="-165.6" font-family="Verdana" font-size="8.00">Classes</text>
</g>
<!-- interp&#45;&gt;oop -->
<g id="edge3" class="edge">
<title>interp&#45;&gt;oop</title>
<path fill="none" stroke="black" d="M433.13,-165.73C441.13,-165.3 449.94,-165.16 458.48,-165.3"/>
<polygon fill="black" stroke="black" points="458.59,-168.81 468.69,-165.62 458.81,-161.81 458.59,-168.81"/>
</g>
<!-- interp&#45;&gt;oop -->
<g id="edge32" class="edge">
<title>interp&#45;&gt;oop</title>
<path fill="none" stroke="black" stroke-dasharray="5,2" d="M433.13,-178.27C444.38,-178.87 457.25,-178.91 468.69,-178.38"/>
</g>
<!-- func -->
<g id="node7" class="node">
<title>func</title>
<polygon fill="cornsilk" stroke="cornsilk" points="639,-106 570,-106 570,-70 639,-70 639,-106"/>
<text text-anchor="start" x="584.5" y="-90.6" font-family="Verdana" font-size="8.00">Functions</text>
<text text-anchor="start" x="578" y="-81.6" font-family="Verdana" font-size="8.00">and Closures</text>
</g>
<!-- interp&#45;&gt;func -->
<g id="edge4" class="edge">
<title>interp&#45;&gt;func</title>
<path fill="none" stroke="black" d="M433.01,-159.61C466.67,-145.47 522,-122.23 560.46,-106.08"/>
<polygon fill="black" stroke="black" points="561.99,-109.23 569.86,-102.13 559.28,-102.78 561.99,-109.23"/>
</g>
<!-- template -->
<g id="node11" class="node">
<title>template</title>
<polygon fill="cornsilk" stroke="cornsilk" points="1011,-228 950,-228 950,-192 1011,-192 1011,-228"/>
<text text-anchor="start" x="958" y="-212.6" font-family="Verdana" font-size="8.00">A Template</text>
<text text-anchor="start" x="961" y="-203.6" font-family="Verdana" font-size="8.00">Expander</text>
</g>
<!-- interp&#45;&gt;template -->
<g id="edge11" class="edge">
<title>interp&#45;&gt;template</title>
<path fill="none" stroke="black" d="M433.28,-186.12C444.29,-190.85 457.01,-195.74 469,-199 527.25,-214.85 543.13,-218 603.5,-218 603.5,-218 603.5,-218 798,-218 846.8,-218 902.91,-215.08 939.67,-212.77"/>
<polygon fill="black" stroke="black" points="940.21,-216.24 949.97,-212.1 939.76,-209.25 940.21,-216.24"/>
</g>
<!-- persist -->
<g id="node15" class="node">
<title>persist</title>
<polygon fill="cornsilk" stroke="cornsilk" points="1403,-190 1341,-190 1341,-154 1403,-154 1403,-190"/>
<text text-anchor="start" x="1358.5" y="-174.6" font-family="Verdana" font-size="8.00">Object</text>
<text text-anchor="start" x="1349" y="-165.6" font-family="Verdana" font-size="8.00">Persistence</text>
</g>
<!-- interp&#45;&gt;persist -->
<g id="edge16" class="edge">
<title>interp&#45;&gt;persist</title>
<path fill="none" stroke="black" d="M424.05,-190.15C436.35,-200.2 452.73,-212.2 469,-220 524.8,-246.75 541.62,-256 603.5,-256 603.5,-256 603.5,-256 1170.5,-256 1233.22,-256 1299,-220.6 1337.43,-195.77"/>
<polygon fill="black" stroke="black" points="1339.72,-198.45 1346.14,-190.02 1335.86,-192.61 1339.72,-198.45"/>
</g>
<!-- vm -->
<g id="node24" class="node">
<title>vm</title>
<polygon fill="cornsilk" stroke="cornsilk" points="2261,-167 2207,-167 2207,-131 2261,-131 2261,-167"/>
<text text-anchor="start" x="2216.5" y="-151.6" font-family="Verdana" font-size="8.00">A Virtual</text>
<text text-anchor="start" x="2217" y="-142.6" font-family="Verdana" font-size="8.00">Machine</text>
</g>
<!-- interp&#45;&gt;vm -->
<g id="edge24" class="edge">
<title>interp&#45;&gt;vm</title>
<path fill="none" stroke="black" d="M414.92,-190.11C426.59,-207.25 446.2,-232.59 469,-248 521.34,-283.39 540.32,-294 603.5,-294 603.5,-294 603.5,-294 2053,-294 2127.58,-294 2188.75,-217.57 2216.66,-175.69"/>
<polygon fill="black" stroke="black" points="2219.75,-177.36 2222.27,-167.07 2213.88,-173.55 2219.75,-177.36"/>
</g>
<!-- oop&#45;&gt;func -->
<g id="edge33" class="edge">
<title>oop&#45;&gt;func</title>
<path fill="none" stroke="black" stroke-dasharray="5,2" d="M524.42,-153.77C541.36,-139.68 564.7,-120.27 581.63,-106.19"/>
</g>
<!-- mock -->
<g id="node8" class="node">
<title>mock</title>
<polygon fill="cornsilk" stroke="cornsilk" points="734,-110 675,-110 675,-66 734,-66 734,-110"/>
<text text-anchor="start" x="690.5" y="-99.6" font-family="Verdana" font-size="8.00">Mocks,</text>
<text text-anchor="start" x="684.5" y="-90.6" font-family="Verdana" font-size="8.00">Protocols,</text>
<text text-anchor="start" x="696.5" y="-81.6" font-family="Verdana" font-size="8.00">and</text>
<text text-anchor="start" x="683" y="-72.6" font-family="Verdana" font-size="8.00">Decorators</text>
</g>
<!-- oop&#45;&gt;mock -->
<g id="edge6" class="edge">
<title>oop&#45;&gt;mock</title>
<path fill="none" stroke="black" d="M534.22,-158.76C561.89,-147.22 603.1,-130.01 639,-115 647.64,-111.39 656.92,-107.5 665.68,-103.84"/>
<polygon fill="black" stroke="black" points="667.05,-107.06 674.93,-99.97 664.35,-100.6 667.05,-107.06"/>
</g>
<!-- func&#45;&gt;mock -->
<g id="edge5" class="edge">
<title>func&#45;&gt;mock</title>
<path fill="none" stroke="black" d="M639.23,-81.55C647.49,-81.22 656.4,-81.16 664.88,-81.39"/>
<polygon fill="black" stroke="black" points="664.79,-84.89 674.93,-81.8 665.08,-77.89 664.79,-84.89"/>
</g>
<!-- func&#45;&gt;mock -->
<g id="edge34" class="edge">
<title>func&#45;&gt;mock</title>
<path fill="none" stroke="black" stroke-dasharray="5,2" d="M639.23,-94.45C650.85,-94.92 663.76,-94.84 674.93,-94.2"/>
</g>
<!-- mock&#45;&gt;archive -->
<g id="edge8" class="edge">
<title>mock&#45;&gt;archive</title>
<path fill="none" stroke="black" d="M734.13,-67.12C742.5,-62.42 751.75,-57.63 760.49,-53.44"/>
<polygon fill="black" stroke="black" points="762.1,-56.55 769.7,-49.17 759.16,-50.2 762.1,-56.55"/>
</g>
<!-- mock&#45;&gt;archive -->
<g id="edge35" class="edge">
<title>mock&#45;&gt;archive</title>
<path fill="none" stroke="black" stroke-dasharray="5,2" d="M734.13,-79.77C746.46,-74.16 760.69,-66.82 772.4,-60.01"/>
</g>
<!-- db -->
<g id="node17" class="node">
<title>db</title>
<polygon fill="pink" stroke="pink" points="1600,-144 1538,-144 1538,-108 1600,-108 1600,-144"/>
<text text-anchor="start" x="1546" y="-124.1" font-family="Verdana" font-size="8.00">A Database</text>
</g>
<!-- mock&#45;&gt;db -->
<g id="edge18" class="edge">
<title>mock&#45;&gt;db</title>
<path fill="none" stroke="black" d="M734.26,-88C769.88,-88 832.41,-88 886,-88 886,-88 886,-88 1373,-88 1427.57,-88 1489.18,-102.52 1528.28,-113.61"/>
<polygon fill="black" stroke="black" points="1527.38,-116.99 1537.95,-116.41 1529.32,-110.26 1527.38,-116.99"/>
</g>
<!-- archive&#45;&gt;check -->
<g id="edge36" class="edge">
<title>archive&#45;&gt;check</title>
<path fill="none" stroke="black" stroke-dasharray="5,2" d="M812.93,-60.49C829.21,-80.66 855.1,-112.73 871.29,-132.78"/>
</g>
<!-- ftp -->
<g id="node20" class="node">
<title>ftp</title>
<polygon fill="cornsilk" stroke="cornsilk" points="1885,-144 1819,-144 1819,-108 1885,-108 1885,-144"/>
<text text-anchor="start" x="1827" y="-128.6" font-family="Verdana" font-size="8.00">Transferring</text>
<text text-anchor="start" x="1842.5" y="-119.6" font-family="Verdana" font-size="8.00">Files</text>
</g>
<!-- archive&#45;&gt;ftp -->
<g id="edge21" class="edge">
<title>archive&#45;&gt;ftp</title>
<path fill="none" stroke="black" d="M824.15,-42.94C859.41,-44.12 924.19,-46 979.5,-46 979.5,-46 979.5,-46 1664,-46 1721.62,-46 1781.76,-78.5 1817.8,-102.07"/>
<polygon fill="black" stroke="black" points="1816.17,-105.19 1826.42,-107.85 1820.06,-99.38 1816.17,-105.19"/>
</g>
<!-- check&#45;&gt;template -->
<g id="edge12" class="edge">
<title>check&#45;&gt;template</title>
<path fill="none" stroke="black" d="M914.47,-161.88C926.19,-168.71 939.98,-177.58 951.84,-185.9"/>
<polygon fill="black" stroke="black" points="949.91,-188.83 960.07,-191.83 954,-183.15 949.91,-188.83"/>
</g>
<!-- check&#45;&gt;template -->
<g id="edge37" class="edge">
<title>check&#45;&gt;template</title>
<path fill="none" stroke="black" stroke-dasharray="5,2" d="M907.4,-169.15C919.68,-178.24 935.79,-188.87 949.67,-197.14"/>
</g>
<!-- lint -->
<g id="node12" class="node">
<title>lint</title>
<polygon fill="pink" stroke="pink" points="1101,-190 1047,-190 1047,-154 1101,-154 1101,-190"/>
<text text-anchor="start" x="1060" y="-174.6" font-family="Verdana" font-size="8.00">A Code</text>
<text text-anchor="start" x="1062" y="-165.6" font-family="Verdana" font-size="8.00">Linter</text>
</g>
<!-- check&#45;&gt;lint -->
<g id="edge13" class="edge">
<title>check&#45;&gt;lint</title>
<path fill="none" stroke="black" d="M914.11,-153.96C946.11,-157.6 1000.52,-163.77 1036.61,-167.87"/>
<polygon fill="black" stroke="black" points="1036.39,-171.37 1046.72,-169.02 1037.18,-164.41 1036.39,-171.37"/>
</g>
<!-- layout -->
<g id="node13" class="node">
<title>layout</title>
<polygon fill="pink" stroke="pink" points="1202,-190 1137,-190 1137,-154 1202,-154 1202,-190"/>
<text text-anchor="start" x="1145" y="-170.1" font-family="Verdana" font-size="8.00">Page Layout</text>
</g>
<!-- check&#45;&gt;layout -->
<g id="edge15" class="edge">
<title>check&#45;&gt;layout</title>
<path fill="none" stroke="black" d="M914.2,-146.64C954.68,-140.72 1034.7,-132.23 1101,-145 1109.82,-146.7 1118.96,-149.54 1127.56,-152.76"/>
<polygon fill="black" stroke="black" points="1126.4,-156.07 1136.98,-156.51 1128.99,-149.56 1126.4,-156.07"/>
</g>
<!-- template&#45;&gt;lint -->
<g id="edge38" class="edge">
<title>template&#45;&gt;lint</title>
<path fill="none" stroke="black" stroke-dasharray="5,2" d="M1011.21,-197.66C1022.69,-192.89 1035.71,-187.49 1046.83,-182.87"/>
</g>
<!-- template&#45;&gt;layout -->
<g id="edge14" class="edge">
<title>template&#45;&gt;layout</title>
<path fill="none" stroke="black" d="M1011.35,-209.63C1035.77,-208.76 1071.02,-206.21 1101,-199 1109.74,-196.9 1118.84,-193.88 1127.42,-190.61"/>
<polygon fill="black" stroke="black" points="1128.85,-193.81 1136.84,-186.85 1126.26,-187.3 1128.85,-193.81"/>
</g>
<!-- lint&#45;&gt;layout -->
<g id="edge39" class="edge">
<title>lint&#45;&gt;layout</title>
<path fill="none" stroke="black" stroke-dasharray="5,2" d="M1101.04,-172C1112.18,-172 1125.27,-172 1136.94,-172"/>
</g>
<!-- perf -->
<g id="node14" class="node">
<title>perf</title>
<polygon fill="aquamarine" stroke="aquamarine" points="1305,-190 1238,-190 1238,-154 1305,-154 1305,-190"/>
<text text-anchor="start" x="1246" y="-174.6" font-family="Verdana" font-size="8.00">Performance</text>
<text text-anchor="start" x="1254.5" y="-165.6" font-family="Verdana" font-size="8.00">Profiling</text>
</g>
<!-- layout&#45;&gt;perf -->
<g id="edge40" class="edge">
<title>layout&#45;&gt;perf</title>
<path fill="none" stroke="black" stroke-dasharray="5,2" d="M1202.14,-172C1213.47,-172 1226.26,-172 1237.69,-172"/>
</g>
<!-- perf&#45;&gt;persist -->
<g id="edge41" class="edge">
<title>perf&#45;&gt;persist</title>
<path fill="none" stroke="black" stroke-dasharray="5,2" d="M1305.03,-172C1316.57,-172 1329.5,-172 1340.84,-172"/>
</g>
<!-- binary -->
<g id="node16" class="node">
<title>binary</title>
<polygon fill="cornsilk" stroke="cornsilk" points="1502,-190 1439,-190 1439,-154 1502,-154 1502,-190"/>
<text text-anchor="start" x="1447" y="-170.1" font-family="Verdana" font-size="8.00">Binary Data</text>
</g>
<!-- persist&#45;&gt;binary -->
<g id="edge17" class="edge">
<title>persist&#45;&gt;binary</title>
<path fill="none" stroke="black" d="M1403,-165.7C1411.11,-165.28 1420.02,-165.16 1428.6,-165.32"/>
<polygon fill="black" stroke="black" points="1428.74,-168.83 1438.85,-165.67 1428.97,-161.83 1428.74,-168.83"/>
</g>
<!-- persist&#45;&gt;binary -->
<g id="edge42" class="edge">
<title>persist&#45;&gt;binary</title>
<path fill="none" stroke="black" stroke-dasharray="5,2" d="M1403,-178.3C1414.4,-178.89 1427.39,-178.9 1438.85,-178.33"/>
</g>
<!-- persist&#45;&gt;db -->
<g id="edge19" class="edge">
<title>persist&#45;&gt;db</title>
<path fill="none" stroke="black" d="M1403.02,-157.92C1414.12,-153.2 1426.94,-148.3 1439,-145 1468.17,-137.01 1502.02,-132.19 1527.73,-129.4"/>
<polygon fill="black" stroke="black" points="1528.27,-132.86 1537.86,-128.36 1527.55,-125.9 1528.27,-132.86"/>
</g>
<!-- binary&#45;&gt;db -->
<g id="edge20" class="edge">
<title>binary&#45;&gt;db</title>
<path fill="none" stroke="black" d="M1496.85,-153.89C1506.53,-148.62 1517.8,-143.03 1528.48,-138.19"/>
<polygon fill="black" stroke="black" points="1529.92,-141.38 1537.67,-134.14 1527.1,-134.97 1529.92,-141.38"/>
</g>
<!-- binary&#45;&gt;db -->
<g id="edge43" class="edge">
<title>binary&#45;&gt;db</title>
<path fill="none" stroke="black" stroke-dasharray="5,2" d="M1502.03,-163.77C1515.18,-158.16 1530.35,-150.82 1542.83,-144.01"/>
</g>
<!-- binary&#45;&gt;vm -->
<g id="edge25" class="edge">
<title>binary&#45;&gt;vm</title>
<path fill="none" stroke="black" d="M1502.18,-172C1539.83,-172 1605.61,-172 1662,-172 1662,-172 1662,-172 2053,-172 2103.18,-172 2160.6,-163.1 2196.82,-156.37"/>
<polygon fill="black" stroke="black" points="2197.73,-159.76 2206.9,-154.45 2196.42,-152.88 2197.73,-159.76"/>
</g>
<!-- build -->
<g id="node18" class="node">
<title>build</title>
<polygon fill="aquamarine" stroke="aquamarine" points="1690,-144 1636,-144 1636,-108 1690,-108 1690,-144"/>
<text text-anchor="start" x="1648.5" y="-128.6" font-family="Verdana" font-size="8.00">A Build</text>
<text text-anchor="start" x="1645.5" y="-119.6" font-family="Verdana" font-size="8.00">Manager</text>
</g>
<!-- db&#45;&gt;build -->
<g id="edge44" class="edge">
<title>db&#45;&gt;build</title>
<path fill="none" stroke="black" stroke-dasharray="5,2" d="M1600.12,-126C1611.65,-126 1624.7,-126 1635.83,-126"/>
</g>
<!-- pack -->
<g id="node19" class="node">
<title>pack</title>
<polygon fill="aquamarine" stroke="aquamarine" points="1783,-144 1726,-144 1726,-108 1783,-108 1783,-144"/>
<text text-anchor="start" x="1734" y="-128.6" font-family="Verdana" font-size="8.00">A Package</text>
<text text-anchor="start" x="1737" y="-119.6" font-family="Verdana" font-size="8.00">Manager</text>
</g>
<!-- build&#45;&gt;pack -->
<g id="edge45" class="edge">
<title>build&#45;&gt;pack</title>
<path fill="none" stroke="black" stroke-dasharray="5,2" d="M1690.37,-126C1701.51,-126 1714.48,-126 1725.76,-126"/>
</g>
<!-- pack&#45;&gt;ftp -->
<g id="edge46" class="edge">
<title>pack&#45;&gt;ftp</title>
<path fill="none" stroke="black" stroke-dasharray="5,2" d="M1783.12,-126C1794.25,-126 1807.16,-126 1818.72,-126"/>
</g>
<!-- http -->
<g id="node21" class="node">
<title>http</title>
<polygon fill="pink" stroke="pink" points="1989,-144 1921,-144 1921,-108 1989,-108 1989,-144"/>
<text text-anchor="start" x="1929" y="-128.6" font-family="Verdana" font-size="8.00">Serving Web</text>
<text text-anchor="start" x="1943" y="-119.6" font-family="Verdana" font-size="8.00">Pages</text>
</g>
<!-- ftp&#45;&gt;http -->
<g id="edge22" class="edge">
<title>ftp&#45;&gt;http</title>
<path fill="none" stroke="black" d="M1885.23,-119.66C1893.28,-119.28 1902.04,-119.17 1910.53,-119.31"/>
<polygon fill="black" stroke="black" points="1910.58,-122.81 1920.68,-119.61 1910.79,-115.81 1910.58,-122.81"/>
</g>
<!-- ftp&#45;&gt;http -->
<g id="edge47" class="edge">
<title>ftp&#45;&gt;http</title>
<path fill="none" stroke="black" stroke-dasharray="5,2" d="M1885.23,-132.34C1896.55,-132.87 1909.28,-132.89 1920.68,-132.39"/>
</g>
<!-- viewer -->
<g id="node22" class="node">
<title>viewer</title>
<polygon fill="aquamarine" stroke="aquamarine" points="2079,-144 2025,-144 2025,-108 2079,-108 2079,-144"/>
<text text-anchor="start" x="2041" y="-128.6" font-family="Verdana" font-size="8.00">A File</text>
<text text-anchor="start" x="2038" y="-119.6" font-family="Verdana" font-size="8.00">Viewer</text>
</g>
<!-- http&#45;&gt;viewer -->
<g id="edge48" class="edge">
<title>http&#45;&gt;viewer</title>
<path fill="none" stroke="black" stroke-dasharray="5,2" d="M1989.23,-126C2000.89,-126 2013.82,-126 2024.82,-126"/>
</g>
<!-- undo -->
<g id="node23" class="node">
<title>undo</title>
<polygon fill="pink" stroke="pink" points="2171,-144 2115,-144 2115,-108 2171,-108 2171,-144"/>
<text text-anchor="start" x="2123" y="-128.6" font-family="Verdana" font-size="8.00">Undo and</text>
<text text-anchor="start" x="2133" y="-119.6" font-family="Verdana" font-size="8.00">Redo</text>
</g>
<!-- viewer&#45;&gt;undo -->
<g id="edge23" class="edge">
<title>viewer&#45;&gt;undo</title>
<path fill="none" stroke="black" d="M2079.22,-119.78C2087.17,-119.29 2096.06,-119.14 2104.59,-119.33"/>
<polygon fill="black" stroke="black" points="2104.6,-122.83 2114.73,-119.72 2104.87,-115.84 2104.6,-122.83"/>
</g>
<!-- viewer&#45;&gt;undo -->
<g id="edge49" class="edge">
<title>viewer&#45;&gt;undo</title>
<path fill="none" stroke="black" stroke-dasharray="5,2" d="M2079.22,-132.22C2090.4,-132.91 2103.44,-132.93 2114.73,-132.28"/>
</g>
<!-- debugger -->
<g id="node25" class="node">
<title>debugger</title>
<polygon fill="pink" stroke="pink" points="2362,-167 2297,-167 2297,-131 2362,-131 2362,-167"/>
<text text-anchor="start" x="2305" y="-147.1" font-family="Verdana" font-size="8.00">A Debugger</text>
</g>
<!-- viewer&#45;&gt;debugger -->
<g id="edge27" class="edge">
<title>viewer&#45;&gt;debugger</title>
<path fill="none" stroke="black" d="M2079.06,-111.81C2089.85,-106.7 2102.7,-101.56 2115,-99 2175.29,-86.44 2244.63,-109.72 2287.52,-128.56"/>
<polygon fill="black" stroke="black" points="2286.22,-131.81 2296.78,-132.74 2289.1,-125.43 2286.22,-131.81"/>
</g>
<!-- undo&#45;&gt;vm -->
<g id="edge50" class="edge">
<title>undo&#45;&gt;vm</title>
<path fill="none" stroke="black" stroke-dasharray="5,2" d="M2171.19,-133.03C2182.54,-135.96 2195.66,-139.35 2206.89,-142.25"/>
</g>
<!-- vm&#45;&gt;debugger -->
<g id="edge26" class="edge">
<title>vm&#45;&gt;debugger</title>
<path fill="none" stroke="black" d="M2261.04,-142.88C2269.05,-142.36 2278.06,-142.16 2286.83,-142.29"/>
<polygon fill="black" stroke="black" points="2286.85,-145.79 2296.94,-142.58 2287.05,-138.79 2286.85,-145.79"/>
</g>
<!-- vm&#45;&gt;debugger -->
<g id="edge51" class="edge">
<title>vm&#45;&gt;debugger</title>
<path fill="none" stroke="black" stroke-dasharray="5,2" d="M2261.04,-155.12C2272.18,-155.84 2285.27,-155.94 2296.94,-155.42"/>
</g>
</g>
</svg>
