<?xml version="1.0" encoding="UTF-8" standalone="no"?>
<!DOCTYPE svg PUBLIC "-//W3C//DTD SVG 1.1//EN"
 "http://www.w3.org/Graphics/SVG/1.1/DTD/svg11.dtd">
<!-- Generated by graphviz version 6.0.1 (20220911.1526)
 -->
<!-- Title: syllabus Pages: 1 -->
<svg width="593pt" height="422pt"
 viewBox="0.00 0.00 593.00 422.00" xmlns="http://www.w3.org/2000/svg" xmlns:xlink="http://www.w3.org/1999/xlink">
<g id="graph0" class="graph" transform="scale(1 1) rotate(0) translate(4 418)">
<title>syllabus</title>
<polygon fill="white" stroke="none" points="-4,4 -4,-418 589,-418 589,4 -4,4"/>
<!-- archive -->
<g id="node1" class="node">
<title>archive</title>
<polygon fill="cornsilk" stroke="black" points="375.5,-360 321.5,-360 321.5,-324 375.5,-324 375.5,-360"/>
<text text-anchor="start" x="332" y="-344.8" font-family="Verdana" font-size="9.00">version</text>
<text text-anchor="start" x="333" y="-334.8" font-family="Verdana" font-size="9.00">control</text>
</g>
<!-- glob -->
<g id="node13" class="node">
<title>glob</title>
<polygon fill="cornsilk" stroke="black" points="267,-360 208,-360 208,-324 267,-324 267,-360"/>
<text text-anchor="start" x="216" y="-344.8" font-family="Verdana" font-size="9.00">matching</text>
<text text-anchor="start" x="218.5" y="-334.8" font-family="Verdana" font-size="9.00">patterns</text>
</g>
<!-- archive&#45;&gt;glob -->
<g id="edge1" class="edge">
<title>archive&#45;&gt;glob</title>
<path fill="none" stroke="black" d="M311.32,-342C296.93,-342 280.61,-342 267.07,-342"/>
<polygon fill="black" stroke="black" points="311.39,-345.5 321.39,-342 311.39,-338.5 311.39,-345.5"/>
</g>
<!-- mock -->
<g id="node19" class="node">
<title>mock</title>
<polygon fill="cornsilk" stroke="black" points="264.5,-293 210.5,-293 210.5,-257 264.5,-257 264.5,-293"/>
<text text-anchor="start" x="225" y="-277.8" font-family="Verdana" font-style="italic" font-size="9.00">mock</text>
<text text-anchor="start" x="221.5" y="-268.8" font-family="Verdana" font-style="italic" font-size="9.00">objects</text>
</g>
<!-- archive&#45;&gt;mock -->
<g id="edge2" class="edge">
<title>archive&#45;&gt;mock</title>
<path fill="none" stroke="black" d="M312.59,-320.54C297.07,-311 279.12,-299.97 264.77,-291.15"/>
<polygon fill="black" stroke="black" points="311.04,-323.7 321.39,-325.95 314.71,-317.73 311.04,-323.7"/>
</g>
<!-- binary -->
<g id="node2" class="node">
<title>binary</title>
<polygon fill="cornsilk" stroke="black" points="264.5,-90 210.5,-90 210.5,-54 264.5,-54 264.5,-90"/>
<text text-anchor="start" x="223.5" y="-74.8" font-family="Verdana" font-size="9.00">binary</text>
<text text-anchor="start" x="227.5" y="-64.8" font-family="Verdana" font-size="9.00">data</text>
</g>
<!-- dup -->
<g id="node9" class="node">
<title>dup</title>
<polygon fill="aquamarine" stroke="black" points="158,-90 100,-90 100,-54 158,-54 158,-90"/>
<text text-anchor="start" x="109" y="-74.8" font-family="Verdana" font-size="9.00">duplicate</text>
<text text-anchor="start" x="108" y="-64.8" font-family="Verdana" font-size="9.00">file finder</text>
</g>
<!-- binary&#45;&gt;dup -->
<g id="edge3" class="edge">
<title>binary&#45;&gt;dup</title>
<path fill="none" stroke="black" d="M200.29,-72C186.48,-72 170.96,-72 158.02,-72"/>
<polygon fill="black" stroke="black" points="200.45,-75.5 210.45,-72 200.45,-68.5 200.45,-75.5"/>
</g>
<!-- build -->
<g id="node3" class="node">
<title>build</title>
<polygon fill="cornsilk" stroke="black" points="484.5,-306 428.5,-306 428.5,-270 484.5,-270 484.5,-306"/>
<text text-anchor="start" x="445.5" y="-290.8" font-family="Verdana" font-size="9.00">build</text>
<text text-anchor="start" x="436.5" y="-280.8" font-family="Verdana" font-size="9.00">manager</text>
</g>
<!-- cache -->
<g id="node4" class="node">
<title>cache</title>
<polygon fill="cornsilk" stroke="black" points="485.5,-360 427.5,-360 427.5,-324 485.5,-324 485.5,-360"/>
<text text-anchor="start" x="435.5" y="-340.8" font-family="Verdana" font-style="italic" font-size="9.00">file cache</text>
</g>
<!-- cache&#45;&gt;archive -->
<g id="edge4" class="edge">
<title>cache&#45;&gt;archive</title>
<path fill="none" stroke="black" d="M417.16,-342C403.35,-342 388.1,-342 375.57,-342"/>
<polygon fill="black" stroke="black" points="417.37,-345.5 427.37,-342 417.37,-338.5 417.37,-345.5"/>
</g>
<!-- server -->
<g id="node25" class="node">
<title>server</title>
<polygon fill="aquamarine" stroke="black" points="375.5,-306 321.5,-306 321.5,-270 375.5,-270 375.5,-306"/>
<text text-anchor="start" x="339" y="-290.8" font-family="Verdana" font-size="9.00">web</text>
<text text-anchor="start" x="334.5" y="-280.8" font-family="Verdana" font-size="9.00">server</text>
</g>
<!-- cache&#45;&gt;server -->
<g id="edge5" class="edge">
<title>cache&#45;&gt;server</title>
<path fill="none" stroke="black" d="M418.38,-323.09C404.25,-315.89 388.46,-307.85 375.57,-301.28"/>
<polygon fill="black" stroke="black" points="416.87,-326.25 427.37,-327.67 420.05,-320.01 416.87,-326.25"/>
</g>
<!-- check -->
<g id="node5" class="node">
<title>check</title>
<polygon fill="aquamarine" stroke="black" points="376.5,-198 320.5,-198 320.5,-162 376.5,-162 376.5,-198"/>
<text text-anchor="start" x="328.5" y="-182.8" font-family="Verdana" font-style="italic" font-size="9.00">checking</text>
<text text-anchor="start" x="336" y="-173.8" font-family="Verdana" font-style="italic" font-size="9.00">HTML</text>
</g>
<!-- compiler -->
<g id="node6" class="node">
<title>compiler</title>
<polygon fill="cornsilk" stroke="black" points="483.5,-90 429.5,-90 429.5,-54 483.5,-54 483.5,-90"/>
<text text-anchor="start" x="437.5" y="-70.8" font-family="Verdana" font-style="italic" font-size="9.00">compiler</text>
</g>
<!-- vm -->
<g id="node29" class="node">
<title>vm</title>
<polygon fill="cornsilk" stroke="black" points="376,-90 321,-90 321,-54 376,-54 376,-90"/>
<text text-anchor="start" x="334" y="-74.8" font-family="Verdana" font-size="9.00">virtual</text>
<text text-anchor="start" x="329" y="-64.8" font-family="Verdana" font-size="9.00">machine</text>
</g>
<!-- compiler&#45;&gt;vm -->
<g id="edge6" class="edge">
<title>compiler&#45;&gt;vm</title>
<path fill="none" stroke="black" d="M418.95,-72C404.88,-72 389.1,-72 376.14,-72"/>
<polygon fill="black" stroke="black" points="419.3,-75.5 429.3,-72 419.3,-68.5 419.3,-75.5"/>
</g>
<!-- debug -->
<g id="node7" class="node">
<title>debug</title>
<polygon fill="pink" stroke="black" points="584.5,-90 526.5,-90 526.5,-54 584.5,-54 584.5,-90"/>
<text text-anchor="start" x="534.5" y="-70.8" font-family="Verdana" font-style="italic" font-size="9.00">debugger</text>
</g>
<!-- debug&#45;&gt;compiler -->
<g id="edge9" class="edge">
<title>debug&#45;&gt;compiler</title>
<path fill="none" stroke="black" d="M516.23,-72C505.25,-72 493.55,-72 483.5,-72"/>
<polygon fill="black" stroke="black" points="516.44,-75.5 526.44,-72 516.44,-68.5 516.44,-75.5"/>
</g>
<!-- editor -->
<g id="node10" class="node">
<title>editor</title>
<polygon fill="aquamarine" stroke="black" points="483.5,-36 429.5,-36 429.5,0 483.5,0 483.5,-36"/>
<text text-anchor="start" x="447" y="-20.8" font-family="Verdana" font-size="9.00">text</text>
<text text-anchor="start" x="443.5" y="-10.8" font-family="Verdana" font-size="9.00">editor</text>
</g>
<!-- debug&#45;&gt;editor -->
<g id="edge10" class="edge">
<title>debug&#45;&gt;editor</title>
<path fill="none" stroke="black" d="M517.58,-51.45C506.22,-45.12 493.96,-38.3 483.5,-32.47"/>
<polygon fill="black" stroke="black" points="516,-54.57 526.44,-56.38 519.41,-48.46 516,-54.57"/>
</g>
<!-- db -->
<g id="node8" class="node">
<title>db</title>
<polygon fill="pink" stroke="black" points="583.5,-387 527.5,-387 527.5,-351 583.5,-351 583.5,-387"/>
<text text-anchor="start" x="535.5" y="-366.8" font-family="Verdana" font-size="9.00">database</text>
</g>
<!-- db&#45;&gt;cache -->
<g id="edge7" class="edge">
<title>db&#45;&gt;cache</title>
<path fill="none" stroke="black" d="M517.65,-358.74C507.07,-355.8 495.7,-352.63 485.73,-349.86"/>
<polygon fill="black" stroke="black" points="516.91,-362.17 527.48,-361.48 518.78,-355.43 516.91,-362.17"/>
</g>
<!-- persist -->
<g id="node24" class="node">
<title>persist</title>
<polygon fill="cornsilk" stroke="black" points="490,-414 423,-414 423,-378 490,-378 490,-414"/>
<text text-anchor="start" x="442.5" y="-398.8" font-family="Verdana" font-size="9.00">object</text>
<text text-anchor="start" x="431" y="-388.8" font-family="Verdana" font-size="9.00">persistence</text>
</g>
<!-- db&#45;&gt;persist -->
<g id="edge8" class="edge">
<title>db&#45;&gt;persist</title>
<path fill="none" stroke="black" d="M517.62,-379.26C508.61,-381.77 499.04,-384.44 490.24,-386.89"/>
<polygon fill="black" stroke="black" points="518.78,-382.57 527.48,-376.52 516.91,-375.83 518.78,-382.57"/>
</g>
<!-- flow -->
<g id="node11" class="node">
<title>flow</title>
<polygon fill="pink" stroke="black" points="583.5,-306 527.5,-306 527.5,-270 583.5,-270 583.5,-306"/>
<text text-anchor="start" x="535.5" y="-290.8" font-family="Verdana" font-size="9.00">workflow</text>
<text text-anchor="start" x="540" y="-280.8" font-family="Verdana" font-size="9.00">runner</text>
</g>
<!-- flow&#45;&gt;build -->
<g id="edge11" class="edge">
<title>flow&#45;&gt;build</title>
<path fill="none" stroke="black" d="M517.39,-288C506.52,-288 494.84,-288 484.71,-288"/>
<polygon fill="black" stroke="black" points="517.48,-291.5 527.48,-288 517.48,-284.5 517.48,-291.5"/>
</g>
<!-- func -->
<g id="node12" class="node">
<title>func</title>
<polygon fill="cornsilk" stroke="black" points="387,-144 310,-144 310,-108 387,-108 387,-144"/>
<text text-anchor="start" x="327.5" y="-128.8" font-family="Verdana" font-style="italic" font-size="9.00">functions</text>
<text text-anchor="start" x="318" y="-119.8" font-family="Verdana" font-style="italic" font-size="9.00">and call stack</text>
</g>
<!-- interp -->
<g id="node15" class="node">
<title>interp</title>
<polygon fill="cornsilk" stroke="black" points="272,-225 203,-225 203,-189 272,-189 272,-225"/>
<text text-anchor="start" x="211" y="-209.8" font-family="Verdana" font-size="9.00">interpreting</text>
<text text-anchor="start" x="211.5" y="-199.8" font-family="Verdana" font-size="9.00">expressions</text>
</g>
<!-- func&#45;&gt;interp -->
<g id="edge12" class="edge">
<title>func&#45;&gt;interp</title>
<path fill="none" stroke="black" d="M313.69,-150.29C312.45,-151.2 311.21,-152.11 310,-153 300.99,-159.65 279.49,-175.9 262.41,-188.85"/>
<polygon fill="black" stroke="black" points="316,-152.94 322.03,-144.22 311.88,-147.28 316,-152.94"/>
</g>
<!-- test -->
<g id="node27" class="node">
<title>test</title>
<polygon fill="cornsilk" stroke="black" points="156,-293 102,-293 102,-257 156,-257 156,-293"/>
<text text-anchor="start" x="119.5" y="-277.8" font-family="Verdana" font-size="9.00">unit</text>
<text text-anchor="start" x="113.5" y="-267.8" font-family="Verdana" font-size="9.00">testing</text>
</g>
<!-- glob&#45;&gt;test -->
<g id="edge13" class="edge">
<title>glob&#45;&gt;test</title>
<path fill="none" stroke="black" d="M199.33,-318.62C185.06,-309.64 169.08,-299.59 156.06,-291.4"/>
<polygon fill="black" stroke="black" points="197.63,-321.68 207.96,-324.05 201.36,-315.76 197.63,-321.68"/>
</g>
<!-- install -->
<g id="node14" class="node">
<title>install</title>
<polygon fill="pink" stroke="black" points="582.5,-252 528.5,-252 528.5,-216 582.5,-216 582.5,-252"/>
<text text-anchor="start" x="537.5" y="-232.8" font-family="Verdana" font-style="italic" font-size="9.00">installer</text>
</g>
<!-- install&#45;&gt;build -->
<g id="edge14" class="edge">
<title>install&#45;&gt;build</title>
<path fill="none" stroke="black" d="M519.39,-253.54C507.99,-259.89 495.53,-266.83 484.79,-272.81"/>
<polygon fill="black" stroke="black" points="521.22,-256.54 528.25,-248.61 517.81,-250.42 521.22,-256.54"/>
</g>
<!-- pack -->
<g id="node21" class="node">
<title>pack</title>
<polygon fill="aquamarine" stroke="black" points="484.5,-252 428.5,-252 428.5,-216 484.5,-216 484.5,-252"/>
<text text-anchor="start" x="438" y="-236.8" font-family="Verdana" font-size="9.00">package</text>
<text text-anchor="start" x="436.5" y="-226.8" font-family="Verdana" font-size="9.00">manager</text>
</g>
<!-- install&#45;&gt;pack -->
<g id="edge15" class="edge">
<title>install&#45;&gt;pack</title>
<path fill="none" stroke="black" d="M518.03,-234C507.01,-234 495.1,-234 484.79,-234"/>
<polygon fill="black" stroke="black" points="518.25,-237.5 528.25,-234 518.25,-230.5 518.25,-237.5"/>
</g>
<!-- template -->
<g id="node26" class="node">
<title>template</title>
<polygon fill="cornsilk" stroke="black" points="487,-144 426,-144 426,-108 487,-108 487,-144"/>
<text text-anchor="start" x="444" y="-128.8" font-family="Verdana" font-size="9.00">HTML</text>
<text text-anchor="start" x="434" y="-118.8" font-family="Verdana" font-size="9.00">templates</text>
</g>
<!-- install&#45;&gt;template -->
<g id="edge16" class="edge">
<title>install&#45;&gt;template</title>
<path fill="none" stroke="black" d="M535.68,-207.64C523.45,-191.23 506.71,-170.06 490,-153 487.02,-149.96 483.73,-146.91 480.41,-144.02"/>
<polygon fill="black" stroke="black" points="532.9,-209.77 541.65,-215.75 538.54,-205.62 532.9,-209.77"/>
</g>
<!-- meta -->
<g id="node18" class="node">
<title>meta</title>
<polygon fill="cornsilk" stroke="black" points="165,-232 93,-232 93,-196 165,-196 165,-232"/>
<text text-anchor="start" x="101" y="-216.8" font-family="Verdana" font-style="italic" font-size="9.00">closures and</text>
<text text-anchor="start" x="105.5" y="-207.8" font-family="Verdana" font-style="italic" font-size="9.00">decorators</text>
</g>
<!-- interp&#45;&gt;meta -->
<g id="edge17" class="edge">
<title>interp&#45;&gt;meta</title>
<path fill="none" stroke="black" d="M192.72,-209.88C183.6,-210.48 174.09,-211.1 165.32,-211.68"/>
<polygon fill="black" stroke="black" points="193.05,-213.36 202.8,-209.21 192.59,-206.38 193.05,-213.36"/>
</g>
<!-- layout -->
<g id="node16" class="node">
<title>layout</title>
<polygon fill="pink" stroke="black" points="582.5,-144 528.5,-144 528.5,-108 582.5,-108 582.5,-144"/>
<text text-anchor="start" x="544.5" y="-128.8" font-family="Verdana" font-style="italic" font-size="9.00">page</text>
<text text-anchor="start" x="541.5" y="-119.8" font-family="Verdana" font-style="italic" font-size="9.00">layout</text>
</g>
<!-- layout&#45;&gt;template -->
<g id="edge18" class="edge">
<title>layout&#45;&gt;template</title>
<path fill="none" stroke="black" d="M518.01,-126C507.84,-126 496.92,-126 487.2,-126"/>
<polygon fill="black" stroke="black" points="518.25,-129.5 528.25,-126 518.25,-122.5 518.25,-129.5"/>
</g>
<!-- lint -->
<g id="node17" class="node">
<title>lint</title>
<polygon fill="pink" stroke="black" points="483.5,-198 429.5,-198 429.5,-162 483.5,-162 483.5,-198"/>
<text text-anchor="start" x="442.5" y="-177.8" font-family="Verdana" font-size="9.00">linting</text>
</g>
<!-- lint&#45;&gt;check -->
<g id="edge19" class="edge">
<title>lint&#45;&gt;check</title>
<path fill="none" stroke="black" d="M419.03,-180C405.08,-180 389.42,-180 376.51,-180"/>
<polygon fill="black" stroke="black" points="419.3,-183.5 429.3,-180 419.3,-176.5 419.3,-183.5"/>
</g>
<!-- oop -->
<g id="node20" class="node">
<title>oop</title>
<polygon fill="aquamarine" stroke="black" points="57,-262 0,-262 0,-226 57,-226 57,-262"/>
<text text-anchor="start" x="8" y="-246.8" font-family="Verdana" font-style="italic" font-size="9.00">class and</text>
<text text-anchor="start" x="12.5" y="-237.8" font-family="Verdana" font-style="italic" font-size="9.00">objects</text>
</g>
<!-- meta&#45;&gt;oop -->
<g id="edge20" class="edge">
<title>meta&#45;&gt;oop</title>
<path fill="none" stroke="black" d="M83.18,-227.65C74.35,-230.34 65.34,-233.08 57.28,-235.54"/>
<polygon fill="black" stroke="black" points="84.45,-230.92 93,-224.66 82.41,-224.23 84.45,-230.92"/>
</g>
<!-- mock&#45;&gt;meta -->
<g id="edge21" class="edge">
<title>mock&#45;&gt;meta</title>
<path fill="none" stroke="black" d="M201.4,-254.9C188.52,-247.52 174.02,-239.21 161.48,-232.03"/>
<polygon fill="black" stroke="black" points="200.03,-258.14 210.45,-260.08 203.51,-252.07 200.03,-258.14"/>
</g>
<!-- mock&#45;&gt;test -->
<g id="edge22" class="edge">
<title>mock&#45;&gt;test</title>
<path fill="none" stroke="black" d="M200.3,-275C185.82,-275 169.45,-275 156.15,-275"/>
<polygon fill="black" stroke="black" points="200.45,-278.5 210.45,-275 200.45,-271.5 200.45,-278.5"/>
</g>
<!-- parse -->
<g id="node22" class="node">
<title>parse</title>
<polygon fill="cornsilk" stroke="black" points="375.5,-414 321.5,-414 321.5,-378 375.5,-378 375.5,-414"/>
<text text-anchor="start" x="332" y="-398.8" font-family="Verdana" font-size="9.00">parsing</text>
<text text-anchor="start" x="339" y="-388.8" font-family="Verdana" font-size="9.00">text</text>
</g>
<!-- parse&#45;&gt;glob -->
<g id="edge23" class="edge">
<title>parse&#45;&gt;glob</title>
<path fill="none" stroke="black" d="M312.16,-378.49C297.57,-371.26 280.87,-362.99 267.07,-356.16"/>
<polygon fill="black" stroke="black" points="310.88,-381.76 321.39,-383.07 313.98,-375.49 310.88,-381.76"/>
</g>
<!-- perf -->
<g id="node23" class="node">
<title>perf</title>
<polygon fill="pink" stroke="black" points="274,-171 201,-171 201,-135 274,-135 274,-171"/>
<text text-anchor="start" x="209" y="-155.8" font-family="Verdana" font-size="9.00">performance</text>
<text text-anchor="start" x="219.5" y="-145.8" font-family="Verdana" font-size="9.00">profiling</text>
</g>
<!-- perf&#45;&gt;meta -->
<g id="edge24" class="edge">
<title>perf&#45;&gt;meta</title>
<path fill="none" stroke="black" d="M195.96,-176.22C184.63,-182.71 172.47,-189.67 161.73,-195.83"/>
<polygon fill="black" stroke="black" points="197.9,-179.14 204.83,-171.14 194.42,-173.07 197.9,-179.14"/>
</g>
<!-- persist&#45;&gt;parse -->
<g id="edge25" class="edge">
<title>persist&#45;&gt;parse</title>
<path fill="none" stroke="black" d="M412.54,-396C399.99,-396 386.66,-396 375.51,-396"/>
<polygon fill="black" stroke="black" points="412.83,-399.5 422.83,-396 412.83,-392.5 412.83,-399.5"/>
</g>
<!-- template&#45;&gt;check -->
<g id="edge26" class="edge">
<title>template&#45;&gt;check</title>
<path fill="none" stroke="black" d="M416.98,-145.62C403.63,-152.43 388.94,-159.91 376.69,-166.15"/>
<polygon fill="black" stroke="black" points="418.65,-148.7 425.97,-141.04 415.47,-142.46 418.65,-148.7"/>
</g>
<!-- template&#45;&gt;func -->
<g id="edge27" class="edge">
<title>template&#45;&gt;func</title>
<path fill="none" stroke="black" d="M415.74,-126C406.39,-126 396.46,-126 387.21,-126"/>
<polygon fill="black" stroke="black" points="415.97,-129.5 425.97,-126 415.97,-122.5 415.97,-129.5"/>
</g>
<!-- test&#45;&gt;oop -->
<g id="edge28" class="edge">
<title>test&#45;&gt;oop</title>
<path fill="none" stroke="black" d="M92.08,-263.69C80.55,-260.07 67.98,-256.11 57.14,-252.7"/>
<polygon fill="black" stroke="black" points="91.27,-267.11 101.86,-266.77 93.37,-260.43 91.27,-267.11"/>
</g>
<!-- undo -->
<g id="node28" class="node">
<title>undo</title>
<polygon fill="pink" stroke="black" points="585,-36 526,-36 526,0 585,0 585,-36"/>
<text text-anchor="start" x="534" y="-20.8" font-family="Verdana" font-style="italic" font-size="9.00">undo and</text>
<text text-anchor="start" x="545.5" y="-11.8" font-family="Verdana" font-style="italic" font-size="9.00">redo</text>
</g>
<!-- undo&#45;&gt;editor -->
<g id="edge29" class="edge">
<title>undo&#45;&gt;editor</title>
<path fill="none" stroke="black" d="M515.82,-18C504.98,-18 493.47,-18 483.56,-18"/>
<polygon fill="black" stroke="black" points="515.92,-21.5 525.92,-18 515.92,-14.5 515.92,-21.5"/>
</g>
<!-- vm&#45;&gt;binary -->
<g id="edge30" class="edge">
<title>vm&#45;&gt;binary</title>
<path fill="none" stroke="black" d="M310.73,-72C295.56,-72 278.34,-72 264.51,-72"/>
<polygon fill="black" stroke="black" points="310.84,-75.5 320.84,-72 310.84,-68.5 310.84,-75.5"/>
</g>
<!-- vm&#45;&gt;interp -->
<g id="edge31" class="edge">
<title>vm&#45;&gt;interp</title>
<path fill="none" stroke="black" d="M313.46,-95.12C312.24,-96.38 311.08,-97.67 310,-99 285.15,-129.57 298.45,-149.11 274,-180 271.5,-183.16 268.55,-186.15 265.44,-188.9"/>
<polygon fill="black" stroke="black" points="315.86,-97.67 320.94,-88.37 311.17,-92.47 315.86,-97.67"/>
</g>
</g>
</svg>
