<?xml version="1.0" encoding="UTF-8" standalone="no"?>
<!DOCTYPE svg PUBLIC "-//W3C//DTD SVG 1.1//EN"
 "http://www.w3.org/Graphics/SVG/1.1/DTD/svg11.dtd">
<!-- Generated by graphviz version 7.1.0 (20230121.1956)
 -->
<!-- Pages: 1 -->
<svg width="2370pt" height="340pt"
 viewBox="0.00 0.00 2370.00 340.00" xmlns="http://www.w3.org/2000/svg" xmlns:xlink="http://www.w3.org/1999/xlink">
<g id="graph0" class="graph" transform="scale(1 1) rotate(0) translate(4 336)">
<polygon fill="white" stroke="none" points="-4,4 -4,-336 2366,-336 2366,4 -4,4"/>
<!-- oop -->
<g id="node1" class="node">
<title>oop</title>
<polygon fill="aquamarine" stroke="aquamarine" points="65,-102 0,-102 0,-66 65,-66 65,-102"/>
<text text-anchor="start" x="8" y="-86.6" font-family="Verdana" font-size="8.00">Objects and</text>
<text text-anchor="start" x="17" y="-77.6" font-family="Verdana" font-size="8.00">Classes</text>
</g>
<!-- dup -->
<g id="node2" class="node">
<title>dup</title>
<polygon fill="aquamarine" stroke="aquamarine" points="155,-102 101,-102 101,-66 155,-66 155,-102"/>
<text text-anchor="start" x="112.5" y="-91.1" font-family="Verdana" font-size="8.00">Finding</text>
<text text-anchor="start" x="109" y="-82.1" font-family="Verdana" font-size="8.00">Duplicate</text>
<text text-anchor="start" x="118.5" y="-73.1" font-family="Verdana" font-size="8.00">Files</text>
</g>
<!-- oop&#45;&gt;dup -->
<g id="edge28" class="edge">
<title>oop&#45;&gt;dup</title>
<path fill="none" stroke="black" stroke-dasharray="5,2" d="M65.42,-84C76.84,-84 89.59,-84 100.51,-84"/>
</g>
<!-- interp -->
<g id="node6" class="node">
<title>interp</title>
<polygon fill="cornsilk" stroke="cornsilk" points="534,-269 473,-269 473,-233 534,-233 534,-269"/>
<text text-anchor="start" x="498" y="-253.6" font-family="Verdana" font-size="8.00">An</text>
<text text-anchor="start" x="481" y="-244.6" font-family="Verdana" font-size="8.00">Interpreter</text>
</g>
<!-- oop&#45;&gt;interp -->
<g id="edge3" class="edge">
<title>oop&#45;&gt;interp</title>
<path fill="none" stroke="black" d="M39.22,-102.16C56.68,-153.67 114.5,-297 217,-297 217,-297 217,-297 315,-297 369.88,-297 384.15,-292.78 437,-278 445.32,-275.67 454,-272.59 462.22,-269.34"/>
<polygon fill="black" stroke="black" points="463.39,-272.65 471.3,-265.6 460.72,-266.18 463.39,-272.65"/>
</g>
<!-- mock -->
<g id="node8" class="node">
<title>mock</title>
<polygon fill="cornsilk" stroke="cornsilk" points="734,-148 675,-148 675,-104 734,-104 734,-148"/>
<text text-anchor="start" x="690.5" y="-137.6" font-family="Verdana" font-size="8.00">Mocks,</text>
<text text-anchor="start" x="684.5" y="-128.6" font-family="Verdana" font-size="8.00">Protocols,</text>
<text text-anchor="start" x="696.5" y="-119.6" font-family="Verdana" font-size="8.00">and</text>
<text text-anchor="start" x="683" y="-110.6" font-family="Verdana" font-size="8.00">Decorators</text>
</g>
<!-- oop&#45;&gt;mock -->
<g id="edge6" class="edge">
<title>oop&#45;&gt;mock</title>
<path fill="none" stroke="black" d="M56.57,-65.57C89.92,-40.84 154.46,0 217,0 217,0 217,0 411,0 509.06,0 611.64,-60.47 665.41,-97.63"/>
<polygon fill="black" stroke="black" points="663.12,-100.3 673.31,-103.18 667.14,-94.57 663.12,-100.3"/>
</g>
<!-- glob -->
<g id="node3" class="node">
<title>glob</title>
<polygon fill="aquamarine" stroke="aquamarine" points="245,-162 191,-162 191,-126 245,-126 245,-162"/>
<text text-anchor="start" x="199.5" y="-146.6" font-family="Verdana" font-size="8.00">Matching</text>
<text text-anchor="start" x="201" y="-137.6" font-family="Verdana" font-size="8.00">Patterns</text>
</g>
<!-- dup&#45;&gt;glob -->
<g id="edge29" class="edge">
<title>dup&#45;&gt;glob</title>
<path fill="none" stroke="black" stroke-dasharray="5,2" d="M155.4,-102C166.54,-109.6 179.48,-118.42 190.62,-126.01"/>
</g>
<!-- archive -->
<g id="node9" class="node">
<title>archive</title>
<polygon fill="cornsilk" stroke="cornsilk" points="824,-98 770,-98 770,-62 824,-62 824,-98"/>
<text text-anchor="start" x="786" y="-82.6" font-family="Verdana" font-size="8.00">A File</text>
<text text-anchor="start" x="780" y="-73.6" font-family="Verdana" font-size="8.00">Archiver</text>
</g>
<!-- dup&#45;&gt;archive -->
<g id="edge7" class="edge">
<title>dup&#45;&gt;archive</title>
<path fill="none" stroke="black" d="M155.3,-73.1C190.55,-59.5 255.38,-38 313,-38 313,-38 313,-38 605.5,-38 659.91,-38 721.04,-54.54 759.04,-66.86"/>
<polygon fill="black" stroke="black" points="757.56,-70.05 768.15,-69.89 759.77,-63.41 757.56,-70.05"/>
</g>
<!-- parse -->
<g id="node4" class="node">
<title>parse</title>
<polygon fill="cornsilk" stroke="cornsilk" points="347,-181 281,-181 281,-145 347,-145 347,-181"/>
<text text-anchor="start" x="289" y="-161.1" font-family="Verdana" font-size="8.00">Parsing Text</text>
</g>
<!-- glob&#45;&gt;parse -->
<g id="edge1" class="edge">
<title>glob&#45;&gt;parse</title>
<path fill="none" stroke="black" d="M245.43,-143.2C252.98,-144.25 261.4,-145.76 269.67,-147.51"/>
<polygon fill="black" stroke="black" points="268.75,-150.89 279.27,-149.7 270.3,-144.06 268.75,-150.89"/>
</g>
<!-- glob&#45;&gt;parse -->
<g id="edge30" class="edge">
<title>glob&#45;&gt;parse</title>
<path fill="none" stroke="black" stroke-dasharray="5,2" d="M245.43,-155.48C256.4,-158.39 269.23,-161.09 280.75,-162.93"/>
</g>
<!-- glob&#45;&gt;archive -->
<g id="edge8" class="edge">
<title>glob&#45;&gt;archive</title>
<path fill="none" stroke="black" d="M245.31,-128.06C281.04,-107.96 347.51,-76 409,-76 409,-76 409,-76 605.5,-76 658.45,-76 719.66,-77.56 758.1,-78.74"/>
<polygon fill="black" stroke="black" points="757.88,-82.23 767.99,-79.05 758.1,-75.23 757.88,-82.23"/>
</g>
<!-- test -->
<g id="node5" class="node">
<title>test</title>
<polygon fill="aquamarine" stroke="aquamarine" points="437,-269 383,-269 383,-233 437,-233 437,-269"/>
<text text-anchor="start" x="393" y="-253.6" font-family="Verdana" font-size="8.00">Running</text>
<text text-anchor="start" x="399" y="-244.6" font-family="Verdana" font-size="8.00">Tests</text>
</g>
<!-- parse&#45;&gt;test -->
<g id="edge31" class="edge">
<title>parse&#45;&gt;test</title>
<path fill="none" stroke="black" stroke-dasharray="5,2" d="M334.48,-181.23C350.61,-196.34 373.42,-217.69 389.55,-232.79"/>
</g>
<!-- check -->
<g id="node10" class="node">
<title>check</title>
<polygon fill="cornsilk" stroke="cornsilk" points="914,-221 860,-221 860,-185 914,-185 914,-221"/>
<text text-anchor="start" x="868.5" y="-205.6" font-family="Verdana" font-size="8.00">An HTML</text>
<text text-anchor="start" x="869" y="-196.6" font-family="Verdana" font-size="8.00">Validator</text>
</g>
<!-- parse&#45;&gt;check -->
<g id="edge10" class="edge">
<title>parse&#45;&gt;check</title>
<path fill="none" stroke="black" d="M347.17,-166.48C395.49,-171.6 489.73,-181.19 570,-187 670.46,-194.27 789.13,-199.33 848.38,-201.62"/>
<polygon fill="black" stroke="black" points="848.12,-205.11 858.25,-202 848.39,-198.12 848.12,-205.11"/>
</g>
<!-- test&#45;&gt;interp -->
<g id="edge2" class="edge">
<title>test&#45;&gt;interp</title>
<path fill="none" stroke="black" d="M437.47,-244.81C444.84,-244.36 453.04,-244.18 461.05,-244.28"/>
<polygon fill="black" stroke="black" points="460.94,-247.77 471.04,-244.58 461.15,-240.78 460.94,-247.77"/>
</g>
<!-- test&#45;&gt;interp -->
<g id="edge32" class="edge">
<title>test&#45;&gt;interp</title>
<path fill="none" stroke="black" stroke-dasharray="5,2" d="M437.47,-257.19C448.44,-257.87 461.24,-257.93 472.56,-257.38"/>
</g>
<!-- func -->
<g id="node7" class="node">
<title>func</title>
<polygon fill="cornsilk" stroke="cornsilk" points="639,-178 570,-178 570,-142 639,-142 639,-178"/>
<text text-anchor="start" x="584.5" y="-162.6" font-family="Verdana" font-size="8.00">Functions</text>
<text text-anchor="start" x="578" y="-153.6" font-family="Verdana" font-size="8.00">and Closures</text>
</g>
<!-- interp&#45;&gt;func -->
<g id="edge4" class="edge">
<title>interp&#45;&gt;func</title>
<path fill="none" stroke="black" d="M519.11,-232.62C532.02,-219.1 551.39,-200.78 568.31,-185.85"/>
<polygon fill="black" stroke="black" points="570.5,-188.59 575.75,-179.39 565.91,-183.31 570.5,-188.59"/>
</g>
<!-- interp&#45;&gt;func -->
<g id="edge33" class="edge">
<title>interp&#45;&gt;func</title>
<path fill="none" stroke="black" stroke-dasharray="5,2" d="M531.03,-232.67C549.59,-216.82 573.68,-194.31 588.87,-178.41"/>
</g>
<!-- template -->
<g id="node11" class="node">
<title>template</title>
<polygon fill="cornsilk" stroke="cornsilk" points="1011,-266 950,-266 950,-230 1011,-230 1011,-266"/>
<text text-anchor="start" x="958" y="-250.6" font-family="Verdana" font-size="8.00">A Template</text>
<text text-anchor="start" x="961" y="-241.6" font-family="Verdana" font-size="8.00">Expander</text>
</g>
<!-- interp&#45;&gt;template -->
<g id="edge12" class="edge">
<title>interp&#45;&gt;template</title>
<path fill="none" stroke="black" d="M534.17,-250.52C573.05,-249.92 643.38,-249 703.5,-249 703.5,-249 703.5,-249 798,-249 846.2,-249 901.59,-248.64 938.37,-248.36"/>
<polygon fill="black" stroke="black" points="938.15,-251.86 948.12,-248.28 938.09,-244.86 938.15,-251.86"/>
</g>
<!-- persist -->
<g id="node15" class="node">
<title>persist</title>
<polygon fill="cornsilk" stroke="cornsilk" points="1403,-228 1341,-228 1341,-192 1403,-192 1403,-228"/>
<text text-anchor="start" x="1358.5" y="-212.6" font-family="Verdana" font-size="8.00">Object</text>
<text text-anchor="start" x="1349" y="-203.6" font-family="Verdana" font-size="8.00">Persistence</text>
</g>
<!-- interp&#45;&gt;persist -->
<g id="edge16" class="edge">
<title>interp&#45;&gt;persist</title>
<path fill="none" stroke="black" d="M534.41,-261.63C572.97,-274.36 642.35,-294 703.5,-294 703.5,-294 703.5,-294 1170.5,-294 1232.6,-294 1297.71,-259.29 1336.3,-234.5"/>
<polygon fill="black" stroke="black" points="1337.82,-237.68 1344.26,-229.27 1333.98,-231.84 1337.82,-237.68"/>
</g>
<!-- vm -->
<g id="node24" class="node">
<title>vm</title>
<polygon fill="cornsilk" stroke="cornsilk" points="2261,-205 2207,-205 2207,-169 2261,-169 2261,-205"/>
<text text-anchor="start" x="2216.5" y="-189.6" font-family="Verdana" font-size="8.00">A Virtual</text>
<text text-anchor="start" x="2217" y="-180.6" font-family="Verdana" font-size="8.00">Machine</text>
</g>
<!-- interp&#45;&gt;vm -->
<g id="edge25" class="edge">
<title>interp&#45;&gt;vm</title>
<path fill="none" stroke="black" d="M528.66,-269.41C540.6,-277.83 555.53,-287.38 570,-294 626.1,-319.67 641.81,-332 703.5,-332 703.5,-332 703.5,-332 2053,-332 2126.93,-332 2187.67,-256.91 2215.92,-214.8"/>
<polygon fill="black" stroke="black" points="2218.72,-216.92 2221.25,-206.63 2212.86,-213.09 2218.72,-216.92"/>
</g>
<!-- func&#45;&gt;mock -->
<g id="edge5" class="edge">
<title>func&#45;&gt;mock</title>
<path fill="none" stroke="black" d="M639.23,-141.85C647.14,-138.78 655.65,-135.77 663.8,-133.13"/>
<polygon fill="black" stroke="black" points="664.64,-136.54 673.16,-130.25 662.58,-129.85 664.64,-136.54"/>
</g>
<!-- func&#45;&gt;mock -->
<g id="edge34" class="edge">
<title>func&#45;&gt;mock</title>
<path fill="none" stroke="black" stroke-dasharray="5,2" d="M639.23,-154.75C650.74,-151.22 663.51,-146.71 674.61,-142.24"/>
</g>
<!-- mock&#45;&gt;archive -->
<g id="edge9" class="edge">
<title>mock&#45;&gt;archive</title>
<path fill="none" stroke="black" d="M734.38,-104.98C742.31,-100.53 751.02,-96.01 759.32,-92"/>
<polygon fill="black" stroke="black" points="760.58,-95.28 768.17,-87.89 757.62,-88.93 760.58,-95.28"/>
</g>
<!-- mock&#45;&gt;archive -->
<g id="edge35" class="edge">
<title>mock&#45;&gt;archive</title>
<path fill="none" stroke="black" stroke-dasharray="5,2" d="M734.38,-117.66C746.38,-112.19 760.16,-105.09 771.64,-98.45"/>
</g>
<!-- db -->
<g id="node17" class="node">
<title>db</title>
<polygon fill="pink" stroke="pink" points="1600,-182 1538,-182 1538,-146 1600,-146 1600,-182"/>
<text text-anchor="start" x="1546" y="-162.1" font-family="Verdana" font-size="8.00">A Database</text>
</g>
<!-- mock&#45;&gt;db -->
<g id="edge19" class="edge">
<title>mock&#45;&gt;db</title>
<path fill="none" stroke="black" d="M734.26,-126C769.88,-126 832.41,-126 886,-126 886,-126 886,-126 1373,-126 1426.84,-126 1487.52,-140.13 1526.68,-151.15"/>
<polygon fill="black" stroke="black" points="1525.59,-154.48 1536.17,-153.89 1527.53,-147.76 1525.59,-154.48"/>
</g>
<!-- archive&#45;&gt;check -->
<g id="edge36" class="edge">
<title>archive&#45;&gt;check</title>
<path fill="none" stroke="black" stroke-dasharray="5,2" d="M811.17,-98.41C827.86,-121.74 856.43,-161.67 873.02,-184.86"/>
</g>
<!-- ftp -->
<g id="node20" class="node">
<title>ftp</title>
<polygon fill="cornsilk" stroke="cornsilk" points="1885,-182 1819,-182 1819,-146 1885,-146 1885,-182"/>
<text text-anchor="start" x="1827" y="-166.6" font-family="Verdana" font-size="8.00">Transferring</text>
<text text-anchor="start" x="1842.5" y="-157.6" font-family="Verdana" font-size="8.00">Files</text>
</g>
<!-- archive&#45;&gt;ftp -->
<g id="edge21" class="edge">
<title>archive&#45;&gt;ftp</title>
<path fill="none" stroke="black" d="M824.45,-80.95C859.78,-82.13 924.34,-84 979.5,-84 979.5,-84 979.5,-84 1664,-84 1720.97,-84 1780.4,-115.77 1816.57,-139.27"/>
<polygon fill="black" stroke="black" points="1814.61,-142.17 1824.87,-144.81 1818.49,-136.35 1814.61,-142.17"/>
</g>
<!-- check&#45;&gt;template -->
<g id="edge11" class="edge">
<title>check&#45;&gt;template</title>
<path fill="none" stroke="black" d="M914.47,-209.83C923.79,-213.84 934.42,-218.93 944.35,-224.12"/>
<polygon fill="black" stroke="black" points="942.56,-227.14 953.02,-228.81 945.89,-220.98 942.56,-227.14"/>
</g>
<!-- check&#45;&gt;template -->
<g id="edge37" class="edge">
<title>check&#45;&gt;template</title>
<path fill="none" stroke="black" stroke-dasharray="5,2" d="M913,-221.39C924.33,-227.73 937.8,-234.45 949.65,-239.69"/>
</g>
<!-- lint -->
<g id="node12" class="node">
<title>lint</title>
<polygon fill="pink" stroke="pink" points="1101,-228 1047,-228 1047,-192 1101,-192 1101,-228"/>
<text text-anchor="start" x="1060" y="-212.6" font-family="Verdana" font-size="8.00">A Code</text>
<text text-anchor="start" x="1062" y="-203.6" font-family="Verdana" font-size="8.00">Linter</text>
</g>
<!-- check&#45;&gt;lint -->
<g id="edge13" class="edge">
<title>check&#45;&gt;lint</title>
<path fill="none" stroke="black" d="M914.11,-203.99C945.84,-205.19 999.59,-207.22 1035.67,-208.59"/>
<polygon fill="black" stroke="black" points="1035.08,-212.07 1045.21,-208.95 1035.35,-205.07 1035.08,-212.07"/>
</g>
<!-- layout -->
<g id="node13" class="node">
<title>layout</title>
<polygon fill="pink" stroke="pink" points="1202,-228 1137,-228 1137,-192 1202,-192 1202,-228"/>
<text text-anchor="start" x="1145" y="-208.1" font-family="Verdana" font-size="8.00">Page Layout</text>
</g>
<!-- check&#45;&gt;layout -->
<g id="edge15" class="edge">
<title>check&#45;&gt;layout</title>
<path fill="none" stroke="black" d="M914.46,-195.75C954.97,-185.72 1034.62,-170.22 1101,-183 1109.36,-184.61 1118,-187.25 1126.19,-190.25"/>
<polygon fill="black" stroke="black" points="1124.65,-193.41 1135.23,-193.82 1127.21,-186.89 1124.65,-193.41"/>
</g>
<!-- template&#45;&gt;lint -->
<g id="edge38" class="edge">
<title>template&#45;&gt;lint</title>
<path fill="none" stroke="black" stroke-dasharray="5,2" d="M1011.46,-235.56C1022.82,-230.84 1035.67,-225.5 1046.67,-220.94"/>
</g>
<!-- template&#45;&gt;layout -->
<g id="edge14" class="edge">
<title>template&#45;&gt;layout</title>
<path fill="none" stroke="black" d="M1011.35,-247.63C1035.77,-246.76 1071.02,-244.21 1101,-237 1109.28,-235.01 1117.88,-232.19 1126.06,-229.12"/>
<polygon fill="black" stroke="black" points="1127.08,-232.48 1135.1,-225.55 1124.51,-225.97 1127.08,-232.48"/>
</g>
<!-- lint&#45;&gt;layout -->
<g id="edge39" class="edge">
<title>lint&#45;&gt;layout</title>
<path fill="none" stroke="black" stroke-dasharray="5,2" d="M1101.04,-210C1112.07,-210 1125.02,-210 1136.6,-210"/>
</g>
<!-- perf -->
<g id="node14" class="node">
<title>perf</title>
<polygon fill="aquamarine" stroke="aquamarine" points="1305,-228 1238,-228 1238,-192 1305,-192 1305,-228"/>
<text text-anchor="start" x="1246" y="-212.6" font-family="Verdana" font-size="8.00">Performance</text>
<text text-anchor="start" x="1254.5" y="-203.6" font-family="Verdana" font-size="8.00">Profiling</text>
</g>
<!-- layout&#45;&gt;perf -->
<g id="edge40" class="edge">
<title>layout&#45;&gt;perf</title>
<path fill="none" stroke="black" stroke-dasharray="5,2" d="M1202.42,-210C1213.62,-210 1226.22,-210 1237.51,-210"/>
</g>
<!-- perf&#45;&gt;persist -->
<g id="edge41" class="edge">
<title>perf&#45;&gt;persist</title>
<path fill="none" stroke="black" stroke-dasharray="5,2" d="M1305.3,-210C1316.72,-210 1329.46,-210 1340.67,-210"/>
</g>
<!-- binary -->
<g id="node16" class="node">
<title>binary</title>
<polygon fill="cornsilk" stroke="cornsilk" points="1502,-228 1439,-228 1439,-192 1502,-192 1502,-228"/>
<text text-anchor="start" x="1447" y="-208.1" font-family="Verdana" font-size="8.00">Binary Data</text>
</g>
<!-- persist&#45;&gt;binary -->
<g id="edge17" class="edge">
<title>persist&#45;&gt;binary</title>
<path fill="none" stroke="black" d="M1403.27,-203.69C1410.93,-203.3 1419.3,-203.17 1427.44,-203.3"/>
<polygon fill="black" stroke="black" points="1427.06,-206.79 1437.16,-203.61 1427.28,-199.79 1427.06,-206.79"/>
</g>
<!-- persist&#45;&gt;binary -->
<g id="edge42" class="edge">
<title>persist&#45;&gt;binary</title>
<path fill="none" stroke="black" stroke-dasharray="5,2" d="M1403.27,-216.31C1414.54,-216.89 1427.35,-216.89 1438.67,-216.34"/>
</g>
<!-- persist&#45;&gt;db -->
<g id="edge20" class="edge">
<title>persist&#45;&gt;db</title>
<path fill="none" stroke="black" d="M1403.35,-195.78C1414.38,-191.1 1427.06,-186.27 1439,-183 1467.68,-175.15 1500.9,-170.35 1526.45,-167.54"/>
<polygon fill="black" stroke="black" points="1526.51,-171.05 1536.09,-166.54 1525.79,-164.09 1526.51,-171.05"/>
</g>
<!-- binary&#45;&gt;db -->
<g id="edge18" class="edge">
<title>binary&#45;&gt;db</title>
<path fill="none" stroke="black" d="M1497.36,-191.62C1506.56,-186.62 1517.15,-181.36 1527.29,-176.73"/>
<polygon fill="black" stroke="black" points="1528.5,-180.02 1536.23,-172.78 1525.67,-173.62 1528.5,-180.02"/>
</g>
<!-- binary&#45;&gt;db -->
<g id="edge43" class="edge">
<title>binary&#45;&gt;db</title>
<path fill="none" stroke="black" stroke-dasharray="5,2" d="M1502.3,-201.66C1515.1,-196.19 1529.79,-189.09 1542.02,-182.45"/>
</g>
<!-- binary&#45;&gt;vm -->
<g id="edge24" class="edge">
<title>binary&#45;&gt;vm</title>
<path fill="none" stroke="black" d="M1502.18,-210C1539.83,-210 1605.61,-210 1662,-210 1662,-210 1662,-210 2053,-210 2102.61,-210 2159.29,-201.3 2195.57,-194.6"/>
<polygon fill="black" stroke="black" points="2195.94,-198.09 2205.11,-192.79 2194.64,-191.21 2195.94,-198.09"/>
</g>
<!-- build -->
<g id="node18" class="node">
<title>build</title>
<polygon fill="aquamarine" stroke="aquamarine" points="1690,-182 1636,-182 1636,-146 1690,-146 1690,-182"/>
<text text-anchor="start" x="1648.5" y="-166.6" font-family="Verdana" font-size="8.00">A Build</text>
<text text-anchor="start" x="1645.5" y="-157.6" font-family="Verdana" font-size="8.00">Manager</text>
</g>
<!-- db&#45;&gt;build -->
<g id="edge44" class="edge">
<title>db&#45;&gt;build</title>
<path fill="none" stroke="black" stroke-dasharray="5,2" d="M1600.38,-164C1611.79,-164 1624.65,-164 1635.67,-164"/>
</g>
<!-- pack -->
<g id="node19" class="node">
<title>pack</title>
<polygon fill="aquamarine" stroke="aquamarine" points="1783,-182 1726,-182 1726,-146 1783,-146 1783,-182"/>
<text text-anchor="start" x="1734" y="-166.6" font-family="Verdana" font-size="8.00">A Package</text>
<text text-anchor="start" x="1737" y="-157.6" font-family="Verdana" font-size="8.00">Manager</text>
</g>
<!-- build&#45;&gt;pack -->
<g id="edge45" class="edge">
<title>build&#45;&gt;pack</title>
<path fill="none" stroke="black" stroke-dasharray="5,2" d="M1690.37,-164C1701.51,-164 1714.48,-164 1725.76,-164"/>
</g>
<!-- pack&#45;&gt;ftp -->
<g id="edge46" class="edge">
<title>pack&#45;&gt;ftp</title>
<path fill="none" stroke="black" stroke-dasharray="5,2" d="M1783.38,-164C1794.39,-164 1807.12,-164 1818.54,-164"/>
</g>
<!-- http -->
<g id="node21" class="node">
<title>http</title>
<polygon fill="pink" stroke="pink" points="1989,-182 1921,-182 1921,-146 1989,-146 1989,-182"/>
<text text-anchor="start" x="1929" y="-166.6" font-family="Verdana" font-size="8.00">Serving Web</text>
<text text-anchor="start" x="1943" y="-157.6" font-family="Verdana" font-size="8.00">Pages</text>
</g>
<!-- ftp&#45;&gt;http -->
<g id="edge22" class="edge">
<title>ftp&#45;&gt;http</title>
<path fill="none" stroke="black" d="M1885.23,-157.66C1892.93,-157.3 1901.27,-157.18 1909.41,-157.29"/>
<polygon fill="black" stroke="black" points="1909.07,-160.78 1919.17,-157.57 1909.27,-153.79 1909.07,-160.78"/>
</g>
<!-- ftp&#45;&gt;http -->
<g id="edge47" class="edge">
<title>ftp&#45;&gt;http</title>
<path fill="none" stroke="black" stroke-dasharray="5,2" d="M1885.23,-170.34C1896.55,-170.87 1909.28,-170.89 1920.68,-170.39"/>
</g>
<!-- viewer -->
<g id="node22" class="node">
<title>viewer</title>
<polygon fill="aquamarine" stroke="aquamarine" points="2079,-182 2025,-182 2025,-146 2079,-146 2079,-182"/>
<text text-anchor="start" x="2041" y="-166.6" font-family="Verdana" font-size="8.00">A File</text>
<text text-anchor="start" x="2038" y="-157.6" font-family="Verdana" font-size="8.00">Viewer</text>
</g>
<!-- http&#45;&gt;viewer -->
<g id="edge48" class="edge">
<title>http&#45;&gt;viewer</title>
<path fill="none" stroke="black" stroke-dasharray="5,2" d="M1989.49,-164C2001.03,-164 2013.78,-164 2024.67,-164"/>
</g>
<!-- undo -->
<g id="node23" class="node">
<title>undo</title>
<polygon fill="pink" stroke="pink" points="2171,-182 2115,-182 2115,-146 2171,-146 2171,-182"/>
<text text-anchor="start" x="2123" y="-166.6" font-family="Verdana" font-size="8.00">Undo and</text>
<text text-anchor="start" x="2133" y="-157.6" font-family="Verdana" font-size="8.00">Redo</text>
</g>
<!-- viewer&#45;&gt;undo -->
<g id="edge23" class="edge">
<title>viewer&#45;&gt;undo</title>
<path fill="none" stroke="black" d="M2079.22,-157.78C2086.82,-157.31 2095.28,-157.15 2103.46,-157.3"/>
<polygon fill="black" stroke="black" points="2103.09,-160.79 2113.22,-157.67 2103.35,-153.8 2103.09,-160.79"/>
</g>
<!-- viewer&#45;&gt;undo -->
<g id="edge49" class="edge">
<title>viewer&#45;&gt;undo</title>
<path fill="none" stroke="black" stroke-dasharray="5,2" d="M2079.22,-170.22C2090.4,-170.91 2103.44,-170.93 2114.73,-170.28"/>
</g>
<!-- debugger -->
<g id="node25" class="node">
<title>debugger</title>
<polygon fill="pink" stroke="pink" points="2362,-205 2297,-205 2297,-169 2362,-169 2362,-205"/>
<text text-anchor="start" x="2305" y="-185.1" font-family="Verdana" font-size="8.00">A Debugger</text>
</g>
<!-- viewer&#45;&gt;debugger -->
<g id="edge27" class="edge">
<title>viewer&#45;&gt;debugger</title>
<path fill="none" stroke="black" d="M2079.37,-149.67C2090.09,-144.6 2102.82,-139.54 2115,-137 2174.78,-124.55 2243.47,-147.33 2286.43,-166.08"/>
<polygon fill="black" stroke="black" points="2284.84,-169.21 2295.4,-170.12 2287.71,-162.82 2284.84,-169.21"/>
</g>
<!-- undo&#45;&gt;vm -->
<g id="edge50" class="edge">
<title>undo&#45;&gt;vm</title>
<path fill="none" stroke="black" stroke-dasharray="5,2" d="M2171.19,-171.03C2182.43,-173.93 2195.43,-177.29 2206.59,-180.18"/>
</g>
<!-- vm&#45;&gt;debugger -->
<g id="edge26" class="edge">
<title>vm&#45;&gt;debugger</title>
<path fill="none" stroke="black" d="M2261.04,-180.88C2268.54,-180.39 2276.92,-180.19 2285.16,-180.27"/>
<polygon fill="black" stroke="black" points="2285,-183.76 2295.09,-180.52 2285.19,-176.77 2285,-183.76"/>
</g>
<!-- vm&#45;&gt;debugger -->
<g id="edge51" class="edge">
<title>vm&#45;&gt;debugger</title>
<path fill="none" stroke="black" stroke-dasharray="5,2" d="M2261.04,-193.12C2272.07,-193.84 2285.02,-193.94 2296.6,-193.44"/>
</g>
</g>
</svg>
