<?xml version="1.0" encoding="UTF-8" standalone="no"?>
<!DOCTYPE svg PUBLIC "-//W3C//DTD SVG 1.1//EN"
 "http://www.w3.org/Graphics/SVG/1.1/DTD/svg11.dtd">
<!-- Generated by graphviz version 8.0.5 (20230430.1635)
 -->
<!-- Pages: 1 -->
<svg width="778pt" height="538pt"
 viewBox="0.00 0.00 778.00 538.00" xmlns="http://www.w3.org/2000/svg" xmlns:xlink="http://www.w3.org/1999/xlink">
<g id="graph0" class="graph" transform="scale(1 1) rotate(0) translate(4 534)">
<polygon fill="white" stroke="none" points="-4,4 -4,-534 774,-534 774,4 -4,4"/>
<!-- oop -->
<g id="node1" class="node">
<title>oop</title>
<polygon fill="aquamarine" stroke="aquamarine" points="167.38,-217 102.62,-217 102.62,-181 167.38,-181 167.38,-217"/>
<text text-anchor="start" x="110.62" y="-201.9" font-family="Verdana" font-size="8.00">Objects and</text>
<text text-anchor="start" x="120" y="-191.4" font-family="Verdana" font-size="8.00">Classes</text>
</g>
<!-- interp -->
<g id="node6" class="node">
<title>interp</title>
<polygon fill="cornsilk" stroke="cornsilk" points="264,-167 203.75,-167 203.75,-131 264,-131 264,-167"/>
<text text-anchor="start" x="228.62" y="-151.9" font-family="Verdana" font-size="8.00">An</text>
<text text-anchor="start" x="211.75" y="-141.4" font-family="Verdana" font-size="8.00">Interpreter</text>
</g>
<!-- oop&#45;&gt;interp -->
<g id="edge3" class="edge">
<title>oop&#45;&gt;interp</title>
<path fill="none" stroke="black" d="M167.72,-182.63C176.06,-178.32 185.15,-173.63 193.83,-169.15"/>
<polygon fill="black" stroke="black" points="195.1,-171.92 202.38,-164.22 191.89,-165.7 195.1,-171.92"/>
</g>
<!-- reflect -->
<g id="node8" class="node">
<title>reflect</title>
<polygon fill="cornsilk" stroke="cornsilk" points="464,-213 409,-213 409,-177 464,-177 464,-213"/>
<text text-anchor="start" x="417" y="-192.65" font-family="Verdana" font-size="8.00">Reflection</text>
</g>
<!-- oop&#45;&gt;reflect -->
<g id="edge6" class="edge">
<title>oop&#45;&gt;reflect</title>
<path fill="none" stroke="black" d="M167.77,-198.58C223.49,-197.83 338.57,-196.29 398.07,-195.5"/>
<polygon fill="black" stroke="black" points="397.89,-198.99 407.84,-195.36 397.8,-191.99 397.89,-198.99"/>
</g>
<!-- dup -->
<g id="node2" class="node">
<title>dup</title>
<polygon fill="aquamarine" stroke="aquamarine" points="463.5,-346.75 409.5,-346.75 409.5,-307.25 463.5,-307.25 463.5,-346.75"/>
<text text-anchor="start" x="421.5" y="-335.15" font-family="Verdana" font-size="8.00">Finding</text>
<text text-anchor="start" x="417.75" y="-324.65" font-family="Verdana" font-size="8.00">Duplicate</text>
<text text-anchor="start" x="427.5" y="-314.15" font-family="Verdana" font-size="8.00">Files</text>
</g>
<!-- archive -->
<g id="node9" class="node">
<title>archive</title>
<polygon fill="cornsilk" stroke="cornsilk" points="562,-345 508,-345 508,-309 562,-309 562,-345"/>
<text text-anchor="start" x="524.12" y="-329.9" font-family="Verdana" font-size="8.00">A File</text>
<text text-anchor="start" x="518.12" y="-319.4" font-family="Verdana" font-size="8.00">Archiver</text>
</g>
<!-- dup&#45;&gt;archive -->
<g id="edge8" class="edge">
<title>dup&#45;&gt;archive</title>
<path fill="none" stroke="black" d="M463.87,-327C474.08,-327 485.95,-327 496.99,-327"/>
<polygon fill="black" stroke="black" points="496.66,-330.5 506.66,-327 496.66,-323.5 496.66,-330.5"/>
</g>
<!-- glob -->
<g id="node3" class="node">
<title>glob</title>
<polygon fill="aquamarine" stroke="aquamarine" points="60.12,-368 6.12,-368 6.12,-332 60.12,-332 60.12,-368"/>
<text text-anchor="start" x="14.75" y="-352.9" font-family="Verdana" font-size="8.00">Matching</text>
<text text-anchor="start" x="16.62" y="-342.4" font-family="Verdana" font-size="8.00">Patterns</text>
</g>
<!-- parse -->
<g id="node4" class="node">
<title>parse</title>
<polygon fill="cornsilk" stroke="cornsilk" points="167.75,-336 102.25,-336 102.25,-300 167.75,-300 167.75,-336"/>
<text text-anchor="start" x="110.25" y="-315.65" font-family="Verdana" font-size="8.00">Parsing Text</text>
</g>
<!-- glob&#45;&gt;parse -->
<g id="edge1" class="edge">
<title>glob&#45;&gt;parse</title>
<path fill="none" stroke="black" d="M60.37,-341.59C69.9,-338.54 80.94,-335 91.52,-331.61"/>
<polygon fill="black" stroke="black" points="92.42,-334.68 100.87,-328.29 90.28,-328.01 92.42,-334.68"/>
</g>
<!-- glob&#45;&gt;archive -->
<g id="edge9" class="edge">
<title>glob&#45;&gt;archive</title>
<path fill="none" stroke="black" d="M60.58,-357.24C98.44,-366.96 170.44,-383 232.88,-383 232.88,-383 232.88,-383 335.25,-383 395.68,-383 410.92,-374.34 468.5,-356 478.25,-352.9 488.49,-348.79 497.91,-344.65"/>
<polygon fill="black" stroke="black" points="499.08,-347.51 506.74,-340.19 496.19,-341.14 499.08,-347.51"/>
</g>
<!-- check -->
<g id="node10" class="node">
<title>check</title>
<polygon fill="cornsilk" stroke="cornsilk" points="260.88,-326 206.88,-326 206.88,-290 260.88,-290 260.88,-326"/>
<text text-anchor="start" x="215.88" y="-310.9" font-family="Verdana" font-size="8.00">An HTML</text>
<text text-anchor="start" x="216.25" y="-300.4" font-family="Verdana" font-size="8.00">Validator</text>
</g>
<!-- parse&#45;&gt;check -->
<g id="edge10" class="edge">
<title>parse&#45;&gt;check</title>
<path fill="none" stroke="black" d="M167.99,-314.7C176.84,-313.78 186.53,-312.78 195.66,-311.84"/>
<polygon fill="black" stroke="black" points="195.83,-315.24 205.41,-310.73 195.11,-308.28 195.83,-315.24"/>
</g>
<!-- test -->
<g id="node5" class="node">
<title>test</title>
<polygon fill="aquamarine" stroke="aquamarine" points="162,-163 108,-163 108,-127 162,-127 162,-163"/>
<text text-anchor="start" x="118.12" y="-147.9" font-family="Verdana" font-size="8.00">Running</text>
<text text-anchor="start" x="124.5" y="-137.4" font-family="Verdana" font-size="8.00">Tests</text>
</g>
<!-- test&#45;&gt;interp -->
<g id="edge2" class="edge">
<title>test&#45;&gt;interp</title>
<path fill="none" stroke="black" d="M162.47,-146.09C171.77,-146.48 182.44,-146.92 192.61,-147.34"/>
<polygon fill="black" stroke="black" points="192.23,-150.87 202.37,-147.78 192.52,-143.87 192.23,-150.87"/>
</g>
<!-- func -->
<g id="node7" class="node">
<title>func</title>
<polygon fill="cornsilk" stroke="cornsilk" points="368.5,-171 300,-171 300,-135 368.5,-135 368.5,-171"/>
<text text-anchor="start" x="314.75" y="-155.9" font-family="Verdana" font-size="8.00">Functions</text>
<text text-anchor="start" x="308" y="-145.4" font-family="Verdana" font-size="8.00">and Closures</text>
</g>
<!-- interp&#45;&gt;func -->
<g id="edge4" class="edge">
<title>interp&#45;&gt;func</title>
<path fill="none" stroke="black" d="M264.39,-150.2C272.1,-150.51 280.59,-150.86 288.89,-151.2"/>
<polygon fill="black" stroke="black" points="288.48,-154.72 298.61,-151.63 288.76,-147.73 288.48,-154.72"/>
</g>
<!-- template -->
<g id="node11" class="node">
<title>template</title>
<polygon fill="cornsilk" stroke="cornsilk" points="364.38,-263 304.12,-263 304.12,-227 364.38,-227 364.38,-263"/>
<text text-anchor="start" x="312.12" y="-247.9" font-family="Verdana" font-size="8.00">A Template</text>
<text text-anchor="start" x="315.12" y="-237.4" font-family="Verdana" font-size="8.00">Expander</text>
</g>
<!-- interp&#45;&gt;template -->
<g id="edge12" class="edge">
<title>interp&#45;&gt;template</title>
<path fill="none" stroke="black" d="M253.38,-167.06C268.4,-181.71 289.77,-202.57 306.63,-219.02"/>
<polygon fill="black" stroke="black" points="303.89,-221.22 313.49,-225.7 308.78,-216.21 303.89,-221.22"/>
</g>
<!-- persist -->
<g id="node15" class="node">
<title>persist</title>
<polygon fill="cornsilk" stroke="cornsilk" points="365.12,-117 303.38,-117 303.38,-81 365.12,-81 365.12,-117"/>
<text text-anchor="start" x="321.12" y="-101.9" font-family="Verdana" font-size="8.00">Object</text>
<text text-anchor="start" x="311.38" y="-91.4" font-family="Verdana" font-size="8.00">Persistence</text>
</g>
<!-- interp&#45;&gt;persist -->
<g id="edge16" class="edge">
<title>interp&#45;&gt;persist</title>
<path fill="none" stroke="black" d="M264.39,-134C273.56,-129.34 283.82,-124.12 293.56,-119.17"/>
<polygon fill="black" stroke="black" points="294.75,-121.99 302.07,-114.34 291.57,-115.75 294.75,-121.99"/>
</g>
<!-- vm -->
<g id="node24" class="node">
<title>vm</title>
<polygon fill="cornsilk" stroke="cornsilk" points="562,-90 508,-90 508,-54 562,-54 562,-90"/>
<text text-anchor="start" x="517.75" y="-74.9" font-family="Verdana" font-size="8.00">A Virtual</text>
<text text-anchor="start" x="518.5" y="-64.4" font-family="Verdana" font-size="8.00">Machine</text>
</g>
<!-- interp&#45;&gt;vm -->
<g id="edge25" class="edge">
<title>interp&#45;&gt;vm</title>
<path fill="none" stroke="black" d="M244.17,-130.65C254.79,-111.94 274.11,-84.01 300,-72 364.1,-42.26 449.13,-52.94 497.05,-62.83"/>
<polygon fill="black" stroke="black" points="496.03,-66.41 506.55,-65.11 497.52,-59.57 496.03,-66.41"/>
</g>
<!-- func&#45;&gt;reflect -->
<g id="edge5" class="edge">
<title>func&#45;&gt;reflect</title>
<path fill="none" stroke="black" d="M368.91,-167.1C378.54,-171.13 389.07,-175.55 398.87,-179.65"/>
<polygon fill="black" stroke="black" points="397.16,-183.15 407.74,-183.79 399.86,-176.69 397.16,-183.15"/>
</g>
<!-- reflect&#45;&gt;archive -->
<g id="edge7" class="edge">
<title>reflect&#45;&gt;archive</title>
<path fill="none" stroke="black" d="M451.11,-213.38C456.53,-220.72 462.82,-229.25 468.5,-237 483.97,-258.1 501.4,-282.06 514.38,-299.95"/>
<polygon fill="black" stroke="black" points="512.03,-301.67 520.74,-307.7 517.7,-297.55 512.03,-301.67"/>
</g>
<!-- db -->
<g id="node17" class="node">
<title>db</title>
<polygon fill="pink" stroke="pink" points="565.5,-163 504.5,-163 504.5,-127 565.5,-127 565.5,-163"/>
<text text-anchor="start" x="512.5" y="-142.65" font-family="Verdana" font-size="8.00">A Database</text>
</g>
<!-- reflect&#45;&gt;db -->
<g id="edge20" class="edge">
<title>reflect&#45;&gt;db</title>
<path fill="none" stroke="black" d="M464.38,-181.07C473.76,-176.21 484.5,-170.65 494.68,-165.37"/>
<polygon fill="black" stroke="black" points="495.94,-168.14 503.21,-160.43 492.72,-161.93 495.94,-168.14"/>
</g>
<!-- ftp -->
<g id="node20" class="node">
<title>ftp</title>
<polygon fill="cornsilk" stroke="cornsilk" points="667,-345 601.5,-345 601.5,-309 667,-309 667,-345"/>
<text text-anchor="start" x="609.5" y="-329.9" font-family="Verdana" font-size="8.00">Transferring</text>
<text text-anchor="start" x="625.25" y="-319.4" font-family="Verdana" font-size="8.00">Files</text>
</g>
<!-- archive&#45;&gt;ftp -->
<g id="edge21" class="edge">
<title>archive&#45;&gt;ftp</title>
<path fill="none" stroke="black" d="M562.32,-327C570.89,-327 580.64,-327 590.11,-327"/>
<polygon fill="black" stroke="black" points="590.01,-330.5 600.01,-327 590.01,-323.5 590.01,-330.5"/>
</g>
<!-- check&#45;&gt;template -->
<g id="edge11" class="edge">
<title>check&#45;&gt;template</title>
<path fill="none" stroke="black" d="M261.24,-291.12C271.75,-284.39 284.04,-276.51 295.47,-269.2"/>
<polygon fill="black" stroke="black" points="296.86,-271.82 303.39,-263.48 293.08,-265.93 296.86,-271.82"/>
</g>
<!-- lint -->
<g id="node12" class="node">
<title>lint</title>
<polygon fill="pink" stroke="pink" points="361.25,-317 307.25,-317 307.25,-281 361.25,-281 361.25,-317"/>
<text text-anchor="start" x="320.38" y="-301.9" font-family="Verdana" font-size="8.00">A Code</text>
<text text-anchor="start" x="322.62" y="-291.4" font-family="Verdana" font-size="8.00">Linter</text>
</g>
<!-- check&#45;&gt;lint -->
<g id="edge13" class="edge">
<title>check&#45;&gt;lint</title>
<path fill="none" stroke="black" d="M261.24,-305.59C271.93,-304.61 284.48,-303.46 296.08,-302.4"/>
<polygon fill="black" stroke="black" points="296.18,-305.82 305.81,-301.42 295.54,-298.84 296.18,-305.82"/>
</g>
<!-- layout -->
<g id="node13" class="node">
<title>layout</title>
<polygon fill="pink" stroke="pink" points="468.5,-282 404.5,-282 404.5,-246 468.5,-246 468.5,-282"/>
<text text-anchor="start" x="412.5" y="-261.65" font-family="Verdana" font-size="8.00">Page Layout</text>
</g>
<!-- check&#45;&gt;layout -->
<g id="edge14" class="edge">
<title>check&#45;&gt;layout</title>
<path fill="none" stroke="black" d="M261.16,-319C288.79,-328.88 333.08,-339.87 368.5,-326 378.43,-322.11 396.43,-305.18 411.27,-290"/>
<polygon fill="black" stroke="black" points="413.27,-292.93 417.69,-283.29 408.23,-288.07 413.27,-292.93"/>
</g>
<!-- template&#45;&gt;layout -->
<g id="edge15" class="edge">
<title>template&#45;&gt;layout</title>
<path fill="none" stroke="black" d="M364.79,-250.6C373.77,-252.3 383.81,-254.2 393.45,-256.03"/>
<polygon fill="black" stroke="black" points="392.6,-259.62 403.08,-258.05 393.91,-252.74 392.6,-259.62"/>
</g>
<!-- perf -->
<g id="node14" class="node">
<title>perf</title>
<polygon fill="aquamarine" stroke="aquamarine" points="66.25,-422 0,-422 0,-386 66.25,-386 66.25,-422"/>
<text text-anchor="start" x="8" y="-406.9" font-family="Verdana" font-size="8.00">Performance</text>
<text text-anchor="start" x="16.62" y="-396.4" font-family="Verdana" font-size="8.00">Profiling</text>
</g>
<!-- binary -->
<g id="node16" class="node">
<title>binary</title>
<polygon fill="cornsilk" stroke="cornsilk" points="467.75,-117 405.25,-117 405.25,-81 467.75,-81 467.75,-117"/>
<text text-anchor="start" x="413.25" y="-96.65" font-family="Verdana" font-size="8.00">Binary Data</text>
</g>
<!-- persist&#45;&gt;binary -->
<g id="edge17" class="edge">
<title>persist&#45;&gt;binary</title>
<path fill="none" stroke="black" d="M365.6,-99C374.55,-99 384.5,-99 394.01,-99"/>
<polygon fill="black" stroke="black" points="393.91,-102.5 403.91,-99 393.91,-95.5 393.91,-102.5"/>
</g>
<!-- persist&#45;&gt;db -->
<g id="edge19" class="edge">
<title>persist&#45;&gt;db</title>
<path fill="none" stroke="black" d="M365.44,-112.48C377.4,-117.37 391.4,-122.53 404.5,-126 433.68,-133.72 467.45,-138.55 493.18,-141.4"/>
<polygon fill="black" stroke="black" points="492.73,-144.98 503.04,-142.54 493.46,-138.02 492.73,-144.98"/>
</g>
<!-- binary&#45;&gt;db -->
<g id="edge18" class="edge">
<title>binary&#45;&gt;db</title>
<path fill="none" stroke="black" d="M468.03,-113.55C476.46,-117.57 485.72,-121.99 494.57,-126.21"/>
<polygon fill="black" stroke="black" points="492.79,-129.71 503.33,-130.85 495.8,-123.39 492.79,-129.71"/>
</g>
<!-- binary&#45;&gt;vm -->
<g id="edge24" class="edge">
<title>binary&#45;&gt;vm</title>
<path fill="none" stroke="black" d="M468.03,-90.46C477.26,-87.88 487.49,-85.01 497.09,-82.33"/>
<polygon fill="black" stroke="black" points="497.88,-85.46 506.57,-79.4 495.99,-78.72 497.88,-85.46"/>
</g>
<!-- build -->
<g id="node18" class="node">
<title>build</title>
<polygon fill="aquamarine" stroke="aquamarine" points="60.12,-476 6.12,-476 6.12,-440 60.12,-440 60.12,-476"/>
<text text-anchor="start" x="18.88" y="-460.9" font-family="Verdana" font-size="8.00">A Build</text>
<text text-anchor="start" x="15.88" y="-450.4" font-family="Verdana" font-size="8.00">Manager</text>
</g>
<!-- pack -->
<g id="node19" class="node">
<title>pack</title>
<polygon fill="aquamarine" stroke="aquamarine" points="61.38,-530 4.88,-530 4.88,-494 61.38,-494 61.38,-530"/>
<text text-anchor="start" x="12.88" y="-514.9" font-family="Verdana" font-size="8.00">A Package</text>
<text text-anchor="start" x="15.88" y="-504.4" font-family="Verdana" font-size="8.00">Manager</text>
</g>
<!-- http -->
<g id="node21" class="node">
<title>http</title>
<polygon fill="pink" stroke="pink" points="770,-345 703,-345 703,-309 770,-309 770,-345"/>
<text text-anchor="start" x="711" y="-329.9" font-family="Verdana" font-size="8.00">Serving Web</text>
<text text-anchor="start" x="724.88" y="-319.4" font-family="Verdana" font-size="8.00">Pages</text>
</g>
<!-- ftp&#45;&gt;http -->
<g id="edge22" class="edge">
<title>ftp&#45;&gt;http</title>
<path fill="none" stroke="black" d="M667.25,-327C675.13,-327 683.72,-327 692.05,-327"/>
<polygon fill="black" stroke="black" points="691.78,-330.5 701.78,-327 691.78,-323.5 691.78,-330.5"/>
</g>
<!-- viewer -->
<g id="node22" class="node">
<title>viewer</title>
<polygon fill="aquamarine" stroke="aquamarine" points="562,-36 508,-36 508,0 562,0 562,-36"/>
<text text-anchor="start" x="524.12" y="-20.9" font-family="Verdana" font-size="8.00">A File</text>
<text text-anchor="start" x="521.5" y="-10.4" font-family="Verdana" font-size="8.00">Viewer</text>
</g>
<!-- undo -->
<g id="node23" class="node">
<title>undo</title>
<polygon fill="pink" stroke="pink" points="661.75,-36 606.75,-36 606.75,0 661.75,0 661.75,-36"/>
<text text-anchor="start" x="614.75" y="-20.9" font-family="Verdana" font-size="8.00">Undo and</text>
<text text-anchor="start" x="624.5" y="-10.4" font-family="Verdana" font-size="8.00">Redo</text>
</g>
<!-- viewer&#45;&gt;undo -->
<g id="edge23" class="edge">
<title>viewer&#45;&gt;undo</title>
<path fill="none" stroke="black" d="M562.32,-18C572.61,-18 584.61,-18 595.78,-18"/>
<polygon fill="black" stroke="black" points="595.57,-21.5 605.57,-18 595.57,-14.5 595.57,-21.5"/>
</g>
<!-- debugger -->
<g id="node25" class="node">
<title>debugger</title>
<polygon fill="pink" stroke="pink" points="666.25,-90 602.25,-90 602.25,-54 666.25,-54 666.25,-90"/>
<text text-anchor="start" x="610.25" y="-69.65" font-family="Verdana" font-size="8.00">A Debugger</text>
</g>
<!-- viewer&#45;&gt;debugger -->
<g id="edge26" class="edge">
<title>viewer&#45;&gt;debugger</title>
<path fill="none" stroke="black" d="M562.32,-32.61C571.61,-37.77 582.29,-43.7 592.5,-49.37"/>
<polygon fill="black" stroke="black" points="590.63,-52.89 601.08,-54.69 594.03,-46.78 590.63,-52.89"/>
</g>
<!-- vm&#45;&gt;debugger -->
<g id="edge27" class="edge">
<title>vm&#45;&gt;debugger</title>
<path fill="none" stroke="black" d="M562.32,-72C571.23,-72 581.41,-72 591.23,-72"/>
<polygon fill="black" stroke="black" points="591.08,-75.5 601.08,-72 591.08,-68.5 591.08,-75.5"/>
</g>
</g>
</svg>
