<?xml version="1.0" encoding="UTF-8" standalone="no"?>
<!DOCTYPE svg PUBLIC "-//W3C//DTD SVG 1.1//EN"
 "http://www.w3.org/Graphics/SVG/1.1/DTD/svg11.dtd">
<!-- Generated by graphviz version 7.1.0 (20230121.1956)
 -->
<!-- Title: syllabus Pages: 1 -->
<svg width="885pt" height="330pt"
 viewBox="0.00 0.00 885.00 330.00" xmlns="http://www.w3.org/2000/svg" xmlns:xlink="http://www.w3.org/1999/xlink">
<g id="graph0" class="graph" transform="scale(1 1) rotate(0) translate(4 326)">
<title>syllabus</title>
<polygon fill="white" stroke="none" points="-4,4 -4,-326 881,-326 881,4 -4,4"/>
<g id="clust20" class="cluster">
<title>cluster_legend</title>
<polygon fill="none" stroke="black" points="601,-262 601,-314 869,-314 869,-262 601,-262"/>
</g>
<!-- archive -->
<g id="node1" class="node">
<title>archive</title>
<polygon fill="cornsilk" stroke="black" points="339.5,-198 285.5,-198 285.5,-162 339.5,-162 339.5,-198"/>
<text text-anchor="middle" x="312.5" y="-182.8" font-family="Verdana" font-size="9.00">file</text>
<text text-anchor="middle" x="312.5" y="-172.8" font-family="Verdana" font-size="9.00">archiver</text>
</g>
<!-- dup -->
<g id="node8" class="node">
<title>dup</title>
<polygon fill="aquamarine" stroke="black" points="58,-221 0,-221 0,-185 58,-185 58,-221"/>
<text text-anchor="middle" x="29" y="-205.8" font-family="Verdana" font-size="9.00">duplicate</text>
<text text-anchor="middle" x="29" y="-195.8" font-family="Verdana" font-size="9.00">file finder</text>
</g>
<!-- archive&#45;&gt;dup -->
<g id="edge1" class="edge">
<title>archive&#45;&gt;dup</title>
<path fill="none" stroke="black" d="M273.6,-183.1C216.38,-187.77 109.22,-196.53 58.28,-200.69"/>
<polygon fill="black" stroke="black" points="273.83,-186.59 283.51,-182.29 273.26,-179.61 273.83,-186.59"/>
</g>
<!-- mock -->
<g id="node13" class="node">
<title>mock</title>
<polygon fill="cornsilk" stroke="black" points="238,-244 184,-244 184,-208 238,-208 238,-244"/>
<text text-anchor="middle" x="211" y="-228.8" font-family="Verdana" font-size="9.00">mock</text>
<text text-anchor="middle" x="211" y="-218.8" font-family="Verdana" font-size="9.00">objects</text>
</g>
<!-- archive&#45;&gt;mock -->
<g id="edge2" class="edge">
<title>archive&#45;&gt;mock</title>
<path fill="none" stroke="black" d="M274.79,-196.97C262.64,-202.59 249.38,-208.72 238.18,-213.9"/>
<polygon fill="black" stroke="black" points="276.12,-200.21 283.72,-192.84 273.18,-193.86 276.12,-200.21"/>
</g>
<!-- re -->
<g id="node20" class="node">
<title>re</title>
<polygon fill="aquamarine" stroke="black" points="238,-148 184,-148 184,-112 238,-112 238,-148"/>
<text text-anchor="middle" x="211" y="-132.8" font-family="Verdana" font-size="9.00">match</text>
<text text-anchor="middle" x="211" y="-122.8" font-family="Verdana" font-size="9.00">regex</text>
</g>
<!-- archive&#45;&gt;re -->
<g id="edge3" class="edge">
<title>archive&#45;&gt;re</title>
<path fill="none" stroke="black" d="M275.16,-161.74C262.91,-155.58 249.49,-148.84 238.18,-143.16"/>
<polygon fill="black" stroke="black" points="273.24,-164.69 283.74,-166.05 276.38,-158.44 273.24,-164.69"/>
</g>
<!-- binary -->
<g id="node2" class="node">
<title>binary</title>
<polygon fill="cornsilk" stroke="black" points="663,-36 609,-36 609,0 663,0 663,-36"/>
<text text-anchor="middle" x="636" y="-20.8" font-family="Verdana" font-size="9.00">binary</text>
<text text-anchor="middle" x="636" y="-10.8" font-family="Verdana" font-size="9.00">data</text>
</g>
<!-- persist -->
<g id="node17" class="node">
<title>persist</title>
<polygon fill="aquamarine" stroke="black" points="564,-36 497,-36 497,0 564,0 564,-36"/>
<text text-anchor="middle" x="530.5" y="-20.8" font-family="Verdana" font-size="9.00">object</text>
<text text-anchor="middle" x="530.5" y="-10.8" font-family="Verdana" font-size="9.00">persistence</text>
</g>
<!-- binary&#45;&gt;persist -->
<g id="edge4" class="edge">
<title>binary&#45;&gt;persist</title>
<path fill="none" stroke="black" d="M597.28,-18C586.42,-18 574.66,-18 564.13,-18"/>
<polygon fill="black" stroke="black" points="597.1,-21.5 607.1,-18 597.1,-14.5 597.1,-21.5"/>
</g>
<!-- build -->
<g id="node3" class="node">
<title>build</title>
<polygon fill="cornsilk" stroke="black" points="765.5,-252 709.5,-252 709.5,-216 765.5,-216 765.5,-252"/>
<text text-anchor="middle" x="737.5" y="-236.8" font-family="Verdana" font-size="9.00">build</text>
<text text-anchor="middle" x="737.5" y="-226.8" font-family="Verdana" font-size="9.00">manager</text>
</g>
<!-- pipe -->
<g id="node18" class="node">
<title>pipe</title>
<polygon fill="cornsilk" stroke="black" points="663,-198 609,-198 609,-162 663,-162 663,-198"/>
<text text-anchor="middle" x="636" y="-182.8" font-family="Verdana" font-size="9.00">pipeline</text>
<text text-anchor="middle" x="636" y="-172.8" font-family="Verdana" font-size="9.00">runner</text>
</g>
<!-- build&#45;&gt;pipe -->
<g id="edge5" class="edge">
<title>build&#45;&gt;pipe</title>
<path fill="none" stroke="black" d="M698.95,-213.62C687.09,-207.18 674.24,-200.21 663.33,-194.29"/>
<polygon fill="black" stroke="black" points="697.26,-216.69 707.72,-218.38 700.6,-210.53 697.26,-216.69"/>
</g>
<!-- plot -->
<g id="node19" class="node">
<title>plot</title>
<polygon fill="cornsilk" stroke="black" points="663,-252 609,-252 609,-216 663,-216 663,-252"/>
<text text-anchor="middle" x="636" y="-236.8" font-family="Verdana" font-size="9.00">plotting</text>
<text text-anchor="middle" x="636" y="-226.8" font-family="Verdana" font-size="9.00">graphs</text>
</g>
<!-- build&#45;&gt;plot -->
<g id="edge6" class="edge">
<title>build&#45;&gt;plot</title>
<path fill="none" stroke="black" d="M697.87,-234C686.31,-234 673.91,-234 663.33,-234"/>
<polygon fill="black" stroke="black" points="697.53,-237.5 707.53,-234 697.53,-230.5 697.53,-237.5"/>
</g>
<!-- cache -->
<g id="node4" class="node">
<title>cache</title>
<polygon fill="cornsilk" stroke="black" points="559.5,-198 501.5,-198 501.5,-162 559.5,-162 559.5,-198"/>
<text text-anchor="middle" x="530.5" y="-177.8" font-family="Verdana" font-size="9.00">file cache</text>
</g>
<!-- cache&#45;&gt;archive -->
<g id="edge7" class="edge">
<title>cache&#45;&gt;archive</title>
<path fill="none" stroke="black" d="M489.93,-180C446.25,-180 377.16,-180 339.72,-180"/>
<polygon fill="black" stroke="black" points="489.75,-183.5 499.75,-180 489.75,-176.5 489.75,-183.5"/>
</g>
<!-- check -->
<g id="node5" class="node">
<title>check</title>
<polygon fill="aquamarine" stroke="black" points="664,-90 608,-90 608,-54 664,-54 664,-90"/>
<text text-anchor="middle" x="636" y="-74.8" font-family="Verdana" font-size="9.00">checking</text>
<text text-anchor="middle" x="636" y="-64.8" font-family="Verdana" font-size="9.00">HTML</text>
</g>
<!-- db -->
<g id="node6" class="node">
<title>db</title>
<polygon fill="cornsilk" stroke="black" points="767.5,-36 707.5,-36 707.5,0 767.5,0 767.5,-36"/>
<text text-anchor="middle" x="737.5" y="-20.8" font-family="Verdana" font-size="9.00">key&#45;value</text>
<text text-anchor="middle" x="737.5" y="-10.8" font-family="Verdana" font-size="9.00">store</text>
</g>
<!-- db&#45;&gt;binary -->
<g id="edge8" class="edge">
<title>db&#45;&gt;binary</title>
<path fill="none" stroke="black" d="M695.69,-18C684.79,-18 673.29,-18 663.39,-18"/>
<polygon fill="black" stroke="black" points="695.67,-21.5 705.67,-18 695.67,-14.5 695.67,-21.5"/>
</g>
<!-- df -->
<g id="node7" class="node">
<title>df</title>
<polygon fill="cornsilk" stroke="black" points="562,-252 499,-252 499,-216 562,-216 562,-252"/>
<text text-anchor="middle" x="530.5" y="-236.8" font-family="Verdana" font-size="9.00">dataframe</text>
<text text-anchor="middle" x="530.5" y="-226.8" font-family="Verdana" font-size="9.00">operations</text>
</g>
<!-- perf -->
<g id="node16" class="node">
<title>perf</title>
<polygon fill="cornsilk" stroke="black" points="460,-252 387,-252 387,-216 460,-216 460,-252"/>
<text text-anchor="middle" x="423.5" y="-236.8" font-family="Verdana" font-size="9.00">performance</text>
<text text-anchor="middle" x="423.5" y="-226.8" font-family="Verdana" font-size="9.00">profiling</text>
</g>
<!-- df&#45;&gt;perf -->
<g id="edge9" class="edge">
<title>df&#45;&gt;perf</title>
<path fill="none" stroke="black" d="M487.2,-234C478.31,-234 469.02,-234 460.39,-234"/>
<polygon fill="black" stroke="black" points="487.05,-237.5 497.05,-234 487.05,-230.5 487.05,-237.5"/>
</g>
<!-- func -->
<g id="node9" class="node">
<title>func</title>
<polygon fill="cornsilk" stroke="black" points="671,-144 601,-144 601,-108 671,-108 671,-144"/>
<text text-anchor="middle" x="636" y="-128.8" font-family="Verdana" font-size="9.00">function def</text>
<text text-anchor="middle" x="636" y="-118.8" font-family="Verdana" font-size="9.00">&amp; call stack</text>
</g>
<!-- interp -->
<g id="node10" class="node">
<title>interp</title>
<polygon fill="aquamarine" stroke="black" points="565,-144 496,-144 496,-108 565,-108 565,-144"/>
<text text-anchor="middle" x="530.5" y="-128.8" font-family="Verdana" font-size="9.00">interpreting</text>
<text text-anchor="middle" x="530.5" y="-118.8" font-family="Verdana" font-size="9.00">expressions</text>
</g>
<!-- func&#45;&gt;interp -->
<g id="edge10" class="edge">
<title>func&#45;&gt;interp</title>
<path fill="none" stroke="black" d="M589.11,-126C581.16,-126 573.02,-126 565.46,-126"/>
<polygon fill="black" stroke="black" points="589.02,-129.5 599.02,-126 589.02,-122.5 589.02,-129.5"/>
</g>
<!-- lint -->
<g id="node11" class="node">
<title>lint</title>
<polygon fill="pink" stroke="black" points="764.5,-90 710.5,-90 710.5,-54 764.5,-54 764.5,-90"/>
<text text-anchor="middle" x="737.5" y="-69.8" font-family="Verdana" font-size="9.00">linting</text>
</g>
<!-- lint&#45;&gt;check -->
<g id="edge11" class="edge">
<title>lint&#45;&gt;check</title>
<path fill="none" stroke="black" d="M698.6,-72C687.16,-72 674.82,-72 664.22,-72"/>
<polygon fill="black" stroke="black" points="698.58,-75.5 708.58,-72 698.58,-68.5 698.58,-75.5"/>
</g>
<!-- meta -->
<g id="node12" class="node">
<title>meta</title>
<polygon fill="cornsilk" stroke="black" points="351,-252 274,-252 274,-216 351,-216 351,-252"/>
<text text-anchor="middle" x="312.5" y="-236.8" font-family="Verdana" font-size="9.00">meta&#45;</text>
<text text-anchor="middle" x="312.5" y="-226.8" font-family="Verdana" font-size="9.00">programming</text>
</g>
<!-- meta&#45;&gt;mock -->
<g id="edge12" class="edge">
<title>meta&#45;&gt;mock</title>
<path fill="none" stroke="black" d="M262.39,-230.05C254.1,-229.39 245.79,-228.72 238.37,-228.12"/>
<polygon fill="black" stroke="black" points="261.84,-233.52 272.09,-230.83 262.4,-226.54 261.84,-233.52"/>
</g>
<!-- test -->
<g id="node24" class="node">
<title>test</title>
<polygon fill="cornsilk" stroke="black" points="148,-244 94,-244 94,-208 148,-208 148,-244"/>
<text text-anchor="middle" x="121" y="-228.8" font-family="Verdana" font-size="9.00">unit</text>
<text text-anchor="middle" x="121" y="-218.8" font-family="Verdana" font-size="9.00">testing</text>
</g>
<!-- mock&#45;&gt;test -->
<g id="edge13" class="edge">
<title>mock&#45;&gt;test</title>
<path fill="none" stroke="black" d="M172.18,-226C164.16,-226 155.87,-226 148.38,-226"/>
<polygon fill="black" stroke="black" points="172.08,-229.5 182.08,-226 172.08,-222.5 172.08,-229.5"/>
</g>
<!-- pack -->
<g id="node14" class="node">
<title>pack</title>
<polygon fill="pink" stroke="black" points="862,-252 806,-252 806,-216 862,-216 862,-252"/>
<text text-anchor="middle" x="834" y="-236.8" font-family="Verdana" font-size="9.00">package</text>
<text text-anchor="middle" x="834" y="-226.8" font-family="Verdana" font-size="9.00">manager</text>
</g>
<!-- pack&#45;&gt;build -->
<g id="edge14" class="edge">
<title>pack&#45;&gt;build</title>
<path fill="none" stroke="black" d="M794.33,-234C784.75,-234 774.68,-234 765.77,-234"/>
<polygon fill="black" stroke="black" points="794.15,-237.5 804.15,-234 794.15,-230.5 794.15,-237.5"/>
</g>
<!-- parse -->
<g id="node15" class="node">
<title>parse</title>
<polygon fill="pink" stroke="black" points="339.5,-144 285.5,-144 285.5,-108 339.5,-108 339.5,-144"/>
<text text-anchor="middle" x="312.5" y="-128.8" font-family="Verdana" font-size="9.00">parsing</text>
<text text-anchor="middle" x="312.5" y="-118.8" font-family="Verdana" font-size="9.00">text</text>
</g>
<!-- parse&#45;&gt;re -->
<g id="edge15" class="edge">
<title>parse&#45;&gt;re</title>
<path fill="none" stroke="black" d="M273.68,-127.52C261.84,-128 249.04,-128.51 238.18,-128.95"/>
<polygon fill="black" stroke="black" points="273.73,-131.02 283.58,-127.12 273.45,-124.03 273.73,-131.02"/>
</g>
<!-- perf&#45;&gt;meta -->
<g id="edge16" class="edge">
<title>perf&#45;&gt;meta</title>
<path fill="none" stroke="black" d="M375.09,-234C367.14,-234 358.99,-234 351.33,-234"/>
<polygon fill="black" stroke="black" points="374.99,-237.5 384.99,-234 374.99,-230.5 374.99,-237.5"/>
</g>
<!-- pipe&#45;&gt;cache -->
<g id="edge17" class="edge">
<title>pipe&#45;&gt;cache</title>
<path fill="none" stroke="black" d="M597.18,-180C584.77,-180 571.21,-180 559.65,-180"/>
<polygon fill="black" stroke="black" points="597.1,-183.5 607.1,-180 597.1,-176.5 597.1,-183.5"/>
</g>
<!-- pipe&#45;&gt;df -->
<g id="edge18" class="edge">
<title>pipe&#45;&gt;df</title>
<path fill="none" stroke="black" d="M598.56,-199.01C586.7,-205.2 573.65,-212.01 562.24,-217.96"/>
<polygon fill="black" stroke="black" points="600.03,-202.2 607.27,-194.47 596.79,-195.99 600.03,-202.2"/>
</g>
<!-- plot&#45;&gt;df -->
<g id="edge19" class="edge">
<title>plot&#45;&gt;df</title>
<path fill="none" stroke="black" d="M597.12,-234C585.65,-234 573.19,-234 562.24,-234"/>
<polygon fill="black" stroke="black" points="597.1,-237.5 607.1,-234 597.1,-230.5 597.1,-237.5"/>
</g>
<!-- server -->
<g id="node21" class="node">
<title>server</title>
<polygon fill="aquamarine" stroke="black" points="764.5,-198 710.5,-198 710.5,-162 764.5,-162 764.5,-198"/>
<text text-anchor="middle" x="737.5" y="-182.8" font-family="Verdana" font-size="9.00">web</text>
<text text-anchor="middle" x="737.5" y="-172.8" font-family="Verdana" font-size="9.00">server</text>
</g>
<!-- ssg -->
<g id="node22" class="node">
<title>ssg</title>
<polygon fill="pink" stroke="black" points="864,-171 804,-171 804,-135 864,-135 864,-171"/>
<text text-anchor="middle" x="834" y="-155.8" font-family="Verdana" font-size="9.00">static site</text>
<text text-anchor="middle" x="834" y="-145.8" font-family="Verdana" font-size="9.00">generator</text>
</g>
<!-- ssg&#45;&gt;build -->
<g id="edge20" class="edge">
<title>ssg&#45;&gt;build</title>
<path fill="none" stroke="black" d="M803.16,-178.57C789.1,-190.63 772.65,-204.73 759.86,-215.69"/>
<polygon fill="black" stroke="black" points="805.09,-181.53 810.41,-172.37 800.54,-176.22 805.09,-181.53"/>
</g>
<!-- ssg&#45;&gt;db -->
<g id="edge21" class="edge">
<title>ssg&#45;&gt;db</title>
<path fill="none" stroke="black" d="M818.91,-124.76C806.93,-102.08 788.46,-70 768,-45 765.63,-42.1 762.94,-39.22 760.18,-36.48"/>
<polygon fill="black" stroke="black" points="815.69,-126.15 823.4,-133.42 821.91,-122.93 815.69,-126.15"/>
</g>
<!-- ssg&#45;&gt;server -->
<g id="edge22" class="edge">
<title>ssg&#45;&gt;server</title>
<path fill="none" stroke="black" d="M792.83,-164.48C783.42,-167.17 773.62,-169.97 764.98,-172.44"/>
<polygon fill="black" stroke="black" points="793.51,-167.92 802.16,-161.81 791.59,-161.19 793.51,-167.92"/>
</g>
<!-- template -->
<g id="node23" class="node">
<title>template</title>
<polygon fill="cornsilk" stroke="black" points="768,-144 707,-144 707,-108 768,-108 768,-144"/>
<text text-anchor="middle" x="737.5" y="-128.8" font-family="Verdana" font-size="9.00">HTML</text>
<text text-anchor="middle" x="737.5" y="-118.8" font-family="Verdana" font-size="9.00">templates</text>
</g>
<!-- ssg&#45;&gt;template -->
<g id="edge23" class="edge">
<title>ssg&#45;&gt;template</title>
<path fill="none" stroke="black" d="M792.68,-141.48C784.46,-139.13 775.96,-136.7 768.19,-134.48"/>
<polygon fill="black" stroke="black" points="791.59,-144.81 802.16,-144.19 793.51,-138.08 791.59,-144.81"/>
</g>
<!-- template&#45;&gt;check -->
<g id="edge24" class="edge">
<title>template&#45;&gt;check</title>
<path fill="none" stroke="black" d="M696.58,-104.33C685.8,-98.48 674.38,-92.29 664.45,-86.9"/>
<polygon fill="black" stroke="black" points="694.86,-107.38 705.32,-109.08 698.2,-101.23 694.86,-107.38"/>
</g>
<!-- template&#45;&gt;func -->
<g id="edge25" class="edge">
<title>template&#45;&gt;func</title>
<path fill="none" stroke="black" d="M695.3,-126C687.35,-126 679.09,-126 671.38,-126"/>
<polygon fill="black" stroke="black" points="695.13,-129.5 705.13,-126 695.13,-122.5 695.13,-129.5"/>
</g>
<!-- test&#45;&gt;dup -->
<g id="edge26" class="edge">
<title>test&#45;&gt;dup</title>
<path fill="none" stroke="black" d="M82.83,-216.5C74.7,-214.42 66.22,-212.26 58.49,-210.28"/>
<polygon fill="black" stroke="black" points="81.95,-219.89 92.5,-218.97 83.68,-213.11 81.95,-219.89"/>
</g>
<!-- source -->
<g id="node25" class="node">
<title>source</title>
<polygon fill="aquamarine" stroke="black" points="663,-306 609,-306 609,-270 663,-270 663,-306"/>
<text text-anchor="middle" x="636" y="-285.8" font-family="Verdana" font-size="9.00">source</text>
</g>
<!-- flow -->
<g id="node26" class="node">
<title>flow</title>
<polygon fill="cornsilk" stroke="black" points="764.5,-306 710.5,-306 710.5,-270 764.5,-270 764.5,-306"/>
<text text-anchor="middle" x="737.5" y="-285.8" font-family="Verdana" font-size="9.00">flow</text>
</g>
<!-- flow&#45;&gt;source -->
<g id="edge28" class="edge">
<title>flow&#45;&gt;source</title>
<path fill="none" stroke="black" d="M698.68,-288C686.84,-288 674.04,-288 663.18,-288"/>
<polygon fill="black" stroke="black" points="698.58,-291.5 708.58,-288 698.58,-284.5 698.58,-291.5"/>
</g>
<!-- sink -->
<g id="node27" class="node">
<title>sink</title>
<polygon fill="pink" stroke="black" points="861,-306 807,-306 807,-270 861,-270 861,-306"/>
<text text-anchor="middle" x="834" y="-285.8" font-family="Verdana" font-size="9.00">sink</text>
</g>
<!-- sink&#45;&gt;flow -->
<g id="edge27" class="edge">
<title>sink&#45;&gt;flow</title>
<path fill="none" stroke="black" d="M795.43,-288C785.13,-288 774.19,-288 764.68,-288"/>
<polygon fill="black" stroke="black" points="795.16,-291.5 805.16,-288 795.16,-284.5 795.16,-291.5"/>
</g>
</g>
</svg>
