<?xml version="1.0" encoding="UTF-8" standalone="no"?>
<!DOCTYPE svg PUBLIC "-//W3C//DTD SVG 1.1//EN"
 "http://www.w3.org/Graphics/SVG/1.1/DTD/svg11.dtd">
<!-- Generated by graphviz version 7.1.0 (20230121.1956)
 -->
<!-- Pages: 1 -->
<svg width="2370pt" height="302pt"
 viewBox="0.00 0.00 2370.00 302.00" xmlns="http://www.w3.org/2000/svg" xmlns:xlink="http://www.w3.org/1999/xlink">
<g id="graph0" class="graph" transform="scale(1 1) rotate(0) translate(4 298)">
<polygon fill="white" stroke="none" points="-4,4 -4,-298 2366,-298 2366,4 -4,4"/>
<!-- dup -->
<g id="node1" class="node">
<title>dup</title>
<polygon fill="aquamarine" stroke="aquamarine" points="54,-41 0,-41 0,-5 54,-5 54,-41"/>
<text text-anchor="start" x="11.5" y="-30.1" font-family="Verdana" font-size="8.00">Finding</text>
<text text-anchor="start" x="8" y="-21.1" font-family="Verdana" font-size="8.00">Duplicate</text>
<text text-anchor="start" x="17.5" y="-12.1" font-family="Verdana" font-size="8.00">Files</text>
</g>
<!-- glob -->
<g id="node2" class="node">
<title>glob</title>
<polygon fill="aquamarine" stroke="aquamarine" points="144,-83 90,-83 90,-47 144,-47 144,-83"/>
<text text-anchor="start" x="98.5" y="-67.6" font-family="Verdana" font-size="8.00">Matching</text>
<text text-anchor="start" x="100" y="-58.6" font-family="Verdana" font-size="8.00">Patterns</text>
</g>
<!-- dup&#45;&gt;glob -->
<g id="edge28" class="edge">
<title>dup&#45;&gt;glob</title>
<path fill="none" stroke="black" stroke-dasharray="5,2" d="M54.4,-35.6C65.54,-40.92 78.48,-47.09 89.62,-52.41"/>
</g>
<!-- archive -->
<g id="node9" class="node">
<title>archive</title>
<polygon fill="cornsilk" stroke="cornsilk" points="824,-60 770,-60 770,-24 824,-24 824,-60"/>
<text text-anchor="start" x="786" y="-44.6" font-family="Verdana" font-size="8.00">A File</text>
<text text-anchor="start" x="780" y="-35.6" font-family="Verdana" font-size="8.00">Archiver</text>
</g>
<!-- dup&#45;&gt;archive -->
<g id="edge9" class="edge">
<title>dup&#45;&gt;archive</title>
<path fill="none" stroke="black" d="M54.38,-17.61C89.99,-10.81 155.5,0 212,0 212,0 212,0 605.5,0 659.91,0 721.04,-16.54 759.04,-28.86"/>
<polygon fill="black" stroke="black" points="757.56,-32.05 768.15,-31.89 759.77,-25.41 757.56,-32.05"/>
</g>
<!-- parse -->
<g id="node3" class="node">
<title>parse</title>
<polygon fill="cornsilk" stroke="cornsilk" points="246,-123 180,-123 180,-87 246,-87 246,-123"/>
<text text-anchor="start" x="188" y="-103.1" font-family="Verdana" font-size="8.00">Parsing Text</text>
</g>
<!-- glob&#45;&gt;parse -->
<g id="edge1" class="edge">
<title>glob&#45;&gt;parse</title>
<path fill="none" stroke="black" d="M144.43,-70.11C153.37,-73.34 163.53,-77.5 173.22,-81.84"/>
<polygon fill="black" stroke="black" points="171.54,-84.92 182.09,-85.96 174.49,-78.57 171.54,-84.92"/>
</g>
<!-- glob&#45;&gt;parse -->
<g id="edge29" class="edge">
<title>glob&#45;&gt;parse</title>
<path fill="none" stroke="black" stroke-dasharray="5,2" d="M144.43,-82.39C155.4,-87.75 168.23,-93.31 179.75,-97.72"/>
</g>
<!-- glob&#45;&gt;archive -->
<g id="edge7" class="edge">
<title>glob&#45;&gt;archive</title>
<path fill="none" stroke="black" d="M144.27,-58.87C180.78,-50.91 249.03,-38 308,-38 308,-38 308,-38 605.5,-38 658.45,-38 719.66,-39.56 758.1,-40.74"/>
<polygon fill="black" stroke="black" points="757.88,-44.23 767.99,-41.05 758.1,-37.23 757.88,-44.23"/>
</g>
<!-- test -->
<g id="node4" class="node">
<title>test</title>
<polygon fill="aquamarine" stroke="aquamarine" points="336,-190 282,-190 282,-154 336,-154 336,-190"/>
<text text-anchor="start" x="292" y="-174.6" font-family="Verdana" font-size="8.00">Running</text>
<text text-anchor="start" x="298" y="-165.6" font-family="Verdana" font-size="8.00">Tests</text>
</g>
<!-- parse&#45;&gt;test -->
<g id="edge30" class="edge">
<title>parse&#45;&gt;test</title>
<path fill="none" stroke="black" stroke-dasharray="5,2" d="M239.93,-123.49C253.09,-132.86 269.01,-144.21 282.15,-153.57"/>
</g>
<!-- check -->
<g id="node10" class="node">
<title>check</title>
<polygon fill="cornsilk" stroke="cornsilk" points="914,-169 860,-169 860,-133 914,-133 914,-169"/>
<text text-anchor="start" x="868.5" y="-153.6" font-family="Verdana" font-size="8.00">An HTML</text>
<text text-anchor="start" x="869" y="-144.6" font-family="Verdana" font-size="8.00">Validator</text>
</g>
<!-- parse&#45;&gt;check -->
<g id="edge10" class="edge">
<title>parse&#45;&gt;check</title>
<path fill="none" stroke="black" d="M246.41,-107.22C358.32,-114.88 728.16,-140.2 848.09,-148.41"/>
<polygon fill="black" stroke="black" points="847.82,-151.89 858.03,-149.09 848.3,-144.91 847.82,-151.89"/>
</g>
<!-- interp -->
<g id="node5" class="node">
<title>interp</title>
<polygon fill="cornsilk" stroke="cornsilk" points="433,-190 372,-190 372,-154 433,-154 433,-190"/>
<text text-anchor="start" x="397" y="-174.6" font-family="Verdana" font-size="8.00">An</text>
<text text-anchor="start" x="380" y="-165.6" font-family="Verdana" font-size="8.00">Interpreter</text>
</g>
<!-- test&#45;&gt;interp -->
<g id="edge2" class="edge">
<title>test&#45;&gt;interp</title>
<path fill="none" stroke="black" d="M336.47,-165.81C343.84,-165.36 352.04,-165.18 360.05,-165.28"/>
<polygon fill="black" stroke="black" points="359.94,-168.77 370.04,-165.58 360.15,-161.78 359.94,-168.77"/>
</g>
<!-- test&#45;&gt;interp -->
<g id="edge31" class="edge">
<title>test&#45;&gt;interp</title>
<path fill="none" stroke="black" stroke-dasharray="5,2" d="M336.47,-178.19C347.44,-178.87 360.24,-178.93 371.56,-178.38"/>
</g>
<!-- oop -->
<g id="node6" class="node">
<title>oop</title>
<polygon fill="cornsilk" stroke="cornsilk" points="534,-190 469,-190 469,-154 534,-154 534,-190"/>
<text text-anchor="start" x="477" y="-174.6" font-family="Verdana" font-size="8.00">Objects and</text>
<text text-anchor="start" x="486" y="-165.6" font-family="Verdana" font-size="8.00">Classes</text>
</g>
<!-- interp&#45;&gt;oop -->
<g id="edge3" class="edge">
<title>interp&#45;&gt;oop</title>
<path fill="none" stroke="black" d="M433.39,-165.71C440.87,-165.32 449.05,-165.18 457.04,-165.28"/>
<polygon fill="black" stroke="black" points="456.91,-168.78 467,-165.57 457.11,-161.78 456.91,-168.78"/>
</g>
<!-- interp&#45;&gt;oop -->
<g id="edge32" class="edge">
<title>interp&#45;&gt;oop</title>
<path fill="none" stroke="black" stroke-dasharray="5,2" d="M433.39,-178.29C444.53,-178.87 457.2,-178.9 468.52,-178.39"/>
</g>
<!-- func -->
<g id="node7" class="node">
<title>func</title>
<polygon fill="cornsilk" stroke="cornsilk" points="639,-106 570,-106 570,-70 639,-70 639,-106"/>
<text text-anchor="start" x="584.5" y="-90.6" font-family="Verdana" font-size="8.00">Functions</text>
<text text-anchor="start" x="578" y="-81.6" font-family="Verdana" font-size="8.00">and Closures</text>
</g>
<!-- interp&#45;&gt;func -->
<g id="edge4" class="edge">
<title>interp&#45;&gt;func</title>
<path fill="none" stroke="black" d="M433.44,-159.42C466.81,-145.41 521.09,-122.61 559.34,-106.55"/>
<polygon fill="black" stroke="black" points="560.41,-109.89 568.27,-102.8 557.7,-103.44 560.41,-109.89"/>
</g>
<!-- template -->
<g id="node11" class="node">
<title>template</title>
<polygon fill="cornsilk" stroke="cornsilk" points="1011,-228 950,-228 950,-192 1011,-192 1011,-228"/>
<text text-anchor="start" x="958" y="-212.6" font-family="Verdana" font-size="8.00">A Template</text>
<text text-anchor="start" x="961" y="-203.6" font-family="Verdana" font-size="8.00">Expander</text>
</g>
<!-- interp&#45;&gt;template -->
<g id="edge11" class="edge">
<title>interp&#45;&gt;template</title>
<path fill="none" stroke="black" d="M433.28,-186.12C444.29,-190.85 457.01,-195.74 469,-199 527.25,-214.85 543.13,-218 603.5,-218 603.5,-218 603.5,-218 798,-218 846.24,-218 901.62,-215.14 938.4,-212.85"/>
<polygon fill="black" stroke="black" points="938.38,-216.35 948.14,-212.22 937.93,-209.37 938.38,-216.35"/>
</g>
<!-- persist -->
<g id="node15" class="node">
<title>persist</title>
<polygon fill="cornsilk" stroke="cornsilk" points="1403,-190 1341,-190 1341,-154 1403,-154 1403,-190"/>
<text text-anchor="start" x="1358.5" y="-174.6" font-family="Verdana" font-size="8.00">Object</text>
<text text-anchor="start" x="1349" y="-165.6" font-family="Verdana" font-size="8.00">Persistence</text>
</g>
<!-- interp&#45;&gt;persist -->
<g id="edge16" class="edge">
<title>interp&#45;&gt;persist</title>
<path fill="none" stroke="black" d="M424.33,-190.39C436.61,-200.39 452.85,-212.26 469,-220 524.8,-246.75 541.62,-256 603.5,-256 603.5,-256 603.5,-256 1170.5,-256 1232.6,-256 1297.71,-221.29 1336.3,-196.5"/>
<polygon fill="black" stroke="black" points="1337.82,-199.68 1344.26,-191.27 1333.98,-193.84 1337.82,-199.68"/>
</g>
<!-- vm -->
<g id="node24" class="node">
<title>vm</title>
<polygon fill="cornsilk" stroke="cornsilk" points="2261,-167 2207,-167 2207,-131 2261,-131 2261,-167"/>
<text text-anchor="start" x="2216.5" y="-151.6" font-family="Verdana" font-size="8.00">A Virtual</text>
<text text-anchor="start" x="2217" y="-142.6" font-family="Verdana" font-size="8.00">Machine</text>
</g>
<!-- interp&#45;&gt;vm -->
<g id="edge25" class="edge">
<title>interp&#45;&gt;vm</title>
<path fill="none" stroke="black" d="M415.15,-190.43C426.84,-207.57 446.34,-232.68 469,-248 521.34,-283.39 540.32,-294 603.5,-294 603.5,-294 603.5,-294 2053,-294 2126.93,-294 2187.67,-218.91 2215.92,-176.8"/>
<polygon fill="black" stroke="black" points="2218.72,-178.92 2221.25,-168.63 2212.86,-175.09 2218.72,-178.92"/>
</g>
<!-- oop&#45;&gt;func -->
<g id="edge33" class="edge">
<title>oop&#45;&gt;func</title>
<path fill="none" stroke="black" stroke-dasharray="5,2" d="M524.42,-153.77C541.24,-139.78 564.38,-120.54 581.28,-106.48"/>
</g>
<!-- mock -->
<g id="node8" class="node">
<title>mock</title>
<polygon fill="cornsilk" stroke="cornsilk" points="734,-110 675,-110 675,-66 734,-66 734,-110"/>
<text text-anchor="start" x="690.5" y="-99.6" font-family="Verdana" font-size="8.00">Mocks,</text>
<text text-anchor="start" x="684.5" y="-90.6" font-family="Verdana" font-size="8.00">Protocols,</text>
<text text-anchor="start" x="696.5" y="-81.6" font-family="Verdana" font-size="8.00">and</text>
<text text-anchor="start" x="683" y="-72.6" font-family="Verdana" font-size="8.00">Decorators</text>
</g>
<!-- oop&#45;&gt;mock -->
<g id="edge5" class="edge">
<title>oop&#45;&gt;mock</title>
<path fill="none" stroke="black" d="M534.5,-158.65C562.16,-147.1 603.22,-129.96 639,-115 647.1,-111.61 655.77,-107.99 664.04,-104.52"/>
<polygon fill="black" stroke="black" points="665.34,-107.78 673.21,-100.69 662.63,-101.32 665.34,-107.78"/>
</g>
<!-- func&#45;&gt;mock -->
<g id="edge6" class="edge">
<title>func&#45;&gt;mock</title>
<path fill="none" stroke="black" d="M639.23,-81.55C646.96,-81.24 655.27,-81.17 663.25,-81.35"/>
<polygon fill="black" stroke="black" points="662.97,-84.84 673.1,-81.72 663.24,-77.84 662.97,-84.84"/>
</g>
<!-- func&#45;&gt;mock -->
<g id="edge34" class="edge">
<title>func&#45;&gt;mock</title>
<path fill="none" stroke="black" stroke-dasharray="5,2" d="M639.23,-94.45C650.74,-94.92 663.51,-94.84 674.61,-94.22"/>
</g>
<!-- mock&#45;&gt;archive -->
<g id="edge8" class="edge">
<title>mock&#45;&gt;archive</title>
<path fill="none" stroke="black" d="M734.38,-66.98C742.31,-62.53 751.02,-58.01 759.32,-54"/>
<polygon fill="black" stroke="black" points="760.58,-57.28 768.17,-49.89 757.62,-50.93 760.58,-57.28"/>
</g>
<!-- mock&#45;&gt;archive -->
<g id="edge35" class="edge">
<title>mock&#45;&gt;archive</title>
<path fill="none" stroke="black" stroke-dasharray="5,2" d="M734.38,-79.66C746.38,-74.19 760.16,-67.09 771.64,-60.45"/>
</g>
<!-- db -->
<g id="node17" class="node">
<title>db</title>
<polygon fill="pink" stroke="pink" points="1600,-144 1538,-144 1538,-108 1600,-108 1600,-144"/>
<text text-anchor="start" x="1546" y="-124.1" font-family="Verdana" font-size="8.00">A Database</text>
</g>
<!-- mock&#45;&gt;db -->
<g id="edge19" class="edge">
<title>mock&#45;&gt;db</title>
<path fill="none" stroke="black" d="M734.26,-88C769.88,-88 832.41,-88 886,-88 886,-88 886,-88 1373,-88 1426.84,-88 1487.52,-102.13 1526.68,-113.15"/>
<polygon fill="black" stroke="black" points="1525.59,-116.48 1536.17,-115.89 1527.53,-109.76 1525.59,-116.48"/>
</g>
<!-- archive&#45;&gt;check -->
<g id="edge36" class="edge">
<title>archive&#45;&gt;check</title>
<path fill="none" stroke="black" stroke-dasharray="5,2" d="M812.93,-60.49C829.21,-80.66 855.1,-112.73 871.29,-132.78"/>
</g>
<!-- ftp -->
<g id="node20" class="node">
<title>ftp</title>
<polygon fill="cornsilk" stroke="cornsilk" points="1885,-144 1819,-144 1819,-108 1885,-108 1885,-144"/>
<text text-anchor="start" x="1827" y="-128.6" font-family="Verdana" font-size="8.00">Transferring</text>
<text text-anchor="start" x="1842.5" y="-119.6" font-family="Verdana" font-size="8.00">Files</text>
</g>
<!-- archive&#45;&gt;ftp -->
<g id="edge21" class="edge">
<title>archive&#45;&gt;ftp</title>
<path fill="none" stroke="black" d="M824.45,-42.95C859.78,-44.13 924.34,-46 979.5,-46 979.5,-46 979.5,-46 1664,-46 1720.97,-46 1780.4,-77.77 1816.57,-101.27"/>
<polygon fill="black" stroke="black" points="1814.61,-104.17 1824.87,-106.81 1818.49,-98.35 1814.61,-104.17"/>
</g>
<!-- check&#45;&gt;template -->
<g id="edge12" class="edge">
<title>check&#45;&gt;template</title>
<path fill="none" stroke="black" d="M914.47,-161.88C925.76,-168.46 938.98,-176.94 950.54,-185"/>
<polygon fill="black" stroke="black" points="948.38,-187.76 958.55,-190.74 952.46,-182.07 948.38,-187.76"/>
</g>
<!-- check&#45;&gt;template -->
<g id="edge37" class="edge">
<title>check&#45;&gt;template</title>
<path fill="none" stroke="black" stroke-dasharray="5,2" d="M907.85,-169.48C920.05,-178.48 935.9,-188.93 949.59,-197.09"/>
</g>
<!-- lint -->
<g id="node12" class="node">
<title>lint</title>
<polygon fill="pink" stroke="pink" points="1101,-190 1047,-190 1047,-154 1101,-154 1101,-190"/>
<text text-anchor="start" x="1060" y="-174.6" font-family="Verdana" font-size="8.00">A Code</text>
<text text-anchor="start" x="1062" y="-165.6" font-family="Verdana" font-size="8.00">Linter</text>
</g>
<!-- check&#45;&gt;lint -->
<g id="edge13" class="edge">
<title>check&#45;&gt;lint</title>
<path fill="none" stroke="black" d="M914.11,-153.96C945.84,-157.57 999.59,-163.67 1035.67,-167.76"/>
<polygon fill="black" stroke="black" points="1034.89,-171.2 1045.22,-168.85 1035.68,-164.24 1034.89,-171.2"/>
</g>
<!-- layout -->
<g id="node13" class="node">
<title>layout</title>
<polygon fill="pink" stroke="pink" points="1202,-190 1137,-190 1137,-154 1202,-154 1202,-190"/>
<text text-anchor="start" x="1145" y="-170.1" font-family="Verdana" font-size="8.00">Page Layout</text>
</g>
<!-- check&#45;&gt;layout -->
<g id="edge15" class="edge">
<title>check&#45;&gt;layout</title>
<path fill="none" stroke="black" d="M914.2,-146.64C954.68,-140.72 1034.7,-132.23 1101,-145 1109.36,-146.61 1118,-149.25 1126.19,-152.25"/>
<polygon fill="black" stroke="black" points="1124.65,-155.41 1135.23,-155.82 1127.21,-148.89 1124.65,-155.41"/>
</g>
<!-- template&#45;&gt;lint -->
<g id="edge38" class="edge">
<title>template&#45;&gt;lint</title>
<path fill="none" stroke="black" stroke-dasharray="5,2" d="M1011.46,-197.56C1022.82,-192.84 1035.67,-187.5 1046.67,-182.94"/>
</g>
<!-- template&#45;&gt;layout -->
<g id="edge14" class="edge">
<title>template&#45;&gt;layout</title>
<path fill="none" stroke="black" d="M1011.35,-209.63C1035.77,-208.76 1071.02,-206.21 1101,-199 1109.28,-197.01 1117.88,-194.19 1126.06,-191.12"/>
<polygon fill="black" stroke="black" points="1127.08,-194.48 1135.1,-187.55 1124.51,-187.97 1127.08,-194.48"/>
</g>
<!-- lint&#45;&gt;layout -->
<g id="edge39" class="edge">
<title>lint&#45;&gt;layout</title>
<path fill="none" stroke="black" stroke-dasharray="5,2" d="M1101.04,-172C1112.07,-172 1125.02,-172 1136.6,-172"/>
</g>
<!-- perf -->
<g id="node14" class="node">
<title>perf</title>
<polygon fill="aquamarine" stroke="aquamarine" points="1305,-190 1238,-190 1238,-154 1305,-154 1305,-190"/>
<text text-anchor="start" x="1246" y="-174.6" font-family="Verdana" font-size="8.00">Performance</text>
<text text-anchor="start" x="1254.5" y="-165.6" font-family="Verdana" font-size="8.00">Profiling</text>
</g>
<!-- layout&#45;&gt;perf -->
<g id="edge40" class="edge">
<title>layout&#45;&gt;perf</title>
<path fill="none" stroke="black" stroke-dasharray="5,2" d="M1202.42,-172C1213.62,-172 1226.22,-172 1237.51,-172"/>
</g>
<!-- perf&#45;&gt;persist -->
<g id="edge41" class="edge">
<title>perf&#45;&gt;persist</title>
<path fill="none" stroke="black" stroke-dasharray="5,2" d="M1305.3,-172C1316.72,-172 1329.46,-172 1340.67,-172"/>
</g>
<!-- binary -->
<g id="node16" class="node">
<title>binary</title>
<polygon fill="cornsilk" stroke="cornsilk" points="1502,-190 1439,-190 1439,-154 1502,-154 1502,-190"/>
<text text-anchor="start" x="1447" y="-170.1" font-family="Verdana" font-size="8.00">Binary Data</text>
</g>
<!-- persist&#45;&gt;binary -->
<g id="edge17" class="edge">
<title>persist&#45;&gt;binary</title>
<path fill="none" stroke="black" d="M1403.27,-165.69C1410.93,-165.3 1419.3,-165.17 1427.44,-165.3"/>
<polygon fill="black" stroke="black" points="1427.06,-168.79 1437.16,-165.61 1427.28,-161.79 1427.06,-168.79"/>
</g>
<!-- persist&#45;&gt;binary -->
<g id="edge42" class="edge">
<title>persist&#45;&gt;binary</title>
<path fill="none" stroke="black" stroke-dasharray="5,2" d="M1403.27,-178.31C1414.54,-178.89 1427.35,-178.89 1438.67,-178.34"/>
</g>
<!-- persist&#45;&gt;db -->
<g id="edge20" class="edge">
<title>persist&#45;&gt;db</title>
<path fill="none" stroke="black" d="M1403.35,-157.78C1414.38,-153.1 1427.06,-148.27 1439,-145 1467.68,-137.15 1500.9,-132.35 1526.45,-129.54"/>
<polygon fill="black" stroke="black" points="1526.51,-133.05 1536.09,-128.54 1525.79,-126.09 1526.51,-133.05"/>
</g>
<!-- binary&#45;&gt;db -->
<g id="edge18" class="edge">
<title>binary&#45;&gt;db</title>
<path fill="none" stroke="black" d="M1497.36,-153.62C1506.56,-148.62 1517.15,-143.36 1527.29,-138.73"/>
<polygon fill="black" stroke="black" points="1528.5,-142.02 1536.23,-134.78 1525.67,-135.62 1528.5,-142.02"/>
</g>
<!-- binary&#45;&gt;db -->
<g id="edge43" class="edge">
<title>binary&#45;&gt;db</title>
<path fill="none" stroke="black" stroke-dasharray="5,2" d="M1502.3,-163.66C1515.1,-158.19 1529.79,-151.09 1542.02,-144.45"/>
</g>
<!-- binary&#45;&gt;vm -->
<g id="edge24" class="edge">
<title>binary&#45;&gt;vm</title>
<path fill="none" stroke="black" d="M1502.18,-172C1539.83,-172 1605.61,-172 1662,-172 1662,-172 1662,-172 2053,-172 2102.61,-172 2159.29,-163.3 2195.57,-156.6"/>
<polygon fill="black" stroke="black" points="2195.94,-160.09 2205.11,-154.79 2194.64,-153.21 2195.94,-160.09"/>
</g>
<!-- build -->
<g id="node18" class="node">
<title>build</title>
<polygon fill="aquamarine" stroke="aquamarine" points="1690,-144 1636,-144 1636,-108 1690,-108 1690,-144"/>
<text text-anchor="start" x="1648.5" y="-128.6" font-family="Verdana" font-size="8.00">A Build</text>
<text text-anchor="start" x="1645.5" y="-119.6" font-family="Verdana" font-size="8.00">Manager</text>
</g>
<!-- db&#45;&gt;build -->
<g id="edge44" class="edge">
<title>db&#45;&gt;build</title>
<path fill="none" stroke="black" stroke-dasharray="5,2" d="M1600.38,-126C1611.79,-126 1624.65,-126 1635.67,-126"/>
</g>
<!-- pack -->
<g id="node19" class="node">
<title>pack</title>
<polygon fill="aquamarine" stroke="aquamarine" points="1783,-144 1726,-144 1726,-108 1783,-108 1783,-144"/>
<text text-anchor="start" x="1734" y="-128.6" font-family="Verdana" font-size="8.00">A Package</text>
<text text-anchor="start" x="1737" y="-119.6" font-family="Verdana" font-size="8.00">Manager</text>
</g>
<!-- build&#45;&gt;pack -->
<g id="edge45" class="edge">
<title>build&#45;&gt;pack</title>
<path fill="none" stroke="black" stroke-dasharray="5,2" d="M1690.37,-126C1701.51,-126 1714.48,-126 1725.76,-126"/>
</g>
<!-- pack&#45;&gt;ftp -->
<g id="edge46" class="edge">
<title>pack&#45;&gt;ftp</title>
<path fill="none" stroke="black" stroke-dasharray="5,2" d="M1783.38,-126C1794.39,-126 1807.12,-126 1818.54,-126"/>
</g>
<!-- http -->
<g id="node21" class="node">
<title>http</title>
<polygon fill="pink" stroke="pink" points="1989,-144 1921,-144 1921,-108 1989,-108 1989,-144"/>
<text text-anchor="start" x="1929" y="-128.6" font-family="Verdana" font-size="8.00">Serving Web</text>
<text text-anchor="start" x="1943" y="-119.6" font-family="Verdana" font-size="8.00">Pages</text>
</g>
<!-- ftp&#45;&gt;http -->
<g id="edge22" class="edge">
<title>ftp&#45;&gt;http</title>
<path fill="none" stroke="black" d="M1885.23,-119.66C1892.93,-119.3 1901.27,-119.18 1909.41,-119.29"/>
<polygon fill="black" stroke="black" points="1909.07,-122.78 1919.17,-119.57 1909.27,-115.79 1909.07,-122.78"/>
</g>
<!-- ftp&#45;&gt;http -->
<g id="edge47" class="edge">
<title>ftp&#45;&gt;http</title>
<path fill="none" stroke="black" stroke-dasharray="5,2" d="M1885.23,-132.34C1896.55,-132.87 1909.28,-132.89 1920.68,-132.39"/>
</g>
<!-- viewer -->
<g id="node22" class="node">
<title>viewer</title>
<polygon fill="aquamarine" stroke="aquamarine" points="2079,-144 2025,-144 2025,-108 2079,-108 2079,-144"/>
<text text-anchor="start" x="2041" y="-128.6" font-family="Verdana" font-size="8.00">A File</text>
<text text-anchor="start" x="2038" y="-119.6" font-family="Verdana" font-size="8.00">Viewer</text>
</g>
<!-- http&#45;&gt;viewer -->
<g id="edge48" class="edge">
<title>http&#45;&gt;viewer</title>
<path fill="none" stroke="black" stroke-dasharray="5,2" d="M1989.49,-126C2001.03,-126 2013.78,-126 2024.67,-126"/>
</g>
<!-- undo -->
<g id="node23" class="node">
<title>undo</title>
<polygon fill="pink" stroke="pink" points="2171,-144 2115,-144 2115,-108 2171,-108 2171,-144"/>
<text text-anchor="start" x="2123" y="-128.6" font-family="Verdana" font-size="8.00">Undo and</text>
<text text-anchor="start" x="2133" y="-119.6" font-family="Verdana" font-size="8.00">Redo</text>
</g>
<!-- viewer&#45;&gt;undo -->
<g id="edge23" class="edge">
<title>viewer&#45;&gt;undo</title>
<path fill="none" stroke="black" d="M2079.22,-119.78C2086.82,-119.31 2095.28,-119.15 2103.46,-119.3"/>
<polygon fill="black" stroke="black" points="2103.09,-122.79 2113.22,-119.67 2103.35,-115.8 2103.09,-122.79"/>
</g>
<!-- viewer&#45;&gt;undo -->
<g id="edge49" class="edge">
<title>viewer&#45;&gt;undo</title>
<path fill="none" stroke="black" stroke-dasharray="5,2" d="M2079.22,-132.22C2090.4,-132.91 2103.44,-132.93 2114.73,-132.28"/>
</g>
<!-- debugger -->
<g id="node25" class="node">
<title>debugger</title>
<polygon fill="pink" stroke="pink" points="2362,-167 2297,-167 2297,-131 2362,-131 2362,-167"/>
<text text-anchor="start" x="2305" y="-147.1" font-family="Verdana" font-size="8.00">A Debugger</text>
</g>
<!-- viewer&#45;&gt;debugger -->
<g id="edge26" class="edge">
<title>viewer&#45;&gt;debugger</title>
<path fill="none" stroke="black" d="M2079.37,-111.67C2090.09,-106.6 2102.82,-101.54 2115,-99 2174.78,-86.55 2243.47,-109.33 2286.43,-128.08"/>
<polygon fill="black" stroke="black" points="2284.84,-131.21 2295.4,-132.12 2287.71,-124.82 2284.84,-131.21"/>
</g>
<!-- undo&#45;&gt;vm -->
<g id="edge50" class="edge">
<title>undo&#45;&gt;vm</title>
<path fill="none" stroke="black" stroke-dasharray="5,2" d="M2171.19,-133.03C2182.43,-135.93 2195.43,-139.29 2206.59,-142.18"/>
</g>
<!-- vm&#45;&gt;debugger -->
<g id="edge27" class="edge">
<title>vm&#45;&gt;debugger</title>
<path fill="none" stroke="black" d="M2261.04,-142.88C2268.54,-142.39 2276.92,-142.19 2285.16,-142.27"/>
<polygon fill="black" stroke="black" points="2285,-145.76 2295.09,-142.52 2285.19,-138.77 2285,-145.76"/>
</g>
<!-- vm&#45;&gt;debugger -->
<g id="edge51" class="edge">
<title>vm&#45;&gt;debugger</title>
<path fill="none" stroke="black" stroke-dasharray="5,2" d="M2261.04,-155.12C2272.07,-155.84 2285.02,-155.94 2296.6,-155.44"/>
</g>
</g>
</svg>
