<?xml version="1.0" encoding="UTF-8" standalone="no"?>
<!DOCTYPE svg PUBLIC "-//W3C//DTD SVG 1.1//EN"
 "http://www.w3.org/Graphics/SVG/1.1/DTD/svg11.dtd">
<!-- Generated by graphviz version 8.0.5 (20230430.1635)
 -->
<!-- Pages: 1 -->
<svg width="2360pt" height="343pt"
 viewBox="0.00 0.00 2359.50 343.00" xmlns="http://www.w3.org/2000/svg" xmlns:xlink="http://www.w3.org/1999/xlink">
<g id="graph0" class="graph" transform="scale(1 1) rotate(0) translate(4 339)">
<polygon fill="white" stroke="none" points="-4,4 -4,-339 2355.5,-339 2355.5,4 -4,4"/>
<!-- oop -->
<g id="node1" class="node">
<title>oop</title>
<polygon fill="aquamarine" stroke="aquamarine" points="64.75,-103 0,-103 0,-67 64.75,-67 64.75,-103"/>
<text text-anchor="start" x="8" y="-87.9" font-family="Verdana" font-size="8.00">Objects and</text>
<text text-anchor="start" x="17.38" y="-77.4" font-family="Verdana" font-size="8.00">Classes</text>
</g>
<!-- dup -->
<g id="node2" class="node">
<title>dup</title>
<polygon fill="aquamarine" stroke="aquamarine" points="154.75,-104.75 100.75,-104.75 100.75,-65.25 154.75,-65.25 154.75,-104.75"/>
<text text-anchor="start" x="112.75" y="-93.15" font-family="Verdana" font-size="8.00">Finding</text>
<text text-anchor="start" x="109" y="-82.65" font-family="Verdana" font-size="8.00">Duplicate</text>
<text text-anchor="start" x="118.75" y="-72.15" font-family="Verdana" font-size="8.00">Files</text>
</g>
<!-- oop&#45;&gt;dup -->
<g id="edge28" class="edge">
<title>oop&#45;&gt;dup</title>
<path fill="none" stroke="black" stroke-dasharray="5,2" d="M65.25,-85C76.66,-85 89.39,-85 100.29,-85"/>
</g>
<!-- interp -->
<g id="node6" class="node">
<title>interp</title>
<polygon fill="cornsilk" stroke="cornsilk" points="532.5,-269 472.25,-269 472.25,-233 532.5,-233 532.5,-269"/>
<text text-anchor="start" x="497.12" y="-253.9" font-family="Verdana" font-size="8.00">An</text>
<text text-anchor="start" x="480.25" y="-243.4" font-family="Verdana" font-size="8.00">Interpreter</text>
</g>
<!-- oop&#45;&gt;interp -->
<g id="edge2" class="edge">
<title>oop&#45;&gt;interp</title>
<path fill="none" stroke="black" d="M39.24,-103.44C56.9,-155.02 114.8,-297 216.75,-297 216.75,-297 216.75,-297 314.5,-297 369.27,-297 383.53,-292.81 436.25,-278 444.62,-275.65 453.35,-272.52 461.61,-269.24"/>
<polygon fill="black" stroke="black" points="462.86,-272.1 470.75,-265.03 460.17,-265.63 462.86,-272.1"/>
</g>
<!-- mock -->
<g id="node8" class="node">
<title>mock</title>
<polygon fill="cornsilk" stroke="cornsilk" points="731.75,-154 673,-154 673,-104 731.75,-104 731.75,-154"/>
<text text-anchor="start" x="688.5" y="-142.4" font-family="Verdana" font-size="8.00">Mocks,</text>
<text text-anchor="start" x="682.88" y="-131.9" font-family="Verdana" font-size="8.00">Protocols,</text>
<text text-anchor="start" x="694.88" y="-121.4" font-family="Verdana" font-size="8.00">and</text>
<text text-anchor="start" x="681" y="-110.9" font-family="Verdana" font-size="8.00">Decorators</text>
</g>
<!-- oop&#45;&gt;mock -->
<g id="edge6" class="edge">
<title>oop&#45;&gt;mock</title>
<path fill="none" stroke="black" d="M56.12,-66.56C89.31,-41.56 153.94,0 216.75,0 216.75,0 216.75,0 410.25,0 508.5,0 610.64,-62.17 663.92,-100.19"/>
<polygon fill="black" stroke="black" points="661.51,-103.49 671.66,-106.53 665.62,-97.83 661.51,-103.49"/>
</g>
<!-- glob -->
<g id="node3" class="node">
<title>glob</title>
<polygon fill="aquamarine" stroke="aquamarine" points="244.75,-142 190.75,-142 190.75,-106 244.75,-106 244.75,-142"/>
<text text-anchor="start" x="199.38" y="-126.9" font-family="Verdana" font-size="8.00">Matching</text>
<text text-anchor="start" x="201.25" y="-116.4" font-family="Verdana" font-size="8.00">Patterns</text>
</g>
<!-- dup&#45;&gt;glob -->
<g id="edge29" class="edge">
<title>dup&#45;&gt;glob</title>
<path fill="none" stroke="black" stroke-dasharray="5,2" d="M155.15,-96.7C166.29,-101.64 179.23,-107.37 190.37,-112.31"/>
</g>
<!-- archive -->
<g id="node9" class="node">
<title>archive</title>
<polygon fill="cornsilk" stroke="cornsilk" points="821.75,-101 767.75,-101 767.75,-65 821.75,-65 821.75,-101"/>
<text text-anchor="start" x="783.88" y="-85.9" font-family="Verdana" font-size="8.00">A File</text>
<text text-anchor="start" x="777.88" y="-75.4" font-family="Verdana" font-size="8.00">Archiver</text>
</g>
<!-- dup&#45;&gt;archive -->
<g id="edge7" class="edge">
<title>dup&#45;&gt;archive</title>
<path fill="none" stroke="black" d="M154.99,-73.86C190.17,-59.96 254.88,-38 312.5,-38 312.5,-38 312.5,-38 603.75,-38 658.44,-38 719.66,-55.87 757.46,-69.09"/>
<polygon fill="black" stroke="black" points="755.88,-72.6 766.47,-72.68 758.24,-66.01 755.88,-72.6"/>
</g>
<!-- parse -->
<g id="node4" class="node">
<title>parse</title>
<polygon fill="cornsilk" stroke="cornsilk" points="346.25,-181 280.75,-181 280.75,-145 346.25,-145 346.25,-181"/>
<text text-anchor="start" x="288.75" y="-160.65" font-family="Verdana" font-size="8.00">Parsing Text</text>
</g>
<!-- glob&#45;&gt;parse -->
<g id="edge1" class="edge">
<title>glob&#45;&gt;parse</title>
<path fill="none" stroke="black" d="M244.86,-128.74C253.71,-131.85 263.79,-135.86 273.42,-140.08"/>
<polygon fill="black" stroke="black" points="271.67,-143.58 282.23,-144.51 274.56,-137.2 271.67,-143.58"/>
</g>
<!-- glob&#45;&gt;parse -->
<g id="edge30" class="edge">
<title>glob&#45;&gt;parse</title>
<path fill="none" stroke="black" stroke-dasharray="5,2" d="M244.86,-140.99C255.92,-146.3 268.9,-151.8 280.52,-156.13"/>
</g>
<!-- glob&#45;&gt;archive -->
<g id="edge8" class="edge">
<title>glob&#45;&gt;archive</title>
<path fill="none" stroke="black" d="M245.2,-112.87C281.35,-98.69 348.52,-76 408.25,-76 408.25,-76 408.25,-76 603.75,-76 656.93,-76 718.42,-78.77 756.7,-80.83"/>
<polygon fill="black" stroke="black" points="756.15,-84.36 766.33,-81.41 756.53,-77.37 756.15,-84.36"/>
</g>
<!-- test -->
<g id="node5" class="node">
<title>test</title>
<polygon fill="aquamarine" stroke="aquamarine" points="436.25,-269 382.25,-269 382.25,-233 436.25,-233 436.25,-269"/>
<text text-anchor="start" x="392.38" y="-253.9" font-family="Verdana" font-size="8.00">Running</text>
<text text-anchor="start" x="398.75" y="-243.4" font-family="Verdana" font-size="8.00">Tests</text>
</g>
<!-- parse&#45;&gt;test -->
<g id="edge31" class="edge">
<title>parse&#45;&gt;test</title>
<path fill="none" stroke="black" stroke-dasharray="5,2" d="M333.93,-181.23C350.01,-196.34 372.77,-217.69 388.85,-232.79"/>
</g>
<!-- check -->
<g id="node10" class="node">
<title>check</title>
<polygon fill="cornsilk" stroke="cornsilk" points="911.75,-223 857.75,-223 857.75,-187 911.75,-187 911.75,-223"/>
<text text-anchor="start" x="866.75" y="-207.9" font-family="Verdana" font-size="8.00">An HTML</text>
<text text-anchor="start" x="867.12" y="-197.4" font-family="Verdana" font-size="8.00">Validator</text>
</g>
<!-- parse&#45;&gt;check -->
<g id="edge10" class="edge">
<title>parse&#45;&gt;check</title>
<path fill="none" stroke="black" d="M346.54,-166.41C394.69,-171.45 488.56,-180.94 568.5,-187 668.94,-194.61 787.61,-200.57 846.59,-203.33"/>
<polygon fill="black" stroke="black" points="846.42,-206.87 856.57,-203.83 846.74,-199.88 846.42,-206.87"/>
</g>
<!-- test&#45;&gt;interp -->
<g id="edge3" class="edge">
<title>test&#45;&gt;interp</title>
<path fill="none" stroke="black" d="M436.61,-244.81C444.2,-244.34 452.66,-244.17 460.89,-244.29"/>
<polygon fill="black" stroke="black" points="460.77,-247.82 470.88,-244.64 460.99,-240.82 460.77,-247.82"/>
</g>
<!-- test&#45;&gt;interp -->
<g id="edge32" class="edge">
<title>test&#45;&gt;interp</title>
<path fill="none" stroke="black" stroke-dasharray="5,2" d="M436.61,-257.19C447.65,-257.87 460.52,-257.93 471.88,-257.36"/>
</g>
<!-- func -->
<g id="node7" class="node">
<title>func</title>
<polygon fill="cornsilk" stroke="cornsilk" points="637,-178 568.5,-178 568.5,-142 637,-142 637,-178"/>
<text text-anchor="start" x="583.25" y="-162.9" font-family="Verdana" font-size="8.00">Functions</text>
<text text-anchor="start" x="576.5" y="-152.4" font-family="Verdana" font-size="8.00">and Closures</text>
</g>
<!-- interp&#45;&gt;func -->
<g id="edge4" class="edge">
<title>interp&#45;&gt;func</title>
<path fill="none" stroke="black" d="M517.89,-232.62C530.84,-218.97 550.32,-200.45 567.25,-185.44"/>
<polygon fill="black" stroke="black" points="569.08,-187.61 574.31,-178.39 564.48,-182.34 569.08,-187.61"/>
</g>
<!-- interp&#45;&gt;func -->
<g id="edge33" class="edge">
<title>interp&#45;&gt;func</title>
<path fill="none" stroke="black" stroke-dasharray="5,2" d="M529.74,-232.67C548.18,-216.82 572.12,-194.31 587.21,-178.41"/>
</g>
<!-- template -->
<g id="node11" class="node">
<title>template</title>
<polygon fill="cornsilk" stroke="cornsilk" points="1008,-269 947.75,-269 947.75,-233 1008,-233 1008,-269"/>
<text text-anchor="start" x="955.75" y="-253.9" font-family="Verdana" font-size="8.00">A Template</text>
<text text-anchor="start" x="958.75" y="-243.4" font-family="Verdana" font-size="8.00">Expander</text>
</g>
<!-- interp&#45;&gt;template -->
<g id="edge12" class="edge">
<title>interp&#45;&gt;template</title>
<path fill="none" stroke="black" d="M532.89,-251C571.59,-251 641.56,-251 701.38,-251 701.38,-251 701.38,-251 795.75,-251 844.2,-251 899.93,-251 936.63,-251"/>
<polygon fill="black" stroke="black" points="936.39,-254.5 946.39,-251 936.39,-247.5 936.39,-254.5"/>
</g>
<!-- persist -->
<g id="node15" class="node">
<title>persist</title>
<polygon fill="cornsilk" stroke="cornsilk" points="1398,-231 1336.25,-231 1336.25,-195 1398,-195 1398,-231"/>
<text text-anchor="start" x="1354" y="-215.9" font-family="Verdana" font-size="8.00">Object</text>
<text text-anchor="start" x="1344.25" y="-205.4" font-family="Verdana" font-size="8.00">Persistence</text>
</g>
<!-- interp&#45;&gt;persist -->
<g id="edge16" class="edge">
<title>interp&#45;&gt;persist</title>
<path fill="none" stroke="black" d="M532.73,-262.25C570.96,-275.87 640.15,-297 701.38,-297 701.38,-297 701.38,-297 1167,-297 1228.74,-297 1293.38,-262.29 1331.69,-237.5"/>
<polygon fill="black" stroke="black" points="1333.44,-239.87 1339.84,-231.43 1329.57,-234.04 1333.44,-239.87"/>
</g>
<!-- vm -->
<g id="node24" class="node">
<title>vm</title>
<polygon fill="cornsilk" stroke="cornsilk" points="2251.5,-208 2197.5,-208 2197.5,-172 2251.5,-172 2251.5,-208"/>
<text text-anchor="start" x="2207.25" y="-192.9" font-family="Verdana" font-size="8.00">A Virtual</text>
<text text-anchor="start" x="2208" y="-182.4" font-family="Verdana" font-size="8.00">Machine</text>
</g>
<!-- interp&#45;&gt;vm -->
<g id="edge25" class="edge">
<title>interp&#45;&gt;vm</title>
<path fill="none" stroke="black" d="M525.41,-269.39C537.51,-278.74 553.14,-289.64 568.5,-297 623.89,-323.54 639.95,-335 701.38,-335 701.38,-335 701.38,-335 2044.5,-335 2118.34,-335 2178.77,-259.59 2206.73,-217.53"/>
<polygon fill="black" stroke="black" points="2210.17,-219.66 2212.67,-209.36 2204.29,-215.86 2210.17,-219.66"/>
</g>
<!-- func&#45;&gt;mock -->
<g id="edge5" class="edge">
<title>func&#45;&gt;mock</title>
<path fill="none" stroke="black" d="M637.35,-142.88C645.32,-140.02 653.9,-137.24 662.11,-134.84"/>
<polygon fill="black" stroke="black" points="662.9,-137.97 671.6,-131.92 661.02,-131.23 662.9,-137.97"/>
</g>
<!-- func&#45;&gt;mock -->
<g id="edge34" class="edge">
<title>func&#45;&gt;mock</title>
<path fill="none" stroke="black" stroke-dasharray="5,2" d="M637.35,-155.78C648.82,-152.61 661.54,-148.49 672.6,-144.36"/>
</g>
<!-- mock&#45;&gt;archive -->
<g id="edge9" class="edge">
<title>mock&#45;&gt;archive</title>
<path fill="none" stroke="black" d="M731.97,-108.12C740.15,-103.52 749.17,-98.83 757.73,-94.71"/>
<polygon fill="black" stroke="black" points="758.9,-97.56 766.49,-90.17 755.94,-91.21 758.9,-97.56"/>
</g>
<!-- mock&#45;&gt;archive -->
<g id="edge35" class="edge">
<title>mock&#45;&gt;archive</title>
<path fill="none" stroke="black" stroke-dasharray="5,2" d="M731.97,-120.77C744.07,-115.26 758.02,-108.07 769.59,-101.35"/>
</g>
<!-- db -->
<g id="node17" class="node">
<title>db</title>
<polygon fill="pink" stroke="pink" points="1593.5,-185 1532.5,-185 1532.5,-149 1593.5,-149 1593.5,-185"/>
<text text-anchor="start" x="1540.5" y="-164.65" font-family="Verdana" font-size="8.00">A Database</text>
</g>
<!-- mock&#45;&gt;db -->
<g id="edge19" class="edge">
<title>mock&#45;&gt;db</title>
<path fill="none" stroke="black" d="M732.12,-129C767.71,-129 830.2,-129 883.75,-129 883.75,-129 883.75,-129 1368.12,-129 1422.05,-129 1482.86,-143.33 1521.76,-154.39"/>
<polygon fill="black" stroke="black" points="1520.55,-157.98 1531.13,-157.41 1522.51,-151.26 1520.55,-157.98"/>
</g>
<!-- archive&#45;&gt;check -->
<g id="edge36" class="edge">
<title>archive&#45;&gt;check</title>
<path fill="none" stroke="black" stroke-dasharray="5,2" d="M808.92,-101.26C825.51,-124.26 853.85,-163.55 870.49,-186.61"/>
</g>
<!-- ftp -->
<g id="node20" class="node">
<title>ftp</title>
<polygon fill="cornsilk" stroke="cornsilk" points="1877.5,-185 1812,-185 1812,-149 1877.5,-149 1877.5,-185"/>
<text text-anchor="start" x="1820" y="-169.9" font-family="Verdana" font-size="8.00">Transferring</text>
<text text-anchor="start" x="1835.75" y="-159.4" font-family="Verdana" font-size="8.00">Files</text>
</g>
<!-- archive&#45;&gt;ftp -->
<g id="edge21" class="edge">
<title>archive&#45;&gt;ftp</title>
<path fill="none" stroke="black" d="M822.14,-83.95C857.4,-85.13 921.83,-87 976.88,-87 976.88,-87 976.88,-87 1657.5,-87 1714.52,-87 1773.97,-119.04 1809.93,-142.57"/>
<polygon fill="black" stroke="black" points="1807.74,-145.98 1817.99,-148.65 1811.63,-140.17 1807.74,-145.98"/>
</g>
<!-- check&#45;&gt;template -->
<g id="edge11" class="edge">
<title>check&#45;&gt;template</title>
<path fill="none" stroke="black" d="M912.11,-212.12C921.75,-216.38 932.79,-221.84 943,-227.35"/>
<polygon fill="black" stroke="black" points="941.01,-230.81 951.45,-232.61 944.41,-224.69 941.01,-230.81"/>
</g>
<!-- check&#45;&gt;template -->
<g id="edge37" class="edge">
<title>check&#45;&gt;template</title>
<path fill="none" stroke="black" stroke-dasharray="5,2" d="M910.17,-223.38C921.66,-230 935.46,-237.06 947.52,-242.54"/>
</g>
<!-- lint -->
<g id="node12" class="node">
<title>lint</title>
<polygon fill="pink" stroke="pink" points="1098,-231 1044,-231 1044,-195 1098,-195 1098,-231"/>
<text text-anchor="start" x="1057.12" y="-215.9" font-family="Verdana" font-size="8.00">A Code</text>
<text text-anchor="start" x="1059.38" y="-205.4" font-family="Verdana" font-size="8.00">Linter</text>
</g>
<!-- check&#45;&gt;lint -->
<g id="edge13" class="edge">
<title>check&#45;&gt;lint</title>
<path fill="none" stroke="black" d="M912.15,-206.15C943.75,-207.52 996.89,-209.83 1032.69,-211.38"/>
<polygon fill="black" stroke="black" points="1032.51,-214.92 1042.65,-211.86 1032.81,-207.93 1032.51,-214.92"/>
</g>
<!-- layout -->
<g id="node13" class="node">
<title>layout</title>
<polygon fill="pink" stroke="pink" points="1198,-231 1134,-231 1134,-195 1198,-195 1198,-231"/>
<text text-anchor="start" x="1142" y="-210.65" font-family="Verdana" font-size="8.00">Page Layout</text>
</g>
<!-- check&#45;&gt;layout -->
<g id="edge14" class="edge">
<title>check&#45;&gt;layout</title>
<path fill="none" stroke="black" d="M912.13,-197.94C952.51,-188.19 1031.9,-173.18 1098,-186 1106.48,-187.65 1115.25,-190.36 1123.54,-193.45"/>
<polygon fill="black" stroke="black" points="1122.14,-197.06 1132.73,-197.51 1124.74,-190.56 1122.14,-197.06"/>
</g>
<!-- template&#45;&gt;lint -->
<g id="edge38" class="edge">
<title>template&#45;&gt;lint</title>
<path fill="none" stroke="black" stroke-dasharray="5,2" d="M1008.46,-238.66C1019.79,-233.94 1032.63,-228.58 1043.64,-223.99"/>
</g>
<!-- template&#45;&gt;layout -->
<g id="edge15" class="edge">
<title>template&#45;&gt;layout</title>
<path fill="none" stroke="black" d="M1008.15,-250.66C1032.5,-249.81 1067.92,-247.28 1098,-240 1106.4,-237.97 1115.13,-235.07 1123.41,-231.93"/>
<polygon fill="black" stroke="black" points="1124.6,-234.82 1132.59,-227.85 1122,-228.32 1124.6,-234.82"/>
</g>
<!-- lint&#45;&gt;layout -->
<g id="edge39" class="edge">
<title>lint&#45;&gt;layout</title>
<path fill="none" stroke="black" stroke-dasharray="5,2" d="M1098.4,-213C1109.36,-213 1122.15,-213 1133.59,-213"/>
</g>
<!-- perf -->
<g id="node14" class="node">
<title>perf</title>
<polygon fill="aquamarine" stroke="aquamarine" points="1300.25,-231 1234,-231 1234,-195 1300.25,-195 1300.25,-231"/>
<text text-anchor="start" x="1242" y="-215.9" font-family="Verdana" font-size="8.00">Performance</text>
<text text-anchor="start" x="1250.62" y="-205.4" font-family="Verdana" font-size="8.00">Profiling</text>
</g>
<!-- layout&#45;&gt;perf -->
<g id="edge40" class="edge">
<title>layout&#45;&gt;perf</title>
<path fill="none" stroke="black" stroke-dasharray="5,2" d="M1198.36,-213C1209.59,-213 1222.27,-213 1233.6,-213"/>
</g>
<!-- perf&#45;&gt;persist -->
<g id="edge41" class="edge">
<title>perf&#45;&gt;persist</title>
<path fill="none" stroke="black" stroke-dasharray="5,2" d="M1300.49,-213C1311.86,-213 1324.59,-213 1335.79,-213"/>
</g>
<!-- binary -->
<g id="node16" class="node">
<title>binary</title>
<polygon fill="cornsilk" stroke="cornsilk" points="1496.5,-231 1434,-231 1434,-195 1496.5,-195 1496.5,-231"/>
<text text-anchor="start" x="1442" y="-210.65" font-family="Verdana" font-size="8.00">Binary Data</text>
</g>
<!-- persist&#45;&gt;binary -->
<g id="edge17" class="edge">
<title>persist&#45;&gt;binary</title>
<path fill="none" stroke="black" d="M1398.28,-206.69C1406,-206.29 1414.44,-206.17 1422.63,-206.3"/>
<polygon fill="black" stroke="black" points="1422.44,-209.83 1432.54,-206.66 1422.66,-202.84 1422.44,-209.83"/>
</g>
<!-- persist&#45;&gt;binary -->
<g id="edge42" class="edge">
<title>persist&#45;&gt;binary</title>
<path fill="none" stroke="black" stroke-dasharray="5,2" d="M1398.28,-219.31C1409.51,-219.89 1422.26,-219.89 1433.54,-219.34"/>
</g>
<!-- persist&#45;&gt;db -->
<g id="edge20" class="edge">
<title>persist&#45;&gt;db</title>
<path fill="none" stroke="black" d="M1398.42,-198.79C1409.42,-194.11 1422.08,-189.28 1434,-186 1462.68,-178.12 1495.94,-173.31 1521.36,-170.5"/>
<polygon fill="black" stroke="black" points="1521.51,-173.9 1531.09,-169.38 1520.78,-166.94 1521.51,-173.9"/>
</g>
<!-- binary&#45;&gt;db -->
<g id="edge18" class="edge">
<title>binary&#45;&gt;db</title>
<path fill="none" stroke="black" d="M1491.91,-194.62C1501.22,-189.52 1511.96,-184.16 1522.2,-179.46"/>
<polygon fill="black" stroke="black" points="1523.48,-182.27 1531.2,-175.02 1520.64,-175.88 1523.48,-182.27"/>
</g>
<!-- binary&#45;&gt;db -->
<g id="edge43" class="edge">
<title>binary&#45;&gt;db</title>
<path fill="none" stroke="black" stroke-dasharray="5,2" d="M1496.81,-204.66C1509.51,-199.19 1524.08,-192.09 1536.23,-185.45"/>
</g>
<!-- binary&#45;&gt;vm -->
<g id="edge24" class="edge">
<title>binary&#45;&gt;vm</title>
<path fill="none" stroke="black" d="M1496.73,-213C1534.13,-213 1599.48,-213 1655.5,-213 1655.5,-213 1655.5,-213 2044.5,-213 2094.05,-213 2150.69,-204.22 2186.75,-197.51"/>
<polygon fill="black" stroke="black" points="2187.08,-200.82 2196.25,-195.51 2185.77,-193.95 2187.08,-200.82"/>
</g>
<!-- build -->
<g id="node18" class="node">
<title>build</title>
<polygon fill="aquamarine" stroke="aquamarine" points="1683.5,-185 1629.5,-185 1629.5,-149 1683.5,-149 1683.5,-185"/>
<text text-anchor="start" x="1642.25" y="-169.9" font-family="Verdana" font-size="8.00">A Build</text>
<text text-anchor="start" x="1639.25" y="-159.4" font-family="Verdana" font-size="8.00">Manager</text>
</g>
<!-- db&#45;&gt;build -->
<g id="edge44" class="edge">
<title>db&#45;&gt;build</title>
<path fill="none" stroke="black" stroke-dasharray="5,2" d="M1593.96,-167C1605.32,-167 1618.17,-167 1629.17,-167"/>
</g>
<!-- pack -->
<g id="node19" class="node">
<title>pack</title>
<polygon fill="aquamarine" stroke="aquamarine" points="1776,-185 1719.5,-185 1719.5,-149 1776,-149 1776,-185"/>
<text text-anchor="start" x="1727.5" y="-169.9" font-family="Verdana" font-size="8.00">A Package</text>
<text text-anchor="start" x="1730.5" y="-159.4" font-family="Verdana" font-size="8.00">Manager</text>
</g>
<!-- build&#45;&gt;pack -->
<g id="edge45" class="edge">
<title>build&#45;&gt;pack</title>
<path fill="none" stroke="black" stroke-dasharray="5,2" d="M1683.8,-167C1694.9,-167 1707.84,-167 1719.09,-167"/>
</g>
<!-- pack&#45;&gt;ftp -->
<g id="edge46" class="edge">
<title>pack&#45;&gt;ftp</title>
<path fill="none" stroke="black" stroke-dasharray="5,2" d="M1776.48,-167C1787.55,-167 1800.35,-167 1811.8,-167"/>
</g>
<!-- http -->
<g id="node21" class="node">
<title>http</title>
<polygon fill="pink" stroke="pink" points="1980.5,-185 1913.5,-185 1913.5,-149 1980.5,-149 1980.5,-185"/>
<text text-anchor="start" x="1921.5" y="-169.9" font-family="Verdana" font-size="8.00">Serving Web</text>
<text text-anchor="start" x="1935.38" y="-159.4" font-family="Verdana" font-size="8.00">Pages</text>
</g>
<!-- ftp&#45;&gt;http -->
<g id="edge22" class="edge">
<title>ftp&#45;&gt;http</title>
<path fill="none" stroke="black" d="M1877.75,-160.66C1885.63,-160.29 1894.22,-160.17 1902.55,-160.3"/>
<polygon fill="black" stroke="black" points="1902.17,-163.82 1912.28,-160.63 1902.38,-156.83 1902.17,-163.82"/>
</g>
<!-- ftp&#45;&gt;http -->
<g id="edge47" class="edge">
<title>ftp&#45;&gt;http</title>
<path fill="none" stroke="black" stroke-dasharray="5,2" d="M1877.75,-173.34C1889.09,-173.87 1901.87,-173.89 1913.28,-173.37"/>
</g>
<!-- viewer -->
<g id="node22" class="node">
<title>viewer</title>
<polygon fill="aquamarine" stroke="aquamarine" points="2070.5,-185 2016.5,-185 2016.5,-149 2070.5,-149 2070.5,-185"/>
<text text-anchor="start" x="2032.62" y="-169.9" font-family="Verdana" font-size="8.00">A File</text>
<text text-anchor="start" x="2030" y="-159.4" font-family="Verdana" font-size="8.00">Viewer</text>
</g>
<!-- http&#45;&gt;viewer -->
<g id="edge48" class="edge">
<title>http&#45;&gt;viewer</title>
<path fill="none" stroke="black" stroke-dasharray="5,2" d="M1980.79,-167C1992.3,-167 2005.08,-167 2016.02,-167"/>
</g>
<!-- undo -->
<g id="node23" class="node">
<title>undo</title>
<polygon fill="pink" stroke="pink" points="2161.5,-185 2106.5,-185 2106.5,-149 2161.5,-149 2161.5,-185"/>
<text text-anchor="start" x="2114.5" y="-169.9" font-family="Verdana" font-size="8.00">Undo and</text>
<text text-anchor="start" x="2124.25" y="-159.4" font-family="Verdana" font-size="8.00">Redo</text>
</g>
<!-- viewer&#45;&gt;undo -->
<g id="edge23" class="edge">
<title>viewer&#45;&gt;undo</title>
<path fill="none" stroke="black" d="M2070.57,-160.78C2078.37,-160.3 2087.08,-160.14 2095.47,-160.32"/>
<polygon fill="black" stroke="black" points="2095.06,-163.85 2105.19,-160.74 2095.34,-156.85 2095.06,-163.85"/>
</g>
<!-- viewer&#45;&gt;undo -->
<g id="edge49" class="edge">
<title>viewer&#45;&gt;undo</title>
<path fill="none" stroke="black" stroke-dasharray="5,2" d="M2070.57,-173.22C2081.79,-173.91 2094.89,-173.93 2106.19,-173.26"/>
</g>
<!-- debugger -->
<g id="node25" class="node">
<title>debugger</title>
<polygon fill="pink" stroke="pink" points="2351.5,-208 2287.5,-208 2287.5,-172 2351.5,-172 2351.5,-208"/>
<text text-anchor="start" x="2295.5" y="-187.65" font-family="Verdana" font-size="8.00">A Debugger</text>
</g>
<!-- viewer&#45;&gt;debugger -->
<g id="edge26" class="edge">
<title>viewer&#45;&gt;debugger</title>
<path fill="none" stroke="black" d="M2070.87,-152.67C2081.59,-147.6 2094.32,-142.54 2106.5,-140 2166.01,-127.6 2234.37,-150.49 2277.01,-169.24"/>
<polygon fill="black" stroke="black" points="2275.45,-172.83 2286.01,-173.77 2278.34,-166.45 2275.45,-172.83"/>
</g>
<!-- undo&#45;&gt;vm -->
<g id="edge50" class="edge">
<title>undo&#45;&gt;vm</title>
<path fill="none" stroke="black" stroke-dasharray="5,2" d="M2161.55,-173.9C2172.86,-176.84 2186,-180.26 2197.27,-183.18"/>
</g>
<!-- vm&#45;&gt;debugger -->
<g id="edge27" class="edge">
<title>vm&#45;&gt;debugger</title>
<path fill="none" stroke="black" d="M2251.9,-183.84C2259.52,-183.36 2268.03,-183.18 2276.35,-183.28"/>
<polygon fill="black" stroke="black" points="2275.99,-186.8 2286.09,-183.58 2276.19,-179.8 2275.99,-186.8"/>
</g>
<!-- vm&#45;&gt;debugger -->
<g id="edge51" class="edge">
<title>vm&#45;&gt;debugger</title>
<path fill="none" stroke="black" stroke-dasharray="5,2" d="M2251.9,-196.16C2262.86,-196.85 2275.65,-196.93 2287.09,-196.42"/>
</g>
</g>
</svg>
