<?xml version="1.0" encoding="UTF-8" standalone="no"?>
<!DOCTYPE svg PUBLIC "-//W3C//DTD SVG 1.1//EN"
 "http://www.w3.org/Graphics/SVG/1.1/DTD/svg11.dtd">
<!-- Generated by graphviz version 6.0.1 (20220911.1526)
 -->
<!-- Title: syllabus Pages: 1 -->
<svg width="593pt" height="475pt"
 viewBox="0.00 0.00 593.00 475.00" xmlns="http://www.w3.org/2000/svg" xmlns:xlink="http://www.w3.org/1999/xlink">
<g id="graph0" class="graph" transform="scale(1 1) rotate(0) translate(4 471)">
<title>syllabus</title>
<polygon fill="white" stroke="none" points="-4,4 -4,-471 589,-471 589,4 -4,4"/>
<!-- archive -->
<g id="node1" class="node">
<title>archive</title>
<polygon fill="cornsilk" stroke="black" points="378,-325 324,-325 324,-289 378,-289 378,-325"/>
<text text-anchor="middle" x="351" y="-309.8" font-family="Verdana" font-size="9.00">file</text>
<text text-anchor="middle" x="351" y="-299.8" font-family="Verdana" font-size="9.00">archiver</text>
</g>
<!-- glob -->
<g id="node11" class="node">
<title>glob</title>
<polygon fill="cornsilk" stroke="black" points="270.5,-390 216.5,-390 216.5,-354 270.5,-354 270.5,-390"/>
<text text-anchor="middle" x="243.5" y="-374.8" font-family="Verdana" font-size="9.00">match</text>
<text text-anchor="middle" x="243.5" y="-364.8" font-family="Verdana" font-size="9.00">patterns</text>
</g>
<!-- archive&#45;&gt;glob -->
<g id="edge1" class="edge">
<title>archive&#45;&gt;glob</title>
<path fill="none" stroke="black" d="M315.19,-328.44C300.67,-337.39 284.1,-347.6 270.64,-355.89"/>
<polygon fill="black" stroke="black" points="317.24,-331.29 323.92,-323.07 313.57,-325.33 317.24,-331.29"/>
</g>
<!-- mock -->
<g id="node16" class="node">
<title>mock</title>
<polygon fill="cornsilk" stroke="black" points="270.5,-325 216.5,-325 216.5,-289 270.5,-289 270.5,-325"/>
<text text-anchor="middle" x="243.5" y="-309.8" font-family="Verdana" font-size="9.00">mock</text>
<text text-anchor="middle" x="243.5" y="-299.8" font-family="Verdana" font-size="9.00">objects</text>
</g>
<!-- archive&#45;&gt;mock -->
<g id="edge2" class="edge">
<title>archive&#45;&gt;mock</title>
<path fill="none" stroke="black" d="M313.54,-307C299.43,-307 283.59,-307 270.64,-307"/>
<polygon fill="black" stroke="black" points="313.92,-310.5 323.92,-307 313.92,-303.5 313.92,-310.5"/>
</g>
<!-- binary -->
<g id="node2" class="node">
<title>binary</title>
<polygon fill="cornsilk" stroke="black" points="159.5,-467 105.5,-467 105.5,-431 159.5,-431 159.5,-467"/>
<text text-anchor="middle" x="132.5" y="-451.8" font-family="Verdana" font-size="9.00">binary</text>
<text text-anchor="middle" x="132.5" y="-441.8" font-family="Verdana" font-size="9.00">data</text>
</g>
<!-- dup -->
<g id="node7" class="node">
<title>dup</title>
<polygon fill="aquamarine" stroke="black" points="58,-417 0,-417 0,-381 58,-381 58,-417"/>
<text text-anchor="middle" x="29" y="-401.8" font-family="Verdana" font-size="9.00">duplicate</text>
<text text-anchor="middle" x="29" y="-391.8" font-family="Verdana" font-size="9.00">file finder</text>
</g>
<!-- binary&#45;&gt;dup -->
<g id="edge3" class="edge">
<title>binary&#45;&gt;dup</title>
<path fill="none" stroke="black" d="M96.18,-431.6C83.75,-425.48 69.95,-418.68 58.19,-412.89"/>
<polygon fill="black" stroke="black" points="94.84,-434.84 105.36,-436.12 97.94,-428.56 94.84,-434.84"/>
</g>
<!-- build -->
<g id="node3" class="node">
<title>build</title>
<polygon fill="cornsilk" stroke="black" points="483.5,-290 427.5,-290 427.5,-254 483.5,-254 483.5,-290"/>
<text text-anchor="middle" x="455.5" y="-274.8" font-family="Verdana" font-size="9.00">build</text>
<text text-anchor="middle" x="455.5" y="-264.8" font-family="Verdana" font-size="9.00">manager</text>
</g>
<!-- plot -->
<g id="node22" class="node">
<title>plot</title>
<polygon fill="aquamarine" stroke="black" points="378,-271 324,-271 324,-235 378,-235 378,-271"/>
<text text-anchor="middle" x="351" y="-255.8" font-family="Verdana" font-size="9.00">plotting</text>
<text text-anchor="middle" x="351" y="-245.8" font-family="Verdana" font-size="9.00">graphs</text>
</g>
<!-- build&#45;&gt;plot -->
<g id="edge4" class="edge">
<title>build&#45;&gt;plot</title>
<path fill="none" stroke="black" d="M417.28,-265.1C404.34,-262.7 390.12,-260.07 378.26,-257.87"/>
<polygon fill="black" stroke="black" points="416.83,-268.58 427.3,-266.96 418.11,-261.69 416.83,-268.58"/>
</g>
<!-- cache -->
<g id="node4" class="node">
<title>cache</title>
<polygon fill="cornsilk" stroke="black" points="484.5,-362 426.5,-362 426.5,-326 484.5,-326 484.5,-362"/>
<text text-anchor="middle" x="455.5" y="-341.8" font-family="Verdana" font-size="9.00">file cache</text>
</g>
<!-- cache&#45;&gt;archive -->
<g id="edge5" class="edge">
<title>cache&#45;&gt;archive</title>
<path fill="none" stroke="black" d="M416.96,-330.45C404.09,-325.8 389.98,-320.71 378.21,-316.46"/>
<polygon fill="black" stroke="black" points="415.9,-333.79 426.49,-333.89 418.27,-327.2 415.9,-333.79"/>
</g>
<!-- server -->
<g id="node23" class="node">
<title>server</title>
<polygon fill="aquamarine" stroke="black" points="378,-379 324,-379 324,-343 378,-343 378,-379"/>
<text text-anchor="middle" x="351" y="-363.8" font-family="Verdana" font-size="9.00">web</text>
<text text-anchor="middle" x="351" y="-353.8" font-family="Verdana" font-size="9.00">server</text>
</g>
<!-- cache&#45;&gt;server -->
<g id="edge6" class="edge">
<title>cache&#45;&gt;server</title>
<path fill="none" stroke="black" d="M416.58,-350.29C403.82,-352.41 389.87,-354.72 378.21,-356.65"/>
<polygon fill="black" stroke="black" points="417.2,-353.73 426.49,-348.65 416.05,-346.83 417.2,-353.73"/>
</g>
<!-- check -->
<g id="node5" class="node">
<title>check</title>
<polygon fill="aquamarine" stroke="black" points="379,-198 323,-198 323,-162 379,-162 379,-198"/>
<text text-anchor="middle" x="351" y="-182.8" font-family="Verdana" font-size="9.00">checking</text>
<text text-anchor="middle" x="351" y="-172.8" font-family="Verdana" font-size="9.00">HTML</text>
</g>
<!-- db -->
<g id="node6" class="node">
<title>db</title>
<polygon fill="pink" stroke="black" points="583,-456 527,-456 527,-420 583,-420 583,-456"/>
<text text-anchor="middle" x="555" y="-435.8" font-family="Verdana" font-size="9.00">database</text>
</g>
<!-- db&#45;&gt;binary -->
<g id="edge7" class="edge">
<title>db&#45;&gt;binary</title>
<path fill="none" stroke="black" d="M516.57,-440.57C507.55,-441.12 497.93,-441.64 489,-442 365.95,-447 218.79,-448.46 159.82,-448.86"/>
<polygon fill="black" stroke="black" points="517.05,-444.05 526.82,-439.93 516.61,-437.06 517.05,-444.05"/>
</g>
<!-- persist -->
<g id="node21" class="node">
<title>persist</title>
<polygon fill="cornsilk" stroke="black" points="489,-433 422,-433 422,-397 489,-397 489,-433"/>
<text text-anchor="middle" x="455.5" y="-417.8" font-family="Verdana" font-size="9.00">object</text>
<text text-anchor="middle" x="455.5" y="-407.8" font-family="Verdana" font-size="9.00">persistence</text>
</g>
<!-- db&#45;&gt;persist -->
<g id="edge8" class="edge">
<title>db&#45;&gt;persist</title>
<path fill="none" stroke="black" d="M516.83,-429.23C507.69,-427.07 497.96,-424.78 489.05,-422.68"/>
<polygon fill="black" stroke="black" points="516.3,-432.7 526.84,-431.59 517.91,-425.89 516.3,-432.7"/>
</g>
<!-- editor -->
<g id="node8" class="node">
<title>editor</title>
<polygon fill="aquamarine" stroke="black" points="378,-90 324,-90 324,-54 378,-54 378,-90"/>
<text text-anchor="middle" x="351" y="-74.8" font-family="Verdana" font-size="9.00">text</text>
<text text-anchor="middle" x="351" y="-64.8" font-family="Verdana" font-size="9.00">editor</text>
</g>
<!-- flow -->
<g id="node9" class="node">
<title>flow</title>
<polygon fill="pink" stroke="black" points="583,-290 527,-290 527,-254 583,-254 583,-290"/>
<text text-anchor="middle" x="555" y="-274.8" font-family="Verdana" font-size="9.00">workflow</text>
<text text-anchor="middle" x="555" y="-264.8" font-family="Verdana" font-size="9.00">runner</text>
</g>
<!-- flow&#45;&gt;build -->
<g id="edge9" class="edge">
<title>flow&#45;&gt;build</title>
<path fill="none" stroke="black" d="M516.61,-272C505.59,-272 493.75,-272 483.51,-272"/>
<polygon fill="black" stroke="black" points="516.84,-275.5 526.84,-272 516.84,-268.5 516.84,-275.5"/>
</g>
<!-- func -->
<g id="node10" class="node">
<title>func</title>
<polygon fill="cornsilk" stroke="black" points="386,-144 316,-144 316,-108 386,-108 386,-144"/>
<text text-anchor="middle" x="351" y="-128.8" font-family="Verdana" font-size="9.00">function def</text>
<text text-anchor="middle" x="351" y="-118.8" font-family="Verdana" font-size="9.00">&amp; call stack</text>
</g>
<!-- interp -->
<g id="node13" class="node">
<title>interp</title>
<polygon fill="cornsilk" stroke="black" points="278,-163 209,-163 209,-127 278,-127 278,-163"/>
<text text-anchor="middle" x="243.5" y="-147.8" font-family="Verdana" font-size="9.00">interpreting</text>
<text text-anchor="middle" x="243.5" y="-137.8" font-family="Verdana" font-size="9.00">expressions</text>
</g>
<!-- func&#45;&gt;interp -->
<g id="edge10" class="edge">
<title>func&#45;&gt;interp</title>
<path fill="none" stroke="black" d="M305.9,-133.94C296.65,-135.61 287.03,-137.34 278.22,-138.93"/>
<polygon fill="black" stroke="black" points="306.53,-137.39 315.75,-132.17 305.29,-130.5 306.53,-137.39"/>
</g>
<!-- test -->
<g id="node26" class="node">
<title>test</title>
<polygon fill="cornsilk" stroke="black" points="159.5,-390 105.5,-390 105.5,-354 159.5,-354 159.5,-390"/>
<text text-anchor="middle" x="132.5" y="-374.8" font-family="Verdana" font-size="9.00">unit</text>
<text text-anchor="middle" x="132.5" y="-364.8" font-family="Verdana" font-size="9.00">testing</text>
</g>
<!-- glob&#45;&gt;test -->
<g id="edge11" class="edge">
<title>glob&#45;&gt;test</title>
<path fill="none" stroke="black" d="M206.28,-372C191.07,-372 173.72,-372 159.77,-372"/>
<polygon fill="black" stroke="black" points="206.39,-375.5 216.39,-372 206.39,-368.5 206.39,-375.5"/>
</g>
<!-- install -->
<g id="node12" class="node">
<title>install</title>
<polygon fill="pink" stroke="black" points="582,-90 528,-90 528,-54 582,-54 582,-90"/>
<text text-anchor="middle" x="555" y="-69.8" font-family="Verdana" font-size="9.00">installer</text>
</g>
<!-- pack -->
<g id="node18" class="node">
<title>pack</title>
<polygon fill="cornsilk" stroke="black" points="483.5,-36 427.5,-36 427.5,0 483.5,0 483.5,-36"/>
<text text-anchor="middle" x="455.5" y="-20.8" font-family="Verdana" font-size="9.00">package</text>
<text text-anchor="middle" x="455.5" y="-10.8" font-family="Verdana" font-size="9.00">manager</text>
</g>
<!-- install&#45;&gt;pack -->
<g id="edge12" class="edge">
<title>install&#45;&gt;pack</title>
<path fill="none" stroke="black" d="M518.88,-52.55C507.31,-46.14 494.62,-39.11 483.72,-33.08"/>
<polygon fill="black" stroke="black" points="517.43,-55.75 527.87,-57.53 520.82,-49.62 517.43,-55.75"/>
</g>
<!-- template -->
<g id="node25" class="node">
<title>template</title>
<polygon fill="cornsilk" stroke="black" points="486,-144 425,-144 425,-108 486,-108 486,-144"/>
<text text-anchor="middle" x="455.5" y="-128.8" font-family="Verdana" font-size="9.00">HTML</text>
<text text-anchor="middle" x="455.5" y="-118.8" font-family="Verdana" font-size="9.00">templates</text>
</g>
<!-- install&#45;&gt;template -->
<g id="edge13" class="edge">
<title>install&#45;&gt;template</title>
<path fill="none" stroke="black" d="M519.1,-91.33C508.31,-97.3 496.54,-103.82 486.15,-109.58"/>
<polygon fill="black" stroke="black" points="520.82,-94.38 527.87,-86.47 517.43,-88.25 520.82,-94.38"/>
</g>
<!-- undo -->
<g id="node27" class="node">
<title>undo</title>
<polygon fill="cornsilk" stroke="black" points="485,-90 426,-90 426,-54 485,-54 485,-90"/>
<text text-anchor="middle" x="455.5" y="-74.8" font-family="Verdana" font-size="9.00">undo and</text>
<text text-anchor="middle" x="455.5" y="-64.8" font-family="Verdana" font-size="9.00">redo</text>
</g>
<!-- install&#45;&gt;undo -->
<g id="edge14" class="edge">
<title>install&#45;&gt;undo</title>
<path fill="none" stroke="black" d="M517.86,-72C507.05,-72 495.35,-72 485.1,-72"/>
<polygon fill="black" stroke="black" points="517.87,-75.5 527.87,-72 517.87,-68.5 517.87,-75.5"/>
</g>
<!-- meta -->
<g id="node15" class="node">
<title>meta</title>
<polygon fill="cornsilk" stroke="black" points="171,-253 94,-253 94,-217 171,-217 171,-253"/>
<text text-anchor="middle" x="132.5" y="-237.8" font-family="Verdana" font-size="9.00">meta&#45;</text>
<text text-anchor="middle" x="132.5" y="-227.8" font-family="Verdana" font-size="9.00">programming</text>
</g>
<!-- interp&#45;&gt;meta -->
<g id="edge15" class="edge">
<title>interp&#45;&gt;meta</title>
<path fill="none" stroke="black" d="M212.51,-169.76C194.48,-184.65 171.92,-203.28 155.52,-216.81"/>
<polygon fill="black" stroke="black" points="214.96,-172.28 220.44,-163.21 210.5,-166.88 214.96,-172.28"/>
</g>
<!-- lint -->
<g id="node14" class="node">
<title>lint</title>
<polygon fill="pink" stroke="black" points="482.5,-236 428.5,-236 428.5,-200 482.5,-200 482.5,-236"/>
<text text-anchor="middle" x="455.5" y="-215.8" font-family="Verdana" font-size="9.00">linting</text>
</g>
<!-- lint&#45;&gt;check -->
<g id="edge16" class="edge">
<title>lint&#45;&gt;check</title>
<path fill="none" stroke="black" d="M418.78,-204.76C405.77,-199.94 391.3,-194.57 379.16,-190.07"/>
<polygon fill="black" stroke="black" points="417.78,-208.12 428.37,-208.31 420.21,-201.55 417.78,-208.12"/>
</g>
<!-- oop -->
<g id="node17" class="node">
<title>oop</title>
<polygon fill="aquamarine" stroke="black" points="57.5,-253 0.5,-253 0.5,-217 57.5,-217 57.5,-253"/>
<text text-anchor="middle" x="29" y="-237.8" font-family="Verdana" font-size="9.00">class and</text>
<text text-anchor="middle" x="29" y="-227.8" font-family="Verdana" font-size="9.00">objects</text>
</g>
<!-- meta&#45;&gt;oop -->
<g id="edge17" class="edge">
<title>meta&#45;&gt;oop</title>
<path fill="none" stroke="black" d="M83.9,-235C74.86,-235 65.68,-235 57.52,-235"/>
<polygon fill="black" stroke="black" points="83.99,-238.5 93.99,-235 83.99,-231.5 83.99,-238.5"/>
</g>
<!-- mock&#45;&gt;meta -->
<g id="edge18" class="edge">
<title>mock&#45;&gt;meta</title>
<path fill="none" stroke="black" d="M207.79,-284.07C192.64,-274.06 175.13,-262.5 160.92,-253.11"/>
<polygon fill="black" stroke="black" points="206.12,-287.16 216.39,-289.75 209.98,-281.32 206.12,-287.16"/>
</g>
<!-- mock&#45;&gt;test -->
<g id="edge19" class="edge">
<title>mock&#45;&gt;test</title>
<path fill="none" stroke="black" d="M207.59,-327.82C192.07,-337.07 174.12,-347.78 159.77,-356.33"/>
<polygon fill="black" stroke="black" points="209.6,-330.7 216.39,-322.57 206.01,-324.68 209.6,-330.7"/>
</g>
<!-- parse -->
<g id="node19" class="node">
<title>parse</title>
<polygon fill="cornsilk" stroke="black" points="378,-433 324,-433 324,-397 378,-397 378,-433"/>
<text text-anchor="middle" x="351" y="-417.8" font-family="Verdana" font-size="9.00">parsing</text>
<text text-anchor="middle" x="351" y="-407.8" font-family="Verdana" font-size="9.00">text</text>
</g>
<!-- parse&#45;&gt;glob -->
<g id="edge20" class="edge">
<title>parse&#45;&gt;glob</title>
<path fill="none" stroke="black" d="M314.37,-400.48C300.05,-394.64 283.84,-388.04 270.64,-382.66"/>
<polygon fill="black" stroke="black" points="313.34,-403.84 323.92,-404.37 315.98,-397.36 313.34,-403.84"/>
</g>
<!-- perf -->
<g id="node20" class="node">
<title>perf</title>
<polygon fill="cornsilk" stroke="black" points="280,-253 207,-253 207,-217 280,-217 280,-253"/>
<text text-anchor="middle" x="243.5" y="-237.8" font-family="Verdana" font-size="9.00">performance</text>
<text text-anchor="middle" x="243.5" y="-227.8" font-family="Verdana" font-size="9.00">profiling</text>
</g>
<!-- perf&#45;&gt;meta -->
<g id="edge21" class="edge">
<title>perf&#45;&gt;meta</title>
<path fill="none" stroke="black" d="M196.64,-235C188.15,-235 179.36,-235 171.15,-235"/>
<polygon fill="black" stroke="black" points="196.81,-238.5 206.81,-235 196.81,-231.5 196.81,-238.5"/>
</g>
<!-- persist&#45;&gt;parse -->
<g id="edge22" class="edge">
<title>persist&#45;&gt;parse</title>
<path fill="none" stroke="black" d="M411.61,-415C400.29,-415 388.41,-415 378.25,-415"/>
<polygon fill="black" stroke="black" points="411.79,-418.5 421.79,-415 411.79,-411.5 411.79,-418.5"/>
</g>
<!-- ssg -->
<g id="node24" class="node">
<title>ssg</title>
<polygon fill="pink" stroke="black" points="585,-190 525,-190 525,-154 585,-154 585,-190"/>
<text text-anchor="middle" x="555" y="-174.8" font-family="Verdana" font-size="9.00">static site</text>
<text text-anchor="middle" x="555" y="-164.8" font-family="Verdana" font-size="9.00">generator</text>
</g>
<!-- ssg&#45;&gt;build -->
<g id="edge23" class="edge">
<title>ssg&#45;&gt;build</title>
<path fill="none" stroke="black" d="M532.46,-198.07C520.21,-212.4 504.3,-230.21 489,-245 485.94,-247.96 482.6,-250.96 479.26,-253.84"/>
<polygon fill="black" stroke="black" points="535.42,-199.98 539.21,-190.08 530.08,-195.46 535.42,-199.98"/>
</g>
<!-- ssg&#45;&gt;check -->
<g id="edge24" class="edge">
<title>ssg&#45;&gt;check</title>
<path fill="none" stroke="black" d="M514.45,-173.57C474.53,-175.15 413.94,-177.55 379.14,-178.93"/>
<polygon fill="black" stroke="black" points="514.77,-177.06 524.63,-173.16 514.5,-170.06 514.77,-177.06"/>
</g>
<!-- ssg&#45;&gt;template -->
<g id="edge25" class="edge">
<title>ssg&#45;&gt;template</title>
<path fill="none" stroke="black" d="M515.57,-153.87C505.76,-149.24 495.36,-144.33 486.07,-139.95"/>
<polygon fill="black" stroke="black" points="514.21,-157.1 524.75,-158.2 517.2,-150.77 514.21,-157.1"/>
</g>
<!-- template&#45;&gt;check -->
<g id="edge26" class="edge">
<title>template&#45;&gt;check</title>
<path fill="none" stroke="black" d="M415.77,-146.41C403.56,-152.84 390.34,-159.8 379.13,-165.71"/>
<polygon fill="black" stroke="black" points="417.64,-149.38 424.85,-141.62 414.37,-143.18 417.64,-149.38"/>
</g>
<!-- template&#45;&gt;func -->
<g id="edge27" class="edge">
<title>template&#45;&gt;func</title>
<path fill="none" stroke="black" d="M414.59,-126C405.24,-126 395.36,-126 386.28,-126"/>
<polygon fill="black" stroke="black" points="414.85,-129.5 424.85,-126 414.85,-122.5 414.85,-129.5"/>
</g>
<!-- test&#45;&gt;dup -->
<g id="edge28" class="edge">
<title>test&#45;&gt;dup</title>
<path fill="none" stroke="black" d="M95.44,-381.59C83.21,-384.85 69.72,-388.43 58.19,-391.5"/>
<polygon fill="black" stroke="black" points="96.6,-384.91 105.36,-378.95 94.8,-378.14 96.6,-384.91"/>
</g>
<!-- undo&#45;&gt;editor -->
<g id="edge29" class="edge">
<title>undo&#45;&gt;editor</title>
<path fill="none" stroke="black" d="M415.76,-72C403.25,-72 389.68,-72 378.29,-72"/>
<polygon fill="black" stroke="black" points="415.95,-75.5 425.95,-72 415.95,-68.5 415.95,-75.5"/>
</g>
</g>
</svg>
