<?xml version="1.0" encoding="UTF-8" standalone="no"?>
<!DOCTYPE svg PUBLIC "-//W3C//DTD SVG 1.1//EN"
 "http://www.w3.org/Graphics/SVG/1.1/DTD/svg11.dtd">
<!-- Generated by graphviz version 7.1.0 (20230121.1956)
 -->
<!-- Pages: 1 -->
<svg width="784pt" height="498pt"
 viewBox="0.00 0.00 784.00 498.23" xmlns="http://www.w3.org/2000/svg" xmlns:xlink="http://www.w3.org/1999/xlink">
<g id="graph0" class="graph" transform="scale(1 1) rotate(0) translate(4 494.23)">
<polygon fill="white" stroke="none" points="-4,4 -4,-494.23 780,-494.23 780,4 -4,4"/>
<!-- dup -->
<g id="node1" class="node">
<title>dup</title>
<polygon fill="aquamarine" stroke="aquamarine" points="466.5,-407.23 412.5,-407.23 412.5,-371.23 466.5,-371.23 466.5,-407.23"/>
<text text-anchor="start" x="424" y="-396.33" font-family="Verdana" font-size="8.00">Finding</text>
<text text-anchor="start" x="420.5" y="-387.33" font-family="Verdana" font-size="8.00">Duplicate</text>
<text text-anchor="start" x="430" y="-378.33" font-family="Verdana" font-size="8.00">Files</text>
</g>
<!-- archive -->
<g id="node9" class="node">
<title>archive</title>
<polygon fill="cornsilk" stroke="cornsilk" points="566,-361.23 512,-361.23 512,-325.23 566,-325.23 566,-361.23"/>
<text text-anchor="start" x="528" y="-345.83" font-family="Verdana" font-size="8.00">A File</text>
<text text-anchor="start" x="522" y="-336.83" font-family="Verdana" font-size="8.00">Archiver</text>
</g>
<!-- dup&#45;&gt;archive -->
<g id="edge9" class="edge">
<title>dup&#45;&gt;archive</title>
<path fill="none" stroke="black" d="M466.88,-376.79C477.51,-371.77 489.94,-365.91 501.41,-360.5"/>
<polygon fill="black" stroke="black" points="502.67,-363.77 510.23,-356.34 499.69,-357.44 502.67,-363.77"/>
</g>
<!-- glob -->
<g id="node2" class="node">
<title>glob</title>
<polygon fill="aquamarine" stroke="aquamarine" points="60.5,-328.23 6.5,-328.23 6.5,-292.23 60.5,-292.23 60.5,-328.23"/>
<text text-anchor="start" x="15" y="-312.83" font-family="Verdana" font-size="8.00">Matching</text>
<text text-anchor="start" x="16.5" y="-303.83" font-family="Verdana" font-size="8.00">Patterns</text>
</g>
<!-- parse -->
<g id="node3" class="node">
<title>parse</title>
<polygon fill="cornsilk" stroke="cornsilk" points="169,-296.23 103,-296.23 103,-260.23 169,-260.23 169,-296.23"/>
<text text-anchor="start" x="111" y="-276.33" font-family="Verdana" font-size="8.00">Parsing Text</text>
</g>
<!-- glob&#45;&gt;parse -->
<g id="edge1" class="edge">
<title>glob&#45;&gt;parse</title>
<path fill="none" stroke="black" d="M60.91,-301.83C70.4,-298.8 81.38,-295.31 91.92,-291.95"/>
<polygon fill="black" stroke="black" points="92.77,-295.36 101.23,-288.99 90.64,-288.69 92.77,-295.36"/>
</g>
<!-- glob&#45;&gt;archive -->
<g id="edge7" class="edge">
<title>glob&#45;&gt;archive</title>
<path fill="none" stroke="black" d="M60.8,-317.39C98.82,-327.1 171.51,-343.23 234.5,-343.23 234.5,-343.23 234.5,-343.23 337.5,-343.23 394.25,-343.23 460.03,-343.23 500.32,-343.23"/>
<polygon fill="black" stroke="black" points="500.21,-346.73 510.21,-343.23 500.21,-339.73 500.21,-346.73"/>
</g>
<!-- check -->
<g id="node10" class="node">
<title>check</title>
<polygon fill="cornsilk" stroke="cornsilk" points="262.5,-296.23 208.5,-296.23 208.5,-260.23 262.5,-260.23 262.5,-296.23"/>
<text text-anchor="start" x="217" y="-280.83" font-family="Verdana" font-size="8.00">An HTML</text>
<text text-anchor="start" x="217.5" y="-271.83" font-family="Verdana" font-size="8.00">Validator</text>
</g>
<!-- parse&#45;&gt;check -->
<g id="edge10" class="edge">
<title>parse&#45;&gt;check</title>
<path fill="none" stroke="black" d="M169.47,-278.23C178.17,-278.23 187.66,-278.23 196.63,-278.23"/>
<polygon fill="black" stroke="black" points="196.5,-281.73 206.5,-278.23 196.5,-274.73 196.5,-281.73"/>
</g>
<!-- test -->
<g id="node4" class="node">
<title>test</title>
<polygon fill="aquamarine" stroke="aquamarine" points="163,-115.23 109,-115.23 109,-79.23 163,-79.23 163,-115.23"/>
<text text-anchor="start" x="119" y="-99.83" font-family="Verdana" font-size="8.00">Running</text>
<text text-anchor="start" x="125" y="-90.83" font-family="Verdana" font-size="8.00">Tests</text>
</g>
<!-- interp -->
<g id="node5" class="node">
<title>interp</title>
<polygon fill="cornsilk" stroke="cornsilk" points="266,-115.23 205,-115.23 205,-79.23 266,-79.23 266,-115.23"/>
<text text-anchor="start" x="230" y="-99.83" font-family="Verdana" font-size="8.00">An</text>
<text text-anchor="start" x="213" y="-90.83" font-family="Verdana" font-size="8.00">Interpreter</text>
</g>
<!-- test&#45;&gt;interp -->
<g id="edge2" class="edge">
<title>test&#45;&gt;interp</title>
<path fill="none" stroke="black" d="M163.38,-97.23C172.65,-97.23 183.28,-97.23 193.46,-97.23"/>
<polygon fill="black" stroke="black" points="193.14,-100.73 203.14,-97.23 193.14,-93.73 193.14,-100.73"/>
</g>
<!-- oop -->
<g id="node6" class="node">
<title>oop</title>
<polygon fill="cornsilk" stroke="cornsilk" points="369,-169.23 304,-169.23 304,-133.23 369,-133.23 369,-169.23"/>
<text text-anchor="start" x="312" y="-153.83" font-family="Verdana" font-size="8.00">Objects and</text>
<text text-anchor="start" x="321" y="-144.83" font-family="Verdana" font-size="8.00">Classes</text>
</g>
<!-- interp&#45;&gt;oop -->
<g id="edge3" class="edge">
<title>interp&#45;&gt;oop</title>
<path fill="none" stroke="black" d="M266.47,-113.58C274.99,-118.23 284.43,-123.38 293.52,-128.33"/>
<polygon fill="black" stroke="black" points="291.78,-131.37 302.24,-133.09 295.13,-125.23 291.78,-131.37"/>
</g>
<!-- func -->
<g id="node7" class="node">
<title>func</title>
<polygon fill="cornsilk" stroke="cornsilk" points="371,-115.23 302,-115.23 302,-79.23 371,-79.23 371,-115.23"/>
<text text-anchor="start" x="316.5" y="-99.83" font-family="Verdana" font-size="8.00">Functions</text>
<text text-anchor="start" x="310" y="-90.83" font-family="Verdana" font-size="8.00">and Closures</text>
</g>
<!-- interp&#45;&gt;func -->
<g id="edge4" class="edge">
<title>interp&#45;&gt;func</title>
<path fill="none" stroke="black" d="M266.47,-97.23C274.05,-97.23 282.36,-97.23 290.51,-97.23"/>
<polygon fill="black" stroke="black" points="290.31,-100.73 300.31,-97.23 290.31,-93.73 290.31,-100.73"/>
</g>
<!-- template -->
<g id="node11" class="node">
<title>template</title>
<polygon fill="cornsilk" stroke="cornsilk" points="367,-223.23 306,-223.23 306,-187.23 367,-187.23 367,-223.23"/>
<text text-anchor="start" x="314" y="-207.83" font-family="Verdana" font-size="8.00">A Template</text>
<text text-anchor="start" x="317" y="-198.83" font-family="Verdana" font-size="8.00">Expander</text>
</g>
<!-- interp&#45;&gt;template -->
<g id="edge12" class="edge">
<title>interp&#45;&gt;template</title>
<path fill="none" stroke="black" d="M249.54,-115.53C262.08,-132.58 282.03,-158.3 302,-178.23 302.37,-178.6 302.74,-178.97 303.12,-179.34"/>
<polygon fill="black" stroke="black" points="300.65,-181.82 310.41,-185.94 305.35,-176.63 300.65,-181.82"/>
</g>
<!-- persist -->
<g id="node15" class="node">
<title>persist</title>
<polygon fill="cornsilk" stroke="cornsilk" points="367.5,-61.23 305.5,-61.23 305.5,-25.23 367.5,-25.23 367.5,-61.23"/>
<text text-anchor="start" x="323" y="-45.83" font-family="Verdana" font-size="8.00">Object</text>
<text text-anchor="start" x="313.5" y="-36.83" font-family="Verdana" font-size="8.00">Persistence</text>
</g>
<!-- interp&#45;&gt;persist -->
<g id="edge16" class="edge">
<title>interp&#45;&gt;persist</title>
<path fill="none" stroke="black" d="M266.47,-80.89C275.6,-75.91 285.77,-70.36 295.45,-65.08"/>
<polygon fill="black" stroke="black" points="296.86,-68.3 303.96,-60.44 293.5,-62.15 296.86,-68.3"/>
</g>
<!-- vm -->
<g id="node24" class="node">
<title>vm</title>
<polygon fill="cornsilk" stroke="cornsilk" points="566,-53.23 512,-53.23 512,-17.23 566,-17.23 566,-53.23"/>
<text text-anchor="start" x="521.5" y="-37.83" font-family="Verdana" font-size="8.00">A Virtual</text>
<text text-anchor="start" x="522" y="-28.83" font-family="Verdana" font-size="8.00">Machine</text>
</g>
<!-- interp&#45;&gt;vm -->
<g id="edge25" class="edge">
<title>interp&#45;&gt;vm</title>
<path fill="none" stroke="black" d="M245.05,-79.03C255.41,-59.39 274.91,-29.17 302,-16.23 366.56,14.59 452.42,-5.28 500.78,-21.16"/>
<polygon fill="black" stroke="black" points="499.63,-24.47 510.22,-24.39 501.89,-17.84 499.63,-24.47"/>
</g>
<!-- mock -->
<g id="node8" class="node">
<title>mock</title>
<polygon fill="cornsilk" stroke="cornsilk" points="469,-167.23 410,-167.23 410,-123.23 469,-123.23 469,-167.23"/>
<text text-anchor="start" x="425.5" y="-156.83" font-family="Verdana" font-size="8.00">Mocks,</text>
<text text-anchor="start" x="419.5" y="-147.83" font-family="Verdana" font-size="8.00">Protocols,</text>
<text text-anchor="start" x="431.5" y="-138.83" font-family="Verdana" font-size="8.00">and</text>
<text text-anchor="start" x="418" y="-129.83" font-family="Verdana" font-size="8.00">Decorators</text>
</g>
<!-- oop&#45;&gt;mock -->
<g id="edge6" class="edge">
<title>oop&#45;&gt;mock</title>
<path fill="none" stroke="black" d="M369.46,-149.34C378.66,-148.79 388.82,-148.19 398.45,-147.61"/>
<polygon fill="black" stroke="black" points="398.54,-151.11 408.32,-147.03 398.13,-144.13 398.54,-151.11"/>
</g>
<!-- func&#45;&gt;mock -->
<g id="edge5" class="edge">
<title>func&#45;&gt;mock</title>
<path fill="none" stroke="black" d="M371.41,-113.35C380.41,-117.63 390.19,-122.27 399.43,-126.67"/>
<polygon fill="black" stroke="black" points="397.67,-129.7 408.2,-130.84 400.67,-123.38 397.67,-129.7"/>
</g>
<!-- mock&#45;&gt;archive -->
<g id="edge8" class="edge">
<title>mock&#45;&gt;archive</title>
<path fill="none" stroke="black" d="M451.49,-167.56C469.29,-203.69 504.37,-274.93 523.94,-314.69"/>
<polygon fill="black" stroke="black" points="520.69,-316 528.25,-323.43 526.97,-312.91 520.69,-316"/>
</g>
<!-- db -->
<g id="node17" class="node">
<title>db</title>
<polygon fill="pink" stroke="pink" points="570,-107.23 508,-107.23 508,-71.23 570,-71.23 570,-107.23"/>
<text text-anchor="start" x="516" y="-87.33" font-family="Verdana" font-size="8.00">A Database</text>
</g>
<!-- mock&#45;&gt;db -->
<g id="edge18" class="edge">
<title>mock&#45;&gt;db</title>
<path fill="none" stroke="black" d="M469.49,-128.58C478.4,-123.46 488.38,-117.73 497.9,-112.26"/>
<polygon fill="black" stroke="black" points="499.36,-115.46 506.29,-107.45 495.87,-109.39 499.36,-115.46"/>
</g>
<!-- ftp -->
<g id="node20" class="node">
<title>ftp</title>
<polygon fill="cornsilk" stroke="cornsilk" points="672,-361.23 606,-361.23 606,-325.23 672,-325.23 672,-361.23"/>
<text text-anchor="start" x="614" y="-345.83" font-family="Verdana" font-size="8.00">Transferring</text>
<text text-anchor="start" x="629.5" y="-336.83" font-family="Verdana" font-size="8.00">Files</text>
</g>
<!-- archive&#45;&gt;ftp -->
<g id="edge21" class="edge">
<title>archive&#45;&gt;ftp</title>
<path fill="none" stroke="black" d="M566.26,-343.23C574.89,-343.23 584.72,-343.23 594.28,-343.23"/>
<polygon fill="black" stroke="black" points="594.2,-346.73 604.2,-343.23 594.2,-339.73 594.2,-346.73"/>
</g>
<!-- check&#45;&gt;template -->
<g id="edge11" class="edge">
<title>check&#45;&gt;template</title>
<path fill="none" stroke="black" d="M261.48,-259.81C273.56,-250.91 288.24,-240.08 301.33,-230.43"/>
<polygon fill="black" stroke="black" points="303.34,-233.3 309.31,-224.55 299.18,-227.67 303.34,-233.3"/>
</g>
<!-- lint -->
<g id="node12" class="node">
<title>lint</title>
<polygon fill="pink" stroke="pink" points="363.5,-277.23 309.5,-277.23 309.5,-241.23 363.5,-241.23 363.5,-277.23"/>
<text text-anchor="start" x="322.5" y="-261.83" font-family="Verdana" font-size="8.00">A Code</text>
<text text-anchor="start" x="324.5" y="-252.83" font-family="Verdana" font-size="8.00">Linter</text>
</g>
<!-- check&#45;&gt;lint -->
<g id="edge13" class="edge">
<title>check&#45;&gt;lint</title>
<path fill="none" stroke="black" d="M262.77,-273.19C273.51,-271.13 286.14,-268.71 297.83,-266.46"/>
<polygon fill="black" stroke="black" points="298.46,-269.91 307.62,-264.58 297.14,-263.03 298.46,-269.91"/>
</g>
<!-- layout -->
<g id="node13" class="node">
<title>layout</title>
<polygon fill="pink" stroke="pink" points="472,-269.23 407,-269.23 407,-233.23 472,-233.23 472,-269.23"/>
<text text-anchor="start" x="415" y="-249.33" font-family="Verdana" font-size="8.00">Page Layout</text>
</g>
<!-- check&#45;&gt;layout -->
<g id="edge14" class="edge">
<title>check&#45;&gt;layout</title>
<path fill="none" stroke="black" d="M262.95,-284.36C290.37,-289.66 334.3,-295.18 371,-286.23 380.97,-283.8 391.11,-279.62 400.4,-274.97"/>
<polygon fill="black" stroke="black" points="401.96,-278.11 409.13,-270.31 398.66,-271.93 401.96,-278.11"/>
</g>
<!-- template&#45;&gt;layout -->
<g id="edge15" class="edge">
<title>template&#45;&gt;layout</title>
<path fill="none" stroke="black" d="M367.26,-218.79C376.4,-222.95 386.64,-227.62 396.45,-232.08"/>
<polygon fill="black" stroke="black" points="394.92,-235.23 405.47,-236.19 397.82,-228.86 394.92,-235.23"/>
</g>
<!-- perf -->
<g id="node14" class="node">
<title>perf</title>
<polygon fill="aquamarine" stroke="aquamarine" points="67,-382.23 0,-382.23 0,-346.23 67,-346.23 67,-382.23"/>
<text text-anchor="start" x="8" y="-366.83" font-family="Verdana" font-size="8.00">Performance</text>
<text text-anchor="start" x="16.5" y="-357.83" font-family="Verdana" font-size="8.00">Profiling</text>
</g>
<!-- binary -->
<g id="node16" class="node">
<title>binary</title>
<polygon fill="cornsilk" stroke="cornsilk" points="471,-61.23 408,-61.23 408,-25.23 471,-25.23 471,-61.23"/>
<text text-anchor="start" x="416" y="-41.33" font-family="Verdana" font-size="8.00">Binary Data</text>
</g>
<!-- persist&#45;&gt;binary -->
<g id="edge17" class="edge">
<title>persist&#45;&gt;binary</title>
<path fill="none" stroke="black" d="M367.8,-43.23C376.73,-43.23 386.66,-43.23 396.19,-43.23"/>
<polygon fill="black" stroke="black" points="396.01,-46.73 406.01,-43.23 396.01,-39.73 396.01,-46.73"/>
</g>
<!-- persist&#45;&gt;db -->
<g id="edge20" class="edge">
<title>persist&#45;&gt;db</title>
<path fill="none" stroke="black" d="M367.8,-56.72C379.8,-61.61 393.86,-66.78 407,-70.23 436.39,-77.97 470.37,-82.78 496.36,-85.63"/>
<polygon fill="black" stroke="black" points="495.88,-89.1 506.19,-86.65 496.6,-82.13 495.88,-89.1"/>
</g>
<!-- binary&#45;&gt;db -->
<g id="edge19" class="edge">
<title>binary&#45;&gt;db</title>
<path fill="none" stroke="black" d="M471.35,-57.79C479.6,-61.68 488.64,-65.95 497.34,-70.05"/>
<polygon fill="black" stroke="black" points="495.78,-73.18 506.32,-74.29 498.77,-66.85 495.78,-73.18"/>
</g>
<!-- binary&#45;&gt;vm -->
<g id="edge24" class="edge">
<title>binary&#45;&gt;vm</title>
<path fill="none" stroke="black" d="M471.35,-40.7C480.55,-39.95 490.74,-39.11 500.33,-38.33"/>
<polygon fill="black" stroke="black" points="500.43,-41.83 510.11,-37.52 499.85,-34.85 500.43,-41.83"/>
</g>
<!-- build -->
<g id="node18" class="node">
<title>build</title>
<polygon fill="aquamarine" stroke="aquamarine" points="60.5,-436.23 6.5,-436.23 6.5,-400.23 60.5,-400.23 60.5,-436.23"/>
<text text-anchor="start" x="19" y="-420.83" font-family="Verdana" font-size="8.00">A Build</text>
<text text-anchor="start" x="16" y="-411.83" font-family="Verdana" font-size="8.00">Manager</text>
</g>
<!-- pack -->
<g id="node19" class="node">
<title>pack</title>
<polygon fill="aquamarine" stroke="aquamarine" points="62,-490.23 5,-490.23 5,-454.23 62,-454.23 62,-490.23"/>
<text text-anchor="start" x="13" y="-474.83" font-family="Verdana" font-size="8.00">A Package</text>
<text text-anchor="start" x="16" y="-465.83" font-family="Verdana" font-size="8.00">Manager</text>
</g>
<!-- http -->
<g id="node21" class="node">
<title>http</title>
<polygon fill="pink" stroke="pink" points="776,-361.23 708,-361.23 708,-325.23 776,-325.23 776,-361.23"/>
<text text-anchor="start" x="716" y="-345.83" font-family="Verdana" font-size="8.00">Serving Web</text>
<text text-anchor="start" x="730" y="-336.83" font-family="Verdana" font-size="8.00">Pages</text>
</g>
<!-- ftp&#45;&gt;http -->
<g id="edge22" class="edge">
<title>ftp&#45;&gt;http</title>
<path fill="none" stroke="black" d="M672.23,-343.23C679.93,-343.23 688.27,-343.23 696.41,-343.23"/>
<polygon fill="black" stroke="black" points="696.17,-346.73 706.17,-343.23 696.17,-339.73 696.17,-346.73"/>
</g>
<!-- viewer -->
<g id="node22" class="node">
<title>viewer</title>
<polygon fill="aquamarine" stroke="aquamarine" points="566,-161.23 512,-161.23 512,-125.23 566,-125.23 566,-161.23"/>
<text text-anchor="start" x="528" y="-145.83" font-family="Verdana" font-size="8.00">A File</text>
<text text-anchor="start" x="525" y="-136.83" font-family="Verdana" font-size="8.00">Viewer</text>
</g>
<!-- undo -->
<g id="node23" class="node">
<title>undo</title>
<polygon fill="pink" stroke="pink" points="667,-161.23 611,-161.23 611,-125.23 667,-125.23 667,-161.23"/>
<text text-anchor="start" x="619" y="-145.83" font-family="Verdana" font-size="8.00">Undo and</text>
<text text-anchor="start" x="629" y="-136.83" font-family="Verdana" font-size="8.00">Redo</text>
</g>
<!-- viewer&#45;&gt;undo -->
<g id="edge23" class="edge">
<title>viewer&#45;&gt;undo</title>
<path fill="none" stroke="black" d="M566.26,-143.23C576.45,-143.23 588.31,-143.23 599.43,-143.23"/>
<polygon fill="black" stroke="black" points="599.12,-146.73 609.12,-143.23 599.12,-139.73 599.12,-146.73"/>
</g>
<!-- debugger -->
<g id="node25" class="node">
<title>debugger</title>
<polygon fill="pink" stroke="pink" points="671.5,-80.23 606.5,-80.23 606.5,-44.23 671.5,-44.23 671.5,-80.23"/>
<text text-anchor="start" x="614.5" y="-60.33" font-family="Verdana" font-size="8.00">A Debugger</text>
</g>
<!-- viewer&#45;&gt;debugger -->
<g id="edge27" class="edge">
<title>viewer&#45;&gt;debugger</title>
<path fill="none" stroke="black" d="M562.24,-124.85C575.52,-113.88 592.59,-99.77 607.16,-87.73"/>
<polygon fill="black" stroke="black" points="609.21,-90.57 614.68,-81.51 604.75,-85.18 609.21,-90.57"/>
</g>
<!-- vm&#45;&gt;debugger -->
<g id="edge26" class="edge">
<title>vm&#45;&gt;debugger</title>
<path fill="none" stroke="black" d="M566.26,-42.47C575.16,-44.92 585.34,-47.73 595.19,-50.44"/>
<polygon fill="black" stroke="black" points="594.04,-53.75 604.61,-53.04 595.9,-47.01 594.04,-53.75"/>
</g>
</g>
</svg>
