<?xml version="1.0" encoding="UTF-8" standalone="no"?>
<!DOCTYPE svg PUBLIC "-//W3C//DTD SVG 1.1//EN"
 "http://www.w3.org/Graphics/SVG/1.1/DTD/svg11.dtd">
<!-- Generated by graphviz version 6.0.1 (20220911.1526)
 -->
<!-- Title: syllabus Pages: 1 -->
<svg width="593pt" height="422pt"
 viewBox="0.00 0.00 593.00 422.00" xmlns="http://www.w3.org/2000/svg" xmlns:xlink="http://www.w3.org/1999/xlink">
<g id="graph0" class="graph" transform="scale(1 1) rotate(0) translate(4 418)">
<title>syllabus</title>
<polygon fill="white" stroke="none" points="-4,4 -4,-418 589,-418 589,4 -4,4"/>
<!-- archive -->
<g id="node1" class="node">
<title>archive</title>
<polygon fill="cornsilk" stroke="black" points="375.5,-360 321.5,-360 321.5,-324 375.5,-324 375.5,-360"/>
<text text-anchor="start" x="332" y="-344.8" font-family="Verdana" font-size="9.00">version</text>
<text text-anchor="start" x="333" y="-334.8" font-family="Verdana" font-size="9.00">control</text>
</g>
<!-- glob -->
<g id="node13" class="node">
<title>glob</title>
<polygon fill="cornsilk" stroke="black" points="267,-360 208,-360 208,-324 267,-324 267,-360"/>
<text text-anchor="start" x="216" y="-344.8" font-family="Verdana" font-size="9.00">matching</text>
<text text-anchor="start" x="218.5" y="-334.8" font-family="Verdana" font-size="9.00">patterns</text>
</g>
<!-- archive&#45;&gt;glob -->
<g id="edge1" class="edge">
<title>archive&#45;&gt;glob</title>
<path fill="none" stroke="black" d="M311.32,-342C296.93,-342 280.61,-342 267.07,-342"/>
<polygon fill="black" stroke="black" points="311.39,-345.5 321.39,-342 311.39,-338.5 311.39,-345.5"/>
</g>
<!-- mock -->
<g id="node18" class="node">
<title>mock</title>
<polygon fill="cornsilk" stroke="black" points="264.5,-306 210.5,-306 210.5,-270 264.5,-270 264.5,-306"/>
<text text-anchor="start" x="225" y="-290.8" font-family="Verdana" font-style="italic" font-size="9.00">mock</text>
<text text-anchor="start" x="221.5" y="-281.8" font-family="Verdana" font-style="italic" font-size="9.00">objects</text>
</g>
<!-- archive&#45;&gt;mock -->
<g id="edge2" class="edge">
<title>archive&#45;&gt;mock</title>
<path fill="none" stroke="black" d="M312.15,-324.49C296.74,-316.85 278.99,-308.06 264.77,-301.02"/>
<polygon fill="black" stroke="black" points="310.88,-327.76 321.39,-329.07 313.98,-321.49 310.88,-327.76"/>
</g>
<!-- binary -->
<g id="node2" class="node">
<title>binary</title>
<polygon fill="cornsilk" stroke="black" points="264.5,-117 210.5,-117 210.5,-81 264.5,-81 264.5,-117"/>
<text text-anchor="start" x="223.5" y="-101.8" font-family="Verdana" font-size="9.00">binary</text>
<text text-anchor="start" x="227.5" y="-91.8" font-family="Verdana" font-size="9.00">data</text>
</g>
<!-- dup -->
<g id="node9" class="node">
<title>dup</title>
<polygon fill="aquamarine" stroke="black" points="158,-117 100,-117 100,-81 158,-81 158,-117"/>
<text text-anchor="start" x="109" y="-101.8" font-family="Verdana" font-size="9.00">duplicate</text>
<text text-anchor="start" x="108" y="-91.8" font-family="Verdana" font-size="9.00">file finder</text>
</g>
<!-- binary&#45;&gt;dup -->
<g id="edge3" class="edge">
<title>binary&#45;&gt;dup</title>
<path fill="none" stroke="black" d="M200.29,-99C186.48,-99 170.96,-99 158.02,-99"/>
<polygon fill="black" stroke="black" points="200.45,-102.5 210.45,-99 200.45,-95.5 200.45,-102.5"/>
</g>
<!-- build -->
<g id="node3" class="node">
<title>build</title>
<polygon fill="cornsilk" stroke="black" points="484.5,-144 428.5,-144 428.5,-108 484.5,-108 484.5,-144"/>
<text text-anchor="start" x="445.5" y="-128.8" font-family="Verdana" font-size="9.00">build</text>
<text text-anchor="start" x="436.5" y="-118.8" font-family="Verdana" font-size="9.00">manager</text>
</g>
<!-- cache -->
<g id="node4" class="node">
<title>cache</title>
<polygon fill="cornsilk" stroke="black" points="485.5,-360 427.5,-360 427.5,-324 485.5,-324 485.5,-360"/>
<text text-anchor="start" x="435.5" y="-340.8" font-family="Verdana" font-style="italic" font-size="9.00">file cache</text>
</g>
<!-- cache&#45;&gt;archive -->
<g id="edge4" class="edge">
<title>cache&#45;&gt;archive</title>
<path fill="none" stroke="black" d="M417.16,-342C403.35,-342 388.1,-342 375.57,-342"/>
<polygon fill="black" stroke="black" points="417.37,-345.5 427.37,-342 417.37,-338.5 417.37,-345.5"/>
</g>
<!-- server -->
<g id="node24" class="node">
<title>server</title>
<polygon fill="aquamarine" stroke="black" points="375.5,-306 321.5,-306 321.5,-270 375.5,-270 375.5,-306"/>
<text text-anchor="start" x="339" y="-290.8" font-family="Verdana" font-size="9.00">web</text>
<text text-anchor="start" x="334.5" y="-280.8" font-family="Verdana" font-size="9.00">server</text>
</g>
<!-- cache&#45;&gt;server -->
<g id="edge5" class="edge">
<title>cache&#45;&gt;server</title>
<path fill="none" stroke="black" d="M418.38,-323.09C404.25,-315.89 388.46,-307.85 375.57,-301.28"/>
<polygon fill="black" stroke="black" points="416.87,-326.25 427.37,-327.67 420.05,-320.01 416.87,-326.25"/>
</g>
<!-- check -->
<g id="node5" class="node">
<title>check</title>
<polygon fill="aquamarine" stroke="black" points="376.5,-198 320.5,-198 320.5,-162 376.5,-162 376.5,-198"/>
<text text-anchor="start" x="328.5" y="-182.8" font-family="Verdana" font-style="italic" font-size="9.00">checking</text>
<text text-anchor="start" x="336" y="-173.8" font-family="Verdana" font-style="italic" font-size="9.00">HTML</text>
</g>
<!-- compiler -->
<g id="node6" class="node">
<title>compiler</title>
<polygon fill="cornsilk" stroke="black" points="483.5,-90 429.5,-90 429.5,-54 483.5,-54 483.5,-90"/>
<text text-anchor="start" x="437.5" y="-70.8" font-family="Verdana" font-style="italic" font-size="9.00">compiler</text>
</g>
<!-- vm -->
<g id="node28" class="node">
<title>vm</title>
<polygon fill="cornsilk" stroke="black" points="376,-117 321,-117 321,-81 376,-81 376,-117"/>
<text text-anchor="start" x="334" y="-101.8" font-family="Verdana" font-size="9.00">virtual</text>
<text text-anchor="start" x="329" y="-91.8" font-family="Verdana" font-size="9.00">machine</text>
</g>
<!-- compiler&#45;&gt;vm -->
<g id="edge6" class="edge">
<title>compiler&#45;&gt;vm</title>
<path fill="none" stroke="black" d="M419.36,-81.2C405.19,-84.81 389.23,-88.88 376.14,-92.22"/>
<polygon fill="black" stroke="black" points="420.47,-84.53 429.3,-78.67 418.74,-77.75 420.47,-84.53"/>
</g>
<!-- debug -->
<g id="node7" class="node">
<title>debug</title>
<polygon fill="pink" stroke="black" points="584.5,-90 526.5,-90 526.5,-54 584.5,-54 584.5,-90"/>
<text text-anchor="start" x="534.5" y="-70.8" font-family="Verdana" font-style="italic" font-size="9.00">debugger</text>
</g>
<!-- debug&#45;&gt;compiler -->
<g id="edge9" class="edge">
<title>debug&#45;&gt;compiler</title>
<path fill="none" stroke="black" d="M516.23,-72C505.25,-72 493.55,-72 483.5,-72"/>
<polygon fill="black" stroke="black" points="516.44,-75.5 526.44,-72 516.44,-68.5 516.44,-75.5"/>
</g>
<!-- editor -->
<g id="node10" class="node">
<title>editor</title>
<polygon fill="aquamarine" stroke="black" points="483.5,-36 429.5,-36 429.5,0 483.5,0 483.5,-36"/>
<text text-anchor="start" x="447" y="-20.8" font-family="Verdana" font-size="9.00">text</text>
<text text-anchor="start" x="443.5" y="-10.8" font-family="Verdana" font-size="9.00">editor</text>
</g>
<!-- debug&#45;&gt;editor -->
<g id="edge10" class="edge">
<title>debug&#45;&gt;editor</title>
<path fill="none" stroke="black" d="M517.58,-51.45C506.22,-45.12 493.96,-38.3 483.5,-32.47"/>
<polygon fill="black" stroke="black" points="516,-54.57 526.44,-56.38 519.41,-48.46 516,-54.57"/>
</g>
<!-- db -->
<g id="node8" class="node">
<title>db</title>
<polygon fill="pink" stroke="black" points="583.5,-387 527.5,-387 527.5,-351 583.5,-351 583.5,-387"/>
<text text-anchor="start" x="535.5" y="-366.8" font-family="Verdana" font-size="9.00">database</text>
</g>
<!-- db&#45;&gt;cache -->
<g id="edge7" class="edge">
<title>db&#45;&gt;cache</title>
<path fill="none" stroke="black" d="M517.65,-358.74C507.07,-355.8 495.7,-352.63 485.73,-349.86"/>
<polygon fill="black" stroke="black" points="516.91,-362.17 527.48,-361.48 518.78,-355.43 516.91,-362.17"/>
</g>
<!-- persist -->
<g id="node23" class="node">
<title>persist</title>
<polygon fill="cornsilk" stroke="black" points="490,-414 423,-414 423,-378 490,-378 490,-414"/>
<text text-anchor="start" x="442.5" y="-398.8" font-family="Verdana" font-size="9.00">object</text>
<text text-anchor="start" x="431" y="-388.8" font-family="Verdana" font-size="9.00">persistence</text>
</g>
<!-- db&#45;&gt;persist -->
<g id="edge8" class="edge">
<title>db&#45;&gt;persist</title>
<path fill="none" stroke="black" d="M517.62,-379.26C508.61,-381.77 499.04,-384.44 490.24,-386.89"/>
<polygon fill="black" stroke="black" points="518.78,-382.57 527.48,-376.52 516.91,-375.83 518.78,-382.57"/>
</g>
<!-- flow -->
<g id="node11" class="node">
<title>flow</title>
<polygon fill="pink" stroke="black" points="583.5,-144 527.5,-144 527.5,-108 583.5,-108 583.5,-144"/>
<text text-anchor="start" x="535.5" y="-128.8" font-family="Verdana" font-size="9.00">workflow</text>
<text text-anchor="start" x="540" y="-118.8" font-family="Verdana" font-size="9.00">runner</text>
</g>
<!-- flow&#45;&gt;build -->
<g id="edge11" class="edge">
<title>flow&#45;&gt;build</title>
<path fill="none" stroke="black" d="M517.39,-126C506.52,-126 494.84,-126 484.71,-126"/>
<polygon fill="black" stroke="black" points="517.48,-129.5 527.48,-126 517.48,-122.5 517.48,-129.5"/>
</g>
<!-- func -->
<g id="node12" class="node">
<title>func</title>
<polygon fill="cornsilk" stroke="black" points="387,-252 310,-252 310,-216 387,-216 387,-252"/>
<text text-anchor="start" x="327.5" y="-236.8" font-family="Verdana" font-style="italic" font-size="9.00">functions</text>
<text text-anchor="start" x="318" y="-227.8" font-family="Verdana" font-style="italic" font-size="9.00">and call stack</text>
</g>
<!-- interp -->
<g id="node15" class="node">
<title>interp</title>
<polygon fill="cornsilk" stroke="black" points="272,-252 203,-252 203,-216 272,-216 272,-252"/>
<text text-anchor="start" x="211" y="-236.8" font-family="Verdana" font-size="9.00">interpreting</text>
<text text-anchor="start" x="211.5" y="-226.8" font-family="Verdana" font-size="9.00">expressions</text>
</g>
<!-- func&#45;&gt;interp -->
<g id="edge12" class="edge">
<title>func&#45;&gt;interp</title>
<path fill="none" stroke="black" d="M299.96,-234C290.56,-234 280.88,-234 272.07,-234"/>
<polygon fill="black" stroke="black" points="299.99,-237.5 309.99,-234 299.99,-230.5 299.99,-237.5"/>
</g>
<!-- test -->
<g id="node26" class="node">
<title>test</title>
<polygon fill="cornsilk" stroke="black" points="156,-306 102,-306 102,-270 156,-270 156,-306"/>
<text text-anchor="start" x="119.5" y="-290.8" font-family="Verdana" font-size="9.00">unit</text>
<text text-anchor="start" x="113.5" y="-280.8" font-family="Verdana" font-size="9.00">testing</text>
</g>
<!-- glob&#45;&gt;test -->
<g id="edge13" class="edge">
<title>glob&#45;&gt;test</title>
<path fill="none" stroke="black" d="M198.93,-322.95C184.76,-315.76 168.96,-307.75 156.06,-301.22"/>
<polygon fill="black" stroke="black" points="197.46,-326.13 207.96,-327.53 200.62,-319.88 197.46,-326.13"/>
</g>
<!-- install -->
<g id="node14" class="node">
<title>install</title>
<polygon fill="pink" stroke="black" points="582.5,-252 528.5,-252 528.5,-216 582.5,-216 582.5,-252"/>
<text text-anchor="start" x="537.5" y="-232.8" font-family="Verdana" font-style="italic" font-size="9.00">installer</text>
</g>
<!-- install&#45;&gt;build -->
<g id="edge14" class="edge">
<title>install&#45;&gt;build</title>
<path fill="none" stroke="black" d="M535.68,-207.64C523.45,-191.23 506.71,-170.06 490,-153 487.02,-149.96 483.73,-146.91 480.41,-144.02"/>
<polygon fill="black" stroke="black" points="532.9,-209.77 541.65,-215.75 538.54,-205.62 532.9,-209.77"/>
</g>
<!-- pack -->
<g id="node20" class="node">
<title>pack</title>
<polygon fill="aquamarine" stroke="black" points="484.5,-306 428.5,-306 428.5,-270 484.5,-270 484.5,-306"/>
<text text-anchor="start" x="438" y="-290.8" font-family="Verdana" font-size="9.00">package</text>
<text text-anchor="start" x="436.5" y="-280.8" font-family="Verdana" font-size="9.00">manager</text>
</g>
<!-- install&#45;&gt;pack -->
<g id="edge15" class="edge">
<title>install&#45;&gt;pack</title>
<path fill="none" stroke="black" d="M519.39,-253.54C507.99,-259.89 495.53,-266.83 484.79,-272.81"/>
<polygon fill="black" stroke="black" points="521.22,-256.54 528.25,-248.61 517.81,-250.42 521.22,-256.54"/>
</g>
<!-- template -->
<g id="node25" class="node">
<title>template</title>
<polygon fill="cornsilk" stroke="black" points="487,-252 426,-252 426,-216 487,-216 487,-252"/>
<text text-anchor="start" x="444" y="-236.8" font-family="Verdana" font-size="9.00">HTML</text>
<text text-anchor="start" x="434" y="-226.8" font-family="Verdana" font-size="9.00">templates</text>
</g>
<!-- install&#45;&gt;template -->
<g id="edge16" class="edge">
<title>install&#45;&gt;template</title>
<path fill="none" stroke="black" d="M518.01,-234C507.84,-234 496.92,-234 487.2,-234"/>
<polygon fill="black" stroke="black" points="518.25,-237.5 528.25,-234 518.25,-230.5 518.25,-237.5"/>
</g>
<!-- meta -->
<g id="node17" class="node">
<title>meta</title>
<polygon fill="cornsilk" stroke="black" points="165,-252 93,-252 93,-216 165,-216 165,-252"/>
<text text-anchor="start" x="101" y="-236.8" font-family="Verdana" font-style="italic" font-size="9.00">closures and</text>
<text text-anchor="start" x="105.5" y="-227.8" font-family="Verdana" font-style="italic" font-size="9.00">decorators</text>
</g>
<!-- interp&#45;&gt;meta -->
<g id="edge17" class="edge">
<title>interp&#45;&gt;meta</title>
<path fill="none" stroke="black" d="M192.72,-234C183.6,-234 174.09,-234 165.32,-234"/>
<polygon fill="black" stroke="black" points="192.8,-237.5 202.8,-234 192.8,-230.5 192.8,-237.5"/>
</g>
<!-- lint -->
<g id="node16" class="node">
<title>lint</title>
<polygon fill="pink" stroke="black" points="483.5,-198 429.5,-198 429.5,-162 483.5,-162 483.5,-198"/>
<text text-anchor="start" x="442.5" y="-177.8" font-family="Verdana" font-size="9.00">linting</text>
</g>
<!-- lint&#45;&gt;check -->
<g id="edge18" class="edge">
<title>lint&#45;&gt;check</title>
<path fill="none" stroke="black" d="M419.03,-180C405.08,-180 389.42,-180 376.51,-180"/>
<polygon fill="black" stroke="black" points="419.3,-183.5 429.3,-180 419.3,-176.5 419.3,-183.5"/>
</g>
<!-- oop -->
<g id="node19" class="node">
<title>oop</title>
<polygon fill="aquamarine" stroke="black" points="57,-279 0,-279 0,-243 57,-243 57,-279"/>
<text text-anchor="start" x="8" y="-263.8" font-family="Verdana" font-style="italic" font-size="9.00">class and</text>
<text text-anchor="start" x="12.5" y="-254.8" font-family="Verdana" font-style="italic" font-size="9.00">objects</text>
</g>
<!-- meta&#45;&gt;oop -->
<g id="edge19" class="edge">
<title>meta&#45;&gt;oop</title>
<path fill="none" stroke="black" d="M83.18,-246.29C74.35,-248.71 65.34,-251.18 57.28,-253.39"/>
<polygon fill="black" stroke="black" points="84.28,-249.61 93,-243.6 82.43,-242.86 84.28,-249.61"/>
</g>
<!-- mock&#45;&gt;meta -->
<g id="edge20" class="edge">
<title>mock&#45;&gt;meta</title>
<path fill="none" stroke="black" d="M201.41,-270.21C189.72,-264.28 176.71,-257.69 165.03,-251.76"/>
<polygon fill="black" stroke="black" points="199.95,-273.39 210.45,-274.79 203.11,-267.15 199.95,-273.39"/>
</g>
<!-- mock&#45;&gt;test -->
<g id="edge21" class="edge">
<title>mock&#45;&gt;test</title>
<path fill="none" stroke="black" d="M200.3,-288C185.82,-288 169.45,-288 156.15,-288"/>
<polygon fill="black" stroke="black" points="200.45,-291.5 210.45,-288 200.45,-284.5 200.45,-291.5"/>
</g>
<!-- parse -->
<g id="node21" class="node">
<title>parse</title>
<polygon fill="cornsilk" stroke="black" points="375.5,-414 321.5,-414 321.5,-378 375.5,-378 375.5,-414"/>
<text text-anchor="start" x="332" y="-398.8" font-family="Verdana" font-size="9.00">parsing</text>
<text text-anchor="start" x="339" y="-388.8" font-family="Verdana" font-size="9.00">text</text>
</g>
<!-- parse&#45;&gt;glob -->
<g id="edge22" class="edge">
<title>parse&#45;&gt;glob</title>
<path fill="none" stroke="black" d="M312.16,-378.49C297.57,-371.26 280.87,-362.99 267.07,-356.16"/>
<polygon fill="black" stroke="black" points="310.88,-381.76 321.39,-383.07 313.98,-375.49 310.88,-381.76"/>
</g>
<!-- perf -->
<g id="node22" class="node">
<title>perf</title>
<polygon fill="pink" stroke="black" points="274,-198 201,-198 201,-162 274,-162 274,-198"/>
<text text-anchor="start" x="209" y="-182.8" font-family="Verdana" font-size="9.00">performance</text>
<text text-anchor="start" x="219.5" y="-172.8" font-family="Verdana" font-size="9.00">profiling</text>
</g>
<!-- perf&#45;&gt;meta -->
<g id="edge23" class="edge">
<title>perf&#45;&gt;meta</title>
<path fill="none" stroke="black" d="M191.66,-202.74C182.79,-207.23 173.61,-211.89 165.12,-216.19"/>
<polygon fill="black" stroke="black" points="193.4,-205.78 200.74,-198.13 190.24,-199.53 193.4,-205.78"/>
</g>
<!-- persist&#45;&gt;parse -->
<g id="edge24" class="edge">
<title>persist&#45;&gt;parse</title>
<path fill="none" stroke="black" d="M412.54,-396C399.99,-396 386.66,-396 375.51,-396"/>
<polygon fill="black" stroke="black" points="412.83,-399.5 422.83,-396 412.83,-392.5 412.83,-399.5"/>
</g>
<!-- template&#45;&gt;check -->
<g id="edge25" class="edge">
<title>template&#45;&gt;check</title>
<path fill="none" stroke="black" d="M416.98,-214.38C403.63,-207.57 388.94,-200.09 376.69,-193.85"/>
<polygon fill="black" stroke="black" points="415.47,-217.54 425.97,-218.96 418.65,-211.3 415.47,-217.54"/>
</g>
<!-- template&#45;&gt;func -->
<g id="edge26" class="edge">
<title>template&#45;&gt;func</title>
<path fill="none" stroke="black" d="M415.74,-234C406.39,-234 396.46,-234 387.21,-234"/>
<polygon fill="black" stroke="black" points="415.97,-237.5 425.97,-234 415.97,-230.5 415.97,-237.5"/>
</g>
<!-- test&#45;&gt;oop -->
<g id="edge27" class="edge">
<title>test&#45;&gt;oop</title>
<path fill="none" stroke="black" d="M92.08,-278.15C80.55,-274.99 67.98,-271.55 57.14,-268.58"/>
<polygon fill="black" stroke="black" points="91.29,-281.57 101.86,-280.84 93.14,-274.82 91.29,-281.57"/>
</g>
<!-- undo -->
<g id="node27" class="node">
<title>undo</title>
<polygon fill="cornsilk" stroke="black" points="585,-36 526,-36 526,0 585,0 585,-36"/>
<text text-anchor="start" x="534" y="-20.8" font-family="Verdana" font-style="italic" font-size="9.00">undo and</text>
<text text-anchor="start" x="545.5" y="-11.8" font-family="Verdana" font-style="italic" font-size="9.00">redo</text>
</g>
<!-- undo&#45;&gt;editor -->
<g id="edge28" class="edge">
<title>undo&#45;&gt;editor</title>
<path fill="none" stroke="black" d="M515.82,-18C504.98,-18 493.47,-18 483.56,-18"/>
<polygon fill="black" stroke="black" points="515.92,-21.5 525.92,-18 515.92,-14.5 515.92,-21.5"/>
</g>
<!-- vm&#45;&gt;binary -->
<g id="edge29" class="edge">
<title>vm&#45;&gt;binary</title>
<path fill="none" stroke="black" d="M310.73,-99C295.56,-99 278.34,-99 264.51,-99"/>
<polygon fill="black" stroke="black" points="310.84,-102.5 320.84,-99 310.84,-95.5 310.84,-102.5"/>
</g>
<!-- vm&#45;&gt;interp -->
<g id="edge30" class="edge">
<title>vm&#45;&gt;interp</title>
<path fill="none" stroke="black" d="M328.8,-125.71C322.77,-134.39 316.07,-144.08 310,-153 293.77,-176.85 293.75,-185.98 274,-207 271.14,-210.05 267.9,-213.01 264.58,-215.79"/>
<polygon fill="black" stroke="black" points="331.72,-127.64 334.57,-117.43 325.98,-123.64 331.72,-127.64"/>
</g>
</g>
</svg>
