<?xml version="1.0" encoding="UTF-8" standalone="no"?>
<!DOCTYPE svg PUBLIC "-//W3C//DTD SVG 1.1//EN"
 "http://www.w3.org/Graphics/SVG/1.1/DTD/svg11.dtd">
<!-- Generated by graphviz version 6.0.1 (20220911.1526)
 -->
<!-- Pages: 1 -->
<svg width="2370pt" height="275pt"
 viewBox="0.00 0.00 2370.00 275.00" xmlns="http://www.w3.org/2000/svg" xmlns:xlink="http://www.w3.org/1999/xlink">
<g id="graph0" class="graph" transform="scale(1 1) rotate(0) translate(4 271)">
<polygon fill="white" stroke="none" points="-4,4 -4,-271 2366,-271 2366,4 -4,4"/>
<!-- dup -->
<g id="node1" class="node">
<title>dup</title>
<polygon fill="aquamarine" stroke="aquamarine" points="54,-243 0,-243 0,-207 54,-207 54,-243"/>
<text text-anchor="start" x="11.5" y="-232.1" font-family="Verdana" font-size="8.00">Finding</text>
<text text-anchor="start" x="8" y="-223.1" font-family="Verdana" font-size="8.00">Duplicate</text>
<text text-anchor="start" x="17.5" y="-214.1" font-family="Verdana" font-size="8.00">Files</text>
</g>
<!-- glob -->
<g id="node2" class="node">
<title>glob</title>
<polygon fill="aquamarine" stroke="aquamarine" points="144,-220 90,-220 90,-184 144,-184 144,-220"/>
<text text-anchor="start" x="98.5" y="-204.6" font-family="Verdana" font-size="8.00">Matching</text>
<text text-anchor="start" x="100" y="-195.6" font-family="Verdana" font-size="8.00">Patterns</text>
</g>
<!-- dup&#45;&gt;glob -->
<g id="edge27" class="edge">
<title>dup&#45;&gt;glob</title>
<path fill="none" stroke="black" stroke-dasharray="5,2" d="M54.4,-218.1C65.64,-215.16 78.72,-211.74 89.92,-208.82"/>
</g>
<!-- archive -->
<g id="node9" class="node">
<title>archive</title>
<polygon fill="cornsilk" stroke="cornsilk" points="824,-210 770,-210 770,-174 824,-174 824,-210"/>
<text text-anchor="start" x="786" y="-194.6" font-family="Verdana" font-size="8.00">A File</text>
<text text-anchor="start" x="780" y="-185.6" font-family="Verdana" font-size="8.00">Archiver</text>
</g>
<!-- dup&#45;&gt;archive -->
<g id="edge8" class="edge">
<title>dup&#45;&gt;archive</title>
<path fill="none" stroke="black" d="M54.08,-234.85C89.36,-247.26 154.5,-267 212,-267 212,-267 212,-267 605.5,-267 664.93,-267 679.62,-253.97 734,-230 743.17,-225.96 752.62,-220.77 761.29,-215.53"/>
<polygon fill="black" stroke="black" points="763.37,-218.36 770,-210.1 759.66,-212.42 763.37,-218.36"/>
</g>
<!-- parse -->
<g id="node3" class="node">
<title>parse</title>
<polygon fill="cornsilk" stroke="cornsilk" points="246,-201 180,-201 180,-165 246,-165 246,-201"/>
<text text-anchor="start" x="188" y="-181.1" font-family="Verdana" font-size="8.00">Parsing Text</text>
</g>
<!-- glob&#45;&gt;parse -->
<g id="edge1" class="edge">
<title>glob&#45;&gt;parse</title>
<path fill="none" stroke="black" d="M144.18,-190.58C152.15,-188.46 161.11,-186.45 169.85,-184.8"/>
<polygon fill="black" stroke="black" points="170.68,-188.21 179.93,-183.04 169.48,-181.31 170.68,-188.21"/>
</g>
<!-- glob&#45;&gt;parse -->
<g id="edge28" class="edge">
<title>glob&#45;&gt;parse</title>
<path fill="none" stroke="black" stroke-dasharray="5,2" d="M144.18,-202.83C155.27,-201.3 168.28,-198.78 179.93,-195.92"/>
</g>
<!-- glob&#45;&gt;archive -->
<g id="edge7" class="edge">
<title>glob&#45;&gt;archive</title>
<path fill="none" stroke="black" d="M144.27,-208.13C180.78,-216.09 249.03,-229 308,-229 308,-229 308,-229 605.5,-229 660.01,-229 721.71,-214.22 759.74,-203.34"/>
<polygon fill="black" stroke="black" points="761.2,-206.56 769.81,-200.4 759.23,-199.85 761.2,-206.56"/>
</g>
<!-- test -->
<g id="node4" class="node">
<title>test</title>
<polygon fill="aquamarine" stroke="aquamarine" points="336,-201 282,-201 282,-165 336,-165 336,-201"/>
<text text-anchor="start" x="292" y="-185.6" font-family="Verdana" font-size="8.00">Running</text>
<text text-anchor="start" x="298" y="-176.6" font-family="Verdana" font-size="8.00">Tests</text>
</g>
<!-- parse&#45;&gt;test -->
<g id="edge29" class="edge">
<title>parse&#45;&gt;test</title>
<path fill="none" stroke="black" stroke-dasharray="5,2" d="M246.09,-183C257.79,-183 270.86,-183 281.97,-183"/>
</g>
<!-- check -->
<g id="node10" class="node">
<title>check</title>
<polygon fill="cornsilk" stroke="cornsilk" points="914,-140 860,-140 860,-104 914,-104 914,-140"/>
<text text-anchor="start" x="868.5" y="-124.6" font-family="Verdana" font-size="8.00">An HTML</text>
<text text-anchor="start" x="869" y="-115.6" font-family="Verdana" font-size="8.00">Validator</text>
</g>
<!-- parse&#45;&gt;check -->
<g id="edge10" class="edge">
<title>parse&#45;&gt;check</title>
<path fill="none" stroke="black" d="M237.07,-164.98C271.05,-140.3 337.47,-99 401.5,-99 401.5,-99 401.5,-99 705.5,-99 755.82,-99 813.39,-107.9 849.72,-114.63"/>
<polygon fill="black" stroke="black" points="849.35,-118.12 859.83,-116.55 850.66,-111.25 849.35,-118.12"/>
</g>
<!-- interp -->
<g id="node5" class="node">
<title>interp</title>
<polygon fill="cornsilk" stroke="cornsilk" points="433,-201 372,-201 372,-165 433,-165 433,-201"/>
<text text-anchor="start" x="397" y="-185.6" font-family="Verdana" font-size="8.00">An</text>
<text text-anchor="start" x="380" y="-176.6" font-family="Verdana" font-size="8.00">Interpreter</text>
</g>
<!-- test&#45;&gt;interp -->
<g id="edge2" class="edge">
<title>test&#45;&gt;interp</title>
<path fill="none" stroke="black" d="M336.47,-176.81C344.35,-176.33 353.16,-176.15 361.69,-176.3"/>
<polygon fill="black" stroke="black" points="361.77,-179.81 371.88,-176.64 362,-172.81 361.77,-179.81"/>
</g>
<!-- test&#45;&gt;interp -->
<g id="edge30" class="edge">
<title>test&#45;&gt;interp</title>
<path fill="none" stroke="black" stroke-dasharray="5,2" d="M336.47,-189.19C347.55,-189.87 360.48,-189.93 371.88,-189.36"/>
</g>
<!-- oop -->
<g id="node6" class="node">
<title>oop</title>
<polygon fill="cornsilk" stroke="cornsilk" points="534,-201 469,-201 469,-165 534,-165 534,-201"/>
<text text-anchor="start" x="477" y="-185.6" font-family="Verdana" font-size="8.00">Objects and</text>
<text text-anchor="start" x="486" y="-176.6" font-family="Verdana" font-size="8.00">Classes</text>
</g>
<!-- interp&#45;&gt;oop -->
<g id="edge3" class="edge">
<title>interp&#45;&gt;oop</title>
<path fill="none" stroke="black" d="M433.13,-176.73C441.13,-176.3 449.94,-176.16 458.48,-176.3"/>
<polygon fill="black" stroke="black" points="458.59,-179.81 468.69,-176.62 458.81,-172.81 458.59,-179.81"/>
</g>
<!-- interp&#45;&gt;oop -->
<g id="edge31" class="edge">
<title>interp&#45;&gt;oop</title>
<path fill="none" stroke="black" stroke-dasharray="5,2" d="M433.13,-189.27C444.38,-189.87 457.25,-189.91 468.69,-189.38"/>
</g>
<!-- func -->
<g id="node7" class="node">
<title>func</title>
<polygon fill="cornsilk" stroke="cornsilk" points="639,-163 570,-163 570,-127 639,-127 639,-163"/>
<text text-anchor="start" x="584.5" y="-147.6" font-family="Verdana" font-size="8.00">Functions</text>
<text text-anchor="start" x="578" y="-138.6" font-family="Verdana" font-size="8.00">and Closures</text>
</g>
<!-- interp&#45;&gt;func -->
<g id="edge4" class="edge">
<title>interp&#45;&gt;func</title>
<path fill="none" stroke="black" d="M433.18,-168.49C444.18,-163.72 456.92,-158.91 469,-156 498.76,-148.83 533.18,-146.12 559.75,-145.17"/>
<polygon fill="black" stroke="black" points="559.99,-148.67 569.88,-144.89 559.79,-141.67 559.99,-148.67"/>
</g>
<!-- vm -->
<g id="node24" class="node">
<title>vm</title>
<polygon fill="cornsilk" stroke="cornsilk" points="2261,-79 2207,-79 2207,-43 2261,-43 2261,-79"/>
<text text-anchor="start" x="2216.5" y="-63.6" font-family="Verdana" font-size="8.00">A Virtual</text>
<text text-anchor="start" x="2217" y="-54.6" font-family="Verdana" font-size="8.00">Machine</text>
</g>
<!-- interp&#45;&gt;vm -->
<g id="edge24" class="edge">
<title>interp&#45;&gt;vm</title>
<path fill="none" stroke="black" d="M415.92,-164.93C444.27,-126.06 517.94,-38 603.5,-38 603.5,-38 603.5,-38 2053,-38 2103.18,-38 2160.6,-46.9 2196.82,-53.63"/>
<polygon fill="black" stroke="black" points="2196.42,-57.12 2206.9,-55.55 2197.73,-50.24 2196.42,-57.12"/>
</g>
<!-- oop&#45;&gt;func -->
<g id="edge32" class="edge">
<title>oop&#45;&gt;func</title>
<path fill="none" stroke="black" stroke-dasharray="5,2" d="M534.18,-171.08C545.52,-166.81 558.33,-161.99 569.84,-157.67"/>
</g>
<!-- mock -->
<g id="node8" class="node">
<title>mock</title>
<polygon fill="cornsilk" stroke="cornsilk" points="734,-201 675,-201 675,-157 734,-157 734,-201"/>
<text text-anchor="start" x="690.5" y="-190.6" font-family="Verdana" font-size="8.00">Mocks,</text>
<text text-anchor="start" x="684.5" y="-181.6" font-family="Verdana" font-size="8.00">Protocols,</text>
<text text-anchor="start" x="696.5" y="-172.6" font-family="Verdana" font-size="8.00">and</text>
<text text-anchor="start" x="683" y="-163.6" font-family="Verdana" font-size="8.00">Decorators</text>
</g>
<!-- oop&#45;&gt;mock -->
<g id="edge6" class="edge">
<title>oop&#45;&gt;mock</title>
<path fill="none" stroke="black" d="M534.35,-182.37C569.66,-181.66 626.64,-180.53 664.57,-179.77"/>
<polygon fill="black" stroke="black" points="664.8,-183.27 674.73,-179.57 664.66,-176.27 664.8,-183.27"/>
</g>
<!-- func&#45;&gt;mock -->
<g id="edge5" class="edge">
<title>func&#45;&gt;mock</title>
<path fill="none" stroke="black" d="M639.23,-150.25C647.67,-152.84 656.79,-155.95 665.44,-159.2"/>
<polygon fill="black" stroke="black" points="664.34,-162.53 674.93,-162.89 666.88,-156 664.34,-162.53"/>
</g>
<!-- func&#45;&gt;mock -->
<g id="edge33" class="edge">
<title>func&#45;&gt;mock</title>
<path fill="none" stroke="black" stroke-dasharray="5,2" d="M638.95,-163.04C650.6,-167.57 663.55,-171.98 674.77,-175.24"/>
</g>
<!-- mock&#45;&gt;archive -->
<g id="edge9" class="edge">
<title>mock&#45;&gt;archive</title>
<path fill="none" stroke="black" d="M734.13,-176.79C742.23,-177.52 751.16,-178.7 759.65,-180.15"/>
<polygon fill="black" stroke="black" points="759.23,-183.63 769.7,-182.03 760.52,-176.75 759.23,-183.63"/>
</g>
<!-- mock&#45;&gt;archive -->
<g id="edge34" class="edge">
<title>mock&#45;&gt;archive</title>
<path fill="none" stroke="black" stroke-dasharray="5,2" d="M734.13,-189.44C745.53,-191.68 758.55,-193.51 769.7,-194.42"/>
</g>
<!-- archive&#45;&gt;check -->
<g id="edge35" class="edge">
<title>archive&#45;&gt;check</title>
<path fill="none" stroke="black" stroke-dasharray="5,2" d="M820.66,-173.97C833.7,-163.6 850.03,-150.61 863.11,-140.21"/>
</g>
<!-- ftp -->
<g id="node20" class="node">
<title>ftp</title>
<polygon fill="cornsilk" stroke="cornsilk" points="1885,-131 1819,-131 1819,-95 1885,-95 1885,-131"/>
<text text-anchor="start" x="1827" y="-115.6" font-family="Verdana" font-size="8.00">Transferring</text>
<text text-anchor="start" x="1842.5" y="-106.6" font-family="Verdana" font-size="8.00">Files</text>
</g>
<!-- archive&#45;&gt;ftp -->
<g id="edge20" class="edge">
<title>archive&#45;&gt;ftp</title>
<path fill="none" stroke="black" d="M824.1,-195.28C859.32,-199.42 924.03,-206 979.5,-206 979.5,-206 979.5,-206 1664,-206 1725.6,-206 1787.79,-165.05 1822.66,-137.49"/>
<polygon fill="black" stroke="black" points="1824.93,-140.16 1830.51,-131.15 1820.53,-134.72 1824.93,-140.16"/>
</g>
<!-- template -->
<g id="node11" class="node">
<title>template</title>
<polygon fill="cornsilk" stroke="cornsilk" points="1011,-140 950,-140 950,-104 1011,-104 1011,-140"/>
<text text-anchor="start" x="958" y="-124.6" font-family="Verdana" font-size="8.00">A Template</text>
<text text-anchor="start" x="961" y="-115.6" font-family="Verdana" font-size="8.00">Expander</text>
</g>
<!-- check&#45;&gt;template -->
<g id="edge11" class="edge">
<title>check&#45;&gt;template</title>
<path fill="none" stroke="black" d="M914.47,-115.81C922.35,-115.33 931.16,-115.15 939.69,-115.3"/>
<polygon fill="black" stroke="black" points="939.77,-118.81 949.88,-115.64 940,-111.81 939.77,-118.81"/>
</g>
<!-- check&#45;&gt;template -->
<g id="edge36" class="edge">
<title>check&#45;&gt;template</title>
<path fill="none" stroke="black" stroke-dasharray="5,2" d="M914.47,-128.19C925.55,-128.87 938.48,-128.93 949.88,-128.36"/>
</g>
<!-- lint -->
<g id="node12" class="node">
<title>lint</title>
<polygon fill="pink" stroke="pink" points="1101,-102 1047,-102 1047,-66 1101,-66 1101,-102"/>
<text text-anchor="start" x="1060" y="-86.6" font-family="Verdana" font-size="8.00">A Code</text>
<text text-anchor="start" x="1062" y="-77.6" font-family="Verdana" font-size="8.00">Linter</text>
</g>
<!-- check&#45;&gt;lint -->
<g id="edge12" class="edge">
<title>check&#45;&gt;lint</title>
<path fill="none" stroke="black" d="M914.19,-108.37C925,-103.33 937.83,-98.11 950,-95 978.54,-87.71 1011.87,-85.08 1036.63,-84.2"/>
<polygon fill="black" stroke="black" points="1036.78,-87.7 1046.68,-83.93 1036.58,-80.7 1036.78,-87.7"/>
</g>
<!-- layout -->
<g id="node13" class="node">
<title>layout</title>
<polygon fill="pink" stroke="pink" points="1202,-148 1137,-148 1137,-112 1202,-112 1202,-148"/>
<text text-anchor="start" x="1145" y="-128.1" font-family="Verdana" font-size="8.00">Page Layout</text>
</g>
<!-- check&#45;&gt;layout -->
<g id="edge13" class="edge">
<title>check&#45;&gt;layout</title>
<path fill="none" stroke="black" d="M914.06,-136.19C924.85,-141.3 937.7,-146.44 950,-149 1010.69,-161.64 1082.57,-150.52 1126.85,-140.74"/>
<polygon fill="black" stroke="black" points="1127.71,-144.14 1136.68,-138.5 1126.15,-137.31 1127.71,-144.14"/>
</g>
<!-- template&#45;&gt;lint -->
<g id="edge37" class="edge">
<title>template&#45;&gt;lint</title>
<path fill="none" stroke="black" stroke-dasharray="5,2" d="M1011.21,-109.66C1022.69,-104.89 1035.71,-99.49 1046.83,-94.87"/>
</g>
<!-- template&#45;&gt;layout -->
<g id="edge14" class="edge">
<title>template&#45;&gt;layout</title>
<path fill="none" stroke="black" d="M1011.13,-123.27C1042.21,-124.6 1091.32,-126.7 1126.42,-128.2"/>
<polygon fill="black" stroke="black" points="1126.68,-131.71 1136.82,-128.64 1126.98,-124.72 1126.68,-131.71"/>
</g>
<!-- lint&#45;&gt;layout -->
<g id="edge38" class="edge">
<title>lint&#45;&gt;layout</title>
<path fill="none" stroke="black" stroke-dasharray="5,2" d="M1101.04,-96.81C1112.18,-102.29 1125.27,-108.73 1136.94,-114.48"/>
</g>
<!-- perf -->
<g id="node14" class="node">
<title>perf</title>
<polygon fill="aquamarine" stroke="aquamarine" points="1305,-148 1238,-148 1238,-112 1305,-112 1305,-148"/>
<text text-anchor="start" x="1246" y="-132.6" font-family="Verdana" font-size="8.00">Performance</text>
<text text-anchor="start" x="1254.5" y="-123.6" font-family="Verdana" font-size="8.00">Profiling</text>
</g>
<!-- layout&#45;&gt;perf -->
<g id="edge39" class="edge">
<title>layout&#45;&gt;perf</title>
<path fill="none" stroke="black" stroke-dasharray="5,2" d="M1202.14,-130C1213.47,-130 1226.26,-130 1237.69,-130"/>
</g>
<!-- persist -->
<g id="node15" class="node">
<title>persist</title>
<polygon fill="aquamarine" stroke="aquamarine" points="1403,-121 1341,-121 1341,-85 1403,-85 1403,-121"/>
<text text-anchor="start" x="1358.5" y="-105.6" font-family="Verdana" font-size="8.00">Object</text>
<text text-anchor="start" x="1349" y="-96.6" font-family="Verdana" font-size="8.00">Persistence</text>
</g>
<!-- perf&#45;&gt;persist -->
<g id="edge40" class="edge">
<title>perf&#45;&gt;persist</title>
<path fill="none" stroke="black" stroke-dasharray="5,2" d="M1305.03,-121.08C1316.57,-117.92 1329.5,-114.37 1340.84,-111.27"/>
</g>
<!-- pack -->
<g id="node19" class="node">
<title>pack</title>
<polygon fill="pink" stroke="pink" points="1783,-131 1726,-131 1726,-95 1783,-95 1783,-131"/>
<text text-anchor="start" x="1734" y="-115.6" font-family="Verdana" font-size="8.00">A Package</text>
<text text-anchor="start" x="1737" y="-106.6" font-family="Verdana" font-size="8.00">Manager</text>
</g>
<!-- perf&#45;&gt;pack -->
<g id="edge19" class="edge">
<title>perf&#45;&gt;pack</title>
<path fill="none" stroke="black" d="M1305.24,-140.28C1344.03,-151.54 1410.81,-168 1469.5,-168 1469.5,-168 1469.5,-168 1570,-168 1622.66,-168 1680.39,-146.96 1716.76,-130.9"/>
<polygon fill="black" stroke="black" points="1718.31,-134.04 1725.98,-126.74 1715.42,-127.66 1718.31,-134.04"/>
</g>
<!-- binary -->
<g id="node16" class="node">
<title>binary</title>
<polygon fill="cornsilk" stroke="cornsilk" points="1502,-102 1439,-102 1439,-66 1502,-66 1502,-102"/>
<text text-anchor="start" x="1447" y="-82.1" font-family="Verdana" font-size="8.00">Binary Data</text>
</g>
<!-- persist&#45;&gt;binary -->
<g id="edge15" class="edge">
<title>persist&#45;&gt;binary</title>
<path fill="none" stroke="black" d="M1403,-90.79C1411.2,-88.76 1420.21,-86.86 1428.89,-85.32"/>
<polygon fill="black" stroke="black" points="1429.54,-88.76 1438.85,-83.7 1428.42,-81.85 1429.54,-88.76"/>
</g>
<!-- persist&#45;&gt;binary -->
<g id="edge41" class="edge">
<title>persist&#45;&gt;binary</title>
<path fill="none" stroke="black" stroke-dasharray="5,2" d="M1403,-103.39C1414.4,-101.74 1427.39,-99.19 1438.85,-96.37"/>
</g>
<!-- db -->
<g id="node17" class="node">
<title>db</title>
<polygon fill="pink" stroke="pink" points="1600,-121 1538,-121 1538,-85 1600,-85 1600,-121"/>
<text text-anchor="start" x="1546" y="-101.1" font-family="Verdana" font-size="8.00">A Database</text>
</g>
<!-- persist&#45;&gt;db -->
<g id="edge17" class="edge">
<title>persist&#45;&gt;db</title>
<path fill="none" stroke="black" d="M1403.16,-107.43C1414.38,-108.88 1427.25,-110.29 1439,-111 1466.95,-112.69 1474.05,-112.69 1502,-111 1510.35,-110.5 1519.27,-109.63 1527.76,-108.66"/>
<polygon fill="black" stroke="black" points="1528.34,-112.12 1537.84,-107.43 1527.49,-105.17 1528.34,-112.12"/>
</g>
<!-- binary&#45;&gt;db -->
<g id="edge16" class="edge">
<title>binary&#45;&gt;db</title>
<path fill="none" stroke="black" d="M1502.03,-83.68C1510.29,-84.9 1519.35,-86.57 1528.04,-88.47"/>
<polygon fill="black" stroke="black" points="1527.46,-91.93 1538,-90.79 1529.05,-85.11 1527.46,-91.93"/>
</g>
<!-- binary&#45;&gt;db -->
<g id="edge42" class="edge">
<title>binary&#45;&gt;db</title>
<path fill="none" stroke="black" stroke-dasharray="5,2" d="M1502.03,-96.34C1513.52,-99.17 1526.56,-101.73 1538,-103.39"/>
</g>
<!-- binary&#45;&gt;vm -->
<g id="edge23" class="edge">
<title>binary&#45;&gt;vm</title>
<path fill="none" stroke="black" d="M1494.99,-65.98C1529.57,-41.3 1597.12,0 1662,0 1662,0 1662,0 2053,0 2106.52,0 2121.09,-4.68 2171,-24 2180.28,-27.59 2189.77,-32.52 2198.45,-37.6"/>
<polygon fill="black" stroke="black" points="2196.79,-40.69 2207.15,-42.91 2200.44,-34.71 2196.79,-40.69"/>
</g>
<!-- build -->
<g id="node18" class="node">
<title>build</title>
<polygon fill="aquamarine" stroke="aquamarine" points="1690,-131 1636,-131 1636,-95 1690,-95 1690,-131"/>
<text text-anchor="start" x="1648.5" y="-115.6" font-family="Verdana" font-size="8.00">A Build</text>
<text text-anchor="start" x="1645.5" y="-106.6" font-family="Verdana" font-size="8.00">Manager</text>
</g>
<!-- db&#45;&gt;build -->
<g id="edge43" class="edge">
<title>db&#45;&gt;build</title>
<path fill="none" stroke="black" stroke-dasharray="5,2" d="M1600.12,-106.27C1611.65,-107.53 1624.7,-108.95 1635.83,-110.16"/>
</g>
<!-- build&#45;&gt;pack -->
<g id="edge18" class="edge">
<title>build&#45;&gt;pack</title>
<path fill="none" stroke="black" d="M1690.37,-106.78C1698.29,-106.3 1707.13,-106.14 1715.64,-106.32"/>
<polygon fill="black" stroke="black" points="1715.64,-109.82 1725.76,-106.7 1715.9,-102.83 1715.64,-109.82"/>
</g>
<!-- build&#45;&gt;pack -->
<g id="edge44" class="edge">
<title>build&#45;&gt;pack</title>
<path fill="none" stroke="black" stroke-dasharray="5,2" d="M1690.37,-119.22C1701.51,-119.9 1714.48,-119.93 1725.76,-119.3"/>
</g>
<!-- pack&#45;&gt;ftp -->
<g id="edge45" class="edge">
<title>pack&#45;&gt;ftp</title>
<path fill="none" stroke="black" stroke-dasharray="5,2" d="M1783.12,-113C1794.25,-113 1807.16,-113 1818.72,-113"/>
</g>
<!-- http -->
<g id="node21" class="node">
<title>http</title>
<polygon fill="pink" stroke="pink" points="1989,-131 1921,-131 1921,-95 1989,-95 1989,-131"/>
<text text-anchor="start" x="1929" y="-115.6" font-family="Verdana" font-size="8.00">Serving Web</text>
<text text-anchor="start" x="1943" y="-106.6" font-family="Verdana" font-size="8.00">Pages</text>
</g>
<!-- ftp&#45;&gt;http -->
<g id="edge21" class="edge">
<title>ftp&#45;&gt;http</title>
<path fill="none" stroke="black" d="M1885.23,-106.66C1893.28,-106.28 1902.04,-106.17 1910.53,-106.31"/>
<polygon fill="black" stroke="black" points="1910.58,-109.81 1920.68,-106.61 1910.79,-102.81 1910.58,-109.81"/>
</g>
<!-- ftp&#45;&gt;http -->
<g id="edge46" class="edge">
<title>ftp&#45;&gt;http</title>
<path fill="none" stroke="black" stroke-dasharray="5,2" d="M1885.23,-119.34C1896.55,-119.87 1909.28,-119.89 1920.68,-119.39"/>
</g>
<!-- viewer -->
<g id="node22" class="node">
<title>viewer</title>
<polygon fill="aquamarine" stroke="aquamarine" points="2079,-121 2025,-121 2025,-85 2079,-85 2079,-121"/>
<text text-anchor="start" x="2041" y="-105.6" font-family="Verdana" font-size="8.00">A File</text>
<text text-anchor="start" x="2038" y="-96.6" font-family="Verdana" font-size="8.00">Viewer</text>
</g>
<!-- http&#45;&gt;viewer -->
<g id="edge47" class="edge">
<title>http&#45;&gt;viewer</title>
<path fill="none" stroke="black" stroke-dasharray="5,2" d="M1989.23,-109.5C2000.89,-108.27 2013.82,-106.91 2024.82,-105.76"/>
</g>
<!-- undo -->
<g id="node23" class="node">
<title>undo</title>
<polygon fill="pink" stroke="pink" points="2171,-102 2115,-102 2115,-66 2171,-66 2171,-102"/>
<text text-anchor="start" x="2123" y="-86.6" font-family="Verdana" font-size="8.00">Undo and</text>
<text text-anchor="start" x="2133" y="-77.6" font-family="Verdana" font-size="8.00">Redo</text>
</g>
<!-- viewer&#45;&gt;undo -->
<g id="edge22" class="edge">
<title>viewer&#45;&gt;undo</title>
<path fill="none" stroke="black" d="M2079.22,-91.19C2087.26,-88.97 2096.25,-86.9 2104.87,-85.26"/>
<polygon fill="black" stroke="black" points="2105.48,-88.71 2114.73,-83.54 2104.28,-81.81 2105.48,-88.71"/>
</g>
<!-- viewer&#45;&gt;undo -->
<g id="edge48" class="edge">
<title>viewer&#45;&gt;undo</title>
<path fill="none" stroke="black" stroke-dasharray="5,2" d="M2079.22,-103.62C2090.4,-101.92 2103.44,-99.16 2114.73,-96.1"/>
</g>
<!-- debugger -->
<g id="node25" class="node">
<title>debugger</title>
<polygon fill="pink" stroke="pink" points="2362,-79 2297,-79 2297,-43 2362,-43 2362,-79"/>
<text text-anchor="start" x="2305" y="-59.1" font-family="Verdana" font-size="8.00">A Debugger</text>
</g>
<!-- viewer&#45;&gt;debugger -->
<g id="edge26" class="edge">
<title>viewer&#45;&gt;debugger</title>
<path fill="none" stroke="black" d="M2079.17,-107.13C2090.2,-108.68 2103.19,-110.24 2115,-111 2180.55,-115.21 2198.55,-108.37 2261,-88 2269.63,-85.18 2278.74,-81.82 2287.38,-78.44"/>
<polygon fill="black" stroke="black" points="2288.89,-81.6 2296.88,-74.64 2286.3,-75.1 2288.89,-81.6"/>
</g>
<!-- undo&#45;&gt;vm -->
<g id="edge49" class="edge">
<title>undo&#45;&gt;vm</title>
<path fill="none" stroke="black" stroke-dasharray="5,2" d="M2171.19,-76.97C2182.54,-74.04 2195.66,-70.65 2206.89,-67.75"/>
</g>
<!-- vm&#45;&gt;debugger -->
<g id="edge25" class="edge">
<title>vm&#45;&gt;debugger</title>
<path fill="none" stroke="black" d="M2261.04,-54.88C2269.05,-54.36 2278.06,-54.16 2286.83,-54.29"/>
<polygon fill="black" stroke="black" points="2286.85,-57.79 2296.94,-54.58 2287.05,-50.79 2286.85,-57.79"/>
</g>
<!-- vm&#45;&gt;debugger -->
<g id="edge50" class="edge">
<title>vm&#45;&gt;debugger</title>
<path fill="none" stroke="black" stroke-dasharray="5,2" d="M2261.04,-67.12C2272.18,-67.84 2285.27,-67.94 2296.94,-67.42"/>
</g>
</g>
</svg>
