<?xml version="1.0" encoding="UTF-8" standalone="no"?>
<!DOCTYPE svg PUBLIC "-//W3C//DTD SVG 1.1//EN"
 "http://www.w3.org/Graphics/SVG/1.1/DTD/svg11.dtd">
<!-- Generated by graphviz version 8.0.5 (20230430.1635)
 -->
<!-- Pages: 1 -->
<svg width="957pt" height="318pt"
 viewBox="0.00 0.00 957.25 318.00" xmlns="http://www.w3.org/2000/svg" xmlns:xlink="http://www.w3.org/1999/xlink">
<g id="graph0" class="graph" transform="scale(1 1) rotate(0) translate(4 314)">
<polygon fill="white" stroke="none" points="-4,4 -4,-314 953.25,-314 953.25,4 -4,4"/>
<!-- oop -->
<g id="node1" class="node">
<title>oop</title>
<polygon fill="cornsilk" stroke="cornsilk" points="349.25,-84 284.5,-84 284.5,-48 349.25,-48 349.25,-84"/>
<text text-anchor="start" x="292.5" y="-68.9" font-family="Verdana" font-size="8.00">Objects and</text>
<text text-anchor="start" x="301.88" y="-58.4" font-family="Verdana" font-size="8.00">Classes</text>
</g>
<!-- template -->
<g id="node2" class="node">
<title>template</title>
<polygon fill="cornsilk" stroke="cornsilk" points="448.12,-85 387.88,-85 387.88,-49 448.12,-49 448.12,-85"/>
<text text-anchor="start" x="395.88" y="-69.9" font-family="Verdana" font-size="8.00">A Template</text>
<text text-anchor="start" x="398.88" y="-59.4" font-family="Verdana" font-size="8.00">Expander</text>
</g>
<!-- oop&#45;&gt;template -->
<g id="edge1" class="edge">
<title>oop&#45;&gt;template</title>
<path fill="none" stroke="black" d="M349.51,-66.32C358.21,-66.41 367.76,-66.5 376.88,-66.6"/>
<polygon fill="black" stroke="black" points="376.65,-70.1 386.68,-66.7 376.72,-63.1 376.65,-70.1"/>
</g>
<!-- perf -->
<g id="node17" class="node">
<title>perf</title>
<polygon fill="cornsilk" stroke="cornsilk" points="553,-134 486.75,-134 486.75,-98 553,-98 553,-134"/>
<text text-anchor="start" x="494.75" y="-118.9" font-family="Verdana" font-size="8.00">Performance</text>
<text text-anchor="start" x="503.38" y="-108.4" font-family="Verdana" font-size="8.00">Profiling</text>
</g>
<!-- template&#45;&gt;perf -->
<g id="edge21" class="edge">
<title>template&#45;&gt;perf</title>
<path fill="none" stroke="black" d="M448.43,-81.44C457.31,-85.79 467.24,-90.67 476.78,-95.35"/>
<polygon fill="black" stroke="black" points="475,-98.86 485.52,-100.12 478.08,-92.58 475,-98.86"/>
</g>
<!-- dup -->
<g id="node3" class="node">
<title>dup</title>
<polygon fill="aquamarine" stroke="aquamarine" points="343.88,-141.75 289.88,-141.75 289.88,-102.25 343.88,-102.25 343.88,-141.75"/>
<text text-anchor="start" x="301.88" y="-130.15" font-family="Verdana" font-size="8.00">Finding</text>
<text text-anchor="start" x="298.12" y="-119.65" font-family="Verdana" font-size="8.00">Duplicate</text>
<text text-anchor="start" x="307.88" y="-109.15" font-family="Verdana" font-size="8.00">Files</text>
</g>
<!-- archive -->
<g id="node4" class="node">
<title>archive</title>
<polygon fill="cornsilk" stroke="cornsilk" points="445,-141 391,-141 391,-105 445,-105 445,-141"/>
<text text-anchor="start" x="407.12" y="-125.9" font-family="Verdana" font-size="8.00">A File</text>
<text text-anchor="start" x="401.12" y="-115.4" font-family="Verdana" font-size="8.00">Archiver</text>
</g>
<!-- dup&#45;&gt;archive -->
<g id="edge2" class="edge">
<title>dup&#45;&gt;archive</title>
<path fill="none" stroke="black" d="M344.18,-122.27C355.04,-122.37 367.84,-122.5 379.65,-122.62"/>
<polygon fill="black" stroke="black" points="379.54,-126.13 389.57,-122.73 379.61,-119.13 379.54,-126.13"/>
</g>
<!-- persist -->
<g id="node10" class="node">
<title>persist</title>
<polygon fill="pink" stroke="pink" points="550.75,-188 489,-188 489,-152 550.75,-152 550.75,-188"/>
<text text-anchor="start" x="506.75" y="-172.9" font-family="Verdana" font-size="8.00">Object</text>
<text text-anchor="start" x="497" y="-162.4" font-family="Verdana" font-size="8.00">Persistence</text>
</g>
<!-- archive&#45;&gt;persist -->
<g id="edge16" class="edge">
<title>archive&#45;&gt;persist</title>
<path fill="none" stroke="black" d="M445.24,-135.35C455.52,-140.19 467.55,-145.85 478.86,-151.17"/>
<polygon fill="black" stroke="black" points="477.03,-154.65 487.57,-155.74 480.01,-148.31 477.03,-154.65"/>
</g>
<!-- archive&#45;&gt;perf -->
<g id="edge15" class="edge">
<title>archive&#45;&gt;perf</title>
<path fill="none" stroke="black" d="M445.24,-121.16C454.49,-120.51 465.16,-119.76 475.45,-119.04"/>
<polygon fill="black" stroke="black" points="475.65,-122.47 485.38,-118.28 475.16,-115.49 475.65,-122.47"/>
</g>
<!-- glob -->
<g id="node5" class="node">
<title>glob</title>
<polygon fill="aquamarine" stroke="aquamarine" points="54,-310 0,-310 0,-274 54,-274 54,-310"/>
<text text-anchor="start" x="8.62" y="-294.9" font-family="Verdana" font-size="8.00">Matching</text>
<text text-anchor="start" x="10.5" y="-284.4" font-family="Verdana" font-size="8.00">Patterns</text>
</g>
<!-- parse -->
<g id="node6" class="node">
<title>parse</title>
<polygon fill="cornsilk" stroke="cornsilk" points="157,-310 91.5,-310 91.5,-274 157,-274 157,-310"/>
<text text-anchor="start" x="99.5" y="-289.65" font-family="Verdana" font-size="8.00">Parsing Text</text>
</g>
<!-- glob&#45;&gt;parse -->
<g id="edge3" class="edge">
<title>glob&#45;&gt;parse</title>
<path fill="none" stroke="black" d="M54.28,-292C62.42,-292 71.61,-292 80.57,-292"/>
<polygon fill="black" stroke="black" points="80.29,-295.5 90.29,-292 80.29,-288.5 80.29,-295.5"/>
</g>
<!-- interp -->
<g id="node7" class="node">
<title>interp</title>
<polygon fill="cornsilk" stroke="cornsilk" points="746.25,-144 686,-144 686,-108 746.25,-108 746.25,-144"/>
<text text-anchor="start" x="710.88" y="-128.9" font-family="Verdana" font-size="8.00">An</text>
<text text-anchor="start" x="694" y="-118.4" font-family="Verdana" font-size="8.00">Interpreter</text>
</g>
<!-- parse&#45;&gt;interp -->
<g id="edge4" class="edge">
<title>parse&#45;&gt;interp</title>
<path fill="none" stroke="black" d="M157.27,-294.16C195.14,-296.53 260.06,-300 315.88,-300 315.88,-300 315.88,-300 520.88,-300 607.5,-300 673.14,-202.82 700.78,-153.71"/>
<polygon fill="black" stroke="black" points="704.2,-155.74 705.95,-145.29 698.07,-152.38 704.2,-155.74"/>
</g>
<!-- viewer -->
<g id="node8" class="node">
<title>viewer</title>
<polygon fill="cornsilk" stroke="cornsilk" points="248.5,-234 194.5,-234 194.5,-198 248.5,-198 248.5,-234"/>
<text text-anchor="start" x="210.62" y="-218.9" font-family="Verdana" font-size="8.00">A File</text>
<text text-anchor="start" x="208" y="-208.4" font-family="Verdana" font-size="8.00">Viewer</text>
</g>
<!-- parse&#45;&gt;viewer -->
<g id="edge5" class="edge">
<title>parse&#45;&gt;viewer</title>
<path fill="none" stroke="black" d="M148.31,-273.6C160.5,-263.87 175.66,-251.78 188.93,-241.19"/>
<polygon fill="black" stroke="black" points="190.69,-243.46 196.32,-234.49 186.33,-237.99 190.69,-243.46"/>
</g>
<!-- check -->
<g id="node11" class="node">
<title>check</title>
<polygon fill="cornsilk" stroke="cornsilk" points="841.25,-90 787.25,-90 787.25,-54 841.25,-54 841.25,-90"/>
<text text-anchor="start" x="796.25" y="-74.9" font-family="Verdana" font-size="8.00">An HTML</text>
<text text-anchor="start" x="796.62" y="-64.4" font-family="Verdana" font-size="8.00">Validator</text>
</g>
<!-- interp&#45;&gt;check -->
<g id="edge8" class="edge">
<title>interp&#45;&gt;check</title>
<path fill="none" stroke="black" d="M746.49,-109.5C756.28,-104 767.3,-97.82 777.52,-92.07"/>
<polygon fill="black" stroke="black" points="779,-94.69 786,-86.74 775.57,-88.59 779,-94.69"/>
</g>
<!-- build -->
<g id="node12" class="node">
<title>build</title>
<polygon fill="cornsilk" stroke="cornsilk" points="841.25,-198 787.25,-198 787.25,-162 841.25,-162 841.25,-198"/>
<text text-anchor="start" x="800" y="-182.9" font-family="Verdana" font-size="8.00">A Build</text>
<text text-anchor="start" x="797" y="-172.4" font-family="Verdana" font-size="8.00">Manager</text>
</g>
<!-- interp&#45;&gt;build -->
<g id="edge9" class="edge">
<title>interp&#45;&gt;build</title>
<path fill="none" stroke="black" d="M746.49,-142.5C756.28,-148 767.3,-154.18 777.52,-159.93"/>
<polygon fill="black" stroke="black" points="775.57,-163.41 786,-165.26 779,-157.31 775.57,-163.41"/>
</g>
<!-- undo -->
<g id="node13" class="node">
<title>undo</title>
<polygon fill="pink" stroke="pink" points="841.75,-144 786.75,-144 786.75,-108 841.75,-108 841.75,-144"/>
<text text-anchor="start" x="794.75" y="-128.9" font-family="Verdana" font-size="8.00">Undo and</text>
<text text-anchor="start" x="804.5" y="-118.4" font-family="Verdana" font-size="8.00">Redo</text>
</g>
<!-- interp&#45;&gt;undo -->
<g id="edge10" class="edge">
<title>interp&#45;&gt;undo</title>
<path fill="none" stroke="black" d="M746.49,-126C755.62,-126 765.81,-126 775.43,-126"/>
<polygon fill="black" stroke="black" points="775.36,-129.5 785.36,-126 775.36,-122.5 775.36,-129.5"/>
</g>
<!-- reflect -->
<g id="node15" class="node">
<title>reflect</title>
<polygon fill="cornsilk" stroke="cornsilk" points="344.38,-234 289.38,-234 289.38,-198 344.38,-198 344.38,-234"/>
<text text-anchor="start" x="297.38" y="-213.65" font-family="Verdana" font-size="8.00">Reflection</text>
</g>
<!-- viewer&#45;&gt;reflect -->
<g id="edge28" class="edge">
<title>viewer&#45;&gt;reflect</title>
<path fill="none" stroke="black" d="M248.51,-216C257.68,-216 268.19,-216 278.14,-216"/>
<polygon fill="black" stroke="black" points="278.03,-219.5 288.03,-216 278.03,-212.5 278.03,-219.5"/>
</g>
<!-- test -->
<g id="node9" class="node">
<title>test</title>
<polygon fill="aquamarine" stroke="aquamarine" points="248.5,-132 194.5,-132 194.5,-96 248.5,-96 248.5,-132"/>
<text text-anchor="start" x="204.62" y="-116.9" font-family="Verdana" font-size="8.00">Running</text>
<text text-anchor="start" x="211" y="-106.4" font-family="Verdana" font-size="8.00">Tests</text>
</g>
<!-- test&#45;&gt;oop -->
<g id="edge6" class="edge">
<title>test&#45;&gt;oop</title>
<path fill="none" stroke="black" d="M248.51,-100.63C256.51,-96.52 265.52,-91.88 274.29,-87.38"/>
<polygon fill="black" stroke="black" points="275.73,-90.06 283.02,-82.37 272.53,-83.83 275.73,-90.06"/>
</g>
<!-- test&#45;&gt;persist -->
<g id="edge7" class="edge">
<title>test&#45;&gt;persist</title>
<path fill="none" stroke="black" d="M247.48,-132.47C258.31,-139.51 271.49,-146.84 284.5,-151 349.84,-171.89 430.38,-173.54 478.01,-172.21"/>
<polygon fill="black" stroke="black" points="477.94,-175.68 487.81,-171.84 477.7,-168.69 477.94,-175.68"/>
</g>
<!-- check&#45;&gt;template -->
<g id="edge17" class="edge">
<title>check&#45;&gt;template</title>
<path fill="none" stroke="black" d="M786.89,-71.67C719.31,-70.81 539.53,-68.53 458.99,-67.51"/>
<polygon fill="black" stroke="black" points="459.35,-64 449.31,-67.37 459.27,-71 459.35,-64"/>
</g>
<!-- lint -->
<g id="node18" class="node">
<title>lint</title>
<polygon fill="pink" stroke="pink" points="942.75,-90 888.75,-90 888.75,-54 942.75,-54 942.75,-90"/>
<text text-anchor="start" x="901.88" y="-74.9" font-family="Verdana" font-size="8.00">A Code</text>
<text text-anchor="start" x="904.12" y="-64.4" font-family="Verdana" font-size="8.00">Linter</text>
</g>
<!-- check&#45;&gt;lint -->
<g id="edge18" class="edge">
<title>check&#45;&gt;lint</title>
<path fill="none" stroke="black" d="M841.65,-72C852.76,-72 865.88,-72 877.91,-72"/>
<polygon fill="black" stroke="black" points="877.57,-75.5 887.57,-72 877.57,-68.5 877.57,-75.5"/>
</g>
<!-- layout -->
<g id="node19" class="node">
<title>layout</title>
<polygon fill="pink" stroke="pink" points="947.75,-36 883.75,-36 883.75,0 947.75,0 947.75,-36"/>
<text text-anchor="start" x="891.75" y="-15.65" font-family="Verdana" font-size="8.00">Page Layout</text>
</g>
<!-- check&#45;&gt;layout -->
<g id="edge19" class="edge">
<title>check&#45;&gt;layout</title>
<path fill="none" stroke="black" d="M841.65,-57.67C851.54,-52.31 863.01,-46.08 873.9,-40.17"/>
<polygon fill="black" stroke="black" points="875.14,-42.93 882.26,-35.09 871.81,-36.78 875.14,-42.93"/>
</g>
<!-- http -->
<g id="node20" class="node">
<title>http</title>
<polygon fill="pink" stroke="pink" points="949.25,-144 882.25,-144 882.25,-108 949.25,-108 949.25,-144"/>
<text text-anchor="start" x="890.25" y="-128.9" font-family="Verdana" font-size="8.00">Serving Web</text>
<text text-anchor="start" x="904.12" y="-118.4" font-family="Verdana" font-size="8.00">Pages</text>
</g>
<!-- check&#45;&gt;http -->
<g id="edge20" class="edge">
<title>check&#45;&gt;http</title>
<path fill="none" stroke="black" d="M841.65,-86.33C851.09,-91.45 861.97,-97.35 872.4,-103.02"/>
<polygon fill="black" stroke="black" points="870.35,-106.43 880.81,-108.12 873.69,-100.28 870.35,-106.43"/>
</g>
<!-- pack -->
<g id="node24" class="node">
<title>pack</title>
<polygon fill="pink" stroke="pink" points="944,-198 887.5,-198 887.5,-162 944,-162 944,-198"/>
<text text-anchor="start" x="895.5" y="-182.9" font-family="Verdana" font-size="8.00">A Package</text>
<text text-anchor="start" x="898.5" y="-172.4" font-family="Verdana" font-size="8.00">Manager</text>
</g>
<!-- build&#45;&gt;pack -->
<g id="edge27" class="edge">
<title>build&#45;&gt;pack</title>
<path fill="none" stroke="black" d="M841.65,-180C852.3,-180 864.79,-180 876.4,-180"/>
<polygon fill="black" stroke="black" points="876.18,-183.5 886.18,-180 876.18,-176.5 876.18,-183.5"/>
</g>
<!-- func -->
<g id="node14" class="node">
<title>func</title>
<polygon fill="aquamarine" stroke="aquamarine" points="158.5,-116 90,-116 90,-80 158.5,-80 158.5,-116"/>
<text text-anchor="start" x="104.75" y="-100.9" font-family="Verdana" font-size="8.00">Functions</text>
<text text-anchor="start" x="98" y="-90.4" font-family="Verdana" font-size="8.00">and Closures</text>
</g>
<!-- func&#45;&gt;template -->
<g id="edge11" class="edge">
<title>func&#45;&gt;template</title>
<path fill="none" stroke="black" d="M158.74,-81.6C190.31,-67.12 239.37,-47.09 284.5,-39 312.83,-33.92 321.02,-33.4 349.25,-39 358.68,-40.87 368.45,-44.08 377.53,-47.67"/>
<polygon fill="black" stroke="black" points="375.87,-51.19 386.44,-51.83 378.58,-44.73 375.87,-51.19"/>
</g>
<!-- func&#45;&gt;viewer -->
<g id="edge12" class="edge">
<title>func&#45;&gt;viewer</title>
<path fill="none" stroke="black" d="M140.13,-116.44C155.93,-136.01 181.04,-167.12 198.99,-189.35"/>
<polygon fill="black" stroke="black" points="196.72,-191.11 205.72,-196.69 202.16,-186.71 196.72,-191.11"/>
</g>
<!-- reflect&#45;&gt;archive -->
<g id="edge13" class="edge">
<title>reflect&#45;&gt;archive</title>
<path fill="none" stroke="black" d="M337.46,-197.63C352.39,-183.61 373.14,-164.15 389.71,-148.61"/>
<polygon fill="black" stroke="black" points="391.56,-151.73 396.46,-142.34 386.77,-146.63 391.56,-151.73"/>
</g>
<!-- ftp -->
<g id="node16" class="node">
<title>ftp</title>
<polygon fill="pink" stroke="pink" points="450.75,-234 385.25,-234 385.25,-198 450.75,-198 450.75,-234"/>
<text text-anchor="start" x="393.25" y="-218.9" font-family="Verdana" font-size="8.00">Transferring</text>
<text text-anchor="start" x="409" y="-208.4" font-family="Verdana" font-size="8.00">Files</text>
</g>
<!-- reflect&#45;&gt;ftp -->
<g id="edge14" class="edge">
<title>reflect&#45;&gt;ftp</title>
<path fill="none" stroke="black" d="M344.7,-216C353.7,-216 363.97,-216 373.9,-216"/>
<polygon fill="black" stroke="black" points="373.86,-219.5 383.86,-216 373.86,-212.5 373.86,-219.5"/>
</g>
<!-- db -->
<g id="node21" class="node">
<title>db</title>
<polygon fill="cornsilk" stroke="cornsilk" points="650,-139 589,-139 589,-103 650,-103 650,-139"/>
<text text-anchor="start" x="597" y="-118.65" font-family="Verdana" font-size="8.00">A Database</text>
</g>
<!-- perf&#45;&gt;db -->
<g id="edge22" class="edge">
<title>perf&#45;&gt;db</title>
<path fill="none" stroke="black" d="M553.38,-117.66C561.24,-118.07 569.73,-118.5 577.91,-118.92"/>
<polygon fill="black" stroke="black" points="577.6,-122.46 587.77,-119.48 577.96,-115.47 577.6,-122.46"/>
</g>
<!-- db&#45;&gt;interp -->
<g id="edge25" class="edge">
<title>db&#45;&gt;interp</title>
<path fill="none" stroke="black" d="M650.44,-122.58C658.18,-122.99 666.65,-123.44 674.82,-123.87"/>
<polygon fill="black" stroke="black" points="674.53,-127.41 684.7,-124.45 674.9,-120.42 674.53,-127.41"/>
</g>
<!-- vm -->
<g id="node23" class="node">
<title>vm</title>
<polygon fill="cornsilk" stroke="cornsilk" points="743.12,-40 689.12,-40 689.12,-4 743.12,-4 743.12,-40"/>
<text text-anchor="start" x="698.88" y="-24.9" font-family="Verdana" font-size="8.00">A Virtual</text>
<text text-anchor="start" x="699.62" y="-14.4" font-family="Verdana" font-size="8.00">Machine</text>
</g>
<!-- db&#45;&gt;vm -->
<g id="edge26" class="edge">
<title>db&#45;&gt;vm</title>
<path fill="none" stroke="black" d="M637.86,-102.84C652.57,-87.45 673.85,-65.19 690.35,-47.92"/>
<polygon fill="black" stroke="black" points="692.18,-51.03 696.56,-41.38 687.12,-46.19 692.18,-51.03"/>
</g>
<!-- binary -->
<g id="node22" class="node">
<title>binary</title>
<polygon fill="aquamarine" stroke="aquamarine" points="155.5,-241 93,-241 93,-205 155.5,-205 155.5,-241"/>
<text text-anchor="start" x="101" y="-220.65" font-family="Verdana" font-size="8.00">Binary Data</text>
</g>
<!-- binary&#45;&gt;viewer -->
<g id="edge24" class="edge">
<title>binary&#45;&gt;viewer</title>
<path fill="none" stroke="black" d="M155.91,-220.75C164.65,-220.1 174.26,-219.4 183.34,-218.73"/>
<polygon fill="black" stroke="black" points="183.34,-222.17 193.06,-217.94 182.83,-215.19 183.34,-222.17"/>
</g>
<!-- binary&#45;&gt;db -->
<g id="edge23" class="edge">
<title>binary&#45;&gt;db</title>
<path fill="none" stroke="black" d="M155.89,-233.25C193.23,-244.8 258.45,-262 315.88,-262 315.88,-262 315.88,-262 419,-262 497.24,-262 566.31,-188.79 598.8,-147.88"/>
<polygon fill="black" stroke="black" points="601.99,-150.48 605.35,-140.43 596.46,-146.19 601.99,-150.48"/>
</g>
<!-- debugger -->
<g id="node25" class="node">
<title>debugger</title>
<polygon fill="pink" stroke="pink" points="846.25,-36 782.25,-36 782.25,0 846.25,0 846.25,-36"/>
<text text-anchor="start" x="790.25" y="-15.65" font-family="Verdana" font-size="8.00">A Debugger</text>
</g>
<!-- vm&#45;&gt;debugger -->
<g id="edge29" class="edge">
<title>vm&#45;&gt;debugger</title>
<path fill="none" stroke="black" d="M743.39,-20.91C751.94,-20.55 761.66,-20.15 771.07,-19.76"/>
<polygon fill="black" stroke="black" points="771.05,-23.22 780.89,-19.3 770.75,-16.22 771.05,-23.22"/>
</g>
</g>
</svg>
