<?xml version="1.0" encoding="UTF-8" standalone="no"?>
<!DOCTYPE svg PUBLIC "-//W3C//DTD SVG 1.1//EN"
 "http://www.w3.org/Graphics/SVG/1.1/DTD/svg11.dtd">
<!-- Generated by graphviz version 8.0.5 (20230430.1635)
 -->
<!-- Pages: 1 -->
<svg width="2356pt" height="366pt"
 viewBox="0.00 0.00 2355.75 366.00" xmlns="http://www.w3.org/2000/svg" xmlns:xlink="http://www.w3.org/1999/xlink">
<g id="graph0" class="graph" transform="scale(1 1) rotate(0) translate(4 362)">
<polygon fill="white" stroke="none" points="-4,4 -4,-362 2351.75,-362 2351.75,4 -4,4"/>
<!-- oop -->
<g id="node1" class="node">
<title>oop</title>
<polygon fill="aquamarine" stroke="aquamarine" points="64.75,-132 0,-132 0,-96 64.75,-96 64.75,-132"/>
<text text-anchor="start" x="8" y="-116.9" font-family="Verdana" font-size="8.00">Objects and</text>
<text text-anchor="start" x="17.38" y="-106.4" font-family="Verdana" font-size="8.00">Classes</text>
</g>
<!-- dup -->
<g id="node2" class="node">
<title>dup</title>
<polygon fill="aquamarine" stroke="aquamarine" points="154.75,-71.75 100.75,-71.75 100.75,-32.25 154.75,-32.25 154.75,-71.75"/>
<text text-anchor="start" x="112.75" y="-60.15" font-family="Verdana" font-size="8.00">Finding</text>
<text text-anchor="start" x="109" y="-49.65" font-family="Verdana" font-size="8.00">Duplicate</text>
<text text-anchor="start" x="118.75" y="-39.15" font-family="Verdana" font-size="8.00">Files</text>
</g>
<!-- oop&#45;&gt;dup -->
<g id="edge31" class="edge">
<title>oop&#45;&gt;dup</title>
<path fill="none" stroke="black" stroke-dasharray="5,2" d="M61.14,-95.57C73.61,-87.28 88.25,-77.56 100.53,-69.41"/>
</g>
<!-- interp -->
<g id="node6" class="node">
<title>interp</title>
<polygon fill="cornsilk" stroke="cornsilk" points="532.5,-268 472.25,-268 472.25,-232 532.5,-232 532.5,-268"/>
<text text-anchor="start" x="497.12" y="-252.9" font-family="Verdana" font-size="8.00">An</text>
<text text-anchor="start" x="480.25" y="-242.4" font-family="Verdana" font-size="8.00">Interpreter</text>
</g>
<!-- oop&#45;&gt;interp -->
<g id="edge3" class="edge">
<title>oop&#45;&gt;interp</title>
<path fill="none" stroke="black" d="M41.21,-132.45C62.22,-178.72 124.57,-296 216.75,-296 216.75,-296 216.75,-296 314.5,-296 369.27,-296 383.53,-291.81 436.25,-277 444.62,-274.65 453.35,-271.52 461.61,-268.24"/>
<polygon fill="black" stroke="black" points="462.86,-271.1 470.75,-264.03 460.17,-264.63 462.86,-271.1"/>
</g>
<!-- reflect -->
<g id="node8" class="node">
<title>reflect</title>
<polygon fill="cornsilk" stroke="cornsilk" points="728,-140 673,-140 673,-104 728,-104 728,-140"/>
<text text-anchor="start" x="681" y="-119.65" font-family="Verdana" font-size="8.00">Reflection</text>
</g>
<!-- oop&#45;&gt;reflect -->
<g id="edge6" class="edge">
<title>oop&#45;&gt;reflect</title>
<path fill="none" stroke="black" d="M65.18,-114C101.75,-114 163.58,-114 216.75,-114 216.75,-114 216.75,-114 503.38,-114 558.43,-114 622.1,-117.19 661.59,-119.54"/>
<polygon fill="black" stroke="black" points="661.35,-123.09 671.55,-120.2 661.78,-116.1 661.35,-123.09"/>
</g>
<!-- glob -->
<g id="node3" class="node">
<title>glob</title>
<polygon fill="aquamarine" stroke="aquamarine" points="244.75,-201 190.75,-201 190.75,-165 244.75,-165 244.75,-201"/>
<text text-anchor="start" x="199.38" y="-185.9" font-family="Verdana" font-size="8.00">Matching</text>
<text text-anchor="start" x="201.25" y="-175.4" font-family="Verdana" font-size="8.00">Patterns</text>
</g>
<!-- dup&#45;&gt;glob -->
<g id="edge32" class="edge">
<title>dup&#45;&gt;glob</title>
<path fill="none" stroke="black" stroke-dasharray="5,2" d="M142.31,-72.18C159.28,-97.44 188.1,-140.35 204.46,-164.7"/>
</g>
<!-- archive -->
<g id="node9" class="node">
<title>archive</title>
<polygon fill="cornsilk" stroke="cornsilk" points="818,-94 764,-94 764,-58 818,-58 818,-94"/>
<text text-anchor="start" x="780.12" y="-78.9" font-family="Verdana" font-size="8.00">A File</text>
<text text-anchor="start" x="774.12" y="-68.4" font-family="Verdana" font-size="8.00">Archiver</text>
</g>
<!-- dup&#45;&gt;archive -->
<g id="edge9" class="edge">
<title>dup&#45;&gt;archive</title>
<path fill="none" stroke="black" d="M155.18,-48.72C190.83,-44.58 256.35,-38 312.5,-38 312.5,-38 312.5,-38 603.75,-38 656.46,-38 715.91,-52.79 753.16,-63.92"/>
<polygon fill="black" stroke="black" points="751.93,-67.51 762.51,-67.09 753.98,-60.82 751.93,-67.51"/>
</g>
<!-- pack -->
<g id="node19" class="node">
<title>pack</title>
<polygon fill="pink" stroke="pink" points="1772.25,-155 1715.75,-155 1715.75,-119 1772.25,-119 1772.25,-155"/>
<text text-anchor="start" x="1723.75" y="-139.9" font-family="Verdana" font-size="8.00">A Package</text>
<text text-anchor="start" x="1726.75" y="-129.4" font-family="Verdana" font-size="8.00">Manager</text>
</g>
<!-- dup&#45;&gt;pack -->
<g id="edge23" class="edge">
<title>dup&#45;&gt;pack</title>
<path fill="none" stroke="black" d="M155.17,-39.54C190.29,-24.16 254.65,0 312.5,0 312.5,0 312.5,0 1560.25,0 1632.72,0 1694.86,-69.83 1724.48,-109.78"/>
<polygon fill="black" stroke="black" points="1722.11,-111.47 1730.8,-117.52 1727.78,-107.37 1722.11,-111.47"/>
</g>
<!-- parse -->
<g id="node4" class="node">
<title>parse</title>
<polygon fill="cornsilk" stroke="cornsilk" points="346.25,-220 280.75,-220 280.75,-184 346.25,-184 346.25,-220"/>
<text text-anchor="start" x="288.75" y="-199.65" font-family="Verdana" font-size="8.00">Parsing Text</text>
</g>
<!-- glob&#45;&gt;parse -->
<g id="edge1" class="edge">
<title>glob&#45;&gt;parse</title>
<path fill="none" stroke="black" d="M244.86,-182.17C252.64,-183.24 261.36,-184.81 269.9,-186.64"/>
<polygon fill="black" stroke="black" points="268.99,-190.25 279.52,-189.08 270.56,-183.43 268.99,-190.25"/>
</g>
<!-- glob&#45;&gt;parse -->
<g id="edge33" class="edge">
<title>glob&#45;&gt;parse</title>
<path fill="none" stroke="black" stroke-dasharray="5,2" d="M244.86,-194.42C255.92,-197.37 268.9,-200.1 280.52,-201.96"/>
</g>
<!-- glob&#45;&gt;archive -->
<g id="edge8" class="edge">
<title>glob&#45;&gt;archive</title>
<path fill="none" stroke="black" d="M245.07,-177.61C314.75,-163.41 509.89,-124.04 673,-95 699.81,-90.23 730.17,-85.31 753.24,-81.68"/>
<polygon fill="black" stroke="black" points="753.6,-85.01 762.94,-80 752.52,-78.09 753.6,-85.01"/>
</g>
<!-- test -->
<g id="node5" class="node">
<title>test</title>
<polygon fill="aquamarine" stroke="aquamarine" points="436.25,-268 382.25,-268 382.25,-232 436.25,-232 436.25,-268"/>
<text text-anchor="start" x="392.38" y="-252.9" font-family="Verdana" font-size="8.00">Running</text>
<text text-anchor="start" x="398.75" y="-242.4" font-family="Verdana" font-size="8.00">Tests</text>
</g>
<!-- parse&#45;&gt;test -->
<g id="edge34" class="edge">
<title>parse&#45;&gt;test</title>
<path fill="none" stroke="black" stroke-dasharray="5,2" d="M346.5,-218.38C358.06,-224.31 370.98,-230.92 381.99,-236.56"/>
</g>
<!-- check -->
<g id="node10" class="node">
<title>check</title>
<polygon fill="cornsilk" stroke="cornsilk" points="908,-212 854,-212 854,-176 908,-176 908,-212"/>
<text text-anchor="start" x="863" y="-196.9" font-family="Verdana" font-size="8.00">An HTML</text>
<text text-anchor="start" x="863.38" y="-186.4" font-family="Verdana" font-size="8.00">Validator</text>
</g>
<!-- parse&#45;&gt;check -->
<g id="edge10" class="edge">
<title>parse&#45;&gt;check</title>
<path fill="none" stroke="black" d="M346.52,-201.55C444.26,-200.16 738.4,-196 842.77,-194.53"/>
<polygon fill="black" stroke="black" points="842.74,-198.01 852.69,-194.37 842.64,-191.01 842.74,-198.01"/>
</g>
<!-- test&#45;&gt;interp -->
<g id="edge2" class="edge">
<title>test&#45;&gt;interp</title>
<path fill="none" stroke="black" d="M436.61,-243.81C444.2,-243.34 452.66,-243.17 460.89,-243.29"/>
<polygon fill="black" stroke="black" points="460.77,-246.82 470.88,-243.64 460.99,-239.82 460.77,-246.82"/>
</g>
<!-- test&#45;&gt;interp -->
<g id="edge35" class="edge">
<title>test&#45;&gt;interp</title>
<path fill="none" stroke="black" stroke-dasharray="5,2" d="M436.61,-256.19C447.65,-256.87 460.52,-256.93 471.88,-256.36"/>
</g>
<!-- func -->
<g id="node7" class="node">
<title>func</title>
<polygon fill="cornsilk" stroke="cornsilk" points="637,-178 568.5,-178 568.5,-142 637,-142 637,-178"/>
<text text-anchor="start" x="583.25" y="-162.9" font-family="Verdana" font-size="8.00">Functions</text>
<text text-anchor="start" x="576.5" y="-152.4" font-family="Verdana" font-size="8.00">and Closures</text>
</g>
<!-- interp&#45;&gt;func -->
<g id="edge4" class="edge">
<title>interp&#45;&gt;func</title>
<path fill="none" stroke="black" d="M517.89,-231.76C530.75,-218.35 550.05,-200.18 566.89,-185.41"/>
<polygon fill="black" stroke="black" points="568.64,-187.65 573.92,-178.46 564.06,-182.36 568.64,-187.65"/>
</g>
<!-- interp&#45;&gt;func -->
<g id="edge36" class="edge">
<title>interp&#45;&gt;func</title>
<path fill="none" stroke="black" stroke-dasharray="5,2" d="M530,-231.72C548.32,-216.13 571.98,-194.13 587.01,-178.47"/>
</g>
<!-- template -->
<g id="node11" class="node">
<title>template</title>
<polygon fill="cornsilk" stroke="cornsilk" points="1004.25,-254 944,-254 944,-218 1004.25,-218 1004.25,-254"/>
<text text-anchor="start" x="952" y="-238.9" font-family="Verdana" font-size="8.00">A Template</text>
<text text-anchor="start" x="955" y="-228.4" font-family="Verdana" font-size="8.00">Expander</text>
</g>
<!-- interp&#45;&gt;template -->
<g id="edge12" class="edge">
<title>interp&#45;&gt;template</title>
<path fill="none" stroke="black" d="M532.94,-248.53C571.32,-246.76 640.4,-244 699.5,-244 699.5,-244 699.5,-244 792,-244 840.49,-244 896.22,-241.1 932.91,-238.8"/>
<polygon fill="black" stroke="black" points="932.9,-242.24 942.65,-238.1 932.45,-235.25 932.9,-242.24"/>
</g>
<!-- persist -->
<g id="node15" class="node">
<title>persist</title>
<polygon fill="cornsilk" stroke="cornsilk" points="1394.25,-216 1332.5,-216 1332.5,-180 1394.25,-180 1394.25,-216"/>
<text text-anchor="start" x="1350.25" y="-200.9" font-family="Verdana" font-size="8.00">Object</text>
<text text-anchor="start" x="1340.5" y="-190.4" font-family="Verdana" font-size="8.00">Persistence</text>
</g>
<!-- interp&#45;&gt;persist -->
<g id="edge17" class="edge">
<title>interp&#45;&gt;persist</title>
<path fill="none" stroke="black" d="M532.78,-267.66C570.16,-288.4 637.32,-320 699.5,-320 699.5,-320 699.5,-320 1163.25,-320 1236.18,-320 1304.94,-259.76 1339.38,-223.94"/>
<polygon fill="black" stroke="black" points="1341.29,-226.95 1345.59,-217.26 1336.19,-222.15 1341.29,-226.95"/>
</g>
<!-- vm -->
<g id="node24" class="node">
<title>vm</title>
<polygon fill="cornsilk" stroke="cornsilk" points="2247.75,-277 2193.75,-277 2193.75,-241 2247.75,-241 2247.75,-277"/>
<text text-anchor="start" x="2203.5" y="-261.9" font-family="Verdana" font-size="8.00">A Virtual</text>
<text text-anchor="start" x="2204.25" y="-251.4" font-family="Verdana" font-size="8.00">Machine</text>
</g>
<!-- interp&#45;&gt;vm -->
<g id="edge28" class="edge">
<title>interp&#45;&gt;vm</title>
<path fill="none" stroke="black" d="M518.27,-268.25C530.49,-282.19 548.92,-301 568.5,-313 620.99,-345.17 637.94,-358 699.5,-358 699.5,-358 699.5,-358 2040.75,-358 2101.64,-358 2161.27,-313.59 2194.01,-284.25"/>
<polygon fill="black" stroke="black" points="2195.74,-287.5 2200.73,-278.16 2191,-282.34 2195.74,-287.5"/>
</g>
<!-- func&#45;&gt;reflect -->
<g id="edge5" class="edge">
<title>func&#45;&gt;reflect</title>
<path fill="none" stroke="black" d="M634.31,-141.53C643.3,-137.52 653.22,-133.5 662.56,-130.07"/>
<polygon fill="black" stroke="black" points="663.51,-133.1 671.78,-126.48 661.18,-126.49 663.51,-133.1"/>
</g>
<!-- func&#45;&gt;reflect -->
<g id="edge37" class="edge">
<title>func&#45;&gt;reflect</title>
<path fill="none" stroke="black" stroke-dasharray="5,2" d="M637.24,-153.18C648.78,-149.06 661.55,-143.88 672.51,-138.86"/>
</g>
<!-- reflect&#45;&gt;archive -->
<g id="edge7" class="edge">
<title>reflect&#45;&gt;archive</title>
<path fill="none" stroke="black" d="M725.22,-103.62C734.03,-98.39 744.25,-92.89 753.92,-88.11"/>
<polygon fill="black" stroke="black" points="755.21,-90.89 762.72,-83.43 752.19,-84.58 755.21,-90.89"/>
</g>
<!-- reflect&#45;&gt;archive -->
<g id="edge38" class="edge">
<title>reflect&#45;&gt;archive</title>
<path fill="none" stroke="black" stroke-dasharray="5,2" d="M728.05,-114.44C740.17,-108.87 754.41,-101.41 766.18,-94.45"/>
</g>
<!-- perf -->
<g id="node14" class="node">
<title>perf</title>
<polygon fill="pink" stroke="pink" points="1296.5,-216 1230.25,-216 1230.25,-180 1296.5,-180 1296.5,-216"/>
<text text-anchor="start" x="1238.25" y="-200.9" font-family="Verdana" font-size="8.00">Performance</text>
<text text-anchor="start" x="1246.88" y="-190.4" font-family="Verdana" font-size="8.00">Profiling</text>
</g>
<!-- reflect&#45;&gt;perf -->
<g id="edge16" class="edge">
<title>reflect&#45;&gt;perf</title>
<path fill="none" stroke="black" d="M717.9,-140.35C757.37,-182.38 862.57,-282 973.12,-282 973.12,-282 973.12,-282 1068.25,-282 1128.68,-282 1191.63,-247.29 1228.89,-222.5"/>
<polygon fill="black" stroke="black" points="1230.5,-224.96 1236.8,-216.43 1226.56,-219.17 1230.5,-224.96"/>
</g>
<!-- db -->
<g id="node17" class="node">
<title>db</title>
<polygon fill="pink" stroke="pink" points="1589.75,-193 1528.75,-193 1528.75,-157 1589.75,-157 1589.75,-193"/>
<text text-anchor="start" x="1536.75" y="-172.65" font-family="Verdana" font-size="8.00">A Database</text>
</g>
<!-- reflect&#45;&gt;db -->
<g id="edge19" class="edge">
<title>reflect&#45;&gt;db</title>
<path fill="none" stroke="black" d="M728.49,-121C788.96,-118.86 939.89,-114 1066.25,-114 1066.25,-114 1066.25,-114 1364.38,-114 1419.76,-114 1480.12,-136.93 1518.53,-154.68"/>
<polygon fill="black" stroke="black" points="1516.74,-158.18 1527.28,-159.29 1519.74,-151.85 1516.74,-158.18"/>
</g>
<!-- archive&#45;&gt;check -->
<g id="edge39" class="edge">
<title>archive&#45;&gt;check</title>
<path fill="none" stroke="black" stroke-dasharray="5,2" d="M805.75,-94.44C822.28,-116.61 849.86,-153.58 866.35,-175.69"/>
</g>
<!-- ftp -->
<g id="node20" class="node">
<title>ftp</title>
<polygon fill="cornsilk" stroke="cornsilk" points="1873.75,-155 1808.25,-155 1808.25,-119 1873.75,-119 1873.75,-155"/>
<text text-anchor="start" x="1816.25" y="-139.9" font-family="Verdana" font-size="8.00">Transferring</text>
<text text-anchor="start" x="1832" y="-129.4" font-family="Verdana" font-size="8.00">Files</text>
</g>
<!-- archive&#45;&gt;ftp -->
<g id="edge24" class="edge">
<title>archive&#45;&gt;ftp</title>
<path fill="none" stroke="black" d="M818.4,-76C853.66,-76 918.1,-76 973.12,-76 973.12,-76 973.12,-76 1653.75,-76 1705.38,-76 1761.24,-97.43 1798.17,-114.89"/>
<polygon fill="black" stroke="black" points="1796.54,-118.47 1807.07,-119.68 1799.6,-112.17 1796.54,-118.47"/>
</g>
<!-- check&#45;&gt;template -->
<g id="edge11" class="edge">
<title>check&#45;&gt;template</title>
<path fill="none" stroke="black" d="M908.36,-199.96C917.25,-203.51 927.34,-208.01 936.87,-212.66"/>
<polygon fill="black" stroke="black" points="935.01,-216.15 945.51,-217.53 938.16,-209.9 935.01,-216.15"/>
</g>
<!-- check&#45;&gt;template -->
<g id="edge40" class="edge">
<title>check&#45;&gt;template</title>
<path fill="none" stroke="black" stroke-dasharray="5,2" d="M908.36,-212.33C919.4,-218.11 932.27,-224.1 943.63,-228.77"/>
</g>
<!-- lint -->
<g id="node12" class="node">
<title>lint</title>
<polygon fill="pink" stroke="pink" points="1094.25,-216 1040.25,-216 1040.25,-180 1094.25,-180 1094.25,-216"/>
<text text-anchor="start" x="1053.38" y="-200.9" font-family="Verdana" font-size="8.00">A Code</text>
<text text-anchor="start" x="1055.62" y="-190.4" font-family="Verdana" font-size="8.00">Linter</text>
</g>
<!-- check&#45;&gt;lint -->
<g id="edge13" class="edge">
<title>check&#45;&gt;lint</title>
<path fill="none" stroke="black" d="M908.4,-194.57C940,-195.26 993.14,-196.41 1028.94,-197.19"/>
<polygon fill="black" stroke="black" points="1028.83,-200.71 1038.9,-197.43 1028.98,-193.71 1028.83,-200.71"/>
</g>
<!-- layout -->
<g id="node13" class="node">
<title>layout</title>
<polygon fill="pink" stroke="pink" points="1194.25,-216 1130.25,-216 1130.25,-180 1194.25,-180 1194.25,-216"/>
<text text-anchor="start" x="1138.25" y="-195.65" font-family="Verdana" font-size="8.00">Page Layout</text>
</g>
<!-- check&#45;&gt;layout -->
<g id="edge14" class="edge">
<title>check&#45;&gt;layout</title>
<path fill="none" stroke="black" d="M908.35,-186.13C948.69,-175.2 1028.03,-158.16 1094.25,-171 1102.73,-172.65 1111.5,-175.36 1119.79,-178.45"/>
<polygon fill="black" stroke="black" points="1118.39,-182.06 1128.98,-182.51 1120.99,-175.56 1118.39,-182.06"/>
</g>
<!-- template&#45;&gt;lint -->
<g id="edge41" class="edge">
<title>template&#45;&gt;lint</title>
<path fill="none" stroke="black" stroke-dasharray="5,2" d="M1004.71,-223.66C1016.04,-218.94 1028.88,-213.58 1039.89,-208.99"/>
</g>
<!-- template&#45;&gt;layout -->
<g id="edge15" class="edge">
<title>template&#45;&gt;layout</title>
<path fill="none" stroke="black" d="M1004.4,-235.66C1028.75,-234.81 1064.17,-232.28 1094.25,-225 1102.65,-222.97 1111.38,-220.07 1119.66,-216.93"/>
<polygon fill="black" stroke="black" points="1120.85,-219.82 1128.84,-212.85 1118.25,-213.32 1120.85,-219.82"/>
</g>
<!-- lint&#45;&gt;layout -->
<g id="edge42" class="edge">
<title>lint&#45;&gt;layout</title>
<path fill="none" stroke="black" stroke-dasharray="5,2" d="M1094.65,-198C1105.61,-198 1118.4,-198 1129.84,-198"/>
</g>
<!-- layout&#45;&gt;perf -->
<g id="edge43" class="edge">
<title>layout&#45;&gt;perf</title>
<path fill="none" stroke="black" stroke-dasharray="5,2" d="M1194.61,-198C1205.84,-198 1218.52,-198 1229.85,-198"/>
</g>
<!-- perf&#45;&gt;persist -->
<g id="edge44" class="edge">
<title>perf&#45;&gt;persist</title>
<path fill="none" stroke="black" stroke-dasharray="5,2" d="M1296.74,-198C1308.11,-198 1320.84,-198 1332.04,-198"/>
</g>
<!-- binary -->
<g id="node16" class="node">
<title>binary</title>
<polygon fill="cornsilk" stroke="cornsilk" points="1492.75,-216 1430.25,-216 1430.25,-180 1492.75,-180 1492.75,-216"/>
<text text-anchor="start" x="1438.25" y="-195.65" font-family="Verdana" font-size="8.00">Binary Data</text>
</g>
<!-- persist&#45;&gt;binary -->
<g id="edge18" class="edge">
<title>persist&#45;&gt;binary</title>
<path fill="none" stroke="black" d="M1394.53,-191.69C1402.25,-191.29 1410.69,-191.17 1418.88,-191.3"/>
<polygon fill="black" stroke="black" points="1418.69,-194.83 1428.79,-191.66 1418.91,-187.84 1418.69,-194.83"/>
</g>
<!-- persist&#45;&gt;binary -->
<g id="edge45" class="edge">
<title>persist&#45;&gt;binary</title>
<path fill="none" stroke="black" stroke-dasharray="5,2" d="M1394.53,-204.31C1405.76,-204.89 1418.51,-204.89 1429.79,-204.34"/>
</g>
<!-- persist&#45;&gt;db -->
<g id="edge21" class="edge">
<title>persist&#45;&gt;db</title>
<path fill="none" stroke="black" d="M1394.44,-182.8C1405.42,-178.03 1418.12,-173.39 1430.25,-171 1459.13,-165.31 1492.38,-166.58 1517.75,-169.12"/>
<polygon fill="black" stroke="black" points="1517.13,-172.69 1527.46,-170.32 1517.91,-165.73 1517.13,-172.69"/>
</g>
<!-- build -->
<g id="node18" class="node">
<title>build</title>
<polygon fill="pink" stroke="pink" points="1679.75,-193 1625.75,-193 1625.75,-157 1679.75,-157 1679.75,-193"/>
<text text-anchor="start" x="1638.5" y="-177.9" font-family="Verdana" font-size="8.00">A Build</text>
<text text-anchor="start" x="1635.5" y="-167.4" font-family="Verdana" font-size="8.00">Manager</text>
</g>
<!-- persist&#45;&gt;build -->
<g id="edge22" class="edge">
<title>persist&#45;&gt;build</title>
<path fill="none" stroke="black" d="M1394.44,-213.2C1405.42,-217.97 1418.12,-222.61 1430.25,-225 1495.78,-237.91 1571.58,-211.83 1615.37,-192.72"/>
<polygon fill="black" stroke="black" points="1616.57,-195.57 1624.26,-188.28 1613.7,-189.18 1616.57,-195.57"/>
</g>
<!-- binary&#45;&gt;db -->
<g id="edge20" class="edge">
<title>binary&#45;&gt;db</title>
<path fill="none" stroke="black" d="M1493.06,-184.32C1500.9,-182.05 1509.45,-179.88 1517.71,-178.06"/>
<polygon fill="black" stroke="black" points="1518.22,-181.32 1527.31,-175.88 1516.81,-174.47 1518.22,-181.32"/>
</g>
<!-- binary&#45;&gt;db -->
<g id="edge46" class="edge">
<title>binary&#45;&gt;db</title>
<path fill="none" stroke="black" stroke-dasharray="5,2" d="M1493.06,-197C1504.33,-194.85 1517.09,-191.77 1528.31,-188.5"/>
</g>
<!-- binary&#45;&gt;vm -->
<g id="edge27" class="edge">
<title>binary&#45;&gt;vm</title>
<path fill="none" stroke="black" d="M1486.39,-216.43C1520.89,-241.16 1587.58,-282 1651.75,-282 1651.75,-282 1651.75,-282 2040.75,-282 2090.3,-282 2146.94,-273.22 2183,-266.51"/>
<polygon fill="black" stroke="black" points="2183.33,-269.82 2192.5,-264.51 2182.02,-262.95 2183.33,-269.82"/>
</g>
<!-- db&#45;&gt;build -->
<g id="edge47" class="edge">
<title>db&#45;&gt;build</title>
<path fill="none" stroke="black" stroke-dasharray="5,2" d="M1590.21,-175C1601.57,-175 1614.42,-175 1625.42,-175"/>
</g>
<!-- build&#45;&gt;pack -->
<g id="edge48" class="edge">
<title>build&#45;&gt;pack</title>
<path fill="none" stroke="black" stroke-dasharray="5,2" d="M1680.05,-163.8C1691.15,-159.08 1704.09,-153.57 1715.34,-148.78"/>
</g>
<!-- pack&#45;&gt;ftp -->
<g id="edge49" class="edge">
<title>pack&#45;&gt;ftp</title>
<path fill="none" stroke="black" stroke-dasharray="5,2" d="M1772.73,-137C1783.8,-137 1796.6,-137 1808.05,-137"/>
</g>
<!-- http -->
<g id="node21" class="node">
<title>http</title>
<polygon fill="pink" stroke="pink" points="1976.75,-155 1909.75,-155 1909.75,-119 1976.75,-119 1976.75,-155"/>
<text text-anchor="start" x="1917.75" y="-139.9" font-family="Verdana" font-size="8.00">Serving Web</text>
<text text-anchor="start" x="1931.62" y="-129.4" font-family="Verdana" font-size="8.00">Pages</text>
</g>
<!-- ftp&#45;&gt;http -->
<g id="edge25" class="edge">
<title>ftp&#45;&gt;http</title>
<path fill="none" stroke="black" d="M1874,-130.66C1881.88,-130.29 1890.47,-130.17 1898.8,-130.3"/>
<polygon fill="black" stroke="black" points="1898.42,-133.82 1908.53,-130.63 1898.63,-126.83 1898.42,-133.82"/>
</g>
<!-- ftp&#45;&gt;http -->
<g id="edge50" class="edge">
<title>ftp&#45;&gt;http</title>
<path fill="none" stroke="black" stroke-dasharray="5,2" d="M1874,-143.34C1885.34,-143.87 1898.12,-143.89 1909.53,-143.37"/>
</g>
<!-- viewer -->
<g id="node22" class="node">
<title>viewer</title>
<polygon fill="aquamarine" stroke="aquamarine" points="2066.75,-231 2012.75,-231 2012.75,-195 2066.75,-195 2066.75,-231"/>
<text text-anchor="start" x="2028.88" y="-215.9" font-family="Verdana" font-size="8.00">A File</text>
<text text-anchor="start" x="2026.25" y="-205.4" font-family="Verdana" font-size="8.00">Viewer</text>
</g>
<!-- http&#45;&gt;viewer -->
<g id="edge51" class="edge">
<title>http&#45;&gt;viewer</title>
<path fill="none" stroke="black" stroke-dasharray="5,2" d="M1967.13,-155.4C1981.87,-167.26 2000.99,-182.63 2015.76,-194.51"/>
</g>
<!-- undo -->
<g id="node23" class="node">
<title>undo</title>
<polygon fill="pink" stroke="pink" points="2157.75,-254 2102.75,-254 2102.75,-218 2157.75,-218 2157.75,-254"/>
<text text-anchor="start" x="2110.75" y="-238.9" font-family="Verdana" font-size="8.00">Undo and</text>
<text text-anchor="start" x="2120.5" y="-228.4" font-family="Verdana" font-size="8.00">Redo</text>
</g>
<!-- viewer&#45;&gt;undo -->
<g id="edge26" class="edge">
<title>viewer&#45;&gt;undo</title>
<path fill="none" stroke="black" d="M2066.82,-213.56C2074.71,-215.12 2083.53,-217.26 2092,-219.64"/>
<polygon fill="black" stroke="black" points="2090.86,-223.26 2101.44,-222.77 2092.87,-216.55 2090.86,-223.26"/>
</g>
<!-- viewer&#45;&gt;undo -->
<g id="edge52" class="edge">
<title>viewer&#45;&gt;undo</title>
<path fill="none" stroke="black" stroke-dasharray="5,2" d="M2066.82,-225.99C2078.04,-229.6 2091.14,-233.02 2102.44,-235.29"/>
</g>
<!-- debugger -->
<g id="node25" class="node">
<title>debugger</title>
<polygon fill="pink" stroke="pink" points="2347.75,-277 2283.75,-277 2283.75,-241 2347.75,-241 2347.75,-277"/>
<text text-anchor="start" x="2291.75" y="-256.65" font-family="Verdana" font-size="8.00">A Debugger</text>
</g>
<!-- viewer&#45;&gt;debugger -->
<g id="edge30" class="edge">
<title>viewer&#45;&gt;debugger</title>
<path fill="none" stroke="black" d="M2066.98,-210.93C2078.01,-210.16 2091,-209.38 2102.75,-209 2127.18,-208.21 2133.5,-205.95 2157.75,-209 2198.71,-214.15 2208.52,-219.14 2247.75,-232 2256.14,-234.75 2264.98,-238.03 2273.39,-241.34"/>
<polygon fill="black" stroke="black" points="2271.79,-244.87 2282.37,-245.35 2274.4,-238.37 2271.79,-244.87"/>
</g>
<!-- undo&#45;&gt;vm -->
<g id="edge53" class="edge">
<title>undo&#45;&gt;vm</title>
<path fill="none" stroke="black" stroke-dasharray="5,2" d="M2157.8,-242.9C2169.11,-245.84 2182.25,-249.26 2193.52,-252.18"/>
</g>
<!-- vm&#45;&gt;debugger -->
<g id="edge29" class="edge">
<title>vm&#45;&gt;debugger</title>
<path fill="none" stroke="black" d="M2248.15,-252.84C2255.77,-252.36 2264.28,-252.18 2272.6,-252.28"/>
<polygon fill="black" stroke="black" points="2272.24,-255.8 2282.34,-252.58 2272.44,-248.8 2272.24,-255.8"/>
</g>
<!-- vm&#45;&gt;debugger -->
<g id="edge54" class="edge">
<title>vm&#45;&gt;debugger</title>
<path fill="none" stroke="black" stroke-dasharray="5,2" d="M2248.15,-265.16C2259.11,-265.85 2271.9,-265.93 2283.34,-265.42"/>
</g>
</g>
</svg>
