<?xml version="1.0" encoding="UTF-8" standalone="no"?>
<!DOCTYPE svg PUBLIC "-//W3C//DTD SVG 1.1//EN"
 "http://www.w3.org/Graphics/SVG/1.1/DTD/svg11.dtd">
<!-- Generated by graphviz version 6.0.1 (20220911.1526)
 -->
<!-- Pages: 1 -->
<svg width="784pt" height="498pt"
 viewBox="0.00 0.00 784.00 498.21" xmlns="http://www.w3.org/2000/svg" xmlns:xlink="http://www.w3.org/1999/xlink">
<g id="graph0" class="graph" transform="scale(1 1) rotate(0) translate(4 494.21)">
<polygon fill="white" stroke="none" points="-4,4 -4,-494.21 780,-494.21 780,4 -4,4"/>
<!-- dup -->
<g id="node1" class="node">
<title>dup</title>
<polygon fill="aquamarine" stroke="aquamarine" points="466.5,-407.21 412.5,-407.21 412.5,-371.21 466.5,-371.21 466.5,-407.21"/>
<text text-anchor="start" x="424" y="-396.31" font-family="Verdana" font-size="8.00">Finding</text>
<text text-anchor="start" x="420.5" y="-387.31" font-family="Verdana" font-size="8.00">Duplicate</text>
<text text-anchor="start" x="430" y="-378.31" font-family="Verdana" font-size="8.00">Files</text>
</g>
<!-- archive -->
<g id="node9" class="node">
<title>archive</title>
<polygon fill="cornsilk" stroke="cornsilk" points="566,-361.21 512,-361.21 512,-325.21 566,-325.21 566,-361.21"/>
<text text-anchor="start" x="528" y="-345.81" font-family="Verdana" font-size="8.00">A File</text>
<text text-anchor="start" x="522" y="-336.81" font-family="Verdana" font-size="8.00">Archiver</text>
</g>
<!-- dup&#45;&gt;archive -->
<g id="edge8" class="edge">
<title>dup&#45;&gt;archive</title>
<path fill="none" stroke="black" d="M466.63,-376.89C477.67,-371.68 490.69,-365.53 502.58,-359.93"/>
<polygon fill="black" stroke="black" points="504.25,-363.01 511.8,-355.58 501.26,-356.68 504.25,-363.01"/>
</g>
<!-- glob -->
<g id="node2" class="node">
<title>glob</title>
<polygon fill="aquamarine" stroke="aquamarine" points="60.5,-328.21 6.5,-328.21 6.5,-292.21 60.5,-292.21 60.5,-328.21"/>
<text text-anchor="start" x="15" y="-312.81" font-family="Verdana" font-size="8.00">Matching</text>
<text text-anchor="start" x="16.5" y="-303.81" font-family="Verdana" font-size="8.00">Patterns</text>
</g>
<!-- parse -->
<g id="node3" class="node">
<title>parse</title>
<polygon fill="cornsilk" stroke="cornsilk" points="169,-296.21 103,-296.21 103,-260.21 169,-260.21 169,-296.21"/>
<text text-anchor="start" x="111" y="-276.31" font-family="Verdana" font-size="8.00">Parsing Text</text>
</g>
<!-- glob&#45;&gt;parse -->
<g id="edge1" class="edge">
<title>glob&#45;&gt;parse</title>
<path fill="none" stroke="black" d="M60.64,-301.89C70.63,-298.71 82.28,-295 93.36,-291.47"/>
<polygon fill="black" stroke="black" points="94.42,-294.81 102.88,-288.44 92.29,-288.14 94.42,-294.81"/>
</g>
<!-- glob&#45;&gt;archive -->
<g id="edge7" class="edge">
<title>glob&#45;&gt;archive</title>
<path fill="none" stroke="black" d="M60.8,-317.37C98.82,-327.08 171.51,-343.21 234.5,-343.21 234.5,-343.21 234.5,-343.21 337.5,-343.21 394.86,-343.21 461.44,-343.21 501.62,-343.21"/>
<polygon fill="black" stroke="black" points="501.73,-346.71 511.73,-343.21 501.73,-339.71 501.73,-346.71"/>
</g>
<!-- check -->
<g id="node10" class="node">
<title>check</title>
<polygon fill="cornsilk" stroke="cornsilk" points="262.5,-296.21 208.5,-296.21 208.5,-260.21 262.5,-260.21 262.5,-296.21"/>
<text text-anchor="start" x="217" y="-280.81" font-family="Verdana" font-size="8.00">An HTML</text>
<text text-anchor="start" x="217.5" y="-271.81" font-family="Verdana" font-size="8.00">Validator</text>
</g>
<!-- parse&#45;&gt;check -->
<g id="edge10" class="edge">
<title>parse&#45;&gt;check</title>
<path fill="none" stroke="black" d="M169.2,-278.21C178.38,-278.21 188.46,-278.21 197.89,-278.21"/>
<polygon fill="black" stroke="black" points="198.19,-281.71 208.19,-278.21 198.19,-274.71 198.19,-281.71"/>
</g>
<!-- test -->
<g id="node4" class="node">
<title>test</title>
<polygon fill="aquamarine" stroke="aquamarine" points="163,-115.21 109,-115.21 109,-79.21 163,-79.21 163,-115.21"/>
<text text-anchor="start" x="119" y="-99.81" font-family="Verdana" font-size="8.00">Running</text>
<text text-anchor="start" x="125" y="-90.81" font-family="Verdana" font-size="8.00">Tests</text>
</g>
<!-- interp -->
<g id="node5" class="node">
<title>interp</title>
<polygon fill="cornsilk" stroke="cornsilk" points="266,-115.21 205,-115.21 205,-79.21 266,-79.21 266,-115.21"/>
<text text-anchor="start" x="230" y="-99.81" font-family="Verdana" font-size="8.00">An</text>
<text text-anchor="start" x="213" y="-90.81" font-family="Verdana" font-size="8.00">Interpreter</text>
</g>
<!-- test&#45;&gt;interp -->
<g id="edge2" class="edge">
<title>test&#45;&gt;interp</title>
<path fill="none" stroke="black" d="M163.13,-97.21C172.77,-97.21 183.94,-97.21 194.53,-97.21"/>
<polygon fill="black" stroke="black" points="194.85,-100.71 204.85,-97.21 194.85,-93.71 194.85,-100.71"/>
</g>
<!-- oop -->
<g id="node6" class="node">
<title>oop</title>
<polygon fill="cornsilk" stroke="cornsilk" points="369,-169.21 304,-169.21 304,-133.21 369,-133.21 369,-169.21"/>
<text text-anchor="start" x="312" y="-153.81" font-family="Verdana" font-size="8.00">Objects and</text>
<text text-anchor="start" x="321" y="-144.81" font-family="Verdana" font-size="8.00">Classes</text>
</g>
<!-- interp&#45;&gt;oop -->
<g id="edge3" class="edge">
<title>interp&#45;&gt;oop</title>
<path fill="none" stroke="black" d="M266.2,-113.42C275.18,-118.31 285.2,-123.78 294.77,-129"/>
<polygon fill="black" stroke="black" points="293.3,-132.18 303.75,-133.9 296.65,-126.03 293.3,-132.18"/>
</g>
<!-- func -->
<g id="node7" class="node">
<title>func</title>
<polygon fill="cornsilk" stroke="cornsilk" points="371,-115.21 302,-115.21 302,-79.21 371,-79.21 371,-115.21"/>
<text text-anchor="start" x="316.5" y="-99.81" font-family="Verdana" font-size="8.00">Functions</text>
<text text-anchor="start" x="310" y="-90.81" font-family="Verdana" font-size="8.00">and Closures</text>
</g>
<!-- interp&#45;&gt;func -->
<g id="edge4" class="edge">
<title>interp&#45;&gt;func</title>
<path fill="none" stroke="black" d="M266.2,-97.21C274.14,-97.21 282.89,-97.21 291.42,-97.21"/>
<polygon fill="black" stroke="black" points="291.65,-100.71 301.65,-97.21 291.65,-93.71 291.65,-100.71"/>
</g>
<!-- template -->
<g id="node11" class="node">
<title>template</title>
<polygon fill="cornsilk" stroke="cornsilk" points="367,-223.21 306,-223.21 306,-187.21 367,-187.21 367,-223.21"/>
<text text-anchor="start" x="314" y="-207.81" font-family="Verdana" font-size="8.00">A Template</text>
<text text-anchor="start" x="317" y="-198.81" font-family="Verdana" font-size="8.00">Expander</text>
</g>
<!-- interp&#45;&gt;template -->
<g id="edge11" class="edge">
<title>interp&#45;&gt;template</title>
<path fill="none" stroke="black" d="M249.54,-115.51C262.08,-132.56 282.03,-158.28 302,-178.21 302.65,-178.86 303.31,-179.51 303.98,-180.15"/>
<polygon fill="black" stroke="black" points="301.75,-182.85 311.53,-186.94 306.43,-177.65 301.75,-182.85"/>
</g>
<!-- persist -->
<g id="node15" class="node">
<title>persist</title>
<polygon fill="cornsilk" stroke="cornsilk" points="367.5,-61.21 305.5,-61.21 305.5,-25.21 367.5,-25.21 367.5,-61.21"/>
<text text-anchor="start" x="323" y="-45.81" font-family="Verdana" font-size="8.00">Object</text>
<text text-anchor="start" x="313.5" y="-36.81" font-family="Verdana" font-size="8.00">Persistence</text>
</g>
<!-- interp&#45;&gt;persist -->
<g id="edge16" class="edge">
<title>interp&#45;&gt;persist</title>
<path fill="none" stroke="black" d="M266.2,-81.01C275.71,-75.83 286.38,-70.01 296.45,-64.51"/>
<polygon fill="black" stroke="black" points="298.37,-67.45 305.48,-59.59 295.02,-61.31 298.37,-67.45"/>
</g>
<!-- vm -->
<g id="node24" class="node">
<title>vm</title>
<polygon fill="cornsilk" stroke="cornsilk" points="566,-53.21 512,-53.21 512,-17.21 566,-17.21 566,-53.21"/>
<text text-anchor="start" x="521.5" y="-37.81" font-family="Verdana" font-size="8.00">A Virtual</text>
<text text-anchor="start" x="522" y="-28.81" font-family="Verdana" font-size="8.00">Machine</text>
</g>
<!-- interp&#45;&gt;vm -->
<g id="edge24" class="edge">
<title>interp&#45;&gt;vm</title>
<path fill="none" stroke="black" d="M245.05,-79.02C255.41,-59.37 274.91,-29.15 302,-16.21 367.11,14.87 453.87,-5.6 501.99,-21.54"/>
<polygon fill="black" stroke="black" points="501.06,-24.92 511.65,-24.86 503.33,-18.3 501.06,-24.92"/>
</g>
<!-- mock -->
<g id="node8" class="node">
<title>mock</title>
<polygon fill="cornsilk" stroke="cornsilk" points="469,-167.21 410,-167.21 410,-123.21 469,-123.21 469,-167.21"/>
<text text-anchor="start" x="425.5" y="-156.81" font-family="Verdana" font-size="8.00">Mocks,</text>
<text text-anchor="start" x="419.5" y="-147.81" font-family="Verdana" font-size="8.00">Protocols,</text>
<text text-anchor="start" x="431.5" y="-138.81" font-family="Verdana" font-size="8.00">and</text>
<text text-anchor="start" x="418" y="-129.81" font-family="Verdana" font-size="8.00">Decorators</text>
</g>
<!-- oop&#45;&gt;mock -->
<g id="edge6" class="edge">
<title>oop&#45;&gt;mock</title>
<path fill="none" stroke="black" d="M369.18,-149.33C378.8,-148.76 389.48,-148.13 399.52,-147.53"/>
<polygon fill="black" stroke="black" points="399.9,-151.01 409.68,-146.93 399.49,-144.03 399.9,-151.01"/>
</g>
<!-- func&#45;&gt;mock -->
<g id="edge5" class="edge">
<title>func&#45;&gt;mock</title>
<path fill="none" stroke="black" d="M371.13,-113.2C380.61,-117.7 390.99,-122.63 400.69,-127.25"/>
<polygon fill="black" stroke="black" points="399.21,-130.42 409.75,-131.55 402.22,-124.1 399.21,-130.42"/>
</g>
<!-- mock&#45;&gt;archive -->
<g id="edge9" class="edge">
<title>mock&#45;&gt;archive</title>
<path fill="none" stroke="black" d="M451.49,-167.54C469.45,-204 505,-276.19 524.47,-315.73"/>
<polygon fill="black" stroke="black" points="521.49,-317.62 529.05,-325.04 527.77,-314.53 521.49,-317.62"/>
</g>
<!-- db -->
<g id="node17" class="node">
<title>db</title>
<polygon fill="pink" stroke="pink" points="570,-107.21 508,-107.21 508,-71.21 570,-71.21 570,-107.21"/>
<text text-anchor="start" x="516" y="-87.31" font-family="Verdana" font-size="8.00">A Database</text>
</g>
<!-- mock&#45;&gt;db -->
<g id="edge19" class="edge">
<title>mock&#45;&gt;db</title>
<path fill="none" stroke="black" d="M469.23,-128.72C478.52,-123.38 488.98,-117.37 498.89,-111.68"/>
<polygon fill="black" stroke="black" points="500.86,-114.58 507.78,-106.57 497.37,-108.51 500.86,-114.58"/>
</g>
<!-- ftp -->
<g id="node20" class="node">
<title>ftp</title>
<polygon fill="cornsilk" stroke="cornsilk" points="672,-361.21 606,-361.21 606,-325.21 672,-325.21 672,-361.21"/>
<text text-anchor="start" x="614" y="-345.81" font-family="Verdana" font-size="8.00">Transferring</text>
<text text-anchor="start" x="629.5" y="-336.81" font-family="Verdana" font-size="8.00">Files</text>
</g>
<!-- archive&#45;&gt;ftp -->
<g id="edge21" class="edge">
<title>archive&#45;&gt;ftp</title>
<path fill="none" stroke="black" d="M566,-343.21C575.1,-343.21 585.55,-343.21 595.63,-343.21"/>
<polygon fill="black" stroke="black" points="595.92,-346.71 605.92,-343.21 595.92,-339.71 595.92,-346.71"/>
</g>
<!-- check&#45;&gt;template -->
<g id="edge12" class="edge">
<title>check&#45;&gt;template</title>
<path fill="none" stroke="black" d="M260.97,-260.17C273.59,-250.87 289.14,-239.4 302.77,-229.35"/>
<polygon fill="black" stroke="black" points="305,-232.06 310.97,-223.3 300.84,-226.42 305,-232.06"/>
</g>
<!-- lint -->
<g id="node12" class="node">
<title>lint</title>
<polygon fill="pink" stroke="pink" points="363.5,-277.21 309.5,-277.21 309.5,-241.21 363.5,-241.21 363.5,-277.21"/>
<text text-anchor="start" x="322.5" y="-261.81" font-family="Verdana" font-size="8.00">A Code</text>
<text text-anchor="start" x="324.5" y="-252.81" font-family="Verdana" font-size="8.00">Linter</text>
</g>
<!-- check&#45;&gt;lint -->
<g id="edge13" class="edge">
<title>check&#45;&gt;lint</title>
<path fill="none" stroke="black" d="M262.51,-273.22C273.79,-271.06 287.19,-268.49 299.41,-266.14"/>
<polygon fill="black" stroke="black" points="300.16,-269.56 309.32,-264.24 298.84,-262.69 300.16,-269.56"/>
</g>
<!-- layout -->
<g id="node13" class="node">
<title>layout</title>
<polygon fill="pink" stroke="pink" points="472,-269.21 407,-269.21 407,-233.21 472,-233.21 472,-269.21"/>
<text text-anchor="start" x="415" y="-249.31" font-family="Verdana" font-size="8.00">Page Layout</text>
</g>
<!-- check&#45;&gt;layout -->
<g id="edge15" class="edge">
<title>check&#45;&gt;layout</title>
<path fill="none" stroke="black" d="M262.69,-284.29C290.1,-289.6 334.18,-295.19 371,-286.21 381.5,-283.65 392.18,-279.15 401.86,-274.22"/>
<polygon fill="black" stroke="black" points="403.65,-277.22 410.79,-269.4 400.33,-271.06 403.65,-277.22"/>
</g>
<!-- template&#45;&gt;layout -->
<g id="edge14" class="edge">
<title>template&#45;&gt;layout</title>
<path fill="none" stroke="black" d="M367.26,-218.77C376.79,-223.11 387.52,-227.99 397.7,-232.63"/>
<polygon fill="black" stroke="black" points="396.29,-235.84 406.85,-236.8 399.2,-229.47 396.29,-235.84"/>
</g>
<!-- perf -->
<g id="node14" class="node">
<title>perf</title>
<polygon fill="aquamarine" stroke="aquamarine" points="67,-382.21 0,-382.21 0,-346.21 67,-346.21 67,-382.21"/>
<text text-anchor="start" x="8" y="-366.81" font-family="Verdana" font-size="8.00">Performance</text>
<text text-anchor="start" x="16.5" y="-357.81" font-family="Verdana" font-size="8.00">Profiling</text>
</g>
<!-- binary -->
<g id="node16" class="node">
<title>binary</title>
<polygon fill="cornsilk" stroke="cornsilk" points="471,-61.21 408,-61.21 408,-25.21 471,-25.21 471,-61.21"/>
<text text-anchor="start" x="416" y="-41.31" font-family="Verdana" font-size="8.00">Binary Data</text>
</g>
<!-- persist&#45;&gt;binary -->
<g id="edge17" class="edge">
<title>persist&#45;&gt;binary</title>
<path fill="none" stroke="black" d="M367.53,-43.21C376.94,-43.21 387.49,-43.21 397.52,-43.21"/>
<polygon fill="black" stroke="black" points="397.71,-46.71 407.71,-43.21 397.71,-39.71 397.71,-46.71"/>
</g>
<!-- persist&#45;&gt;db -->
<g id="edge18" class="edge">
<title>persist&#45;&gt;db</title>
<path fill="none" stroke="black" d="M367.8,-56.7C379.8,-61.59 393.86,-66.76 407,-70.21 436.89,-78.08 471.52,-82.92 497.67,-85.75"/>
<polygon fill="black" stroke="black" points="497.65,-89.27 507.96,-86.81 498.37,-82.3 497.65,-89.27"/>
</g>
<!-- binary&#45;&gt;db -->
<g id="edge20" class="edge">
<title>binary&#45;&gt;db</title>
<path fill="none" stroke="black" d="M471.08,-57.64C479.79,-61.75 489.39,-66.28 498.54,-70.6"/>
<polygon fill="black" stroke="black" points="497.32,-73.89 507.86,-74.99 500.31,-67.56 497.32,-73.89"/>
</g>
<!-- binary&#45;&gt;vm -->
<g id="edge25" class="edge">
<title>binary&#45;&gt;vm</title>
<path fill="none" stroke="black" d="M471.08,-40.7C480.78,-39.91 491.6,-39.02 501.66,-38.2"/>
<polygon fill="black" stroke="black" points="502.12,-41.67 511.8,-37.36 501.54,-34.69 502.12,-41.67"/>
</g>
<!-- build -->
<g id="node18" class="node">
<title>build</title>
<polygon fill="aquamarine" stroke="aquamarine" points="60.5,-436.21 6.5,-436.21 6.5,-400.21 60.5,-400.21 60.5,-436.21"/>
<text text-anchor="start" x="19" y="-420.81" font-family="Verdana" font-size="8.00">A Build</text>
<text text-anchor="start" x="16" y="-411.81" font-family="Verdana" font-size="8.00">Manager</text>
</g>
<!-- pack -->
<g id="node19" class="node">
<title>pack</title>
<polygon fill="aquamarine" stroke="aquamarine" points="62,-490.21 5,-490.21 5,-454.21 62,-454.21 62,-490.21"/>
<text text-anchor="start" x="13" y="-474.81" font-family="Verdana" font-size="8.00">A Package</text>
<text text-anchor="start" x="16" y="-465.81" font-family="Verdana" font-size="8.00">Manager</text>
</g>
<!-- http -->
<g id="node21" class="node">
<title>http</title>
<polygon fill="pink" stroke="pink" points="776,-361.21 708,-361.21 708,-325.21 776,-325.21 776,-361.21"/>
<text text-anchor="start" x="716" y="-345.81" font-family="Verdana" font-size="8.00">Serving Web</text>
<text text-anchor="start" x="730" y="-336.81" font-family="Verdana" font-size="8.00">Pages</text>
</g>
<!-- ftp&#45;&gt;http -->
<g id="edge22" class="edge">
<title>ftp&#45;&gt;http</title>
<path fill="none" stroke="black" d="M672.23,-343.21C680.28,-343.21 689.04,-343.21 697.53,-343.21"/>
<polygon fill="black" stroke="black" points="697.68,-346.71 707.68,-343.21 697.68,-339.71 697.68,-346.71"/>
</g>
<!-- viewer -->
<g id="node22" class="node">
<title>viewer</title>
<polygon fill="aquamarine" stroke="aquamarine" points="566,-161.21 512,-161.21 512,-125.21 566,-125.21 566,-161.21"/>
<text text-anchor="start" x="528" y="-145.81" font-family="Verdana" font-size="8.00">A File</text>
<text text-anchor="start" x="525" y="-136.81" font-family="Verdana" font-size="8.00">Viewer</text>
</g>
<!-- undo -->
<g id="node23" class="node">
<title>undo</title>
<polygon fill="pink" stroke="pink" points="667,-161.21 611,-161.21 611,-125.21 667,-125.21 667,-161.21"/>
<text text-anchor="start" x="619" y="-145.81" font-family="Verdana" font-size="8.00">Undo and</text>
<text text-anchor="start" x="629" y="-136.81" font-family="Verdana" font-size="8.00">Redo</text>
</g>
<!-- viewer&#45;&gt;undo -->
<g id="edge23" class="edge">
<title>viewer&#45;&gt;undo</title>
<path fill="none" stroke="black" d="M566,-143.21C576.6,-143.21 589.05,-143.21 600.58,-143.21"/>
<polygon fill="black" stroke="black" points="600.85,-146.71 610.85,-143.21 600.85,-139.71 600.85,-146.71"/>
</g>
<!-- debugger -->
<g id="node25" class="node">
<title>debugger</title>
<polygon fill="pink" stroke="pink" points="671.5,-80.21 606.5,-80.21 606.5,-44.21 671.5,-44.21 671.5,-80.21"/>
<text text-anchor="start" x="614.5" y="-60.31" font-family="Verdana" font-size="8.00">A Debugger</text>
</g>
<!-- viewer&#45;&gt;debugger -->
<g id="edge26" class="edge">
<title>viewer&#45;&gt;debugger</title>
<path fill="none" stroke="black" d="M562.24,-124.83C575.87,-113.57 593.48,-99.01 608.29,-86.77"/>
<polygon fill="black" stroke="black" points="610.71,-89.31 616.19,-80.24 606.25,-83.92 610.71,-89.31"/>
</g>
<!-- vm&#45;&gt;debugger -->
<g id="edge27" class="edge">
<title>vm&#45;&gt;debugger</title>
<path fill="none" stroke="black" d="M566,-42.38C575.37,-44.96 586.19,-47.94 596.55,-50.79"/>
<polygon fill="black" stroke="black" points="595.7,-54.19 606.27,-53.47 597.56,-47.44 595.7,-54.19"/>
</g>
</g>
</svg>
