<?xml version="1.0" encoding="UTF-8" standalone="no"?>
<!DOCTYPE svg PUBLIC "-//W3C//DTD SVG 1.1//EN"
 "http://www.w3.org/Graphics/SVG/1.1/DTD/svg11.dtd">
<!-- Generated by graphviz version 6.0.1 (20220911.1526)
 -->
<!-- Title: syllabus Pages: 1 -->
<svg width="795pt" height="260pt"
 viewBox="0.00 0.00 795.00 260.00" xmlns="http://www.w3.org/2000/svg" xmlns:xlink="http://www.w3.org/1999/xlink">
<g id="graph0" class="graph" transform="scale(1 1) rotate(0) translate(4 256)">
<title>syllabus</title>
<polygon fill="white" stroke="none" points="-4,4 -4,-256 791,-256 791,4 -4,4"/>
<!-- archive -->
<g id="node1" class="node">
<title>archive</title>
<polygon fill="cornsilk" stroke="black" points="375.5,-198 321.5,-198 321.5,-162 375.5,-162 375.5,-198"/>
<text text-anchor="middle" x="348.5" y="-182.8" font-family="Verdana" font-size="9.00">file</text>
<text text-anchor="middle" x="348.5" y="-172.8" font-family="Verdana" font-size="9.00">archiver</text>
</g>
<!-- mock -->
<g id="node14" class="node">
<title>mock</title>
<polygon fill="cornsilk" stroke="black" points="268.5,-198 214.5,-198 214.5,-162 268.5,-162 268.5,-198"/>
<text text-anchor="middle" x="241.5" y="-182.8" font-family="Verdana" font-size="9.00">mock</text>
<text text-anchor="middle" x="241.5" y="-172.8" font-family="Verdana" font-size="9.00">objects</text>
</g>
<!-- archive&#45;&gt;mock -->
<g id="edge1" class="edge">
<title>archive&#45;&gt;mock</title>
<path fill="none" stroke="black" d="M311.03,-180C297.12,-180 281.54,-180 268.75,-180"/>
<polygon fill="black" stroke="black" points="311.27,-183.5 321.27,-180 311.27,-176.5 311.27,-183.5"/>
</g>
<!-- re -->
<g id="node22" class="node">
<title>re</title>
<polygon fill="cornsilk" stroke="black" points="268.5,-144 214.5,-144 214.5,-108 268.5,-108 268.5,-144"/>
<text text-anchor="middle" x="241.5" y="-128.8" font-family="Verdana" font-size="9.00">match</text>
<text text-anchor="middle" x="241.5" y="-118.8" font-family="Verdana" font-size="9.00">regex</text>
</g>
<!-- archive&#45;&gt;re -->
<g id="edge2" class="edge">
<title>archive&#45;&gt;re</title>
<path fill="none" stroke="black" d="M312.25,-161.87C298.03,-154.56 281.91,-146.27 268.75,-139.5"/>
<polygon fill="black" stroke="black" points="310.78,-165.05 321.27,-166.51 313.98,-158.83 310.78,-165.05"/>
</g>
<!-- binary -->
<g id="node2" class="node">
<title>binary</title>
<polygon fill="cornsilk" stroke="black" points="481.5,-90 427.5,-90 427.5,-54 481.5,-54 481.5,-90"/>
<text text-anchor="middle" x="454.5" y="-74.8" font-family="Verdana" font-size="9.00">binary</text>
<text text-anchor="middle" x="454.5" y="-64.8" font-family="Verdana" font-size="9.00">data</text>
</g>
<!-- parse -->
<g id="node17" class="node">
<title>parse</title>
<polygon fill="cornsilk" stroke="black" points="375.5,-144 321.5,-144 321.5,-108 375.5,-108 375.5,-144"/>
<text text-anchor="middle" x="348.5" y="-128.8" font-family="Verdana" font-size="9.00">parsing</text>
<text text-anchor="middle" x="348.5" y="-118.8" font-family="Verdana" font-size="9.00">text</text>
</g>
<!-- binary&#45;&gt;parse -->
<g id="edge3" class="edge">
<title>binary&#45;&gt;parse</title>
<path fill="none" stroke="black" d="M418,-90.43C404.14,-97.63 388.54,-105.73 375.74,-112.38"/>
<polygon fill="black" stroke="black" points="419.99,-93.34 427.26,-85.63 416.77,-87.13 419.99,-93.34"/>
</g>
<!-- build -->
<g id="node3" class="node">
<title>build</title>
<polygon fill="cornsilk" stroke="black" points="688.5,-198 632.5,-198 632.5,-162 688.5,-162 688.5,-198"/>
<text text-anchor="middle" x="660.5" y="-182.8" font-family="Verdana" font-size="9.00">build</text>
<text text-anchor="middle" x="660.5" y="-172.8" font-family="Verdana" font-size="9.00">manager</text>
</g>
<!-- pipe -->
<g id="node20" class="node">
<title>pipe</title>
<polygon fill="cornsilk" stroke="black" points="586,-198 532,-198 532,-162 586,-162 586,-198"/>
<text text-anchor="middle" x="559" y="-182.8" font-family="Verdana" font-size="9.00">pipeline</text>
<text text-anchor="middle" x="559" y="-172.8" font-family="Verdana" font-size="9.00">runner</text>
</g>
<!-- build&#45;&gt;pipe -->
<g id="edge4" class="edge">
<title>build&#45;&gt;pipe</title>
<path fill="none" stroke="black" d="M622.12,-180C610.13,-180 597.13,-180 586.13,-180"/>
<polygon fill="black" stroke="black" points="622.31,-183.5 632.31,-180 622.31,-176.5 622.31,-183.5"/>
</g>
<!-- plot -->
<g id="node21" class="node">
<title>plot</title>
<polygon fill="cornsilk" stroke="black" points="586,-252 532,-252 532,-216 586,-216 586,-252"/>
<text text-anchor="middle" x="559" y="-236.8" font-family="Verdana" font-size="9.00">plotting</text>
<text text-anchor="middle" x="559" y="-226.8" font-family="Verdana" font-size="9.00">graphs</text>
</g>
<!-- build&#45;&gt;plot -->
<g id="edge5" class="edge">
<title>build&#45;&gt;plot</title>
<path fill="none" stroke="black" d="M623.21,-199.7C610.92,-206.36 597.46,-213.67 586.13,-219.82"/>
<polygon fill="black" stroke="black" points="625.19,-202.6 632.31,-194.76 621.85,-196.45 625.19,-202.6"/>
</g>
<!-- cache -->
<g id="node4" class="node">
<title>cache</title>
<polygon fill="cornsilk" stroke="black" points="483.5,-198 425.5,-198 425.5,-162 483.5,-162 483.5,-198"/>
<text text-anchor="middle" x="454.5" y="-177.8" font-family="Verdana" font-size="9.00">file cache</text>
</g>
<!-- cache&#45;&gt;archive -->
<g id="edge6" class="edge">
<title>cache&#45;&gt;archive</title>
<path fill="none" stroke="black" d="M415.12,-180C401.94,-180 387.5,-180 375.52,-180"/>
<polygon fill="black" stroke="black" points="415.36,-183.5 425.36,-180 415.36,-176.5 415.36,-183.5"/>
</g>
<!-- check -->
<g id="node5" class="node">
<title>check</title>
<polygon fill="aquamarine" stroke="black" points="587,-144 531,-144 531,-108 587,-108 587,-144"/>
<text text-anchor="middle" x="559" y="-128.8" font-family="Verdana" font-size="9.00">checking</text>
<text text-anchor="middle" x="559" y="-118.8" font-family="Verdana" font-size="9.00">HTML</text>
</g>
<!-- db -->
<g id="node6" class="node">
<title>db</title>
<polygon fill="pink" stroke="black" points="589,-90 529,-90 529,-54 589,-54 589,-90"/>
<text text-anchor="middle" x="559" y="-74.8" font-family="Verdana" font-size="9.00">key&#45;value</text>
<text text-anchor="middle" x="559" y="-64.8" font-family="Verdana" font-size="9.00">store</text>
</g>
<!-- db&#45;&gt;binary -->
<g id="edge7" class="edge">
<title>db&#45;&gt;binary</title>
<path fill="none" stroke="black" d="M518.74,-72C506.28,-72 492.81,-72 481.52,-72"/>
<polygon fill="black" stroke="black" points="518.9,-75.5 528.9,-72 518.9,-68.5 518.9,-75.5"/>
</g>
<!-- df -->
<g id="node7" class="node">
<title>df</title>
<polygon fill="cornsilk" stroke="black" points="486,-252 423,-252 423,-216 486,-216 486,-252"/>
<text text-anchor="middle" x="454.5" y="-236.8" font-family="Verdana" font-size="9.00">dataframe</text>
<text text-anchor="middle" x="454.5" y="-226.8" font-family="Verdana" font-size="9.00">operations</text>
</g>
<!-- perf -->
<g id="node18" class="node">
<title>perf</title>
<polygon fill="cornsilk" stroke="black" points="385,-252 312,-252 312,-216 385,-216 385,-252"/>
<text text-anchor="middle" x="348.5" y="-236.8" font-family="Verdana" font-size="9.00">performance</text>
<text text-anchor="middle" x="348.5" y="-226.8" font-family="Verdana" font-size="9.00">profiling</text>
</g>
<!-- df&#45;&gt;perf -->
<g id="edge8" class="edge">
<title>df&#45;&gt;perf</title>
<path fill="none" stroke="black" d="M412.79,-234C403.63,-234 393.98,-234 385.05,-234"/>
<polygon fill="black" stroke="black" points="412.86,-237.5 422.86,-234 412.86,-230.5 412.86,-237.5"/>
</g>
<!-- dup -->
<g id="node8" class="node">
<title>dup</title>
<polygon fill="aquamarine" stroke="black" points="58,-144 0,-144 0,-108 58,-108 58,-144"/>
<text text-anchor="middle" x="29" y="-128.8" font-family="Verdana" font-size="9.00">duplicate</text>
<text text-anchor="middle" x="29" y="-118.8" font-family="Verdana" font-size="9.00">file finder</text>
</g>
<!-- func -->
<g id="node9" class="node">
<title>func</title>
<polygon fill="cornsilk" stroke="black" points="594,-36 524,-36 524,0 594,0 594,-36"/>
<text text-anchor="middle" x="559" y="-20.8" font-family="Verdana" font-size="9.00">function def</text>
<text text-anchor="middle" x="559" y="-10.8" font-family="Verdana" font-size="9.00">&amp; call stack</text>
</g>
<!-- interp -->
<g id="node11" class="node">
<title>interp</title>
<polygon fill="cornsilk" stroke="black" points="276,-67 207,-67 207,-31 276,-31 276,-67"/>
<text text-anchor="middle" x="241.5" y="-51.8" font-family="Verdana" font-size="9.00">interpreting</text>
<text text-anchor="middle" x="241.5" y="-41.8" font-family="Verdana" font-size="9.00">expressions</text>
</g>
<!-- func&#45;&gt;interp -->
<g id="edge9" class="edge">
<title>func&#45;&gt;interp</title>
<path fill="none" stroke="black" d="M513.8,-22.34C450.1,-28.6 333.83,-40.03 276.42,-45.67"/>
<polygon fill="black" stroke="black" points="514.33,-25.81 523.94,-21.35 513.64,-18.84 514.33,-25.81"/>
</g>
<!-- install -->
<g id="node10" class="node">
<title>install</title>
<polygon fill="pink" stroke="black" points="784,-63 730,-63 730,-27 784,-27 784,-63"/>
<text text-anchor="middle" x="757" y="-42.8" font-family="Verdana" font-size="9.00">installer</text>
</g>
<!-- pack -->
<g id="node16" class="node">
<title>pack</title>
<polygon fill="aquamarine" stroke="black" points="688.5,-36 632.5,-36 632.5,0 688.5,0 688.5,-36"/>
<text text-anchor="middle" x="660.5" y="-20.8" font-family="Verdana" font-size="9.00">package</text>
<text text-anchor="middle" x="660.5" y="-10.8" font-family="Verdana" font-size="9.00">manager</text>
</g>
<!-- install&#45;&gt;pack -->
<g id="edge10" class="edge">
<title>install&#45;&gt;pack</title>
<path fill="none" stroke="black" d="M720.25,-34.79C709.83,-31.81 698.62,-28.6 688.81,-25.8"/>
<polygon fill="black" stroke="black" points="719.35,-38.17 729.93,-37.55 721.27,-31.44 719.35,-38.17"/>
</g>
<!-- template -->
<g id="node25" class="node">
<title>template</title>
<polygon fill="cornsilk" stroke="black" points="691,-90 630,-90 630,-54 691,-54 691,-90"/>
<text text-anchor="middle" x="660.5" y="-74.8" font-family="Verdana" font-size="9.00">HTML</text>
<text text-anchor="middle" x="660.5" y="-64.8" font-family="Verdana" font-size="9.00">templates</text>
</g>
<!-- install&#45;&gt;template -->
<g id="edge11" class="edge">
<title>install&#45;&gt;template</title>
<path fill="none" stroke="black" d="M720.24,-55.22C710.65,-57.96 700.38,-60.89 691.16,-63.53"/>
<polygon fill="black" stroke="black" points="721.27,-58.56 729.93,-52.45 719.35,-51.83 721.27,-58.56"/>
</g>
<!-- test -->
<g id="node26" class="node">
<title>test</title>
<polygon fill="cornsilk" stroke="black" points="159.5,-144 105.5,-144 105.5,-108 159.5,-108 159.5,-144"/>
<text text-anchor="middle" x="132.5" y="-128.8" font-family="Verdana" font-size="9.00">unit</text>
<text text-anchor="middle" x="132.5" y="-118.8" font-family="Verdana" font-size="9.00">testing</text>
</g>
<!-- interp&#45;&gt;test -->
<g id="edge12" class="edge">
<title>interp&#45;&gt;test</title>
<path fill="none" stroke="black" d="M207.07,-73.06C191.47,-84.28 173.22,-97.41 158.8,-107.79"/>
<polygon fill="black" stroke="black" points="209.34,-75.74 215.41,-67.05 205.25,-70.05 209.34,-75.74"/>
</g>
<!-- lint -->
<g id="node12" class="node">
<title>lint</title>
<polygon fill="pink" stroke="black" points="687.5,-144 633.5,-144 633.5,-108 687.5,-108 687.5,-144"/>
<text text-anchor="middle" x="660.5" y="-123.8" font-family="Verdana" font-size="9.00">linting</text>
</g>
<!-- lint&#45;&gt;check -->
<g id="edge13" class="edge">
<title>lint&#45;&gt;check</title>
<path fill="none" stroke="black" d="M623.21,-126C611.24,-126 598.16,-126 587.01,-126"/>
<polygon fill="black" stroke="black" points="623.36,-129.5 633.36,-126 623.36,-122.5 623.36,-129.5"/>
</g>
<!-- meta -->
<g id="node13" class="node">
<title>meta</title>
<polygon fill="cornsilk" stroke="black" points="171,-225 94,-225 94,-189 171,-189 171,-225"/>
<text text-anchor="middle" x="132.5" y="-209.8" font-family="Verdana" font-size="9.00">meta&#45;</text>
<text text-anchor="middle" x="132.5" y="-199.8" font-family="Verdana" font-size="9.00">programming</text>
</g>
<!-- oop -->
<g id="node15" class="node">
<title>oop</title>
<polygon fill="aquamarine" stroke="black" points="57.5,-225 0.5,-225 0.5,-189 57.5,-189 57.5,-225"/>
<text text-anchor="middle" x="29" y="-209.8" font-family="Verdana" font-size="9.00">class and</text>
<text text-anchor="middle" x="29" y="-199.8" font-family="Verdana" font-size="9.00">objects</text>
</g>
<!-- meta&#45;&gt;oop -->
<g id="edge14" class="edge">
<title>meta&#45;&gt;oop</title>
<path fill="none" stroke="black" d="M83.9,-207C74.86,-207 65.68,-207 57.52,-207"/>
<polygon fill="black" stroke="black" points="83.99,-210.5 93.99,-207 83.99,-203.5 83.99,-210.5"/>
</g>
<!-- mock&#45;&gt;meta -->
<g id="edge15" class="edge">
<title>mock&#45;&gt;meta</title>
<path fill="none" stroke="black" d="M204.43,-189.1C193.71,-191.81 181.94,-194.78 171.13,-197.51"/>
<polygon fill="black" stroke="black" points="205.49,-192.45 214.32,-186.6 203.77,-185.66 205.49,-192.45"/>
</g>
<!-- mock&#45;&gt;test -->
<g id="edge16" class="edge">
<title>mock&#45;&gt;test</title>
<path fill="none" stroke="black" d="M204.98,-162.07C190.22,-154.62 173.39,-146.13 159.78,-139.26"/>
<polygon fill="black" stroke="black" points="203.82,-165.41 214.32,-166.79 206.97,-159.16 203.82,-165.41"/>
</g>
<!-- parse&#45;&gt;re -->
<g id="edge17" class="edge">
<title>parse&#45;&gt;re</title>
<path fill="none" stroke="black" d="M311.03,-126C297.12,-126 281.54,-126 268.75,-126"/>
<polygon fill="black" stroke="black" points="311.27,-129.5 321.27,-126 311.27,-122.5 311.27,-129.5"/>
</g>
<!-- perf&#45;&gt;meta -->
<g id="edge18" class="edge">
<title>perf&#45;&gt;meta</title>
<path fill="none" stroke="black" d="M301.67,-228.22C262.77,-223.31 207.63,-216.35 171.24,-211.76"/>
<polygon fill="black" stroke="black" points="301.32,-231.7 311.68,-229.48 302.2,-224.76 301.32,-231.7"/>
</g>
<!-- persist -->
<g id="node19" class="node">
<title>persist</title>
<polygon fill="pink" stroke="black" points="488,-144 421,-144 421,-108 488,-108 488,-144"/>
<text text-anchor="middle" x="454.5" y="-128.8" font-family="Verdana" font-size="9.00">object</text>
<text text-anchor="middle" x="454.5" y="-118.8" font-family="Verdana" font-size="9.00">persistence</text>
</g>
<!-- persist&#45;&gt;parse -->
<g id="edge19" class="edge">
<title>persist&#45;&gt;parse</title>
<path fill="none" stroke="black" d="M410.7,-126C398.85,-126 386.35,-126 375.75,-126"/>
<polygon fill="black" stroke="black" points="410.88,-129.5 420.88,-126 410.88,-122.5 410.88,-129.5"/>
</g>
<!-- pipe&#45;&gt;cache -->
<g id="edge20" class="edge">
<title>pipe&#45;&gt;cache</title>
<path fill="none" stroke="black" d="M521.76,-180C509.28,-180 495.49,-180 483.74,-180"/>
<polygon fill="black" stroke="black" points="521.87,-183.5 531.87,-180 521.87,-176.5 521.87,-183.5"/>
</g>
<!-- pipe&#45;&gt;df -->
<g id="edge21" class="edge">
<title>pipe&#45;&gt;df</title>
<path fill="none" stroke="black" d="M522.71,-198.59C510.87,-204.83 497.78,-211.72 486.32,-217.76"/>
<polygon fill="black" stroke="black" points="524.65,-201.52 531.87,-193.77 521.39,-195.33 524.65,-201.52"/>
</g>
<!-- plot&#45;&gt;df -->
<g id="edge22" class="edge">
<title>plot&#45;&gt;df</title>
<path fill="none" stroke="black" d="M521.65,-234C510.1,-234 497.44,-234 486.32,-234"/>
<polygon fill="black" stroke="black" points="521.87,-237.5 531.87,-234 521.87,-230.5 521.87,-237.5"/>
</g>
<!-- re&#45;&gt;test -->
<g id="edge23" class="edge">
<title>re&#45;&gt;test</title>
<path fill="none" stroke="black" d="M204.13,-126C189.58,-126 173.13,-126 159.78,-126"/>
<polygon fill="black" stroke="black" points="204.32,-129.5 214.32,-126 204.32,-122.5 204.32,-129.5"/>
</g>
<!-- server -->
<g id="node23" class="node">
<title>server</title>
<polygon fill="aquamarine" stroke="black" points="687.5,-252 633.5,-252 633.5,-216 687.5,-216 687.5,-252"/>
<text text-anchor="middle" x="660.5" y="-236.8" font-family="Verdana" font-size="9.00">web</text>
<text text-anchor="middle" x="660.5" y="-226.8" font-family="Verdana" font-size="9.00">server</text>
</g>
<!-- ssg -->
<g id="node24" class="node">
<title>ssg</title>
<polygon fill="pink" stroke="black" points="787,-198 727,-198 727,-162 787,-162 787,-198"/>
<text text-anchor="middle" x="757" y="-182.8" font-family="Verdana" font-size="9.00">static site</text>
<text text-anchor="middle" x="757" y="-172.8" font-family="Verdana" font-size="9.00">generator</text>
</g>
<!-- ssg&#45;&gt;build -->
<g id="edge24" class="edge">
<title>ssg&#45;&gt;build</title>
<path fill="none" stroke="black" d="M716.87,-180C707.42,-180 697.52,-180 688.75,-180"/>
<polygon fill="black" stroke="black" points="716.88,-183.5 726.88,-180 716.88,-176.5 716.88,-183.5"/>
</g>
<!-- ssg&#45;&gt;server -->
<g id="edge25" class="edge">
<title>ssg&#45;&gt;server</title>
<path fill="none" stroke="black" d="M718.14,-201.63C707.97,-207.45 697.19,-213.6 687.8,-218.97"/>
<polygon fill="black" stroke="black" points="719.93,-204.64 726.88,-196.64 716.46,-198.56 719.93,-204.64"/>
</g>
<!-- ssg&#45;&gt;template -->
<g id="edge26" class="edge">
<title>ssg&#45;&gt;template</title>
<path fill="none" stroke="black" d="M736.72,-153.93C724.26,-137.63 707.38,-116.48 691,-99 688.25,-96.06 685.23,-93.07 682.2,-90.2"/>
<polygon fill="black" stroke="black" points="733.97,-156.11 742.8,-161.97 739.56,-151.89 733.97,-156.11"/>
</g>
<!-- template&#45;&gt;check -->
<g id="edge27" class="edge">
<title>template&#45;&gt;check</title>
<path fill="none" stroke="black" d="M621.09,-92.85C609.8,-98.97 597.7,-105.54 587.26,-111.21"/>
<polygon fill="black" stroke="black" points="622.8,-95.9 629.92,-88.06 619.46,-89.75 622.8,-95.9"/>
</g>
<!-- template&#45;&gt;func -->
<g id="edge28" class="edge">
<title>template&#45;&gt;func</title>
<path fill="none" stroke="black" d="M621.05,-51.13C611.96,-46.2 602.33,-40.98 593.48,-36.17"/>
<polygon fill="black" stroke="black" points="619.46,-54.25 629.92,-55.94 622.8,-48.1 619.46,-54.25"/>
</g>
<!-- test&#45;&gt;dup -->
<g id="edge29" class="edge">
<title>test&#45;&gt;dup</title>
<path fill="none" stroke="black" d="M95.08,-126C82.94,-126 69.61,-126 58.19,-126"/>
<polygon fill="black" stroke="black" points="95.36,-129.5 105.36,-126 95.36,-122.5 95.36,-129.5"/>
</g>
</g>
</svg>
