<?xml version="1.0" encoding="UTF-8" standalone="no"?>
<!DOCTYPE svg PUBLIC "-//W3C//DTD SVG 1.1//EN"
 "http://www.w3.org/Graphics/SVG/1.1/DTD/svg11.dtd">
<!-- Generated by graphviz version 6.0.1 (20220911.1526)
 -->
<!-- Pages: 1 -->
<svg width="2370pt" height="340pt"
 viewBox="0.00 0.00 2370.00 340.00" xmlns="http://www.w3.org/2000/svg" xmlns:xlink="http://www.w3.org/1999/xlink">
<g id="graph0" class="graph" transform="scale(1 1) rotate(0) translate(4 336)">
<polygon fill="white" stroke="none" points="-4,4 -4,-336 2366,-336 2366,4 -4,4"/>
<!-- oop -->
<g id="node1" class="node">
<title>oop</title>
<polygon fill="aquamarine" stroke="aquamarine" points="65,-102 0,-102 0,-66 65,-66 65,-102"/>
<text text-anchor="start" x="8" y="-86.6" font-family="Verdana" font-size="8.00">Objects and</text>
<text text-anchor="start" x="17" y="-77.6" font-family="Verdana" font-size="8.00">Classes</text>
</g>
<!-- dup -->
<g id="node2" class="node">
<title>dup</title>
<polygon fill="aquamarine" stroke="aquamarine" points="155,-102 101,-102 101,-66 155,-66 155,-102"/>
<text text-anchor="start" x="112.5" y="-91.1" font-family="Verdana" font-size="8.00">Finding</text>
<text text-anchor="start" x="109" y="-82.1" font-family="Verdana" font-size="8.00">Duplicate</text>
<text text-anchor="start" x="118.5" y="-73.1" font-family="Verdana" font-size="8.00">Files</text>
</g>
<!-- oop&#45;&gt;dup -->
<g id="edge28" class="edge">
<title>oop&#45;&gt;dup</title>
<path fill="none" stroke="black" stroke-dasharray="5,2" d="M65.15,-84C76.81,-84 89.87,-84 100.97,-84"/>
</g>
<!-- interp -->
<g id="node6" class="node">
<title>interp</title>
<polygon fill="cornsilk" stroke="cornsilk" points="534,-269 473,-269 473,-233 534,-233 534,-269"/>
<text text-anchor="start" x="498" y="-253.6" font-family="Verdana" font-size="8.00">An</text>
<text text-anchor="start" x="481" y="-244.6" font-family="Verdana" font-size="8.00">Interpreter</text>
</g>
<!-- oop&#45;&gt;interp -->
<g id="edge3" class="edge">
<title>oop&#45;&gt;interp</title>
<path fill="none" stroke="black" d="M39.22,-102.16C56.68,-153.67 114.5,-297 217,-297 217,-297 217,-297 315,-297 369.88,-297 384.15,-292.78 437,-278 445.69,-275.57 454.78,-272.31 463.33,-268.9"/>
<polygon fill="black" stroke="black" points="464.8,-272.09 472.7,-265.03 462.12,-265.62 464.8,-272.09"/>
</g>
<!-- mock -->
<g id="node8" class="node">
<title>mock</title>
<polygon fill="cornsilk" stroke="cornsilk" points="734,-148 675,-148 675,-104 734,-104 734,-148"/>
<text text-anchor="start" x="690.5" y="-137.6" font-family="Verdana" font-size="8.00">Mocks,</text>
<text text-anchor="start" x="684.5" y="-128.6" font-family="Verdana" font-size="8.00">Protocols,</text>
<text text-anchor="start" x="696.5" y="-119.6" font-family="Verdana" font-size="8.00">and</text>
<text text-anchor="start" x="683" y="-110.6" font-family="Verdana" font-size="8.00">Decorators</text>
</g>
<!-- oop&#45;&gt;mock -->
<g id="edge6" class="edge">
<title>oop&#45;&gt;mock</title>
<path fill="none" stroke="black" d="M56.02,-65.98C89.2,-41.3 154.11,0 217,0 217,0 217,0 411,0 509.73,0 613.03,-61.3 666.5,-98.39"/>
<polygon fill="black" stroke="black" points="664.76,-101.44 674.96,-104.34 668.79,-95.72 664.76,-101.44"/>
</g>
<!-- glob -->
<g id="node3" class="node">
<title>glob</title>
<polygon fill="aquamarine" stroke="aquamarine" points="245,-162 191,-162 191,-126 245,-126 245,-162"/>
<text text-anchor="start" x="199.5" y="-146.6" font-family="Verdana" font-size="8.00">Matching</text>
<text text-anchor="start" x="201" y="-137.6" font-family="Verdana" font-size="8.00">Patterns</text>
</g>
<!-- dup&#45;&gt;glob -->
<g id="edge29" class="edge">
<title>dup&#45;&gt;glob</title>
<path fill="none" stroke="black" stroke-dasharray="5,2" d="M155.4,-102C166.64,-109.67 179.72,-118.58 190.92,-126.22"/>
</g>
<!-- archive -->
<g id="node9" class="node">
<title>archive</title>
<polygon fill="cornsilk" stroke="cornsilk" points="824,-98 770,-98 770,-62 824,-62 824,-98"/>
<text text-anchor="start" x="786" y="-82.6" font-family="Verdana" font-size="8.00">A File</text>
<text text-anchor="start" x="780" y="-73.6" font-family="Verdana" font-size="8.00">Archiver</text>
</g>
<!-- dup&#45;&gt;archive -->
<g id="edge7" class="edge">
<title>dup&#45;&gt;archive</title>
<path fill="none" stroke="black" d="M155.3,-73.1C190.55,-59.5 255.38,-38 313,-38 313,-38 313,-38 605.5,-38 660.53,-38 722.44,-54.92 760.34,-67.28"/>
<polygon fill="black" stroke="black" points="759.3,-70.63 769.9,-70.47 761.52,-63.98 759.3,-70.63"/>
</g>
<!-- parse -->
<g id="node4" class="node">
<title>parse</title>
<polygon fill="cornsilk" stroke="cornsilk" points="347,-181 281,-181 281,-145 347,-145 347,-181"/>
<text text-anchor="start" x="289" y="-161.1" font-family="Verdana" font-size="8.00">Parsing Text</text>
</g>
<!-- glob&#45;&gt;parse -->
<g id="edge1" class="edge">
<title>glob&#45;&gt;parse</title>
<path fill="none" stroke="black" d="M245.18,-143.17C253.24,-144.28 262.31,-145.92 271.14,-147.82"/>
<polygon fill="black" stroke="black" points="270.4,-151.25 280.93,-150.08 271.97,-144.43 270.4,-151.25"/>
</g>
<!-- glob&#45;&gt;parse -->
<g id="edge30" class="edge">
<title>glob&#45;&gt;parse</title>
<path fill="none" stroke="black" stroke-dasharray="5,2" d="M245.18,-155.42C256.27,-158.37 269.28,-161.1 280.93,-162.96"/>
</g>
<!-- glob&#45;&gt;archive -->
<g id="edge8" class="edge">
<title>glob&#45;&gt;archive</title>
<path fill="none" stroke="black" d="M245,-128.23C280.66,-108.14 347.34,-76 409,-76 409,-76 409,-76 605.5,-76 659.17,-76 721.33,-77.61 759.66,-78.78"/>
<polygon fill="black" stroke="black" points="759.71,-82.29 769.81,-79.1 759.93,-75.29 759.71,-82.29"/>
</g>
<!-- test -->
<g id="node5" class="node">
<title>test</title>
<polygon fill="aquamarine" stroke="aquamarine" points="437,-269 383,-269 383,-233 437,-233 437,-269"/>
<text text-anchor="start" x="393" y="-253.6" font-family="Verdana" font-size="8.00">Running</text>
<text text-anchor="start" x="399" y="-244.6" font-family="Verdana" font-size="8.00">Tests</text>
</g>
<!-- parse&#45;&gt;test -->
<g id="edge31" class="edge">
<title>parse&#45;&gt;test</title>
<path fill="none" stroke="black" stroke-dasharray="5,2" d="M334.48,-181.23C350.61,-196.34 373.42,-217.69 389.55,-232.79"/>
</g>
<!-- check -->
<g id="node10" class="node">
<title>check</title>
<polygon fill="cornsilk" stroke="cornsilk" points="914,-221 860,-221 860,-185 914,-185 914,-221"/>
<text text-anchor="start" x="868.5" y="-205.6" font-family="Verdana" font-size="8.00">An HTML</text>
<text text-anchor="start" x="869" y="-196.6" font-family="Verdana" font-size="8.00">Validator</text>
</g>
<!-- parse&#45;&gt;check -->
<g id="edge10" class="edge">
<title>parse&#45;&gt;check</title>
<path fill="none" stroke="black" d="M347.17,-166.48C395.49,-171.6 489.73,-181.19 570,-187 671.09,-194.31 790.62,-199.4 849.49,-201.66"/>
<polygon fill="black" stroke="black" points="849.63,-205.17 859.76,-202.06 849.9,-198.18 849.63,-205.17"/>
</g>
<!-- test&#45;&gt;interp -->
<g id="edge2" class="edge">
<title>test&#45;&gt;interp</title>
<path fill="none" stroke="black" d="M437.47,-244.81C445.35,-244.33 454.16,-244.15 462.69,-244.3"/>
<polygon fill="black" stroke="black" points="462.77,-247.81 472.88,-244.64 463,-240.81 462.77,-247.81"/>
</g>
<!-- test&#45;&gt;interp -->
<g id="edge32" class="edge">
<title>test&#45;&gt;interp</title>
<path fill="none" stroke="black" stroke-dasharray="5,2" d="M437.47,-257.19C448.55,-257.87 461.48,-257.93 472.88,-257.36"/>
</g>
<!-- func -->
<g id="node7" class="node">
<title>func</title>
<polygon fill="cornsilk" stroke="cornsilk" points="639,-178 570,-178 570,-142 639,-142 639,-178"/>
<text text-anchor="start" x="584.5" y="-162.6" font-family="Verdana" font-size="8.00">Functions</text>
<text text-anchor="start" x="578" y="-153.6" font-family="Verdana" font-size="8.00">and Closures</text>
</g>
<!-- interp&#45;&gt;func -->
<g id="edge4" class="edge">
<title>interp&#45;&gt;func</title>
<path fill="none" stroke="black" d="M519.11,-232.62C532.35,-218.75 552.38,-199.84 569.61,-184.71"/>
<polygon fill="black" stroke="black" points="572.02,-187.25 577.29,-178.06 567.44,-181.96 572.02,-187.25"/>
</g>
<!-- interp&#45;&gt;func -->
<g id="edge33" class="edge">
<title>interp&#45;&gt;func</title>
<path fill="none" stroke="black" stroke-dasharray="5,2" d="M530.77,-232.89C549.44,-216.96 573.82,-194.18 589.07,-178.19"/>
</g>
<!-- template -->
<g id="node11" class="node">
<title>template</title>
<polygon fill="cornsilk" stroke="cornsilk" points="1011,-266 950,-266 950,-230 1011,-230 1011,-266"/>
<text text-anchor="start" x="958" y="-250.6" font-family="Verdana" font-size="8.00">A Template</text>
<text text-anchor="start" x="961" y="-241.6" font-family="Verdana" font-size="8.00">Expander</text>
</g>
<!-- interp&#45;&gt;template -->
<g id="edge12" class="edge">
<title>interp&#45;&gt;template</title>
<path fill="none" stroke="black" d="M534.17,-250.52C573.05,-249.92 643.38,-249 703.5,-249 703.5,-249 703.5,-249 798,-249 846.76,-249 902.88,-248.63 939.65,-248.35"/>
<polygon fill="black" stroke="black" points="939.98,-251.84 949.95,-248.26 939.92,-244.84 939.98,-251.84"/>
</g>
<!-- persist -->
<g id="node15" class="node">
<title>persist</title>
<polygon fill="cornsilk" stroke="cornsilk" points="1403,-228 1341,-228 1341,-192 1403,-192 1403,-228"/>
<text text-anchor="start" x="1358.5" y="-212.6" font-family="Verdana" font-size="8.00">Object</text>
<text text-anchor="start" x="1349" y="-203.6" font-family="Verdana" font-size="8.00">Persistence</text>
</g>
<!-- interp&#45;&gt;persist -->
<g id="edge16" class="edge">
<title>interp&#45;&gt;persist</title>
<path fill="none" stroke="black" d="M534.07,-261.52C572.57,-274.25 642.17,-294 703.5,-294 703.5,-294 703.5,-294 1170.5,-294 1233.22,-294 1299,-258.6 1337.43,-233.77"/>
<polygon fill="black" stroke="black" points="1339.72,-236.45 1346.14,-228.02 1335.86,-230.61 1339.72,-236.45"/>
</g>
<!-- vm -->
<g id="node24" class="node">
<title>vm</title>
<polygon fill="cornsilk" stroke="cornsilk" points="2261,-205 2207,-205 2207,-169 2261,-169 2261,-205"/>
<text text-anchor="start" x="2216.5" y="-189.6" font-family="Verdana" font-size="8.00">A Virtual</text>
<text text-anchor="start" x="2217" y="-180.6" font-family="Verdana" font-size="8.00">Machine</text>
</g>
<!-- interp&#45;&gt;vm -->
<g id="edge24" class="edge">
<title>interp&#45;&gt;vm</title>
<path fill="none" stroke="black" d="M528.36,-269.19C540.35,-277.66 555.4,-287.32 570,-294 626.1,-319.67 641.81,-332 703.5,-332 703.5,-332 703.5,-332 2053,-332 2127.58,-332 2188.75,-255.57 2216.66,-213.69"/>
<polygon fill="black" stroke="black" points="2219.75,-215.36 2222.27,-205.07 2213.88,-211.55 2219.75,-215.36"/>
</g>
<!-- func&#45;&gt;mock -->
<g id="edge5" class="edge">
<title>func&#45;&gt;mock</title>
<path fill="none" stroke="black" d="M638.95,-141.96C647.32,-138.71 656.37,-135.51 664.96,-132.76"/>
<polygon fill="black" stroke="black" points="666.24,-136.03 674.77,-129.76 664.19,-129.34 666.24,-136.03"/>
</g>
<!-- func&#45;&gt;mock -->
<g id="edge34" class="edge">
<title>func&#45;&gt;mock</title>
<path fill="none" stroke="black" stroke-dasharray="5,2" d="M639.23,-154.75C650.85,-151.19 663.76,-146.63 674.93,-142.11"/>
</g>
<!-- mock&#45;&gt;archive -->
<g id="edge9" class="edge">
<title>mock&#45;&gt;archive</title>
<path fill="none" stroke="black" d="M734.13,-105.12C742.5,-100.42 751.75,-95.63 760.49,-91.44"/>
<polygon fill="black" stroke="black" points="762.1,-94.55 769.7,-87.17 759.16,-88.2 762.1,-94.55"/>
</g>
<!-- mock&#45;&gt;archive -->
<g id="edge35" class="edge">
<title>mock&#45;&gt;archive</title>
<path fill="none" stroke="black" stroke-dasharray="5,2" d="M734.13,-117.77C746.46,-112.16 760.69,-104.82 772.4,-98.01"/>
</g>
<!-- db -->
<g id="node17" class="node">
<title>db</title>
<polygon fill="pink" stroke="pink" points="1600,-182 1538,-182 1538,-146 1600,-146 1600,-182"/>
<text text-anchor="start" x="1546" y="-162.1" font-family="Verdana" font-size="8.00">A Database</text>
</g>
<!-- mock&#45;&gt;db -->
<g id="edge19" class="edge">
<title>mock&#45;&gt;db</title>
<path fill="none" stroke="black" d="M734.26,-126C769.88,-126 832.41,-126 886,-126 886,-126 886,-126 1373,-126 1427.57,-126 1489.18,-140.52 1528.28,-151.61"/>
<polygon fill="black" stroke="black" points="1527.38,-154.99 1537.95,-154.41 1529.32,-148.26 1527.38,-154.99"/>
</g>
<!-- archive&#45;&gt;check -->
<g id="edge36" class="edge">
<title>archive&#45;&gt;check</title>
<path fill="none" stroke="black" stroke-dasharray="5,2" d="M810.98,-98.15C827.62,-121.4 856.3,-161.49 872.96,-184.78"/>
</g>
<!-- ftp -->
<g id="node20" class="node">
<title>ftp</title>
<polygon fill="cornsilk" stroke="cornsilk" points="1885,-182 1819,-182 1819,-146 1885,-146 1885,-182"/>
<text text-anchor="start" x="1827" y="-166.6" font-family="Verdana" font-size="8.00">Transferring</text>
<text text-anchor="start" x="1842.5" y="-157.6" font-family="Verdana" font-size="8.00">Files</text>
</g>
<!-- archive&#45;&gt;ftp -->
<g id="edge21" class="edge">
<title>archive&#45;&gt;ftp</title>
<path fill="none" stroke="black" d="M824.15,-80.94C859.41,-82.12 924.19,-84 979.5,-84 979.5,-84 979.5,-84 1664,-84 1721.62,-84 1781.76,-116.5 1817.8,-140.07"/>
<polygon fill="black" stroke="black" points="1816.17,-143.19 1826.42,-145.85 1820.06,-137.38 1816.17,-143.19"/>
</g>
<!-- check&#45;&gt;template -->
<g id="edge11" class="edge">
<title>check&#45;&gt;template</title>
<path fill="none" stroke="black" d="M914.47,-209.83C924.34,-214.08 935.69,-219.54 946.11,-225.05"/>
<polygon fill="black" stroke="black" points="944.52,-228.17 954.97,-229.88 947.87,-222.02 944.52,-228.17"/>
</g>
<!-- check&#45;&gt;template -->
<g id="edge37" class="edge">
<title>check&#45;&gt;template</title>
<path fill="none" stroke="black" stroke-dasharray="5,2" d="M912.52,-221.12C923.95,-227.54 937.66,-234.39 949.69,-239.71"/>
</g>
<!-- lint -->
<g id="node12" class="node">
<title>lint</title>
<polygon fill="pink" stroke="pink" points="1101,-228 1047,-228 1047,-192 1101,-192 1101,-228"/>
<text text-anchor="start" x="1060" y="-212.6" font-family="Verdana" font-size="8.00">A Code</text>
<text text-anchor="start" x="1062" y="-203.6" font-family="Verdana" font-size="8.00">Linter</text>
</g>
<!-- check&#45;&gt;lint -->
<g id="edge13" class="edge">
<title>check&#45;&gt;lint</title>
<path fill="none" stroke="black" d="M914.11,-203.99C946.11,-205.2 1000.52,-207.26 1036.61,-208.62"/>
<polygon fill="black" stroke="black" points="1036.6,-212.12 1046.72,-209.01 1036.86,-205.13 1036.6,-212.12"/>
</g>
<!-- layout -->
<g id="node13" class="node">
<title>layout</title>
<polygon fill="pink" stroke="pink" points="1202,-228 1137,-228 1137,-192 1202,-192 1202,-228"/>
<text text-anchor="start" x="1145" y="-208.1" font-family="Verdana" font-size="8.00">Page Layout</text>
</g>
<!-- check&#45;&gt;layout -->
<g id="edge15" class="edge">
<title>check&#45;&gt;layout</title>
<path fill="none" stroke="black" d="M914.13,-195.83C954.53,-185.8 1034.44,-170.18 1101,-183 1109.82,-184.7 1118.96,-187.54 1127.56,-190.76"/>
<polygon fill="black" stroke="black" points="1126.4,-194.07 1136.98,-194.51 1128.99,-187.56 1126.4,-194.07"/>
</g>
<!-- template&#45;&gt;lint -->
<g id="edge38" class="edge">
<title>template&#45;&gt;lint</title>
<path fill="none" stroke="black" stroke-dasharray="5,2" d="M1011.21,-235.66C1022.69,-230.89 1035.71,-225.49 1046.83,-220.87"/>
</g>
<!-- template&#45;&gt;layout -->
<g id="edge14" class="edge">
<title>template&#45;&gt;layout</title>
<path fill="none" stroke="black" d="M1011.35,-247.63C1035.77,-246.76 1071.02,-244.21 1101,-237 1109.74,-234.9 1118.84,-231.88 1127.42,-228.61"/>
<polygon fill="black" stroke="black" points="1128.85,-231.81 1136.84,-224.85 1126.26,-225.3 1128.85,-231.81"/>
</g>
<!-- lint&#45;&gt;layout -->
<g id="edge39" class="edge">
<title>lint&#45;&gt;layout</title>
<path fill="none" stroke="black" stroke-dasharray="5,2" d="M1101.04,-210C1112.18,-210 1125.27,-210 1136.94,-210"/>
</g>
<!-- perf -->
<g id="node14" class="node">
<title>perf</title>
<polygon fill="aquamarine" stroke="aquamarine" points="1305,-228 1238,-228 1238,-192 1305,-192 1305,-228"/>
<text text-anchor="start" x="1246" y="-212.6" font-family="Verdana" font-size="8.00">Performance</text>
<text text-anchor="start" x="1254.5" y="-203.6" font-family="Verdana" font-size="8.00">Profiling</text>
</g>
<!-- layout&#45;&gt;perf -->
<g id="edge40" class="edge">
<title>layout&#45;&gt;perf</title>
<path fill="none" stroke="black" stroke-dasharray="5,2" d="M1202.14,-210C1213.47,-210 1226.26,-210 1237.69,-210"/>
</g>
<!-- perf&#45;&gt;persist -->
<g id="edge41" class="edge">
<title>perf&#45;&gt;persist</title>
<path fill="none" stroke="black" stroke-dasharray="5,2" d="M1305.03,-210C1316.57,-210 1329.5,-210 1340.84,-210"/>
</g>
<!-- binary -->
<g id="node16" class="node">
<title>binary</title>
<polygon fill="cornsilk" stroke="cornsilk" points="1502,-228 1439,-228 1439,-192 1502,-192 1502,-228"/>
<text text-anchor="start" x="1447" y="-208.1" font-family="Verdana" font-size="8.00">Binary Data</text>
</g>
<!-- persist&#45;&gt;binary -->
<g id="edge17" class="edge">
<title>persist&#45;&gt;binary</title>
<path fill="none" stroke="black" d="M1403,-203.7C1411.11,-203.28 1420.02,-203.16 1428.6,-203.32"/>
<polygon fill="black" stroke="black" points="1428.74,-206.83 1438.85,-203.67 1428.97,-199.83 1428.74,-206.83"/>
</g>
<!-- persist&#45;&gt;binary -->
<g id="edge42" class="edge">
<title>persist&#45;&gt;binary</title>
<path fill="none" stroke="black" stroke-dasharray="5,2" d="M1403,-216.3C1414.4,-216.89 1427.39,-216.9 1438.85,-216.33"/>
</g>
<!-- persist&#45;&gt;db -->
<g id="edge18" class="edge">
<title>persist&#45;&gt;db</title>
<path fill="none" stroke="black" d="M1403.02,-195.92C1414.12,-191.2 1426.94,-186.3 1439,-183 1468.17,-175.01 1502.02,-170.19 1527.73,-167.4"/>
<polygon fill="black" stroke="black" points="1528.27,-170.86 1537.86,-166.36 1527.55,-163.9 1528.27,-170.86"/>
</g>
<!-- binary&#45;&gt;db -->
<g id="edge20" class="edge">
<title>binary&#45;&gt;db</title>
<path fill="none" stroke="black" d="M1496.85,-191.89C1506.53,-186.62 1517.8,-181.03 1528.48,-176.19"/>
<polygon fill="black" stroke="black" points="1529.92,-179.38 1537.67,-172.14 1527.1,-172.97 1529.92,-179.38"/>
</g>
<!-- binary&#45;&gt;db -->
<g id="edge43" class="edge">
<title>binary&#45;&gt;db</title>
<path fill="none" stroke="black" stroke-dasharray="5,2" d="M1502.03,-201.77C1515.18,-196.16 1530.35,-188.82 1542.83,-182.01"/>
</g>
<!-- binary&#45;&gt;vm -->
<g id="edge25" class="edge">
<title>binary&#45;&gt;vm</title>
<path fill="none" stroke="black" d="M1502.18,-210C1539.83,-210 1605.61,-210 1662,-210 1662,-210 1662,-210 2053,-210 2103.18,-210 2160.6,-201.1 2196.82,-194.37"/>
<polygon fill="black" stroke="black" points="2197.73,-197.76 2206.9,-192.45 2196.42,-190.88 2197.73,-197.76"/>
</g>
<!-- build -->
<g id="node18" class="node">
<title>build</title>
<polygon fill="aquamarine" stroke="aquamarine" points="1690,-182 1636,-182 1636,-146 1690,-146 1690,-182"/>
<text text-anchor="start" x="1648.5" y="-166.6" font-family="Verdana" font-size="8.00">A Build</text>
<text text-anchor="start" x="1645.5" y="-157.6" font-family="Verdana" font-size="8.00">Manager</text>
</g>
<!-- db&#45;&gt;build -->
<g id="edge44" class="edge">
<title>db&#45;&gt;build</title>
<path fill="none" stroke="black" stroke-dasharray="5,2" d="M1600.12,-164C1611.65,-164 1624.7,-164 1635.83,-164"/>
</g>
<!-- pack -->
<g id="node19" class="node">
<title>pack</title>
<polygon fill="aquamarine" stroke="aquamarine" points="1783,-182 1726,-182 1726,-146 1783,-146 1783,-182"/>
<text text-anchor="start" x="1734" y="-166.6" font-family="Verdana" font-size="8.00">A Package</text>
<text text-anchor="start" x="1737" y="-157.6" font-family="Verdana" font-size="8.00">Manager</text>
</g>
<!-- build&#45;&gt;pack -->
<g id="edge45" class="edge">
<title>build&#45;&gt;pack</title>
<path fill="none" stroke="black" stroke-dasharray="5,2" d="M1690.37,-164C1701.51,-164 1714.48,-164 1725.76,-164"/>
</g>
<!-- pack&#45;&gt;ftp -->
<g id="edge46" class="edge">
<title>pack&#45;&gt;ftp</title>
<path fill="none" stroke="black" stroke-dasharray="5,2" d="M1783.12,-164C1794.25,-164 1807.16,-164 1818.72,-164"/>
</g>
<!-- http -->
<g id="node21" class="node">
<title>http</title>
<polygon fill="pink" stroke="pink" points="1989,-182 1921,-182 1921,-146 1989,-146 1989,-182"/>
<text text-anchor="start" x="1929" y="-166.6" font-family="Verdana" font-size="8.00">Serving Web</text>
<text text-anchor="start" x="1943" y="-157.6" font-family="Verdana" font-size="8.00">Pages</text>
</g>
<!-- ftp&#45;&gt;http -->
<g id="edge22" class="edge">
<title>ftp&#45;&gt;http</title>
<path fill="none" stroke="black" d="M1885.23,-157.66C1893.28,-157.28 1902.04,-157.17 1910.53,-157.31"/>
<polygon fill="black" stroke="black" points="1910.58,-160.81 1920.68,-157.61 1910.79,-153.81 1910.58,-160.81"/>
</g>
<!-- ftp&#45;&gt;http -->
<g id="edge47" class="edge">
<title>ftp&#45;&gt;http</title>
<path fill="none" stroke="black" stroke-dasharray="5,2" d="M1885.23,-170.34C1896.55,-170.87 1909.28,-170.89 1920.68,-170.39"/>
</g>
<!-- viewer -->
<g id="node22" class="node">
<title>viewer</title>
<polygon fill="aquamarine" stroke="aquamarine" points="2079,-182 2025,-182 2025,-146 2079,-146 2079,-182"/>
<text text-anchor="start" x="2041" y="-166.6" font-family="Verdana" font-size="8.00">A File</text>
<text text-anchor="start" x="2038" y="-157.6" font-family="Verdana" font-size="8.00">Viewer</text>
</g>
<!-- http&#45;&gt;viewer -->
<g id="edge48" class="edge">
<title>http&#45;&gt;viewer</title>
<path fill="none" stroke="black" stroke-dasharray="5,2" d="M1989.23,-164C2000.89,-164 2013.82,-164 2024.82,-164"/>
</g>
<!-- undo -->
<g id="node23" class="node">
<title>undo</title>
<polygon fill="pink" stroke="pink" points="2171,-182 2115,-182 2115,-146 2171,-146 2171,-182"/>
<text text-anchor="start" x="2123" y="-166.6" font-family="Verdana" font-size="8.00">Undo and</text>
<text text-anchor="start" x="2133" y="-157.6" font-family="Verdana" font-size="8.00">Redo</text>
</g>
<!-- viewer&#45;&gt;undo -->
<g id="edge23" class="edge">
<title>viewer&#45;&gt;undo</title>
<path fill="none" stroke="black" d="M2079.22,-157.78C2087.17,-157.29 2096.06,-157.14 2104.59,-157.33"/>
<polygon fill="black" stroke="black" points="2104.6,-160.83 2114.73,-157.72 2104.87,-153.84 2104.6,-160.83"/>
</g>
<!-- viewer&#45;&gt;undo -->
<g id="edge49" class="edge">
<title>viewer&#45;&gt;undo</title>
<path fill="none" stroke="black" stroke-dasharray="5,2" d="M2079.22,-170.22C2090.4,-170.91 2103.44,-170.93 2114.73,-170.28"/>
</g>
<!-- debugger -->
<g id="node25" class="node">
<title>debugger</title>
<polygon fill="pink" stroke="pink" points="2362,-205 2297,-205 2297,-169 2362,-169 2362,-205"/>
<text text-anchor="start" x="2305" y="-185.1" font-family="Verdana" font-size="8.00">A Debugger</text>
</g>
<!-- viewer&#45;&gt;debugger -->
<g id="edge26" class="edge">
<title>viewer&#45;&gt;debugger</title>
<path fill="none" stroke="black" d="M2079.06,-149.81C2089.85,-144.7 2102.7,-139.56 2115,-137 2175.29,-124.44 2244.63,-147.72 2287.52,-166.56"/>
<polygon fill="black" stroke="black" points="2286.22,-169.81 2296.78,-170.74 2289.1,-163.43 2286.22,-169.81"/>
</g>
<!-- undo&#45;&gt;vm -->
<g id="edge50" class="edge">
<title>undo&#45;&gt;vm</title>
<path fill="none" stroke="black" stroke-dasharray="5,2" d="M2171.19,-171.03C2182.54,-173.96 2195.66,-177.35 2206.89,-180.25"/>
</g>
<!-- vm&#45;&gt;debugger -->
<g id="edge27" class="edge">
<title>vm&#45;&gt;debugger</title>
<path fill="none" stroke="black" d="M2261.04,-180.88C2269.05,-180.36 2278.06,-180.16 2286.83,-180.29"/>
<polygon fill="black" stroke="black" points="2286.85,-183.79 2296.94,-180.58 2287.05,-176.79 2286.85,-183.79"/>
</g>
<!-- vm&#45;&gt;debugger -->
<g id="edge51" class="edge">
<title>vm&#45;&gt;debugger</title>
<path fill="none" stroke="black" stroke-dasharray="5,2" d="M2261.04,-193.12C2272.18,-193.84 2285.27,-193.94 2296.94,-193.42"/>
</g>
</g>
</svg>
