<?xml version="1.0" encoding="UTF-8" standalone="no"?>
<!DOCTYPE svg PUBLIC "-//W3C//DTD SVG 1.1//EN"
 "http://www.w3.org/Graphics/SVG/1.1/DTD/svg11.dtd">
<!-- Generated by graphviz version 8.0.5 (20230430.1635)
 -->
<!-- Pages: 1 -->
<svg width="771pt" height="468pt"
 viewBox="0.00 0.00 771.00 467.99" xmlns="http://www.w3.org/2000/svg" xmlns:xlink="http://www.w3.org/1999/xlink">
<g id="graph0" class="graph" transform="scale(1 1) rotate(0) translate(4 463.99)">
<polygon fill="white" stroke="none" points="-4,4 -4,-463.99 767,-463.99 767,4 -4,4"/>
<!-- oop -->
<g id="node1" class="node">
<title>oop</title>
<polygon fill="aquamarine" stroke="aquamarine" points="155.12,-322 90.38,-322 90.38,-286 155.12,-286 155.12,-322"/>
<text text-anchor="start" x="98.38" y="-306.9" font-family="Verdana" font-size="8.00">Objects and</text>
<text text-anchor="start" x="107.75" y="-296.4" font-family="Verdana" font-size="8.00">Classes</text>
</g>
<!-- interp -->
<g id="node6" class="node">
<title>interp</title>
<polygon fill="cornsilk" stroke="cornsilk" points="251.75,-372 191.5,-372 191.5,-336 251.75,-336 251.75,-372"/>
<text text-anchor="start" x="216.38" y="-356.9" font-family="Verdana" font-size="8.00">An</text>
<text text-anchor="start" x="199.5" y="-346.4" font-family="Verdana" font-size="8.00">Interpreter</text>
</g>
<!-- oop&#45;&gt;interp -->
<g id="edge3" class="edge">
<title>oop&#45;&gt;interp</title>
<path fill="none" stroke="black" d="M155.47,-320.37C163.81,-324.68 172.9,-329.37 181.58,-333.85"/>
<polygon fill="black" stroke="black" points="179.64,-337.3 190.13,-338.78 182.85,-331.08 179.64,-337.3"/>
</g>
<!-- reflect -->
<g id="node8" class="node">
<title>reflect</title>
<polygon fill="cornsilk" stroke="cornsilk" points="451.75,-299 396.75,-299 396.75,-263 451.75,-263 451.75,-299"/>
<text text-anchor="start" x="404.75" y="-278.65" font-family="Verdana" font-size="8.00">Reflection</text>
</g>
<!-- oop&#45;&gt;reflect -->
<g id="edge6" class="edge">
<title>oop&#45;&gt;reflect</title>
<path fill="none" stroke="black" d="M155.52,-301.56C211.24,-297.28 326.32,-288.44 385.82,-283.87"/>
<polygon fill="black" stroke="black" points="385.89,-287.3 395.59,-283.05 385.36,-280.32 385.89,-287.3"/>
</g>
<!-- dup -->
<g id="node2" class="node">
<title>dup</title>
<polygon fill="aquamarine" stroke="aquamarine" points="451.25,-91.75 397.25,-91.75 397.25,-52.25 451.25,-52.25 451.25,-91.75"/>
<text text-anchor="start" x="409.25" y="-80.15" font-family="Verdana" font-size="8.00">Finding</text>
<text text-anchor="start" x="405.5" y="-69.65" font-family="Verdana" font-size="8.00">Duplicate</text>
<text text-anchor="start" x="415.25" y="-59.15" font-family="Verdana" font-size="8.00">Files</text>
</g>
<!-- archive -->
<g id="node9" class="node">
<title>archive</title>
<polygon fill="cornsilk" stroke="cornsilk" points="552.38,-144 498.38,-144 498.38,-108 552.38,-108 552.38,-144"/>
<text text-anchor="start" x="514.5" y="-128.9" font-family="Verdana" font-size="8.00">A File</text>
<text text-anchor="start" x="508.5" y="-118.4" font-family="Verdana" font-size="8.00">Archiver</text>
</g>
<!-- dup&#45;&gt;archive -->
<g id="edge9" class="edge">
<title>dup&#45;&gt;archive</title>
<path fill="none" stroke="black" d="M451.55,-86.33C462.87,-92.49 476.27,-99.8 488.48,-106.45"/>
<polygon fill="black" stroke="black" points="486.49,-109.89 496.95,-111.6 489.84,-103.75 486.49,-109.89"/>
</g>
<!-- pack -->
<g id="node19" class="node">
<title>pack</title>
<polygon fill="pink" stroke="pink" points="553.62,-90 497.12,-90 497.12,-54 553.62,-54 553.62,-90"/>
<text text-anchor="start" x="505.12" y="-74.9" font-family="Verdana" font-size="8.00">A Package</text>
<text text-anchor="start" x="508.12" y="-64.4" font-family="Verdana" font-size="8.00">Manager</text>
</g>
<!-- dup&#45;&gt;pack -->
<g id="edge23" class="edge">
<title>dup&#45;&gt;pack</title>
<path fill="none" stroke="black" d="M451.55,-72C462.16,-72 474.6,-72 486.17,-72"/>
<polygon fill="black" stroke="black" points="485.91,-75.5 495.91,-72 485.91,-68.5 485.91,-75.5"/>
</g>
<!-- glob -->
<g id="node3" class="node">
<title>glob</title>
<polygon fill="aquamarine" stroke="aquamarine" points="54,-180 0,-180 0,-144 54,-144 54,-180"/>
<text text-anchor="start" x="8.62" y="-164.9" font-family="Verdana" font-size="8.00">Matching</text>
<text text-anchor="start" x="10.5" y="-154.4" font-family="Verdana" font-size="8.00">Patterns</text>
</g>
<!-- parse -->
<g id="node4" class="node">
<title>parse</title>
<polygon fill="cornsilk" stroke="cornsilk" points="155.5,-194 90,-194 90,-158 155.5,-158 155.5,-194"/>
<text text-anchor="start" x="98" y="-173.65" font-family="Verdana" font-size="8.00">Parsing Text</text>
</g>
<!-- glob&#45;&gt;parse -->
<g id="edge1" class="edge">
<title>glob&#45;&gt;parse</title>
<path fill="none" stroke="black" d="M54.11,-165.9C61.89,-167.06 70.61,-168.36 79.15,-169.64"/>
<polygon fill="black" stroke="black" points="78.36,-173.21 88.77,-171.22 79.4,-166.29 78.36,-173.21"/>
</g>
<!-- glob&#45;&gt;archive -->
<g id="edge8" class="edge">
<title>glob&#45;&gt;archive</title>
<path fill="none" stroke="black" d="M54.4,-152.47C91.15,-140.08 160.04,-120 220.62,-120 220.62,-120 220.62,-120 323,-120 380.26,-120 446.65,-122.45 487.07,-124.22"/>
<polygon fill="black" stroke="black" points="486.85,-127.76 496.99,-124.71 487.16,-120.77 486.85,-127.76"/>
</g>
<!-- check -->
<g id="node10" class="node">
<title>check</title>
<polygon fill="cornsilk" stroke="cornsilk" points="248.62,-213 194.62,-213 194.62,-177 248.62,-177 248.62,-213"/>
<text text-anchor="start" x="203.62" y="-197.9" font-family="Verdana" font-size="8.00">An HTML</text>
<text text-anchor="start" x="204" y="-187.4" font-family="Verdana" font-size="8.00">Validator</text>
</g>
<!-- parse&#45;&gt;check -->
<g id="edge10" class="edge">
<title>parse&#45;&gt;check</title>
<path fill="none" stroke="black" d="M155.74,-182.27C164.59,-184.01 174.28,-185.91 183.41,-187.7"/>
<polygon fill="black" stroke="black" points="182.68,-191.32 193.16,-189.81 184.03,-184.45 182.68,-191.32"/>
</g>
<!-- test -->
<g id="node5" class="node">
<title>test</title>
<polygon fill="aquamarine" stroke="aquamarine" points="149.75,-376 95.75,-376 95.75,-340 149.75,-340 149.75,-376"/>
<text text-anchor="start" x="105.88" y="-360.9" font-family="Verdana" font-size="8.00">Running</text>
<text text-anchor="start" x="112.25" y="-350.4" font-family="Verdana" font-size="8.00">Tests</text>
</g>
<!-- test&#45;&gt;interp -->
<g id="edge2" class="edge">
<title>test&#45;&gt;interp</title>
<path fill="none" stroke="black" d="M150.22,-356.91C159.52,-356.52 170.19,-356.08 180.36,-355.66"/>
<polygon fill="black" stroke="black" points="180.27,-359.13 190.12,-355.22 179.98,-352.13 180.27,-359.13"/>
</g>
<!-- func -->
<g id="node7" class="node">
<title>func</title>
<polygon fill="cornsilk" stroke="cornsilk" points="356.25,-368 287.75,-368 287.75,-332 356.25,-332 356.25,-368"/>
<text text-anchor="start" x="302.5" y="-352.9" font-family="Verdana" font-size="8.00">Functions</text>
<text text-anchor="start" x="295.75" y="-342.4" font-family="Verdana" font-size="8.00">and Closures</text>
</g>
<!-- interp&#45;&gt;func -->
<g id="edge4" class="edge">
<title>interp&#45;&gt;func</title>
<path fill="none" stroke="black" d="M252.14,-352.8C259.85,-352.49 268.34,-352.14 276.64,-351.8"/>
<polygon fill="black" stroke="black" points="276.51,-355.27 286.36,-351.37 276.23,-348.28 276.51,-355.27"/>
</g>
<!-- template -->
<g id="node11" class="node">
<title>template</title>
<polygon fill="cornsilk" stroke="cornsilk" points="352.12,-276 291.88,-276 291.88,-240 352.12,-240 352.12,-276"/>
<text text-anchor="start" x="299.88" y="-260.9" font-family="Verdana" font-size="8.00">A Template</text>
<text text-anchor="start" x="302.88" y="-250.4" font-family="Verdana" font-size="8.00">Expander</text>
</g>
<!-- interp&#45;&gt;template -->
<g id="edge12" class="edge">
<title>interp&#45;&gt;template</title>
<path fill="none" stroke="black" d="M241.13,-335.94C256.15,-321.29 277.52,-300.43 294.38,-283.98"/>
<polygon fill="black" stroke="black" points="296.53,-286.79 301.24,-277.3 291.64,-281.78 296.53,-286.79"/>
</g>
<!-- persist -->
<g id="node15" class="node">
<title>persist</title>
<polygon fill="cornsilk" stroke="cornsilk" points="352.88,-422 291.12,-422 291.12,-386 352.88,-386 352.88,-422"/>
<text text-anchor="start" x="308.88" y="-406.9" font-family="Verdana" font-size="8.00">Object</text>
<text text-anchor="start" x="299.12" y="-396.4" font-family="Verdana" font-size="8.00">Persistence</text>
</g>
<!-- interp&#45;&gt;persist -->
<g id="edge17" class="edge">
<title>interp&#45;&gt;persist</title>
<path fill="none" stroke="black" d="M252.14,-369C261.31,-373.66 271.57,-378.88 281.31,-383.83"/>
<polygon fill="black" stroke="black" points="279.32,-387.25 289.82,-388.66 282.5,-381.01 279.32,-387.25"/>
</g>
<!-- vm -->
<g id="node24" class="node">
<title>vm</title>
<polygon fill="cornsilk" stroke="cornsilk" points="552.38,-399 498.38,-399 498.38,-363 552.38,-363 552.38,-399"/>
<text text-anchor="start" x="508.12" y="-383.9" font-family="Verdana" font-size="8.00">A Virtual</text>
<text text-anchor="start" x="508.88" y="-373.4" font-family="Verdana" font-size="8.00">Machine</text>
</g>
<!-- interp&#45;&gt;vm -->
<g id="edge28" class="edge">
<title>interp&#45;&gt;vm</title>
<path fill="none" stroke="black" d="M233.11,-372.26C244.32,-390.07 263.76,-416.53 287.75,-431 328.47,-455.56 344.97,-448.86 392.25,-454 420.53,-457.08 430.16,-465.34 456.25,-454 477.71,-444.67 495.48,-424.88 507.49,-408.26"/>
<polygon fill="black" stroke="black" points="510.77,-410.66 513.55,-400.43 505,-406.69 510.77,-410.66"/>
</g>
<!-- func&#45;&gt;reflect -->
<g id="edge5" class="edge">
<title>func&#45;&gt;reflect</title>
<path fill="none" stroke="black" d="M349.87,-331.51C361.53,-323.48 375.36,-313.96 387.85,-305.36"/>
<polygon fill="black" stroke="black" points="389.41,-307.86 395.66,-299.3 385.44,-302.09 389.41,-307.86"/>
</g>
<!-- reflect&#45;&gt;archive -->
<g id="edge7" class="edge">
<title>reflect&#45;&gt;archive</title>
<path fill="none" stroke="black" d="M437.77,-262.74C443.47,-254.34 450.27,-244.21 456.25,-235 474.14,-207.45 493.98,-175.54 507.62,-153.39"/>
<polygon fill="black" stroke="black" points="510.98,-155.6 513.23,-145.25 505.02,-151.94 510.98,-155.6"/>
</g>
<!-- perf -->
<g id="node14" class="node">
<title>perf</title>
<polygon fill="pink" stroke="pink" points="558.5,-291 492.25,-291 492.25,-255 558.5,-255 558.5,-291"/>
<text text-anchor="start" x="500.25" y="-275.9" font-family="Verdana" font-size="8.00">Performance</text>
<text text-anchor="start" x="508.88" y="-265.4" font-family="Verdana" font-size="8.00">Profiling</text>
</g>
<!-- reflect&#45;&gt;perf -->
<g id="edge16" class="edge">
<title>reflect&#45;&gt;perf</title>
<path fill="none" stroke="black" d="M452.07,-278.84C460.99,-278.12 471.16,-277.29 481,-276.5"/>
<polygon fill="black" stroke="black" points="481.19,-279.92 490.88,-275.62 480.63,-272.94 481.19,-279.92"/>
</g>
<!-- db -->
<g id="node17" class="node">
<title>db</title>
<polygon fill="pink" stroke="pink" points="555.88,-345 494.88,-345 494.88,-309 555.88,-309 555.88,-345"/>
<text text-anchor="start" x="502.88" y="-324.65" font-family="Verdana" font-size="8.00">A Database</text>
</g>
<!-- reflect&#45;&gt;db -->
<g id="edge19" class="edge">
<title>reflect&#45;&gt;db</title>
<path fill="none" stroke="black" d="M452.07,-293.45C462.08,-298.09 473.67,-303.47 484.6,-308.54"/>
<polygon fill="black" stroke="black" points="482.84,-312.05 493.38,-313.08 485.79,-305.7 482.84,-312.05"/>
</g>
<!-- ftp -->
<g id="node20" class="node">
<title>ftp</title>
<polygon fill="cornsilk" stroke="cornsilk" points="660,-144 594.5,-144 594.5,-108 660,-108 660,-144"/>
<text text-anchor="start" x="602.5" y="-128.9" font-family="Verdana" font-size="8.00">Transferring</text>
<text text-anchor="start" x="618.25" y="-118.4" font-family="Verdana" font-size="8.00">Files</text>
</g>
<!-- archive&#45;&gt;ftp -->
<g id="edge24" class="edge">
<title>archive&#45;&gt;ftp</title>
<path fill="none" stroke="black" d="M552.62,-126C562.05,-126 572.96,-126 583.44,-126"/>
<polygon fill="black" stroke="black" points="583.13,-129.5 593.12,-126 583.12,-122.5 583.13,-129.5"/>
</g>
<!-- check&#45;&gt;template -->
<g id="edge11" class="edge">
<title>check&#45;&gt;template</title>
<path fill="none" stroke="black" d="M248.99,-211.88C259.5,-218.61 271.79,-226.49 283.22,-233.8"/>
<polygon fill="black" stroke="black" points="280.83,-237.07 291.14,-239.52 284.61,-231.18 280.83,-237.07"/>
</g>
<!-- lint -->
<g id="node12" class="node">
<title>lint</title>
<polygon fill="pink" stroke="pink" points="349,-222 295,-222 295,-186 349,-186 349,-222"/>
<text text-anchor="start" x="308.12" y="-206.9" font-family="Verdana" font-size="8.00">A Code</text>
<text text-anchor="start" x="310.38" y="-196.4" font-family="Verdana" font-size="8.00">Linter</text>
</g>
<!-- check&#45;&gt;lint -->
<g id="edge13" class="edge">
<title>check&#45;&gt;lint</title>
<path fill="none" stroke="black" d="M248.99,-197.41C259.68,-198.39 272.23,-199.54 283.83,-200.6"/>
<polygon fill="black" stroke="black" points="283.29,-204.16 293.56,-201.58 283.93,-197.18 283.29,-204.16"/>
</g>
<!-- layout -->
<g id="node13" class="node">
<title>layout</title>
<polygon fill="pink" stroke="pink" points="456.25,-226 392.25,-226 392.25,-190 456.25,-190 456.25,-226"/>
<text text-anchor="start" x="400.25" y="-205.65" font-family="Verdana" font-size="8.00">Page Layout</text>
</g>
<!-- check&#45;&gt;layout -->
<g id="edge14" class="edge">
<title>check&#45;&gt;layout</title>
<path fill="none" stroke="black" d="M248.9,-186C260.64,-182.43 274.73,-178.77 287.75,-177 317.92,-172.91 326.52,-170.45 356.25,-177 364.88,-178.9 373.73,-182.03 382.04,-185.58"/>
<polygon fill="black" stroke="black" points="380.32,-189.1 390.87,-190.07 383.23,-182.73 380.32,-189.1"/>
</g>
<!-- template&#45;&gt;layout -->
<g id="edge15" class="edge">
<title>template&#45;&gt;layout</title>
<path fill="none" stroke="black" d="M352.54,-243.27C361.81,-238.65 372.21,-233.45 382.13,-228.51"/>
<polygon fill="black" stroke="black" points="383.44,-231.27 390.83,-223.67 380.32,-225 383.44,-231.27"/>
</g>
<!-- binary -->
<g id="node16" class="node">
<title>binary</title>
<polygon fill="cornsilk" stroke="cornsilk" points="455.5,-391 393,-391 393,-355 455.5,-355 455.5,-391"/>
<text text-anchor="start" x="401" y="-370.65" font-family="Verdana" font-size="8.00">Binary Data</text>
</g>
<!-- persist&#45;&gt;binary -->
<g id="edge18" class="edge">
<title>persist&#45;&gt;binary</title>
<path fill="none" stroke="black" d="M353.35,-394.61C362.49,-391.79 372.68,-388.64 382.38,-385.64"/>
<polygon fill="black" stroke="black" points="383.14,-388.76 391.66,-382.46 381.07,-382.07 383.14,-388.76"/>
</g>
<!-- persist&#45;&gt;db -->
<g id="edge21" class="edge">
<title>persist&#45;&gt;db</title>
<path fill="none" stroke="black" d="M345.61,-385.79C349.18,-382.87 352.83,-379.86 356.25,-377 372.45,-363.45 373.03,-354.74 392.25,-346 421.08,-332.89 456.78,-328.36 483.81,-326.99"/>
<polygon fill="black" stroke="black" points="483.58,-330.46 493.44,-326.59 483.32,-323.47 483.58,-330.46"/>
</g>
<!-- build -->
<g id="node18" class="node">
<title>build</title>
<polygon fill="pink" stroke="pink" points="451.25,-445 397.25,-445 397.25,-409 451.25,-409 451.25,-445"/>
<text text-anchor="start" x="410" y="-429.9" font-family="Verdana" font-size="8.00">A Build</text>
<text text-anchor="start" x="407" y="-419.4" font-family="Verdana" font-size="8.00">Manager</text>
</g>
<!-- persist&#45;&gt;build -->
<g id="edge22" class="edge">
<title>persist&#45;&gt;build</title>
<path fill="none" stroke="black" d="M353.35,-410.96C363.81,-413.36 375.64,-416.08 386.55,-418.58"/>
<polygon fill="black" stroke="black" points="385.54,-422.17 396.07,-420.99 387.11,-415.35 385.54,-422.17"/>
</g>
<!-- binary&#45;&gt;db -->
<g id="edge20" class="edge">
<title>binary&#45;&gt;db</title>
<path fill="none" stroke="black" d="M455.8,-358.82C464.92,-354.59 475.05,-349.89 484.67,-345.43"/>
<polygon fill="black" stroke="black" points="485.84,-348.28 493.44,-340.89 482.89,-341.93 485.84,-348.28"/>
</g>
<!-- binary&#45;&gt;vm -->
<g id="edge27" class="edge">
<title>binary&#45;&gt;vm</title>
<path fill="none" stroke="black" d="M455.8,-375.47C465.74,-376.27 476.89,-377.17 487.26,-378"/>
<polygon fill="black" stroke="black" points="486.86,-381.56 497.11,-378.88 487.42,-374.59 486.86,-381.56"/>
</g>
<!-- http -->
<g id="node21" class="node">
<title>http</title>
<polygon fill="pink" stroke="pink" points="763,-144 696,-144 696,-108 763,-108 763,-144"/>
<text text-anchor="start" x="704" y="-128.9" font-family="Verdana" font-size="8.00">Serving Web</text>
<text text-anchor="start" x="717.88" y="-118.4" font-family="Verdana" font-size="8.00">Pages</text>
</g>
<!-- ftp&#45;&gt;http -->
<g id="edge25" class="edge">
<title>ftp&#45;&gt;http</title>
<path fill="none" stroke="black" d="M660.25,-126C668.13,-126 676.72,-126 685.05,-126"/>
<polygon fill="black" stroke="black" points="684.78,-129.5 694.78,-126 684.78,-122.5 684.78,-129.5"/>
</g>
<!-- viewer -->
<g id="node22" class="node">
<title>viewer</title>
<polygon fill="aquamarine" stroke="aquamarine" points="552.38,-36 498.38,-36 498.38,0 552.38,0 552.38,-36"/>
<text text-anchor="start" x="514.5" y="-20.9" font-family="Verdana" font-size="8.00">A File</text>
<text text-anchor="start" x="511.88" y="-10.4" font-family="Verdana" font-size="8.00">Viewer</text>
</g>
<!-- undo -->
<g id="node23" class="node">
<title>undo</title>
<polygon fill="pink" stroke="pink" points="654.75,-36 599.75,-36 599.75,0 654.75,0 654.75,-36"/>
<text text-anchor="start" x="607.75" y="-20.9" font-family="Verdana" font-size="8.00">Undo and</text>
<text text-anchor="start" x="617.5" y="-10.4" font-family="Verdana" font-size="8.00">Redo</text>
</g>
<!-- viewer&#45;&gt;undo -->
<g id="edge26" class="edge">
<title>viewer&#45;&gt;undo</title>
<path fill="none" stroke="black" d="M552.62,-18C563.68,-18 576.76,-18 588.81,-18"/>
<polygon fill="black" stroke="black" points="588.49,-21.5 598.49,-18 588.49,-14.5 588.49,-21.5"/>
</g>
<!-- debugger -->
<g id="node25" class="node">
<title>debugger</title>
<polygon fill="pink" stroke="pink" points="659.25,-90 595.25,-90 595.25,-54 659.25,-54 659.25,-90"/>
<text text-anchor="start" x="603.25" y="-69.65" font-family="Verdana" font-size="8.00">A Debugger</text>
</g>
<!-- viewer&#45;&gt;debugger -->
<g id="edge30" class="edge">
<title>viewer&#45;&gt;debugger</title>
<path fill="none" stroke="black" d="M552.62,-32.19C562.63,-37.6 574.3,-43.91 585.35,-49.89"/>
<polygon fill="black" stroke="black" points="583.39,-53.35 593.85,-55.03 586.72,-47.19 583.39,-53.35"/>
</g>
<!-- vm&#45;&gt;debugger -->
<g id="edge29" class="edge">
<title>vm&#45;&gt;debugger</title>
<path fill="none" stroke="black" d="M552.18,-362.55C554.62,-359.92 556.8,-357.06 558.5,-354 612.36,-256.82 543.57,-202.51 595.69,-99.91"/>
<polygon fill="black" stroke="black" points="599.1,-101.95 600.75,-91.48 592.94,-98.64 599.1,-101.95"/>
</g>
</g>
</svg>
