<?xml version="1.0" encoding="UTF-8" standalone="no"?>
<!DOCTYPE svg PUBLIC "-//W3C//DTD SVG 1.1//EN"
 "http://www.w3.org/Graphics/SVG/1.1/DTD/svg11.dtd">
<!-- Generated by graphviz version 8.0.5 (20230430.1635)
 -->
<!-- Pages: 1 -->
<svg width="1048pt" height="392pt"
 viewBox="0.00 0.00 1048.25 392.00" xmlns="http://www.w3.org/2000/svg" xmlns:xlink="http://www.w3.org/1999/xlink">
<g id="graph0" class="graph" transform="scale(1 1) rotate(0) translate(4 388)">
<polygon fill="white" stroke="none" points="-4,4 -4,-388 1044.25,-388 1044.25,4 -4,4"/>
<!-- oop -->
<g id="node1" class="node">
<title>oop</title>
<polygon fill="cornsilk" stroke="cornsilk" points="156.62,-272 91.88,-272 91.88,-236 156.62,-236 156.62,-272"/>
<text text-anchor="start" x="99.88" y="-256.9" font-family="Verdana" font-size="8.00">Objects and</text>
<text text-anchor="start" x="109.25" y="-246.4" font-family="Verdana" font-size="8.00">Classes</text>
</g>
<!-- template -->
<g id="node2" class="node">
<title>template</title>
<polygon fill="cornsilk" stroke="cornsilk" points="254.75,-299 194.5,-299 194.5,-263 254.75,-263 254.75,-299"/>
<text text-anchor="start" x="202.5" y="-283.9" font-family="Verdana" font-size="8.00">A Template</text>
<text text-anchor="start" x="205.5" y="-273.4" font-family="Verdana" font-size="8.00">Expander</text>
</g>
<!-- oop&#45;&gt;template -->
<g id="edge1" class="edge">
<title>oop&#45;&gt;template</title>
<path fill="none" stroke="black" d="M156.92,-262.69C165.38,-265.02 174.65,-267.56 183.5,-269.99"/>
<polygon fill="black" stroke="black" points="182.45,-273.6 193.02,-272.88 184.3,-266.85 182.45,-273.6"/>
</g>
<!-- perf -->
<g id="node12" class="node">
<title>perf</title>
<polygon fill="cornsilk" stroke="cornsilk" points="357,-249 290.75,-249 290.75,-213 357,-213 357,-249"/>
<text text-anchor="start" x="298.75" y="-233.9" font-family="Verdana" font-size="8.00">Performance</text>
<text text-anchor="start" x="307.38" y="-223.4" font-family="Verdana" font-size="8.00">Profiling</text>
</g>
<!-- template&#45;&gt;perf -->
<g id="edge16" class="edge">
<title>template&#45;&gt;perf</title>
<path fill="none" stroke="black" d="M255.07,-265.86C263.19,-261.69 272.17,-257.07 280.85,-252.61"/>
<polygon fill="black" stroke="black" points="282.19,-255.34 289.48,-247.66 278.99,-249.12 282.19,-255.34"/>
</g>
<!-- dup -->
<g id="node3" class="node">
<title>dup</title>
<polygon fill="cornsilk" stroke="cornsilk" points="943.88,-147.75 889.88,-147.75 889.88,-108.25 943.88,-108.25 943.88,-147.75"/>
<text text-anchor="start" x="901.88" y="-136.15" font-family="Verdana" font-size="8.00">Finding</text>
<text text-anchor="start" x="898.12" y="-125.65" font-family="Verdana" font-size="8.00">Duplicate</text>
<text text-anchor="start" x="907.88" y="-115.15" font-family="Verdana" font-size="8.00">Files</text>
</g>
<!-- archive -->
<g id="node4" class="node">
<title>archive</title>
<polygon fill="cornsilk" stroke="cornsilk" points="850,-118 796,-118 796,-82 850,-82 850,-118"/>
<text text-anchor="start" x="812.12" y="-102.9" font-family="Verdana" font-size="8.00">A File</text>
<text text-anchor="start" x="806.12" y="-92.4" font-family="Verdana" font-size="8.00">Archiver</text>
</g>
<!-- dup&#45;&gt;archive -->
<g id="edge2" class="edge">
<title>dup&#45;&gt;archive</title>
<path fill="none" stroke="black" d="M889.41,-126.11C880.33,-123.91 870.02,-120.91 860.3,-117.68"/>
<polygon fill="black" stroke="black" points="861.68,-114.1 851.08,-114.1 859.36,-120.71 861.68,-114.1"/>
</g>
<!-- archive&#45;&gt;dup -->
<g id="edge9" class="edge">
<title>archive&#45;&gt;dup</title>
<path fill="none" stroke="black" d="M850.08,-101.79C859.12,-103.97 869.43,-106.96 879.16,-110.18"/>
<polygon fill="black" stroke="black" points="877.81,-113.77 888.41,-113.75 880.12,-107.16 877.81,-113.77"/>
</g>
<!-- archive&#45;&gt;perf -->
<g id="edge10" class="edge">
<title>archive&#45;&gt;perf</title>
<path fill="none" stroke="black" d="M795.69,-94.9C758.42,-88.12 688.02,-77 627.5,-77 524.75,-77 524.75,-77 524.75,-77 442.55,-77 373.46,-159.75 342.43,-203.93"/>
<polygon fill="black" stroke="black" points="339.17,-201.5 336.4,-211.73 344.94,-205.46 339.17,-201.5"/>
</g>
<!-- persist -->
<g id="node13" class="node">
<title>persist</title>
<polygon fill="pink" stroke="pink" points="947.75,-90 886,-90 886,-54 947.75,-54 947.75,-90"/>
<text text-anchor="start" x="903.75" y="-74.9" font-family="Verdana" font-size="8.00">Object</text>
<text text-anchor="start" x="894" y="-64.4" font-family="Verdana" font-size="8.00">Persistence</text>
</g>
<!-- archive&#45;&gt;persist -->
<g id="edge11" class="edge">
<title>archive&#45;&gt;persist</title>
<path fill="none" stroke="black" d="M850.08,-92.05C857.84,-89.69 866.54,-87.04 875,-84.46"/>
<polygon fill="black" stroke="black" points="875.96,-87.52 884.51,-81.26 873.92,-80.82 875.96,-87.52"/>
</g>
<!-- build -->
<g id="node14" class="node">
<title>build</title>
<polygon fill="cornsilk" stroke="cornsilk" points="943.88,-36 889.88,-36 889.88,0 943.88,0 943.88,-36"/>
<text text-anchor="start" x="902.62" y="-20.9" font-family="Verdana" font-size="8.00">A Build</text>
<text text-anchor="start" x="899.62" y="-10.4" font-family="Verdana" font-size="8.00">Manager</text>
</g>
<!-- archive&#45;&gt;build -->
<g id="edge12" class="edge">
<title>archive&#45;&gt;build</title>
<path fill="none" stroke="black" d="M844.39,-81.8C857.03,-70.52 873.45,-55.86 887.37,-43.44"/>
<polygon fill="black" stroke="black" points="889.09,-46.7 894.22,-37.43 884.43,-41.48 889.09,-46.7"/>
</g>
<!-- glob -->
<g id="node5" class="node">
<title>glob</title>
<polygon fill="aquamarine" stroke="aquamarine" points="350.88,-307 296.88,-307 296.88,-271 350.88,-271 350.88,-307"/>
<text text-anchor="start" x="305.5" y="-291.9" font-family="Verdana" font-size="8.00">Matching</text>
<text text-anchor="start" x="307.38" y="-281.4" font-family="Verdana" font-size="8.00">Patterns</text>
</g>
<!-- parse -->
<g id="node6" class="node">
<title>parse</title>
<polygon fill="cornsilk" stroke="cornsilk" points="458.5,-307 393,-307 393,-271 458.5,-271 458.5,-307"/>
<text text-anchor="start" x="401" y="-286.65" font-family="Verdana" font-size="8.00">Parsing Text</text>
</g>
<!-- glob&#45;&gt;parse -->
<g id="edge3" class="edge">
<title>glob&#45;&gt;parse</title>
<path fill="none" stroke="black" d="M351.12,-289C360.55,-289 371.46,-289 381.94,-289"/>
<polygon fill="black" stroke="black" points="381.63,-292.5 391.62,-289 381.62,-285.5 381.63,-292.5"/>
</g>
<!-- interp -->
<g id="node7" class="node">
<title>interp</title>
<polygon fill="cornsilk" stroke="cornsilk" points="555.88,-307 495.62,-307 495.62,-271 555.88,-271 555.88,-307"/>
<text text-anchor="start" x="520.5" y="-291.9" font-family="Verdana" font-size="8.00">An</text>
<text text-anchor="start" x="503.62" y="-281.4" font-family="Verdana" font-size="8.00">Interpreter</text>
</g>
<!-- parse&#45;&gt;interp -->
<g id="edge4" class="edge">
<title>parse&#45;&gt;interp</title>
<path fill="none" stroke="black" d="M458.84,-289C466.99,-289 475.85,-289 484.36,-289"/>
<polygon fill="black" stroke="black" points="484.24,-292.5 494.24,-289 484.24,-285.5 484.24,-292.5"/>
</g>
<!-- check -->
<g id="node9" class="node">
<title>check</title>
<polygon fill="cornsilk" stroke="cornsilk" points="653.5,-357 599.5,-357 599.5,-321 653.5,-321 653.5,-357"/>
<text text-anchor="start" x="608.5" y="-341.9" font-family="Verdana" font-size="8.00">An HTML</text>
<text text-anchor="start" x="608.88" y="-331.4" font-family="Verdana" font-size="8.00">Validator</text>
</g>
<!-- interp&#45;&gt;check -->
<g id="edge6" class="edge">
<title>interp&#45;&gt;check</title>
<path fill="none" stroke="black" d="M556.11,-303.87C566.56,-309.16 578.44,-315.17 589.39,-320.72"/>
<polygon fill="black" stroke="black" points="587.61,-324.24 598.11,-325.64 590.77,-318 587.61,-324.24"/>
</g>
<!-- test -->
<g id="node8" class="node">
<title>test</title>
<polygon fill="aquamarine" stroke="aquamarine" points="54,-272 0,-272 0,-236 54,-236 54,-272"/>
<text text-anchor="start" x="10.12" y="-256.9" font-family="Verdana" font-size="8.00">Running</text>
<text text-anchor="start" x="16.5" y="-246.4" font-family="Verdana" font-size="8.00">Tests</text>
</g>
<!-- test&#45;&gt;oop -->
<g id="edge5" class="edge">
<title>test&#45;&gt;oop</title>
<path fill="none" stroke="black" d="M54.28,-254C62.5,-254 71.79,-254 80.83,-254"/>
<polygon fill="black" stroke="black" points="80.64,-257.5 90.64,-254 80.64,-250.5 80.64,-257.5"/>
</g>
<!-- check&#45;&gt;template -->
<g id="edge13" class="edge">
<title>check&#45;&gt;template</title>
<path fill="none" stroke="black" d="M599.24,-340.89C541.92,-344.23 401.85,-348.05 290.75,-316 281.43,-313.31 271.94,-309.16 263.19,-304.65"/>
<polygon fill="black" stroke="black" points="265.13,-301.17 254.67,-299.45 261.77,-307.31 265.13,-301.17"/>
</g>
<!-- lint -->
<g id="node15" class="node">
<title>lint</title>
<polygon fill="pink" stroke="pink" points="755,-330 701,-330 701,-294 755,-294 755,-330"/>
<text text-anchor="start" x="714.12" y="-314.9" font-family="Verdana" font-size="8.00">A Code</text>
<text text-anchor="start" x="716.38" y="-304.4" font-family="Verdana" font-size="8.00">Linter</text>
</g>
<!-- check&#45;&gt;lint -->
<g id="edge14" class="edge">
<title>check&#45;&gt;lint</title>
<path fill="none" stroke="black" d="M653.9,-331.84C665.12,-328.79 678.4,-325.19 690.53,-321.9"/>
<polygon fill="black" stroke="black" points="691.08,-325.1 699.82,-319.1 689.25,-318.35 691.08,-325.1"/>
</g>
<!-- layout -->
<g id="node16" class="node">
<title>layout</title>
<polygon fill="pink" stroke="pink" points="760,-384 696,-384 696,-348 760,-348 760,-384"/>
<text text-anchor="start" x="704" y="-363.65" font-family="Verdana" font-size="8.00">Page Layout</text>
</g>
<!-- check&#45;&gt;layout -->
<g id="edge15" class="edge">
<title>check&#45;&gt;layout</title>
<path fill="none" stroke="black" d="M653.9,-346.16C663.49,-348.77 674.57,-351.77 685.16,-354.65"/>
<polygon fill="black" stroke="black" points="683.95,-358.22 694.51,-357.46 685.78,-351.46 683.95,-358.22"/>
</g>
<!-- func -->
<g id="node10" class="node">
<title>func</title>
<polygon fill="aquamarine" stroke="aquamarine" points="158.5,-326 90,-326 90,-290 158.5,-290 158.5,-326"/>
<text text-anchor="start" x="104.75" y="-310.9" font-family="Verdana" font-size="8.00">Functions</text>
<text text-anchor="start" x="98" y="-300.4" font-family="Verdana" font-size="8.00">and Closures</text>
</g>
<!-- func&#45;&gt;template -->
<g id="edge7" class="edge">
<title>func&#45;&gt;template</title>
<path fill="none" stroke="black" d="M158.83,-298.78C166.8,-296.6 175.39,-294.24 183.61,-291.98"/>
<polygon fill="black" stroke="black" points="184.43,-295.11 193.14,-289.09 182.57,-288.36 184.43,-295.11"/>
</g>
<!-- reflect -->
<g id="node11" class="node">
<title>reflect</title>
<polygon fill="cornsilk" stroke="cornsilk" points="755.5,-141 700.5,-141 700.5,-105 755.5,-105 755.5,-141"/>
<text text-anchor="start" x="708.5" y="-120.65" font-family="Verdana" font-size="8.00">Reflection</text>
</g>
<!-- reflect&#45;&gt;archive -->
<g id="edge8" class="edge">
<title>reflect&#45;&gt;archive</title>
<path fill="none" stroke="black" d="M755.9,-116.35C765.02,-114.09 775.37,-111.53 785.13,-109.12"/>
<polygon fill="black" stroke="black" points="785.94,-112.28 794.8,-106.48 784.25,-105.48 785.94,-112.28"/>
</g>
<!-- db -->
<g id="node17" class="node">
<title>db</title>
<polygon fill="cornsilk" stroke="cornsilk" points="456.25,-249 395.25,-249 395.25,-213 456.25,-213 456.25,-249"/>
<text text-anchor="start" x="403.25" y="-228.65" font-family="Verdana" font-size="8.00">A Database</text>
</g>
<!-- perf&#45;&gt;db -->
<g id="edge17" class="edge">
<title>perf&#45;&gt;db</title>
<path fill="none" stroke="black" d="M357.3,-231C365.79,-231 375.06,-231 383.92,-231"/>
<polygon fill="black" stroke="black" points="383.85,-234.5 393.85,-231 383.85,-227.5 383.85,-234.5"/>
</g>
<!-- pack -->
<g id="node23" class="node">
<title>pack</title>
<polygon fill="pink" stroke="pink" points="1040.25,-36 983.75,-36 983.75,0 1040.25,0 1040.25,-36"/>
<text text-anchor="start" x="991.75" y="-20.9" font-family="Verdana" font-size="8.00">A Package</text>
<text text-anchor="start" x="994.75" y="-10.4" font-family="Verdana" font-size="8.00">Manager</text>
</g>
<!-- build&#45;&gt;pack -->
<g id="edge25" class="edge">
<title>build&#45;&gt;pack</title>
<path fill="none" stroke="black" d="M944.31,-18C953.12,-18 963.13,-18 972.66,-18"/>
<polygon fill="black" stroke="black" points="972.52,-21.5 982.52,-18 972.52,-14.5 972.52,-21.5"/>
</g>
<!-- db&#45;&gt;interp -->
<g id="edge22" class="edge">
<title>db&#45;&gt;interp</title>
<path fill="none" stroke="black" d="M456.69,-248.72C465.98,-254.22 476.37,-260.37 486.17,-266.17"/>
<polygon fill="black" stroke="black" points="483.95,-269.51 494.33,-271.59 487.51,-263.49 483.95,-269.51"/>
</g>
<!-- binary -->
<g id="node18" class="node">
<title>binary</title>
<polygon fill="cornsilk" stroke="cornsilk" points="557,-249 494.5,-249 494.5,-213 557,-213 557,-249"/>
<text text-anchor="start" x="502.5" y="-228.65" font-family="Verdana" font-size="8.00">Binary Data</text>
</g>
<!-- db&#45;&gt;binary -->
<g id="edge23" class="edge">
<title>db&#45;&gt;binary</title>
<path fill="none" stroke="black" d="M456.69,-224.73C465.17,-224.28 474.56,-224.15 483.58,-224.33"/>
<polygon fill="black" stroke="black" points="483.21,-227.85 493.32,-224.7 483.45,-220.86 483.21,-227.85"/>
</g>
<!-- vm -->
<g id="node22" class="node">
<title>vm</title>
<polygon fill="cornsilk" stroke="cornsilk" points="552.75,-168 498.75,-168 498.75,-132 552.75,-132 552.75,-168"/>
<text text-anchor="start" x="508.5" y="-152.9" font-family="Verdana" font-size="8.00">A Virtual</text>
<text text-anchor="start" x="509.25" y="-142.4" font-family="Verdana" font-size="8.00">Machine</text>
</g>
<!-- db&#45;&gt;vm -->
<g id="edge24" class="edge">
<title>db&#45;&gt;vm</title>
<path fill="none" stroke="black" d="M448.99,-212.62C462.39,-201.54 479.66,-187.27 494.32,-175.15"/>
<polygon fill="black" stroke="black" points="496.12,-177.38 501.6,-168.31 491.66,-171.98 496.12,-177.38"/>
</g>
<!-- binary&#45;&gt;db -->
<g id="edge18" class="edge">
<title>binary&#45;&gt;db</title>
<path fill="none" stroke="black" d="M494.32,-237.3C485.8,-237.73 476.41,-237.85 467.4,-237.66"/>
<polygon fill="black" stroke="black" points="467.81,-234.14 457.69,-237.27 467.55,-241.13 467.81,-234.14"/>
</g>
<!-- ftp -->
<g id="node19" class="node">
<title>ftp</title>
<polygon fill="pink" stroke="pink" points="659.25,-303 593.75,-303 593.75,-267 659.25,-267 659.25,-303"/>
<text text-anchor="start" x="601.75" y="-287.9" font-family="Verdana" font-size="8.00">Transferring</text>
<text text-anchor="start" x="617.5" y="-277.4" font-family="Verdana" font-size="8.00">Files</text>
</g>
<!-- binary&#45;&gt;ftp -->
<g id="edge19" class="edge">
<title>binary&#45;&gt;ftp</title>
<path fill="none" stroke="black" d="M557.45,-247.79C565.85,-252.38 575.1,-257.44 583.99,-262.3"/>
<polygon fill="black" stroke="black" points="582,-265.75 592.45,-267.47 585.35,-259.6 582,-265.75"/>
</g>
<!-- http -->
<g id="node20" class="node">
<title>http</title>
<polygon fill="pink" stroke="pink" points="660,-249 593,-249 593,-213 660,-213 660,-249"/>
<text text-anchor="start" x="601" y="-233.9" font-family="Verdana" font-size="8.00">Serving Web</text>
<text text-anchor="start" x="614.88" y="-223.4" font-family="Verdana" font-size="8.00">Pages</text>
</g>
<!-- binary&#45;&gt;http -->
<g id="edge20" class="edge">
<title>binary&#45;&gt;http</title>
<path fill="none" stroke="black" d="M557.45,-231C565.16,-231 573.58,-231 581.79,-231"/>
<polygon fill="black" stroke="black" points="581.76,-234.5 591.76,-231 581.76,-227.5 581.76,-234.5"/>
</g>
<!-- viewer -->
<g id="node21" class="node">
<title>viewer</title>
<polygon fill="cornsilk" stroke="cornsilk" points="653.5,-195 599.5,-195 599.5,-159 653.5,-159 653.5,-195"/>
<text text-anchor="start" x="615.62" y="-179.9" font-family="Verdana" font-size="8.00">A File</text>
<text text-anchor="start" x="613" y="-169.4" font-family="Verdana" font-size="8.00">Viewer</text>
</g>
<!-- binary&#45;&gt;viewer -->
<g id="edge21" class="edge">
<title>binary&#45;&gt;viewer</title>
<path fill="none" stroke="black" d="M557.45,-214.21C567.68,-208.62 579.17,-202.34 589.75,-196.55"/>
<polygon fill="black" stroke="black" points="591.05,-199.28 598.15,-191.41 587.69,-193.14 591.05,-199.28"/>
</g>
<!-- viewer&#45;&gt;reflect -->
<g id="edge26" class="edge">
<title>viewer&#45;&gt;reflect</title>
<path fill="none" stroke="black" d="M653.9,-162.67C665.17,-156.56 678.5,-149.32 690.67,-142.71"/>
<polygon fill="black" stroke="black" points="692.01,-145.43 699.13,-137.58 688.67,-139.28 692.01,-145.43"/>
</g>
<!-- undo -->
<g id="node24" class="node">
<title>undo</title>
<polygon fill="pink" stroke="pink" points="755.5,-195 700.5,-195 700.5,-159 755.5,-159 755.5,-195"/>
<text text-anchor="start" x="708.5" y="-179.9" font-family="Verdana" font-size="8.00">Undo and</text>
<text text-anchor="start" x="718.25" y="-169.4" font-family="Verdana" font-size="8.00">Redo</text>
</g>
<!-- viewer&#45;&gt;undo -->
<g id="edge27" class="edge">
<title>viewer&#45;&gt;undo</title>
<path fill="none" stroke="black" d="M653.9,-177C664.72,-177 677.45,-177 689.22,-177"/>
<polygon fill="black" stroke="black" points="689.13,-180.5 699.13,-177 689.13,-173.5 689.13,-180.5"/>
</g>
<!-- debugger -->
<g id="node25" class="node">
<title>debugger</title>
<polygon fill="pink" stroke="pink" points="658.5,-141 594.5,-141 594.5,-105 658.5,-105 658.5,-141"/>
<text text-anchor="start" x="602.5" y="-120.65" font-family="Verdana" font-size="8.00">A Debugger</text>
</g>
<!-- vm&#45;&gt;debugger -->
<g id="edge28" class="edge">
<title>vm&#45;&gt;debugger</title>
<path fill="none" stroke="black" d="M553.21,-142.76C562.54,-140.21 573.27,-137.28 583.56,-134.47"/>
<polygon fill="black" stroke="black" points="584.32,-137.61 593.05,-131.6 582.48,-130.86 584.32,-137.61"/>
</g>
</g>
</svg>
