<?xml version="1.0" encoding="UTF-8" standalone="no"?>
<!DOCTYPE svg PUBLIC "-//W3C//DTD SVG 1.1//EN"
 "http://www.w3.org/Graphics/SVG/1.1/DTD/svg11.dtd">
<!-- Generated by graphviz version 7.1.0 (20230121.1956)
 -->
<!-- Title: syllabus Pages: 1 -->
<svg width="882pt" height="330pt"
 viewBox="0.00 0.00 882.00 330.00" xmlns="http://www.w3.org/2000/svg" xmlns:xlink="http://www.w3.org/1999/xlink">
<g id="graph0" class="graph" transform="scale(1 1) rotate(0) translate(4 326)">
<title>syllabus</title>
<polygon fill="white" stroke="none" points="-4,4 -4,-326 878,-326 878,4 -4,4"/>
<g id="clust18" class="cluster">
<title>cluster_legend</title>
<polygon fill="none" stroke="black" points="598.5,-262 598.5,-314 866,-314 866,-262 598.5,-262"/>
</g>
<!-- archive -->
<g id="node1" class="node">
<title>archive</title>
<polygon fill="cornsilk" stroke="black" points="339.5,-198 285.5,-198 285.5,-162 339.5,-162 339.5,-198"/>
<text text-anchor="middle" x="312.5" y="-182.8" font-family="Verdana" font-size="9.00">file</text>
<text text-anchor="middle" x="312.5" y="-172.8" font-family="Verdana" font-size="9.00">archiver</text>
</g>
<!-- dup -->
<g id="node8" class="node">
<title>dup</title>
<polygon fill="aquamarine" stroke="black" points="58,-221 0,-221 0,-185 58,-185 58,-221"/>
<text text-anchor="middle" x="29" y="-205.8" font-family="Verdana" font-size="9.00">duplicate</text>
<text text-anchor="middle" x="29" y="-195.8" font-family="Verdana" font-size="9.00">file finder</text>
</g>
<!-- archive&#45;&gt;dup -->
<g id="edge1" class="edge">
<title>archive&#45;&gt;dup</title>
<path fill="none" stroke="black" d="M273.6,-183.1C216.38,-187.77 109.22,-196.53 58.28,-200.69"/>
<polygon fill="black" stroke="black" points="273.83,-186.59 283.51,-182.29 273.26,-179.61 273.83,-186.59"/>
</g>
<!-- mock -->
<g id="node12" class="node">
<title>mock</title>
<polygon fill="cornsilk" stroke="black" points="238,-244 184,-244 184,-208 238,-208 238,-244"/>
<text text-anchor="middle" x="211" y="-228.8" font-family="Verdana" font-size="9.00">mock</text>
<text text-anchor="middle" x="211" y="-218.8" font-family="Verdana" font-size="9.00">objects</text>
</g>
<!-- archive&#45;&gt;mock -->
<g id="edge2" class="edge">
<title>archive&#45;&gt;mock</title>
<path fill="none" stroke="black" d="M274.79,-196.97C262.64,-202.59 249.38,-208.72 238.18,-213.9"/>
<polygon fill="black" stroke="black" points="276.12,-200.21 283.72,-192.84 273.18,-193.86 276.12,-200.21"/>
</g>
<!-- re -->
<g id="node19" class="node">
<title>re</title>
<polygon fill="aquamarine" stroke="black" points="238,-148 184,-148 184,-112 238,-112 238,-148"/>
<text text-anchor="middle" x="211" y="-132.8" font-family="Verdana" font-size="9.00">match</text>
<text text-anchor="middle" x="211" y="-122.8" font-family="Verdana" font-size="9.00">regex</text>
</g>
<!-- archive&#45;&gt;re -->
<g id="edge3" class="edge">
<title>archive&#45;&gt;re</title>
<path fill="none" stroke="black" d="M275.16,-161.74C262.91,-155.58 249.49,-148.84 238.18,-143.16"/>
<polygon fill="black" stroke="black" points="273.24,-164.69 283.74,-166.05 276.38,-158.44 273.24,-164.69"/>
</g>
<!-- binary -->
<g id="node2" class="node">
<title>binary</title>
<polygon fill="cornsilk" stroke="black" points="660.5,-36 606.5,-36 606.5,0 660.5,0 660.5,-36"/>
<text text-anchor="middle" x="633.5" y="-20.8" font-family="Verdana" font-size="9.00">binary</text>
<text text-anchor="middle" x="633.5" y="-10.8" font-family="Verdana" font-size="9.00">data</text>
</g>
<!-- persist -->
<g id="node16" class="node">
<title>persist</title>
<polygon fill="aquamarine" stroke="black" points="563,-36 496,-36 496,0 563,0 563,-36"/>
<text text-anchor="middle" x="529.5" y="-20.8" font-family="Verdana" font-size="9.00">object</text>
<text text-anchor="middle" x="529.5" y="-10.8" font-family="Verdana" font-size="9.00">persistence</text>
</g>
<!-- binary&#45;&gt;persist -->
<g id="edge4" class="edge">
<title>binary&#45;&gt;persist</title>
<path fill="none" stroke="black" d="M594.94,-18C584.55,-18 573.35,-18 563.25,-18"/>
<polygon fill="black" stroke="black" points="594.72,-21.5 604.72,-18 594.72,-14.5 594.72,-21.5"/>
</g>
<!-- build -->
<g id="node3" class="node">
<title>build</title>
<polygon fill="cornsilk" stroke="black" points="762.5,-252 706.5,-252 706.5,-216 762.5,-216 762.5,-252"/>
<text text-anchor="middle" x="734.5" y="-236.8" font-family="Verdana" font-size="9.00">build</text>
<text text-anchor="middle" x="734.5" y="-226.8" font-family="Verdana" font-size="9.00">manager</text>
</g>
<!-- pipe -->
<g id="node17" class="node">
<title>pipe</title>
<polygon fill="cornsilk" stroke="black" points="660.5,-198 606.5,-198 606.5,-162 660.5,-162 660.5,-198"/>
<text text-anchor="middle" x="633.5" y="-182.8" font-family="Verdana" font-size="9.00">pipeline</text>
<text text-anchor="middle" x="633.5" y="-172.8" font-family="Verdana" font-size="9.00">runner</text>
</g>
<!-- build&#45;&gt;pipe -->
<g id="edge5" class="edge">
<title>build&#45;&gt;pipe</title>
<path fill="none" stroke="black" d="M696.14,-213.62C684.34,-207.18 671.55,-200.21 660.7,-194.29"/>
<polygon fill="black" stroke="black" points="694.4,-216.66 704.86,-218.38 697.75,-210.52 694.4,-216.66"/>
</g>
<!-- plot -->
<g id="node18" class="node">
<title>plot</title>
<polygon fill="cornsilk" stroke="black" points="660.5,-252 606.5,-252 606.5,-216 660.5,-216 660.5,-252"/>
<text text-anchor="middle" x="633.5" y="-236.8" font-family="Verdana" font-size="9.00">plotting</text>
<text text-anchor="middle" x="633.5" y="-226.8" font-family="Verdana" font-size="9.00">graphs</text>
</g>
<!-- build&#45;&gt;plot -->
<g id="edge6" class="edge">
<title>build&#45;&gt;plot</title>
<path fill="none" stroke="black" d="M694.7,-234C683.31,-234 671.11,-234 660.7,-234"/>
<polygon fill="black" stroke="black" points="694.67,-237.5 704.67,-234 694.67,-230.5 694.67,-237.5"/>
</g>
<!-- cache -->
<g id="node4" class="node">
<title>cache</title>
<polygon fill="cornsilk" stroke="black" points="558.5,-198 500.5,-198 500.5,-162 558.5,-162 558.5,-198"/>
<text text-anchor="middle" x="529.5" y="-177.8" font-family="Verdana" font-size="9.00">file cache</text>
</g>
<!-- cache&#45;&gt;archive -->
<g id="edge7" class="edge">
<title>cache&#45;&gt;archive</title>
<path fill="none" stroke="black" d="M489.15,-180C445.79,-180 377.28,-180 339.93,-180"/>
<polygon fill="black" stroke="black" points="488.88,-183.5 498.88,-180 488.88,-176.5 488.88,-183.5"/>
</g>
<!-- check -->
<g id="node5" class="node">
<title>check</title>
<polygon fill="aquamarine" stroke="black" points="661.5,-90 605.5,-90 605.5,-54 661.5,-54 661.5,-90"/>
<text text-anchor="middle" x="633.5" y="-74.8" font-family="Verdana" font-size="9.00">checking</text>
<text text-anchor="middle" x="633.5" y="-64.8" font-family="Verdana" font-size="9.00">HTML</text>
</g>
<!-- db -->
<g id="node6" class="node">
<title>db</title>
<polygon fill="cornsilk" stroke="black" points="764.5,-36 704.5,-36 704.5,0 764.5,0 764.5,-36"/>
<text text-anchor="middle" x="734.5" y="-20.8" font-family="Verdana" font-size="9.00">key&#45;value</text>
<text text-anchor="middle" x="734.5" y="-10.8" font-family="Verdana" font-size="9.00">store</text>
</g>
<!-- db&#45;&gt;binary -->
<g id="edge8" class="edge">
<title>db&#45;&gt;binary</title>
<path fill="none" stroke="black" d="M692.74,-18C682.01,-18 670.72,-18 660.96,-18"/>
<polygon fill="black" stroke="black" points="692.55,-21.5 702.55,-18 692.55,-14.5 692.55,-21.5"/>
</g>
<!-- df -->
<g id="node7" class="node">
<title>df</title>
<polygon fill="cornsilk" stroke="black" points="561,-252 498,-252 498,-216 561,-216 561,-252"/>
<text text-anchor="middle" x="529.5" y="-236.8" font-family="Verdana" font-size="9.00">dataframe</text>
<text text-anchor="middle" x="529.5" y="-226.8" font-family="Verdana" font-size="9.00">operations</text>
</g>
<!-- perf -->
<g id="node15" class="node">
<title>perf</title>
<polygon fill="cornsilk" stroke="black" points="460,-252 387,-252 387,-216 460,-216 460,-252"/>
<text text-anchor="middle" x="423.5" y="-236.8" font-family="Verdana" font-size="9.00">performance</text>
<text text-anchor="middle" x="423.5" y="-226.8" font-family="Verdana" font-size="9.00">profiling</text>
</g>
<!-- df&#45;&gt;perf -->
<g id="edge9" class="edge">
<title>df&#45;&gt;perf</title>
<path fill="none" stroke="black" d="M486.16,-234C477.56,-234 468.59,-234 460.24,-234"/>
<polygon fill="black" stroke="black" points="486.06,-237.5 496.06,-234 486.06,-230.5 486.06,-237.5"/>
</g>
<!-- interp -->
<g id="node9" class="node">
<title>interp</title>
<polygon fill="aquamarine" stroke="black" points="668,-144 599,-144 599,-108 668,-108 668,-144"/>
<text text-anchor="middle" x="633.5" y="-128.8" font-family="Verdana" font-size="9.00">interpreting</text>
<text text-anchor="middle" x="633.5" y="-118.8" font-family="Verdana" font-size="9.00">expressions</text>
</g>
<!-- lint -->
<g id="node10" class="node">
<title>lint</title>
<polygon fill="pink" stroke="black" points="761.5,-90 707.5,-90 707.5,-54 761.5,-54 761.5,-90"/>
<text text-anchor="middle" x="734.5" y="-69.8" font-family="Verdana" font-size="9.00">linting</text>
</g>
<!-- lint&#45;&gt;check -->
<g id="edge10" class="edge">
<title>lint&#45;&gt;check</title>
<path fill="none" stroke="black" d="M695.89,-72C684.6,-72 672.43,-72 661.93,-72"/>
<polygon fill="black" stroke="black" points="695.72,-75.5 705.72,-72 695.72,-68.5 695.72,-75.5"/>
</g>
<!-- meta -->
<g id="node11" class="node">
<title>meta</title>
<polygon fill="cornsilk" stroke="black" points="351,-252 274,-252 274,-216 351,-216 351,-252"/>
<text text-anchor="middle" x="312.5" y="-236.8" font-family="Verdana" font-size="9.00">meta&#45;</text>
<text text-anchor="middle" x="312.5" y="-226.8" font-family="Verdana" font-size="9.00">programming</text>
</g>
<!-- meta&#45;&gt;mock -->
<g id="edge11" class="edge">
<title>meta&#45;&gt;mock</title>
<path fill="none" stroke="black" d="M262.39,-230.05C254.1,-229.39 245.79,-228.72 238.37,-228.12"/>
<polygon fill="black" stroke="black" points="261.84,-233.52 272.09,-230.83 262.4,-226.54 261.84,-233.52"/>
</g>
<!-- test -->
<g id="node23" class="node">
<title>test</title>
<polygon fill="cornsilk" stroke="black" points="148,-244 94,-244 94,-208 148,-208 148,-244"/>
<text text-anchor="middle" x="121" y="-228.8" font-family="Verdana" font-size="9.00">unit</text>
<text text-anchor="middle" x="121" y="-218.8" font-family="Verdana" font-size="9.00">testing</text>
</g>
<!-- mock&#45;&gt;test -->
<g id="edge12" class="edge">
<title>mock&#45;&gt;test</title>
<path fill="none" stroke="black" d="M172.18,-226C164.16,-226 155.87,-226 148.38,-226"/>
<polygon fill="black" stroke="black" points="172.08,-229.5 182.08,-226 172.08,-222.5 172.08,-229.5"/>
</g>
<!-- pack -->
<g id="node13" class="node">
<title>pack</title>
<polygon fill="pink" stroke="black" points="859,-252 803,-252 803,-216 859,-216 859,-252"/>
<text text-anchor="middle" x="831" y="-236.8" font-family="Verdana" font-size="9.00">package</text>
<text text-anchor="middle" x="831" y="-226.8" font-family="Verdana" font-size="9.00">manager</text>
</g>
<!-- pack&#45;&gt;build -->
<g id="edge13" class="edge">
<title>pack&#45;&gt;build</title>
<path fill="none" stroke="black" d="M791.33,-234C781.75,-234 771.68,-234 762.77,-234"/>
<polygon fill="black" stroke="black" points="791.15,-237.5 801.15,-234 791.15,-230.5 791.15,-237.5"/>
</g>
<!-- parse -->
<g id="node14" class="node">
<title>parse</title>
<polygon fill="pink" stroke="black" points="339.5,-144 285.5,-144 285.5,-108 339.5,-108 339.5,-144"/>
<text text-anchor="middle" x="312.5" y="-128.8" font-family="Verdana" font-size="9.00">parsing</text>
<text text-anchor="middle" x="312.5" y="-118.8" font-family="Verdana" font-size="9.00">text</text>
</g>
<!-- parse&#45;&gt;re -->
<g id="edge14" class="edge">
<title>parse&#45;&gt;re</title>
<path fill="none" stroke="black" d="M273.68,-127.52C261.84,-128 249.04,-128.51 238.18,-128.95"/>
<polygon fill="black" stroke="black" points="273.73,-131.02 283.58,-127.12 273.45,-124.03 273.73,-131.02"/>
</g>
<!-- perf&#45;&gt;meta -->
<g id="edge15" class="edge">
<title>perf&#45;&gt;meta</title>
<path fill="none" stroke="black" d="M375.09,-234C367.14,-234 358.99,-234 351.33,-234"/>
<polygon fill="black" stroke="black" points="374.99,-237.5 384.99,-234 374.99,-230.5 374.99,-237.5"/>
</g>
<!-- pipe&#45;&gt;cache -->
<g id="edge16" class="edge">
<title>pipe&#45;&gt;cache</title>
<path fill="none" stroke="black" d="M594.79,-180C582.89,-180 569.95,-180 558.83,-180"/>
<polygon fill="black" stroke="black" points="594.72,-183.5 604.72,-180 594.72,-176.5 594.72,-183.5"/>
</g>
<!-- pipe&#45;&gt;df -->
<g id="edge17" class="edge">
<title>pipe&#45;&gt;df</title>
<path fill="none" stroke="black" d="M596.16,-199.24C584.79,-205.26 572.35,-211.84 561.39,-217.65"/>
<polygon fill="black" stroke="black" points="597.69,-202.39 604.89,-194.61 594.42,-196.2 597.69,-202.39"/>
</g>
<!-- plot&#45;&gt;df -->
<g id="edge18" class="edge">
<title>plot&#45;&gt;df</title>
<path fill="none" stroke="black" d="M594.76,-234C583.77,-234 571.9,-234 561.39,-234"/>
<polygon fill="black" stroke="black" points="594.72,-237.5 604.72,-234 594.72,-230.5 594.72,-237.5"/>
</g>
<!-- server -->
<g id="node20" class="node">
<title>server</title>
<polygon fill="aquamarine" stroke="black" points="761.5,-198 707.5,-198 707.5,-162 761.5,-162 761.5,-198"/>
<text text-anchor="middle" x="734.5" y="-182.8" font-family="Verdana" font-size="9.00">web</text>
<text text-anchor="middle" x="734.5" y="-172.8" font-family="Verdana" font-size="9.00">server</text>
</g>
<!-- ssg -->
<g id="node21" class="node">
<title>ssg</title>
<polygon fill="pink" stroke="black" points="861,-171 801,-171 801,-135 861,-135 861,-171"/>
<text text-anchor="middle" x="831" y="-155.8" font-family="Verdana" font-size="9.00">static site</text>
<text text-anchor="middle" x="831" y="-145.8" font-family="Verdana" font-size="9.00">generator</text>
</g>
<!-- ssg&#45;&gt;build -->
<g id="edge19" class="edge">
<title>ssg&#45;&gt;build</title>
<path fill="none" stroke="black" d="M800.16,-178.57C786.1,-190.63 769.65,-204.73 756.86,-215.69"/>
<polygon fill="black" stroke="black" points="802.09,-181.53 807.41,-172.37 797.54,-176.22 802.09,-181.53"/>
</g>
<!-- ssg&#45;&gt;db -->
<g id="edge20" class="edge">
<title>ssg&#45;&gt;db</title>
<path fill="none" stroke="black" d="M815.91,-124.76C803.93,-102.08 785.46,-70 765,-45 762.63,-42.1 759.94,-39.22 757.18,-36.48"/>
<polygon fill="black" stroke="black" points="812.69,-126.15 820.4,-133.42 818.91,-122.93 812.69,-126.15"/>
</g>
<!-- ssg&#45;&gt;server -->
<g id="edge21" class="edge">
<title>ssg&#45;&gt;server</title>
<path fill="none" stroke="black" d="M789.83,-164.48C780.42,-167.17 770.62,-169.97 761.98,-172.44"/>
<polygon fill="black" stroke="black" points="790.51,-167.92 799.16,-161.81 788.59,-161.19 790.51,-167.92"/>
</g>
<!-- template -->
<g id="node22" class="node">
<title>template</title>
<polygon fill="cornsilk" stroke="black" points="765,-144 704,-144 704,-108 765,-108 765,-144"/>
<text text-anchor="middle" x="734.5" y="-128.8" font-family="Verdana" font-size="9.00">HTML</text>
<text text-anchor="middle" x="734.5" y="-118.8" font-family="Verdana" font-size="9.00">templates</text>
</g>
<!-- ssg&#45;&gt;template -->
<g id="edge22" class="edge">
<title>ssg&#45;&gt;template</title>
<path fill="none" stroke="black" d="M789.68,-141.48C781.46,-139.13 772.96,-136.7 765.19,-134.48"/>
<polygon fill="black" stroke="black" points="788.59,-144.81 799.16,-144.19 790.51,-138.08 788.59,-144.81"/>
</g>
<!-- template&#45;&gt;check -->
<g id="edge23" class="edge">
<title>template&#45;&gt;check</title>
<path fill="none" stroke="black" d="M693.53,-104.2C682.82,-98.36 671.51,-92.19 661.67,-86.82"/>
<polygon fill="black" stroke="black" points="691.74,-107.21 702.2,-108.93 695.1,-101.07 691.74,-107.21"/>
</g>
<!-- template&#45;&gt;interp -->
<g id="edge24" class="edge">
<title>template&#45;&gt;interp</title>
<path fill="none" stroke="black" d="M692.14,-126C684.16,-126 675.88,-126 668.18,-126"/>
<polygon fill="black" stroke="black" points="692.01,-129.5 702.01,-126 692.01,-122.5 692.01,-129.5"/>
</g>
<!-- test&#45;&gt;dup -->
<g id="edge25" class="edge">
<title>test&#45;&gt;dup</title>
<path fill="none" stroke="black" d="M82.83,-216.5C74.7,-214.42 66.22,-212.26 58.49,-210.28"/>
<polygon fill="black" stroke="black" points="81.95,-219.89 92.5,-218.97 83.68,-213.11 81.95,-219.89"/>
</g>
<!-- source -->
<g id="node24" class="node">
<title>source</title>
<polygon fill="aquamarine" stroke="black" points="660.5,-306 606.5,-306 606.5,-270 660.5,-270 660.5,-306"/>
<text text-anchor="middle" x="633.5" y="-285.8" font-family="Verdana" font-size="9.00">source</text>
</g>
<!-- flow -->
<g id="node25" class="node">
<title>flow</title>
<polygon fill="cornsilk" stroke="black" points="761.5,-306 707.5,-306 707.5,-270 761.5,-270 761.5,-306"/>
<text text-anchor="middle" x="734.5" y="-285.8" font-family="Verdana" font-size="9.00">flow</text>
</g>
<!-- flow&#45;&gt;source -->
<g id="edge27" class="edge">
<title>flow&#45;&gt;source</title>
<path fill="none" stroke="black" d="M695.96,-288C684.28,-288 671.65,-288 660.89,-288"/>
<polygon fill="black" stroke="black" points="695.72,-291.5 705.72,-288 695.72,-284.5 695.72,-291.5"/>
</g>
<!-- sink -->
<g id="node26" class="node">
<title>sink</title>
<polygon fill="pink" stroke="black" points="858,-306 804,-306 804,-270 858,-270 858,-306"/>
<text text-anchor="middle" x="831" y="-285.8" font-family="Verdana" font-size="9.00">sink</text>
</g>
<!-- sink&#45;&gt;flow -->
<g id="edge26" class="edge">
<title>sink&#45;&gt;flow</title>
<path fill="none" stroke="black" d="M792.43,-288C782.13,-288 771.19,-288 761.68,-288"/>
<polygon fill="black" stroke="black" points="792.16,-291.5 802.16,-288 792.16,-284.5 792.16,-291.5"/>
</g>
</g>
</svg>
