<?xml version="1.0" encoding="UTF-8" standalone="no"?>
<!DOCTYPE svg PUBLIC "-//W3C//DTD SVG 1.1//EN"
 "http://www.w3.org/Graphics/SVG/1.1/DTD/svg11.dtd">
<!-- Generated by graphviz version 7.1.0 (20230121.1956)
 -->
<!-- Pages: 1 -->
<svg width="784pt" height="548pt"
 viewBox="0.00 0.00 784.00 548.00" xmlns="http://www.w3.org/2000/svg" xmlns:xlink="http://www.w3.org/1999/xlink">
<g id="graph0" class="graph" transform="scale(1 1) rotate(0) translate(4 544)">
<polygon fill="white" stroke="none" points="-4,4 -4,-544 780,-544 780,4 -4,4"/>
<!-- oop -->
<g id="node1" class="node">
<title>oop</title>
<polygon fill="aquamarine" stroke="aquamarine" points="168.5,-217 103.5,-217 103.5,-181 168.5,-181 168.5,-217"/>
<text text-anchor="start" x="111.5" y="-201.6" font-family="Verdana" font-size="8.00">Objects and</text>
<text text-anchor="start" x="120.5" y="-192.6" font-family="Verdana" font-size="8.00">Classes</text>
</g>
<!-- interp -->
<g id="node6" class="node">
<title>interp</title>
<polygon fill="cornsilk" stroke="cornsilk" points="266,-167 205,-167 205,-131 266,-131 266,-167"/>
<text text-anchor="start" x="230" y="-151.6" font-family="Verdana" font-size="8.00">An</text>
<text text-anchor="start" x="213" y="-142.6" font-family="Verdana" font-size="8.00">Interpreter</text>
</g>
<!-- oop&#45;&gt;interp -->
<g id="edge3" class="edge">
<title>oop&#45;&gt;interp</title>
<path fill="none" stroke="black" d="M168.93,-182.63C177.14,-178.42 186.08,-173.83 194.64,-169.44"/>
<polygon fill="black" stroke="black" points="196.17,-172.59 203.47,-164.91 192.97,-166.36 196.17,-172.59"/>
</g>
<!-- mock -->
<g id="node8" class="node">
<title>mock</title>
<polygon fill="cornsilk" stroke="cornsilk" points="469,-219 410,-219 410,-175 469,-175 469,-219"/>
<text text-anchor="start" x="425.5" y="-208.6" font-family="Verdana" font-size="8.00">Mocks,</text>
<text text-anchor="start" x="419.5" y="-199.6" font-family="Verdana" font-size="8.00">Protocols,</text>
<text text-anchor="start" x="431.5" y="-190.6" font-family="Verdana" font-size="8.00">and</text>
<text text-anchor="start" x="418" y="-181.6" font-family="Verdana" font-size="8.00">Decorators</text>
</g>
<!-- oop&#45;&gt;mock -->
<g id="edge6" class="edge">
<title>oop&#45;&gt;mock</title>
<path fill="none" stroke="black" d="M168.98,-198.79C224.25,-198.42 337.52,-197.67 398.13,-197.27"/>
<polygon fill="black" stroke="black" points="398.03,-200.77 408,-197.2 397.98,-193.77 398.03,-200.77"/>
</g>
<!-- dup -->
<g id="node2" class="node">
<title>dup</title>
<polygon fill="aquamarine" stroke="aquamarine" points="466.5,-348 412.5,-348 412.5,-312 466.5,-312 466.5,-348"/>
<text text-anchor="start" x="424" y="-337.1" font-family="Verdana" font-size="8.00">Finding</text>
<text text-anchor="start" x="420.5" y="-328.1" font-family="Verdana" font-size="8.00">Duplicate</text>
<text text-anchor="start" x="430" y="-319.1" font-family="Verdana" font-size="8.00">Files</text>
</g>
<!-- archive -->
<g id="node9" class="node">
<title>archive</title>
<polygon fill="cornsilk" stroke="cornsilk" points="566,-348 512,-348 512,-312 566,-312 566,-348"/>
<text text-anchor="start" x="528" y="-332.6" font-family="Verdana" font-size="8.00">A File</text>
<text text-anchor="start" x="522" y="-323.6" font-family="Verdana" font-size="8.00">Archiver</text>
</g>
<!-- dup&#45;&gt;archive -->
<g id="edge9" class="edge">
<title>dup&#45;&gt;archive</title>
<path fill="none" stroke="black" d="M466.88,-330C477.18,-330 489.18,-330 500.35,-330"/>
<polygon fill="black" stroke="black" points="500.08,-333.5 510.08,-330 500.08,-326.5 500.08,-333.5"/>
</g>
<!-- glob -->
<g id="node3" class="node">
<title>glob</title>
<polygon fill="aquamarine" stroke="aquamarine" points="60.5,-378 6.5,-378 6.5,-342 60.5,-342 60.5,-378"/>
<text text-anchor="start" x="15" y="-362.6" font-family="Verdana" font-size="8.00">Matching</text>
<text text-anchor="start" x="16.5" y="-353.6" font-family="Verdana" font-size="8.00">Patterns</text>
</g>
<!-- parse -->
<g id="node4" class="node">
<title>parse</title>
<polygon fill="cornsilk" stroke="cornsilk" points="169,-355 103,-355 103,-319 169,-319 169,-355"/>
<text text-anchor="start" x="111" y="-335.1" font-family="Verdana" font-size="8.00">Parsing Text</text>
</g>
<!-- glob&#45;&gt;parse -->
<g id="edge1" class="edge">
<title>glob&#45;&gt;parse</title>
<path fill="none" stroke="black" d="M60.91,-353.96C70.3,-351.81 81.15,-349.32 91.59,-346.94"/>
<polygon fill="black" stroke="black" points="92.23,-350.38 101.2,-344.74 90.67,-343.55 92.23,-350.38"/>
</g>
<!-- glob&#45;&gt;archive -->
<g id="edge8" class="edge">
<title>glob&#45;&gt;archive</title>
<path fill="none" stroke="black" d="M60.92,-364.99C99.08,-371.76 171.94,-383 234.5,-383 234.5,-383 234.5,-383 337.5,-383 398.38,-383 413.65,-374.39 472,-357 481.64,-354.13 491.8,-350.36 501.19,-346.56"/>
<polygon fill="black" stroke="black" points="502.51,-349.8 510.38,-342.71 499.8,-343.34 502.51,-349.8"/>
</g>
<!-- check -->
<g id="node10" class="node">
<title>check</title>
<polygon fill="cornsilk" stroke="cornsilk" points="262.5,-336 208.5,-336 208.5,-300 262.5,-300 262.5,-336"/>
<text text-anchor="start" x="217" y="-320.6" font-family="Verdana" font-size="8.00">An HTML</text>
<text text-anchor="start" x="217.5" y="-311.6" font-family="Verdana" font-size="8.00">Validator</text>
</g>
<!-- parse&#45;&gt;check -->
<g id="edge10" class="edge">
<title>parse&#45;&gt;check</title>
<path fill="none" stroke="black" d="M169.47,-330.67C178.27,-328.96 187.87,-327.09 196.93,-325.32"/>
<polygon fill="black" stroke="black" points="197.38,-328.8 206.53,-323.45 196.04,-321.93 197.38,-328.8"/>
</g>
<!-- test -->
<g id="node5" class="node">
<title>test</title>
<polygon fill="aquamarine" stroke="aquamarine" points="163,-163 109,-163 109,-127 163,-127 163,-163"/>
<text text-anchor="start" x="119" y="-147.6" font-family="Verdana" font-size="8.00">Running</text>
<text text-anchor="start" x="125" y="-138.6" font-family="Verdana" font-size="8.00">Tests</text>
</g>
<!-- test&#45;&gt;interp -->
<g id="edge2" class="edge">
<title>test&#45;&gt;interp</title>
<path fill="none" stroke="black" d="M163.38,-146.08C172.65,-146.46 183.28,-146.9 193.46,-147.32"/>
<polygon fill="black" stroke="black" points="193,-150.8 203.14,-147.71 193.29,-143.81 193,-150.8"/>
</g>
<!-- func -->
<g id="node7" class="node">
<title>func</title>
<polygon fill="cornsilk" stroke="cornsilk" points="371,-171 302,-171 302,-135 371,-135 371,-171"/>
<text text-anchor="start" x="316.5" y="-155.6" font-family="Verdana" font-size="8.00">Functions</text>
<text text-anchor="start" x="310" y="-146.6" font-family="Verdana" font-size="8.00">and Closures</text>
</g>
<!-- interp&#45;&gt;func -->
<g id="edge4" class="edge">
<title>interp&#45;&gt;func</title>
<path fill="none" stroke="black" d="M266.47,-150.21C274.05,-150.52 282.36,-150.85 290.51,-151.18"/>
<polygon fill="black" stroke="black" points="290.18,-154.67 300.31,-151.58 290.46,-147.68 290.18,-154.67"/>
</g>
<!-- template -->
<g id="node11" class="node">
<title>template</title>
<polygon fill="cornsilk" stroke="cornsilk" points="367,-263 306,-263 306,-227 367,-227 367,-263"/>
<text text-anchor="start" x="314" y="-247.6" font-family="Verdana" font-size="8.00">A Template</text>
<text text-anchor="start" x="317" y="-238.6" font-family="Verdana" font-size="8.00">Expander</text>
</g>
<!-- interp&#45;&gt;template -->
<g id="edge12" class="edge">
<title>interp&#45;&gt;template</title>
<path fill="none" stroke="black" d="M255.12,-167.06C270.24,-181.71 291.74,-202.57 308.71,-219.02"/>
<polygon fill="black" stroke="black" points="305.92,-221.2 315.54,-225.64 310.8,-216.17 305.92,-221.2"/>
</g>
<!-- persist -->
<g id="node15" class="node">
<title>persist</title>
<polygon fill="cornsilk" stroke="cornsilk" points="367.5,-117 305.5,-117 305.5,-81 367.5,-81 367.5,-117"/>
<text text-anchor="start" x="323" y="-101.6" font-family="Verdana" font-size="8.00">Object</text>
<text text-anchor="start" x="313.5" y="-92.6" font-family="Verdana" font-size="8.00">Persistence</text>
</g>
<!-- interp&#45;&gt;persist -->
<g id="edge16" class="edge">
<title>interp&#45;&gt;persist</title>
<path fill="none" stroke="black" d="M266.47,-133.86C275.5,-129.3 285.56,-124.22 295.14,-119.38"/>
<polygon fill="black" stroke="black" points="296.59,-122.57 303.94,-114.94 293.43,-116.32 296.59,-122.57"/>
</g>
<!-- vm -->
<g id="node24" class="node">
<title>vm</title>
<polygon fill="cornsilk" stroke="cornsilk" points="566,-90 512,-90 512,-54 566,-54 566,-90"/>
<text text-anchor="start" x="521.5" y="-74.6" font-family="Verdana" font-size="8.00">A Virtual</text>
<text text-anchor="start" x="522" y="-65.6" font-family="Verdana" font-size="8.00">Machine</text>
</g>
<!-- interp&#45;&gt;vm -->
<g id="edge25" class="edge">
<title>interp&#45;&gt;vm</title>
<path fill="none" stroke="black" d="M245.87,-130.65C256.58,-111.94 276.03,-84 302,-72 366.59,-42.14 452.17,-52.8 500.52,-62.74"/>
<polygon fill="black" stroke="black" points="499.7,-66.14 510.21,-64.84 501.18,-59.3 499.7,-66.14"/>
</g>
<!-- func&#45;&gt;mock -->
<g id="edge5" class="edge">
<title>func&#45;&gt;mock</title>
<path fill="none" stroke="black" d="M371.41,-167.77C380.31,-171.65 389.98,-175.86 399.14,-179.85"/>
<polygon fill="black" stroke="black" points="397.62,-183.01 408.18,-183.79 400.41,-176.59 397.62,-183.01"/>
</g>
<!-- mock&#45;&gt;archive -->
<g id="edge7" class="edge">
<title>mock&#45;&gt;archive</title>
<path fill="none" stroke="black" d="M456.82,-219.26C473.57,-242.11 499.67,-277.71 517.73,-302.35"/>
<polygon fill="black" stroke="black" points="514.83,-304.31 523.56,-310.31 520.48,-300.17 514.83,-304.31"/>
</g>
<!-- db -->
<g id="node17" class="node">
<title>db</title>
<polygon fill="pink" stroke="pink" points="570,-163 508,-163 508,-127 570,-127 570,-163"/>
<text text-anchor="start" x="516" y="-143.1" font-family="Verdana" font-size="8.00">A Database</text>
</g>
<!-- mock&#45;&gt;db -->
<g id="edge18" class="edge">
<title>mock&#45;&gt;db</title>
<path fill="none" stroke="black" d="M469.49,-181.54C478.31,-176.83 488.17,-171.57 497.6,-166.55"/>
<polygon fill="black" stroke="black" points="499.09,-169.72 506.26,-161.93 495.79,-163.54 499.09,-169.72"/>
</g>
<!-- ftp -->
<g id="node20" class="node">
<title>ftp</title>
<polygon fill="cornsilk" stroke="cornsilk" points="672,-348 606,-348 606,-312 672,-312 672,-348"/>
<text text-anchor="start" x="614" y="-332.6" font-family="Verdana" font-size="8.00">Transferring</text>
<text text-anchor="start" x="629.5" y="-323.6" font-family="Verdana" font-size="8.00">Files</text>
</g>
<!-- archive&#45;&gt;ftp -->
<g id="edge21" class="edge">
<title>archive&#45;&gt;ftp</title>
<path fill="none" stroke="black" d="M566.26,-330C574.89,-330 584.72,-330 594.28,-330"/>
<polygon fill="black" stroke="black" points="594.2,-333.5 604.2,-330 594.2,-326.5 594.2,-333.5"/>
</g>
<!-- check&#45;&gt;template -->
<g id="edge11" class="edge">
<title>check&#45;&gt;template</title>
<path fill="none" stroke="black" d="M261.48,-299.58C273.56,-290.67 288.24,-279.85 301.33,-270.19"/>
<polygon fill="black" stroke="black" points="303.34,-273.07 309.31,-264.31 299.18,-267.43 303.34,-273.07"/>
</g>
<!-- lint -->
<g id="node12" class="node">
<title>lint</title>
<polygon fill="pink" stroke="pink" points="363.5,-317 309.5,-317 309.5,-281 363.5,-281 363.5,-317"/>
<text text-anchor="start" x="322.5" y="-301.6" font-family="Verdana" font-size="8.00">A Code</text>
<text text-anchor="start" x="324.5" y="-292.6" font-family="Verdana" font-size="8.00">Linter</text>
</g>
<!-- check&#45;&gt;lint -->
<g id="edge13" class="edge">
<title>check&#45;&gt;lint</title>
<path fill="none" stroke="black" d="M262.77,-312.96C273.51,-310.9 286.14,-308.47 297.83,-306.23"/>
<polygon fill="black" stroke="black" points="298.46,-309.67 307.62,-304.35 297.14,-302.8 298.46,-309.67"/>
</g>
<!-- layout -->
<g id="node13" class="node">
<title>layout</title>
<polygon fill="pink" stroke="pink" points="472,-287 407,-287 407,-251 472,-251 472,-287"/>
<text text-anchor="start" x="415" y="-267.1" font-family="Verdana" font-size="8.00">Page Layout</text>
</g>
<!-- check&#45;&gt;layout -->
<g id="edge14" class="edge">
<title>check&#45;&gt;layout</title>
<path fill="none" stroke="black" d="M262.93,-325.65C290.73,-332.31 335.3,-339.06 371,-326 380.21,-322.63 397.07,-308.4 411.63,-295"/>
<polygon fill="black" stroke="black" points="413.85,-297.72 418.76,-288.33 409.06,-292.61 413.85,-297.72"/>
</g>
<!-- template&#45;&gt;layout -->
<g id="edge15" class="edge">
<title>template&#45;&gt;layout</title>
<path fill="none" stroke="black" d="M367.26,-252.07C376.21,-254.2 386.21,-256.57 395.82,-258.86"/>
<polygon fill="black" stroke="black" points="394.84,-262.22 405.37,-261.13 396.45,-255.41 394.84,-262.22"/>
</g>
<!-- perf -->
<g id="node14" class="node">
<title>perf</title>
<polygon fill="aquamarine" stroke="aquamarine" points="67,-432 0,-432 0,-396 67,-396 67,-432"/>
<text text-anchor="start" x="8" y="-416.6" font-family="Verdana" font-size="8.00">Performance</text>
<text text-anchor="start" x="16.5" y="-407.6" font-family="Verdana" font-size="8.00">Profiling</text>
</g>
<!-- binary -->
<g id="node16" class="node">
<title>binary</title>
<polygon fill="cornsilk" stroke="cornsilk" points="471,-117 408,-117 408,-81 471,-81 471,-117"/>
<text text-anchor="start" x="416" y="-97.1" font-family="Verdana" font-size="8.00">Binary Data</text>
</g>
<!-- persist&#45;&gt;binary -->
<g id="edge17" class="edge">
<title>persist&#45;&gt;binary</title>
<path fill="none" stroke="black" d="M367.8,-99C376.73,-99 386.66,-99 396.19,-99"/>
<polygon fill="black" stroke="black" points="396.01,-102.5 406.01,-99 396.01,-95.5 396.01,-102.5"/>
</g>
<!-- persist&#45;&gt;db -->
<g id="edge19" class="edge">
<title>persist&#45;&gt;db</title>
<path fill="none" stroke="black" d="M367.8,-112.49C379.8,-117.38 393.86,-122.54 407,-126 436.39,-133.73 470.37,-138.55 496.36,-141.39"/>
<polygon fill="black" stroke="black" points="495.88,-144.86 506.19,-142.41 496.6,-137.9 495.88,-144.86"/>
</g>
<!-- binary&#45;&gt;db -->
<g id="edge20" class="edge">
<title>binary&#45;&gt;db</title>
<path fill="none" stroke="black" d="M471.35,-113.55C479.6,-117.45 488.64,-121.71 497.34,-125.81"/>
<polygon fill="black" stroke="black" points="495.78,-128.95 506.32,-130.05 498.77,-122.62 495.78,-128.95"/>
</g>
<!-- binary&#45;&gt;vm -->
<g id="edge24" class="edge">
<title>binary&#45;&gt;vm</title>
<path fill="none" stroke="black" d="M471.35,-90.46C480.65,-87.88 490.97,-85.02 500.64,-82.34"/>
<polygon fill="black" stroke="black" points="501.45,-85.75 510.16,-79.71 499.59,-79.01 501.45,-85.75"/>
</g>
<!-- build -->
<g id="node18" class="node">
<title>build</title>
<polygon fill="aquamarine" stroke="aquamarine" points="60.5,-486 6.5,-486 6.5,-450 60.5,-450 60.5,-486"/>
<text text-anchor="start" x="19" y="-470.6" font-family="Verdana" font-size="8.00">A Build</text>
<text text-anchor="start" x="16" y="-461.6" font-family="Verdana" font-size="8.00">Manager</text>
</g>
<!-- pack -->
<g id="node19" class="node">
<title>pack</title>
<polygon fill="aquamarine" stroke="aquamarine" points="62,-540 5,-540 5,-504 62,-504 62,-540"/>
<text text-anchor="start" x="13" y="-524.6" font-family="Verdana" font-size="8.00">A Package</text>
<text text-anchor="start" x="16" y="-515.6" font-family="Verdana" font-size="8.00">Manager</text>
</g>
<!-- http -->
<g id="node21" class="node">
<title>http</title>
<polygon fill="pink" stroke="pink" points="776,-348 708,-348 708,-312 776,-312 776,-348"/>
<text text-anchor="start" x="716" y="-332.6" font-family="Verdana" font-size="8.00">Serving Web</text>
<text text-anchor="start" x="730" y="-323.6" font-family="Verdana" font-size="8.00">Pages</text>
</g>
<!-- ftp&#45;&gt;http -->
<g id="edge22" class="edge">
<title>ftp&#45;&gt;http</title>
<path fill="none" stroke="black" d="M672.23,-330C679.93,-330 688.27,-330 696.41,-330"/>
<polygon fill="black" stroke="black" points="696.17,-333.5 706.17,-330 696.17,-326.5 696.17,-333.5"/>
</g>
<!-- viewer -->
<g id="node22" class="node">
<title>viewer</title>
<polygon fill="aquamarine" stroke="aquamarine" points="566,-36 512,-36 512,0 566,0 566,-36"/>
<text text-anchor="start" x="528" y="-20.6" font-family="Verdana" font-size="8.00">A File</text>
<text text-anchor="start" x="525" y="-11.6" font-family="Verdana" font-size="8.00">Viewer</text>
</g>
<!-- undo -->
<g id="node23" class="node">
<title>undo</title>
<polygon fill="pink" stroke="pink" points="667,-36 611,-36 611,0 667,0 667,-36"/>
<text text-anchor="start" x="619" y="-20.6" font-family="Verdana" font-size="8.00">Undo and</text>
<text text-anchor="start" x="629" y="-11.6" font-family="Verdana" font-size="8.00">Redo</text>
</g>
<!-- viewer&#45;&gt;undo -->
<g id="edge23" class="edge">
<title>viewer&#45;&gt;undo</title>
<path fill="none" stroke="black" d="M566.26,-18C576.45,-18 588.31,-18 599.43,-18"/>
<polygon fill="black" stroke="black" points="599.12,-21.5 609.12,-18 599.12,-14.5 599.12,-21.5"/>
</g>
<!-- debugger -->
<g id="node25" class="node">
<title>debugger</title>
<polygon fill="pink" stroke="pink" points="671.5,-90 606.5,-90 606.5,-54 671.5,-54 671.5,-90"/>
<text text-anchor="start" x="614.5" y="-70.1" font-family="Verdana" font-size="8.00">A Debugger</text>
</g>
<!-- viewer&#45;&gt;debugger -->
<g id="edge27" class="edge">
<title>viewer&#45;&gt;debugger</title>
<path fill="none" stroke="black" d="M566.26,-32.47C575.45,-37.53 586,-43.35 596.14,-48.93"/>
<polygon fill="black" stroke="black" points="594.3,-51.92 604.75,-53.68 597.68,-45.79 594.3,-51.92"/>
</g>
<!-- vm&#45;&gt;debugger -->
<g id="edge26" class="edge">
<title>vm&#45;&gt;debugger</title>
<path fill="none" stroke="black" d="M566.26,-72C575.06,-72 585.12,-72 594.87,-72"/>
<polygon fill="black" stroke="black" points="594.56,-75.5 604.56,-72 594.56,-68.5 594.56,-75.5"/>
</g>
</g>
</svg>
