<?xml version="1.0" encoding="UTF-8" standalone="no"?>
<!DOCTYPE svg PUBLIC "-//W3C//DTD SVG 1.1//EN"
 "http://www.w3.org/Graphics/SVG/1.1/DTD/svg11.dtd">
<!-- Generated by graphviz version 8.0.5 (20230430.1635)
 -->
<!-- Pages: 1 -->
<svg width="2356pt" height="336pt"
 viewBox="0.00 0.00 2355.75 336.00" xmlns="http://www.w3.org/2000/svg" xmlns:xlink="http://www.w3.org/1999/xlink">
<g id="graph0" class="graph" transform="scale(1 1) rotate(0) translate(4 332)">
<polygon fill="white" stroke="none" points="-4,4 -4,-332 2351.75,-332 2351.75,4 -4,4"/>
<!-- oop -->
<g id="node1" class="node">
<title>oop</title>
<polygon fill="aquamarine" stroke="aquamarine" points="64.75,-141 0,-141 0,-105 64.75,-105 64.75,-141"/>
<text text-anchor="start" x="8" y="-125.9" font-family="Verdana" font-size="8.00">Objects and</text>
<text text-anchor="start" x="17.38" y="-115.4" font-family="Verdana" font-size="8.00">Classes</text>
</g>
<!-- dup -->
<g id="node2" class="node">
<title>dup</title>
<polygon fill="aquamarine" stroke="aquamarine" points="154.75,-142.75 100.75,-142.75 100.75,-103.25 154.75,-103.25 154.75,-142.75"/>
<text text-anchor="start" x="112.75" y="-131.15" font-family="Verdana" font-size="8.00">Finding</text>
<text text-anchor="start" x="109" y="-120.65" font-family="Verdana" font-size="8.00">Duplicate</text>
<text text-anchor="start" x="118.75" y="-110.15" font-family="Verdana" font-size="8.00">Files</text>
</g>
<!-- oop&#45;&gt;dup -->
<g id="edge28" class="edge">
<title>oop&#45;&gt;dup</title>
<path fill="none" stroke="black" stroke-dasharray="5,2" d="M65.25,-123C76.66,-123 89.39,-123 100.29,-123"/>
</g>
<!-- interp -->
<g id="node6" class="node">
<title>interp</title>
<polygon fill="cornsilk" stroke="cornsilk" points="532.5,-268 472.25,-268 472.25,-232 532.5,-232 532.5,-268"/>
<text text-anchor="start" x="497.12" y="-252.9" font-family="Verdana" font-size="8.00">An</text>
<text text-anchor="start" x="480.25" y="-242.4" font-family="Verdana" font-size="8.00">Interpreter</text>
</g>
<!-- oop&#45;&gt;interp -->
<g id="edge3" class="edge">
<title>oop&#45;&gt;interp</title>
<path fill="none" stroke="black" d="M41.79,-141.19C63.72,-185.6 127.25,-296 216.75,-296 216.75,-296 216.75,-296 314.5,-296 369.27,-296 383.53,-291.81 436.25,-277 444.62,-274.65 453.35,-271.52 461.61,-268.24"/>
<polygon fill="black" stroke="black" points="462.86,-271.1 470.75,-264.03 460.17,-264.63 462.86,-271.1"/>
</g>
<!-- reflect -->
<g id="node8" class="node">
<title>reflect</title>
<polygon fill="cornsilk" stroke="cornsilk" points="728,-140 673,-140 673,-104 728,-104 728,-140"/>
<text text-anchor="start" x="681" y="-119.65" font-family="Verdana" font-size="8.00">Reflection</text>
</g>
<!-- oop&#45;&gt;reflect -->
<g id="edge6" class="edge">
<title>oop&#45;&gt;reflect</title>
<path fill="none" stroke="black" d="M47.56,-104.59C75.76,-70.27 142.57,0 216.75,0 216.75,0 216.75,0 410.25,0 509.74,0 614.41,-62.03 666.29,-97.63"/>
<polygon fill="black" stroke="black" points="663.85,-100.89 674.05,-103.74 667.85,-95.15 663.85,-100.89"/>
</g>
<!-- glob -->
<g id="node3" class="node">
<title>glob</title>
<polygon fill="aquamarine" stroke="aquamarine" points="244.75,-164 190.75,-164 190.75,-128 244.75,-128 244.75,-164"/>
<text text-anchor="start" x="199.38" y="-148.9" font-family="Verdana" font-size="8.00">Matching</text>
<text text-anchor="start" x="201.25" y="-138.4" font-family="Verdana" font-size="8.00">Patterns</text>
</g>
<!-- dup&#45;&gt;glob -->
<g id="edge29" class="edge">
<title>dup&#45;&gt;glob</title>
<path fill="none" stroke="black" stroke-dasharray="5,2" d="M155.15,-129.9C166.29,-132.81 179.23,-136.19 190.37,-139.1"/>
</g>
<!-- archive -->
<g id="node9" class="node">
<title>archive</title>
<polygon fill="cornsilk" stroke="cornsilk" points="818,-94 764,-94 764,-58 818,-58 818,-94"/>
<text text-anchor="start" x="780.12" y="-78.9" font-family="Verdana" font-size="8.00">A File</text>
<text text-anchor="start" x="774.12" y="-68.4" font-family="Verdana" font-size="8.00">Archiver</text>
</g>
<!-- dup&#45;&gt;archive -->
<g id="edge8" class="edge">
<title>dup&#45;&gt;archive</title>
<path fill="none" stroke="black" d="M153.82,-102.86C187.71,-77.72 250.99,-38 312.5,-38 312.5,-38 312.5,-38 603.75,-38 656.46,-38 715.91,-52.79 753.16,-63.92"/>
<polygon fill="black" stroke="black" points="751.93,-67.51 762.51,-67.09 753.98,-60.82 751.93,-67.51"/>
</g>
<!-- parse -->
<g id="node4" class="node">
<title>parse</title>
<polygon fill="cornsilk" stroke="cornsilk" points="346.25,-201 280.75,-201 280.75,-165 346.25,-165 346.25,-201"/>
<text text-anchor="start" x="288.75" y="-180.65" font-family="Verdana" font-size="8.00">Parsing Text</text>
</g>
<!-- glob&#45;&gt;parse -->
<g id="edge1" class="edge">
<title>glob&#45;&gt;parse</title>
<path fill="none" stroke="black" d="M244.86,-150.18C253.21,-152.94 262.66,-156.47 271.78,-160.23"/>
<polygon fill="black" stroke="black" points="270.31,-163.84 280.88,-164.54 273.06,-157.4 270.31,-163.84"/>
</g>
<!-- glob&#45;&gt;parse -->
<g id="edge30" class="edge">
<title>glob&#45;&gt;parse</title>
<path fill="none" stroke="black" stroke-dasharray="5,2" d="M244.86,-162.43C255.92,-167.5 268.9,-172.73 280.52,-176.82"/>
</g>
<!-- glob&#45;&gt;archive -->
<g id="edge9" class="edge">
<title>glob&#45;&gt;archive</title>
<path fill="none" stroke="black" d="M245.23,-129.41C280.86,-108.71 346.87,-76 408.25,-76 408.25,-76 408.25,-76 603.75,-76 655.47,-76 715.27,-76 752.86,-76"/>
<polygon fill="black" stroke="black" points="752.78,-79.5 762.78,-76 752.78,-72.5 752.78,-79.5"/>
</g>
<!-- test -->
<g id="node5" class="node">
<title>test</title>
<polygon fill="aquamarine" stroke="aquamarine" points="436.25,-268 382.25,-268 382.25,-232 436.25,-232 436.25,-268"/>
<text text-anchor="start" x="392.38" y="-252.9" font-family="Verdana" font-size="8.00">Running</text>
<text text-anchor="start" x="398.75" y="-242.4" font-family="Verdana" font-size="8.00">Tests</text>
</g>
<!-- parse&#45;&gt;test -->
<g id="edge31" class="edge">
<title>parse&#45;&gt;test</title>
<path fill="none" stroke="black" stroke-dasharray="5,2" d="M340.12,-201.31C353.35,-210.76 369.44,-222.26 382.66,-231.71"/>
</g>
<!-- check -->
<g id="node10" class="node">
<title>check</title>
<polygon fill="cornsilk" stroke="cornsilk" points="908,-218 854,-218 854,-182 908,-182 908,-218"/>
<text text-anchor="start" x="863" y="-202.9" font-family="Verdana" font-size="8.00">An HTML</text>
<text text-anchor="start" x="863.38" y="-192.4" font-family="Verdana" font-size="8.00">Validator</text>
</g>
<!-- parse&#45;&gt;check -->
<g id="edge10" class="edge">
<title>parse&#45;&gt;check</title>
<path fill="none" stroke="black" d="M346.52,-183.96C444.26,-186.9 738.4,-195.74 842.77,-198.88"/>
<polygon fill="black" stroke="black" points="842.59,-202.41 852.69,-199.21 842.8,-195.41 842.59,-202.41"/>
</g>
<!-- test&#45;&gt;interp -->
<g id="edge2" class="edge">
<title>test&#45;&gt;interp</title>
<path fill="none" stroke="black" d="M436.61,-243.81C444.2,-243.34 452.66,-243.17 460.89,-243.29"/>
<polygon fill="black" stroke="black" points="460.77,-246.82 470.88,-243.64 460.99,-239.82 460.77,-246.82"/>
</g>
<!-- test&#45;&gt;interp -->
<g id="edge32" class="edge">
<title>test&#45;&gt;interp</title>
<path fill="none" stroke="black" stroke-dasharray="5,2" d="M436.61,-256.19C447.65,-256.87 460.52,-256.93 471.88,-256.36"/>
</g>
<!-- func -->
<g id="node7" class="node">
<title>func</title>
<polygon fill="cornsilk" stroke="cornsilk" points="637,-178 568.5,-178 568.5,-142 637,-142 637,-178"/>
<text text-anchor="start" x="583.25" y="-162.9" font-family="Verdana" font-size="8.00">Functions</text>
<text text-anchor="start" x="576.5" y="-152.4" font-family="Verdana" font-size="8.00">and Closures</text>
</g>
<!-- interp&#45;&gt;func -->
<g id="edge4" class="edge">
<title>interp&#45;&gt;func</title>
<path fill="none" stroke="black" d="M517.89,-231.76C530.75,-218.35 550.05,-200.18 566.89,-185.41"/>
<polygon fill="black" stroke="black" points="568.64,-187.65 573.92,-178.46 564.06,-182.36 568.64,-187.65"/>
</g>
<!-- interp&#45;&gt;func -->
<g id="edge33" class="edge">
<title>interp&#45;&gt;func</title>
<path fill="none" stroke="black" stroke-dasharray="5,2" d="M530,-231.72C548.32,-216.13 571.98,-194.13 587.01,-178.47"/>
</g>
<!-- template -->
<g id="node11" class="node">
<title>template</title>
<polygon fill="cornsilk" stroke="cornsilk" points="1004.25,-262 944,-262 944,-226 1004.25,-226 1004.25,-262"/>
<text text-anchor="start" x="952" y="-246.9" font-family="Verdana" font-size="8.00">A Template</text>
<text text-anchor="start" x="955" y="-236.4" font-family="Verdana" font-size="8.00">Expander</text>
</g>
<!-- interp&#45;&gt;template -->
<g id="edge12" class="edge">
<title>interp&#45;&gt;template</title>
<path fill="none" stroke="black" d="M532.95,-249.51C571.34,-248.92 640.42,-248 699.5,-248 699.5,-248 699.5,-248 792,-248 840.46,-248 896.19,-246.55 932.89,-245.4"/>
<polygon fill="black" stroke="black" points="932.76,-248.87 942.64,-245.05 932.53,-241.88 932.76,-248.87"/>
</g>
<!-- persist -->
<g id="node15" class="node">
<title>persist</title>
<polygon fill="cornsilk" stroke="cornsilk" points="1394.25,-224 1332.5,-224 1332.5,-188 1394.25,-188 1394.25,-224"/>
<text text-anchor="start" x="1350.25" y="-208.9" font-family="Verdana" font-size="8.00">Object</text>
<text text-anchor="start" x="1340.5" y="-198.4" font-family="Verdana" font-size="8.00">Persistence</text>
</g>
<!-- interp&#45;&gt;persist -->
<g id="edge16" class="edge">
<title>interp&#45;&gt;persist</title>
<path fill="none" stroke="black" d="M532.9,-259.89C570.95,-271.73 639.38,-290 699.5,-290 699.5,-290 699.5,-290 1163.25,-290 1224.99,-290 1289.63,-255.29 1327.94,-230.5"/>
<polygon fill="black" stroke="black" points="1329.69,-232.87 1336.09,-224.43 1325.82,-227.04 1329.69,-232.87"/>
</g>
<!-- vm -->
<g id="node24" class="node">
<title>vm</title>
<polygon fill="cornsilk" stroke="cornsilk" points="2247.75,-201 2193.75,-201 2193.75,-165 2247.75,-165 2247.75,-201"/>
<text text-anchor="start" x="2203.5" y="-185.9" font-family="Verdana" font-size="8.00">A Virtual</text>
<text text-anchor="start" x="2204.25" y="-175.4" font-family="Verdana" font-size="8.00">Machine</text>
</g>
<!-- interp&#45;&gt;vm -->
<g id="edge25" class="edge">
<title>interp&#45;&gt;vm</title>
<path fill="none" stroke="black" d="M528.03,-268.44C539.8,-276.57 554.38,-285.68 568.5,-292 623.62,-316.65 639.12,-328 699.5,-328 699.5,-328 699.5,-328 2040.75,-328 2114.59,-328 2175.02,-252.59 2202.98,-210.53"/>
<polygon fill="black" stroke="black" points="2206.42,-212.66 2208.92,-202.36 2200.54,-208.86 2206.42,-212.66"/>
</g>
<!-- func&#45;&gt;reflect -->
<g id="edge5" class="edge">
<title>func&#45;&gt;reflect</title>
<path fill="none" stroke="black" d="M634.31,-141.53C643.3,-137.52 653.22,-133.5 662.56,-130.07"/>
<polygon fill="black" stroke="black" points="663.51,-133.1 671.78,-126.48 661.18,-126.49 663.51,-133.1"/>
</g>
<!-- func&#45;&gt;reflect -->
<g id="edge34" class="edge">
<title>func&#45;&gt;reflect</title>
<path fill="none" stroke="black" stroke-dasharray="5,2" d="M637.24,-153.18C648.78,-149.06 661.55,-143.88 672.51,-138.86"/>
</g>
<!-- reflect&#45;&gt;archive -->
<g id="edge7" class="edge">
<title>reflect&#45;&gt;archive</title>
<path fill="none" stroke="black" d="M725.22,-103.62C734.03,-98.39 744.25,-92.89 753.92,-88.11"/>
<polygon fill="black" stroke="black" points="755.21,-90.89 762.72,-83.43 752.19,-84.58 755.21,-90.89"/>
</g>
<!-- reflect&#45;&gt;archive -->
<g id="edge35" class="edge">
<title>reflect&#45;&gt;archive</title>
<path fill="none" stroke="black" stroke-dasharray="5,2" d="M728.05,-114.44C740.17,-108.87 754.41,-101.41 766.18,-94.45"/>
</g>
<!-- db -->
<g id="node17" class="node">
<title>db</title>
<polygon fill="pink" stroke="pink" points="1589.75,-178 1528.75,-178 1528.75,-142 1589.75,-142 1589.75,-178"/>
<text text-anchor="start" x="1536.75" y="-157.65" font-family="Verdana" font-size="8.00">A Database</text>
</g>
<!-- reflect&#45;&gt;db -->
<g id="edge20" class="edge">
<title>reflect&#45;&gt;db</title>
<path fill="none" stroke="black" d="M728.41,-122C763.36,-122 826.23,-122 880,-122 880,-122 880,-122 1364.38,-122 1418.3,-122 1479.11,-136.33 1518.01,-147.39"/>
<polygon fill="black" stroke="black" points="1516.8,-150.98 1527.38,-150.41 1518.76,-144.26 1516.8,-150.98"/>
</g>
<!-- archive&#45;&gt;check -->
<g id="edge36" class="edge">
<title>archive&#45;&gt;check</title>
<path fill="none" stroke="black" stroke-dasharray="5,2" d="M804.98,-94.3C821.62,-117.74 850.3,-158.15 866.96,-181.63"/>
</g>
<!-- ftp -->
<g id="node20" class="node">
<title>ftp</title>
<polygon fill="cornsilk" stroke="cornsilk" points="1873.75,-178 1808.25,-178 1808.25,-142 1873.75,-142 1873.75,-178"/>
<text text-anchor="start" x="1816.25" y="-162.9" font-family="Verdana" font-size="8.00">Transferring</text>
<text text-anchor="start" x="1832" y="-152.4" font-family="Verdana" font-size="8.00">Files</text>
</g>
<!-- archive&#45;&gt;ftp -->
<g id="edge21" class="edge">
<title>archive&#45;&gt;ftp</title>
<path fill="none" stroke="black" d="M818.39,-76.95C853.65,-78.13 918.08,-80 973.12,-80 973.12,-80 973.12,-80 1653.75,-80 1710.77,-80 1770.22,-112.04 1806.18,-135.57"/>
<polygon fill="black" stroke="black" points="1803.99,-138.98 1814.24,-141.65 1807.88,-133.17 1803.99,-138.98"/>
</g>
<!-- check&#45;&gt;template -->
<g id="edge11" class="edge">
<title>check&#45;&gt;template</title>
<path fill="none" stroke="black" d="M908.36,-206.54C917.66,-210.45 928.27,-215.44 938.18,-220.54"/>
<polygon fill="black" stroke="black" points="936.29,-224.04 946.77,-225.63 939.58,-217.85 936.29,-224.04"/>
</g>
<!-- check&#45;&gt;template -->
<g id="edge37" class="edge">
<title>check&#45;&gt;template</title>
<path fill="none" stroke="black" stroke-dasharray="5,2" d="M907.38,-218.38C918.65,-224.57 931.99,-231.09 943.69,-236.15"/>
</g>
<!-- lint -->
<g id="node12" class="node">
<title>lint</title>
<polygon fill="pink" stroke="pink" points="1094.25,-224 1040.25,-224 1040.25,-188 1094.25,-188 1094.25,-224"/>
<text text-anchor="start" x="1053.38" y="-208.9" font-family="Verdana" font-size="8.00">A Code</text>
<text text-anchor="start" x="1055.62" y="-198.4" font-family="Verdana" font-size="8.00">Linter</text>
</g>
<!-- check&#45;&gt;lint -->
<g id="edge13" class="edge">
<title>check&#45;&gt;lint</title>
<path fill="none" stroke="black" d="M908.4,-200.86C940,-201.89 993.14,-203.62 1028.94,-204.78"/>
<polygon fill="black" stroke="black" points="1028.79,-208.31 1038.9,-205.14 1029.02,-201.32 1028.79,-208.31"/>
</g>
<!-- layout -->
<g id="node13" class="node">
<title>layout</title>
<polygon fill="pink" stroke="pink" points="1194.25,-224 1130.25,-224 1130.25,-188 1194.25,-188 1194.25,-224"/>
<text text-anchor="start" x="1138.25" y="-203.65" font-family="Verdana" font-size="8.00">Page Layout</text>
</g>
<!-- check&#45;&gt;layout -->
<g id="edge14" class="edge">
<title>check&#45;&gt;layout</title>
<path fill="none" stroke="black" d="M908.37,-192.53C948.72,-182.2 1028.09,-166.17 1094.25,-179 1102.73,-180.65 1111.5,-183.36 1119.79,-186.45"/>
<polygon fill="black" stroke="black" points="1118.39,-190.06 1128.98,-190.51 1120.99,-183.56 1118.39,-190.06"/>
</g>
<!-- template&#45;&gt;lint -->
<g id="edge38" class="edge">
<title>template&#45;&gt;lint</title>
<path fill="none" stroke="black" stroke-dasharray="5,2" d="M1004.71,-231.66C1016.04,-226.94 1028.88,-221.58 1039.89,-216.99"/>
</g>
<!-- template&#45;&gt;layout -->
<g id="edge15" class="edge">
<title>template&#45;&gt;layout</title>
<path fill="none" stroke="black" d="M1004.4,-243.66C1028.75,-242.81 1064.17,-240.28 1094.25,-233 1102.65,-230.97 1111.38,-228.07 1119.66,-224.93"/>
<polygon fill="black" stroke="black" points="1120.85,-227.82 1128.84,-220.85 1118.25,-221.32 1120.85,-227.82"/>
</g>
<!-- lint&#45;&gt;layout -->
<g id="edge39" class="edge">
<title>lint&#45;&gt;layout</title>
<path fill="none" stroke="black" stroke-dasharray="5,2" d="M1094.65,-206C1105.61,-206 1118.4,-206 1129.84,-206"/>
</g>
<!-- perf -->
<g id="node14" class="node">
<title>perf</title>
<polygon fill="aquamarine" stroke="aquamarine" points="1296.5,-224 1230.25,-224 1230.25,-188 1296.5,-188 1296.5,-224"/>
<text text-anchor="start" x="1238.25" y="-208.9" font-family="Verdana" font-size="8.00">Performance</text>
<text text-anchor="start" x="1246.88" y="-198.4" font-family="Verdana" font-size="8.00">Profiling</text>
</g>
<!-- layout&#45;&gt;perf -->
<g id="edge40" class="edge">
<title>layout&#45;&gt;perf</title>
<path fill="none" stroke="black" stroke-dasharray="5,2" d="M1194.61,-206C1205.84,-206 1218.52,-206 1229.85,-206"/>
</g>
<!-- perf&#45;&gt;persist -->
<g id="edge41" class="edge">
<title>perf&#45;&gt;persist</title>
<path fill="none" stroke="black" stroke-dasharray="5,2" d="M1296.74,-206C1308.11,-206 1320.84,-206 1332.04,-206"/>
</g>
<!-- binary -->
<g id="node16" class="node">
<title>binary</title>
<polygon fill="cornsilk" stroke="cornsilk" points="1492.75,-224 1430.25,-224 1430.25,-188 1492.75,-188 1492.75,-224"/>
<text text-anchor="start" x="1438.25" y="-203.65" font-family="Verdana" font-size="8.00">Binary Data</text>
</g>
<!-- persist&#45;&gt;binary -->
<g id="edge17" class="edge">
<title>persist&#45;&gt;binary</title>
<path fill="none" stroke="black" d="M1394.53,-199.69C1402.25,-199.29 1410.69,-199.17 1418.88,-199.3"/>
<polygon fill="black" stroke="black" points="1418.69,-202.83 1428.79,-199.66 1418.91,-195.84 1418.69,-202.83"/>
</g>
<!-- persist&#45;&gt;binary -->
<g id="edge42" class="edge">
<title>persist&#45;&gt;binary</title>
<path fill="none" stroke="black" stroke-dasharray="5,2" d="M1394.53,-212.31C1405.76,-212.89 1418.51,-212.89 1429.79,-212.34"/>
</g>
<!-- persist&#45;&gt;db -->
<g id="edge19" class="edge">
<title>persist&#45;&gt;db</title>
<path fill="none" stroke="black" d="M1394.67,-191.79C1405.67,-187.11 1418.33,-182.28 1430.25,-179 1458.93,-171.12 1492.19,-166.31 1517.61,-163.5"/>
<polygon fill="black" stroke="black" points="1517.76,-166.9 1527.34,-162.38 1517.03,-159.94 1517.76,-166.9"/>
</g>
<!-- binary&#45;&gt;db -->
<g id="edge18" class="edge">
<title>binary&#45;&gt;db</title>
<path fill="none" stroke="black" d="M1488.16,-187.62C1497.47,-182.52 1508.21,-177.16 1518.45,-172.46"/>
<polygon fill="black" stroke="black" points="1519.73,-175.27 1527.45,-168.02 1516.89,-168.88 1519.73,-175.27"/>
</g>
<!-- binary&#45;&gt;db -->
<g id="edge43" class="edge">
<title>binary&#45;&gt;db</title>
<path fill="none" stroke="black" stroke-dasharray="5,2" d="M1493.06,-197.66C1505.76,-192.19 1520.33,-185.09 1532.48,-178.45"/>
</g>
<!-- binary&#45;&gt;vm -->
<g id="edge24" class="edge">
<title>binary&#45;&gt;vm</title>
<path fill="none" stroke="black" d="M1492.98,-206C1530.38,-206 1595.73,-206 1651.75,-206 1651.75,-206 1651.75,-206 2040.75,-206 2090.3,-206 2146.94,-197.22 2183,-190.51"/>
<polygon fill="black" stroke="black" points="2183.33,-193.82 2192.5,-188.51 2182.02,-186.95 2183.33,-193.82"/>
</g>
<!-- build -->
<g id="node18" class="node">
<title>build</title>
<polygon fill="aquamarine" stroke="aquamarine" points="1679.75,-178 1625.75,-178 1625.75,-142 1679.75,-142 1679.75,-178"/>
<text text-anchor="start" x="1638.5" y="-162.9" font-family="Verdana" font-size="8.00">A Build</text>
<text text-anchor="start" x="1635.5" y="-152.4" font-family="Verdana" font-size="8.00">Manager</text>
</g>
<!-- db&#45;&gt;build -->
<g id="edge44" class="edge">
<title>db&#45;&gt;build</title>
<path fill="none" stroke="black" stroke-dasharray="5,2" d="M1590.21,-160C1601.57,-160 1614.42,-160 1625.42,-160"/>
</g>
<!-- pack -->
<g id="node19" class="node">
<title>pack</title>
<polygon fill="aquamarine" stroke="aquamarine" points="1772.25,-178 1715.75,-178 1715.75,-142 1772.25,-142 1772.25,-178"/>
<text text-anchor="start" x="1723.75" y="-162.9" font-family="Verdana" font-size="8.00">A Package</text>
<text text-anchor="start" x="1726.75" y="-152.4" font-family="Verdana" font-size="8.00">Manager</text>
</g>
<!-- build&#45;&gt;pack -->
<g id="edge45" class="edge">
<title>build&#45;&gt;pack</title>
<path fill="none" stroke="black" stroke-dasharray="5,2" d="M1680.05,-160C1691.15,-160 1704.09,-160 1715.34,-160"/>
</g>
<!-- pack&#45;&gt;ftp -->
<g id="edge46" class="edge">
<title>pack&#45;&gt;ftp</title>
<path fill="none" stroke="black" stroke-dasharray="5,2" d="M1772.73,-160C1783.8,-160 1796.6,-160 1808.05,-160"/>
</g>
<!-- http -->
<g id="node21" class="node">
<title>http</title>
<polygon fill="pink" stroke="pink" points="1976.75,-178 1909.75,-178 1909.75,-142 1976.75,-142 1976.75,-178"/>
<text text-anchor="start" x="1917.75" y="-162.9" font-family="Verdana" font-size="8.00">Serving Web</text>
<text text-anchor="start" x="1931.62" y="-152.4" font-family="Verdana" font-size="8.00">Pages</text>
</g>
<!-- ftp&#45;&gt;http -->
<g id="edge22" class="edge">
<title>ftp&#45;&gt;http</title>
<path fill="none" stroke="black" d="M1874,-153.66C1881.88,-153.29 1890.47,-153.17 1898.8,-153.3"/>
<polygon fill="black" stroke="black" points="1898.42,-156.82 1908.53,-153.63 1898.63,-149.83 1898.42,-156.82"/>
</g>
<!-- ftp&#45;&gt;http -->
<g id="edge47" class="edge">
<title>ftp&#45;&gt;http</title>
<path fill="none" stroke="black" stroke-dasharray="5,2" d="M1874,-166.34C1885.34,-166.87 1898.12,-166.89 1909.53,-166.37"/>
</g>
<!-- viewer -->
<g id="node22" class="node">
<title>viewer</title>
<polygon fill="aquamarine" stroke="aquamarine" points="2066.75,-178 2012.75,-178 2012.75,-142 2066.75,-142 2066.75,-178"/>
<text text-anchor="start" x="2028.88" y="-162.9" font-family="Verdana" font-size="8.00">A File</text>
<text text-anchor="start" x="2026.25" y="-152.4" font-family="Verdana" font-size="8.00">Viewer</text>
</g>
<!-- http&#45;&gt;viewer -->
<g id="edge48" class="edge">
<title>http&#45;&gt;viewer</title>
<path fill="none" stroke="black" stroke-dasharray="5,2" d="M1977.04,-160C1988.55,-160 2001.33,-160 2012.27,-160"/>
</g>
<!-- undo -->
<g id="node23" class="node">
<title>undo</title>
<polygon fill="pink" stroke="pink" points="2157.75,-178 2102.75,-178 2102.75,-142 2157.75,-142 2157.75,-178"/>
<text text-anchor="start" x="2110.75" y="-162.9" font-family="Verdana" font-size="8.00">Undo and</text>
<text text-anchor="start" x="2120.5" y="-152.4" font-family="Verdana" font-size="8.00">Redo</text>
</g>
<!-- viewer&#45;&gt;undo -->
<g id="edge23" class="edge">
<title>viewer&#45;&gt;undo</title>
<path fill="none" stroke="black" d="M2066.82,-153.78C2074.62,-153.3 2083.33,-153.14 2091.72,-153.32"/>
<polygon fill="black" stroke="black" points="2091.31,-156.85 2101.44,-153.74 2091.59,-149.85 2091.31,-156.85"/>
</g>
<!-- viewer&#45;&gt;undo -->
<g id="edge49" class="edge">
<title>viewer&#45;&gt;undo</title>
<path fill="none" stroke="black" stroke-dasharray="5,2" d="M2066.82,-166.22C2078.04,-166.91 2091.14,-166.93 2102.44,-166.26"/>
</g>
<!-- debugger -->
<g id="node25" class="node">
<title>debugger</title>
<polygon fill="pink" stroke="pink" points="2347.75,-201 2283.75,-201 2283.75,-165 2347.75,-165 2347.75,-201"/>
<text text-anchor="start" x="2291.75" y="-180.65" font-family="Verdana" font-size="8.00">A Debugger</text>
</g>
<!-- viewer&#45;&gt;debugger -->
<g id="edge26" class="edge">
<title>viewer&#45;&gt;debugger</title>
<path fill="none" stroke="black" d="M2067.12,-145.67C2077.84,-140.6 2090.57,-135.54 2102.75,-133 2162.26,-120.6 2230.62,-143.49 2273.26,-162.24"/>
<polygon fill="black" stroke="black" points="2271.7,-165.83 2282.26,-166.77 2274.59,-159.45 2271.7,-165.83"/>
</g>
<!-- undo&#45;&gt;vm -->
<g id="edge50" class="edge">
<title>undo&#45;&gt;vm</title>
<path fill="none" stroke="black" stroke-dasharray="5,2" d="M2157.8,-166.9C2169.11,-169.84 2182.25,-173.26 2193.52,-176.18"/>
</g>
<!-- vm&#45;&gt;debugger -->
<g id="edge27" class="edge">
<title>vm&#45;&gt;debugger</title>
<path fill="none" stroke="black" d="M2248.15,-176.84C2255.77,-176.36 2264.28,-176.18 2272.6,-176.28"/>
<polygon fill="black" stroke="black" points="2272.24,-179.8 2282.34,-176.58 2272.44,-172.8 2272.24,-179.8"/>
</g>
<!-- vm&#45;&gt;debugger -->
<g id="edge51" class="edge">
<title>vm&#45;&gt;debugger</title>
<path fill="none" stroke="black" stroke-dasharray="5,2" d="M2248.15,-189.16C2259.11,-189.85 2271.9,-189.93 2283.34,-189.42"/>
</g>
</g>
</svg>
