<?xml version="1.0" encoding="UTF-8" standalone="no"?>
<!DOCTYPE svg PUBLIC "-//W3C//DTD SVG 1.1//EN"
 "http://www.w3.org/Graphics/SVG/1.1/DTD/svg11.dtd">
<!-- Generated by graphviz version 6.0.1 (20220911.1526)
 -->
<!-- Title: syllabus Pages: 1 -->
<svg width="881pt" height="368pt"
 viewBox="0.00 0.00 881.00 368.00" xmlns="http://www.w3.org/2000/svg" xmlns:xlink="http://www.w3.org/1999/xlink">
<g id="graph0" class="graph" transform="scale(1 1) rotate(0) translate(4 364)">
<title>syllabus</title>
<polygon fill="white" stroke="none" points="-4,4 -4,-364 877,-364 877,4 -4,4"/>
<!-- archive -->
<g id="node1" class="node">
<title>archive</title>
<polygon fill="cornsilk" stroke="black" points="354.5,-144 300.5,-144 300.5,-108 354.5,-108 354.5,-144"/>
<text text-anchor="middle" x="327.5" y="-128.8" font-family="Verdana" font-size="9.00">file</text>
<text text-anchor="middle" x="327.5" y="-118.8" font-family="Verdana" font-size="9.00">archiver</text>
</g>
<!-- mock -->
<g id="node14" class="node">
<title>mock</title>
<polygon fill="cornsilk" stroke="black" points="245.5,-198 191.5,-198 191.5,-162 245.5,-162 245.5,-198"/>
<text text-anchor="middle" x="218.5" y="-182.8" font-family="Verdana" font-size="9.00">mock</text>
<text text-anchor="middle" x="218.5" y="-172.8" font-family="Verdana" font-size="9.00">objects</text>
</g>
<!-- archive&#45;&gt;mock -->
<g id="edge1" class="edge">
<title>archive&#45;&gt;mock</title>
<path fill="none" stroke="black" d="M290.98,-143.93C276.22,-151.38 259.39,-159.87 245.78,-166.74"/>
<polygon fill="black" stroke="black" points="292.97,-146.84 300.32,-139.21 289.82,-140.59 292.97,-146.84"/>
</g>
<!-- re -->
<g id="node21" class="node">
<title>re</title>
<polygon fill="cornsilk" stroke="black" points="245.5,-144 191.5,-144 191.5,-108 245.5,-108 245.5,-144"/>
<text text-anchor="middle" x="218.5" y="-128.8" font-family="Verdana" font-size="9.00">match</text>
<text text-anchor="middle" x="218.5" y="-118.8" font-family="Verdana" font-size="9.00">regex</text>
</g>
<!-- archive&#45;&gt;re -->
<g id="edge2" class="edge">
<title>archive&#45;&gt;re</title>
<path fill="none" stroke="black" d="M290.13,-126C275.58,-126 259.13,-126 245.78,-126"/>
<polygon fill="black" stroke="black" points="290.32,-129.5 300.32,-126 290.32,-122.5 290.32,-129.5"/>
</g>
<!-- binary -->
<g id="node2" class="node">
<title>binary</title>
<polygon fill="cornsilk" stroke="black" points="465.5,-36 411.5,-36 411.5,0 465.5,0 465.5,-36"/>
<text text-anchor="middle" x="438.5" y="-20.8" font-family="Verdana" font-size="9.00">binary</text>
<text text-anchor="middle" x="438.5" y="-10.8" font-family="Verdana" font-size="9.00">data</text>
</g>
<!-- parse -->
<g id="node16" class="node">
<title>parse</title>
<polygon fill="cornsilk" stroke="black" points="354.5,-90 300.5,-90 300.5,-54 354.5,-54 354.5,-90"/>
<text text-anchor="middle" x="327.5" y="-74.8" font-family="Verdana" font-size="9.00">parsing</text>
<text text-anchor="middle" x="327.5" y="-64.8" font-family="Verdana" font-size="9.00">text</text>
</g>
<!-- binary&#45;&gt;parse -->
<g id="edge3" class="edge">
<title>binary&#45;&gt;parse</title>
<path fill="none" stroke="black" d="M402.15,-35.51C386.74,-43.15 368.99,-51.94 354.77,-58.98"/>
<polygon fill="black" stroke="black" points="403.98,-38.51 411.39,-30.93 400.88,-32.24 403.98,-38.51"/>
</g>
<!-- build -->
<g id="node3" class="node">
<title>build</title>
<polygon fill="cornsilk" stroke="black" points="774.5,-144 718.5,-144 718.5,-108 774.5,-108 774.5,-144"/>
<text text-anchor="middle" x="746.5" y="-128.8" font-family="Verdana" font-size="9.00">build</text>
<text text-anchor="middle" x="746.5" y="-118.8" font-family="Verdana" font-size="9.00">manager</text>
</g>
<!-- pipe -->
<g id="node19" class="node">
<title>pipe</title>
<polygon fill="cornsilk" stroke="black" points="672,-144 618,-144 618,-108 672,-108 672,-144"/>
<text text-anchor="middle" x="645" y="-128.8" font-family="Verdana" font-size="9.00">pipeline</text>
<text text-anchor="middle" x="645" y="-118.8" font-family="Verdana" font-size="9.00">runner</text>
</g>
<!-- build&#45;&gt;pipe -->
<g id="edge4" class="edge">
<title>build&#45;&gt;pipe</title>
<path fill="none" stroke="black" d="M708.12,-126C696.13,-126 683.13,-126 672.13,-126"/>
<polygon fill="black" stroke="black" points="708.31,-129.5 718.31,-126 708.31,-122.5 708.31,-129.5"/>
</g>
<!-- plot -->
<g id="node20" class="node">
<title>plot</title>
<polygon fill="cornsilk" stroke="black" points="672,-198 618,-198 618,-162 672,-162 672,-198"/>
<text text-anchor="middle" x="645" y="-182.8" font-family="Verdana" font-size="9.00">plotting</text>
<text text-anchor="middle" x="645" y="-172.8" font-family="Verdana" font-size="9.00">graphs</text>
</g>
<!-- build&#45;&gt;plot -->
<g id="edge5" class="edge">
<title>build&#45;&gt;plot</title>
<path fill="none" stroke="black" d="M709.21,-145.7C696.92,-152.36 683.46,-159.67 672.13,-165.82"/>
<polygon fill="black" stroke="black" points="711.19,-148.6 718.31,-140.76 707.85,-142.45 711.19,-148.6"/>
</g>
<!-- cache -->
<g id="node4" class="node">
<title>cache</title>
<polygon fill="cornsilk" stroke="black" points="467.5,-144 409.5,-144 409.5,-108 467.5,-108 467.5,-144"/>
<text text-anchor="middle" x="438.5" y="-123.8" font-family="Verdana" font-size="9.00">file cache</text>
</g>
<!-- cache&#45;&gt;archive -->
<g id="edge6" class="edge">
<title>cache&#45;&gt;archive</title>
<path fill="none" stroke="black" d="M399.08,-126C384.36,-126 367.91,-126 354.6,-126"/>
<polygon fill="black" stroke="black" points="399.43,-129.5 409.43,-126 399.43,-122.5 399.43,-129.5"/>
</g>
<!-- check -->
<g id="node5" class="node">
<title>check</title>
<polygon fill="aquamarine" stroke="black" points="673,-333 617,-333 617,-297 673,-297 673,-333"/>
<text text-anchor="middle" x="645" y="-317.8" font-family="Verdana" font-size="9.00">checking</text>
<text text-anchor="middle" x="645" y="-307.8" font-family="Verdana" font-size="9.00">HTML</text>
</g>
<!-- db -->
<g id="node6" class="node">
<title>db</title>
<polygon fill="pink" stroke="black" points="572.5,-36 512.5,-36 512.5,0 572.5,0 572.5,-36"/>
<text text-anchor="middle" x="542.5" y="-20.8" font-family="Verdana" font-size="9.00">key&#45;value</text>
<text text-anchor="middle" x="542.5" y="-10.8" font-family="Verdana" font-size="9.00">store</text>
</g>
<!-- db&#45;&gt;binary -->
<g id="edge7" class="edge">
<title>db&#45;&gt;binary</title>
<path fill="none" stroke="black" d="M502.25,-18C489.98,-18 476.74,-18 465.6,-18"/>
<polygon fill="black" stroke="black" points="502.27,-21.5 512.27,-18 502.27,-14.5 502.27,-21.5"/>
</g>
<!-- df -->
<g id="node7" class="node">
<title>df</title>
<polygon fill="cornsilk" stroke="black" points="574,-198 511,-198 511,-162 574,-162 574,-198"/>
<text text-anchor="middle" x="542.5" y="-182.8" font-family="Verdana" font-size="9.00">dataframe</text>
<text text-anchor="middle" x="542.5" y="-172.8" font-family="Verdana" font-size="9.00">operations</text>
</g>
<!-- perf -->
<g id="node17" class="node">
<title>perf</title>
<polygon fill="cornsilk" stroke="black" points="475,-198 402,-198 402,-162 475,-162 475,-198"/>
<text text-anchor="middle" x="438.5" y="-182.8" font-family="Verdana" font-size="9.00">performance</text>
<text text-anchor="middle" x="438.5" y="-172.8" font-family="Verdana" font-size="9.00">profiling</text>
</g>
<!-- df&#45;&gt;perf -->
<g id="edge8" class="edge">
<title>df&#45;&gt;perf</title>
<path fill="none" stroke="black" d="M500.79,-180C492.3,-180 483.4,-180 475.1,-180"/>
<polygon fill="black" stroke="black" points="500.9,-183.5 510.9,-180 500.9,-176.5 500.9,-183.5"/>
</g>
<!-- dup -->
<g id="node8" class="node">
<title>dup</title>
<polygon fill="aquamarine" stroke="black" points="58,-198 0,-198 0,-162 58,-162 58,-198"/>
<text text-anchor="middle" x="29" y="-182.8" font-family="Verdana" font-size="9.00">duplicate</text>
<text text-anchor="middle" x="29" y="-172.8" font-family="Verdana" font-size="9.00">file finder</text>
</g>
<!-- func -->
<g id="node9" class="node">
<title>func</title>
<polygon fill="cornsilk" stroke="black" points="680,-252 610,-252 610,-216 680,-216 680,-252"/>
<text text-anchor="middle" x="645" y="-236.8" font-family="Verdana" font-size="9.00">function def</text>
<text text-anchor="middle" x="645" y="-226.8" font-family="Verdana" font-size="9.00">&amp; call stack</text>
</g>
<!-- interp -->
<g id="node11" class="node">
<title>interp</title>
<polygon fill="cornsilk" stroke="black" points="253,-252 184,-252 184,-216 253,-216 253,-252"/>
<text text-anchor="middle" x="218.5" y="-236.8" font-family="Verdana" font-size="9.00">interpreting</text>
<text text-anchor="middle" x="218.5" y="-226.8" font-family="Verdana" font-size="9.00">expressions</text>
</g>
<!-- func&#45;&gt;interp -->
<g id="edge9" class="edge">
<title>func&#45;&gt;interp</title>
<path fill="none" stroke="black" d="M599.85,-234C514.64,-234 329.18,-234 253.09,-234"/>
<polygon fill="black" stroke="black" points="599.98,-237.5 609.98,-234 599.98,-230.5 599.98,-237.5"/>
</g>
<!-- install -->
<g id="node10" class="node">
<title>install</title>
<polygon fill="pink" stroke="black" points="870,-279 816,-279 816,-243 870,-243 870,-279"/>
<text text-anchor="middle" x="843" y="-258.8" font-family="Verdana" font-size="9.00">installer</text>
</g>
<!-- pack -->
<g id="node15" class="node">
<title>pack</title>
<polygon fill="aquamarine" stroke="black" points="774.5,-306 718.5,-306 718.5,-270 774.5,-270 774.5,-306"/>
<text text-anchor="middle" x="746.5" y="-290.8" font-family="Verdana" font-size="9.00">package</text>
<text text-anchor="middle" x="746.5" y="-280.8" font-family="Verdana" font-size="9.00">manager</text>
</g>
<!-- install&#45;&gt;pack -->
<g id="edge10" class="edge">
<title>install&#45;&gt;pack</title>
<path fill="none" stroke="black" d="M806.25,-271.21C795.83,-274.19 784.62,-277.4 774.81,-280.2"/>
<polygon fill="black" stroke="black" points="807.27,-274.56 815.93,-268.45 805.35,-267.83 807.27,-274.56"/>
</g>
<!-- template -->
<g id="node24" class="node">
<title>template</title>
<polygon fill="cornsilk" stroke="black" points="777,-252 716,-252 716,-216 777,-216 777,-252"/>
<text text-anchor="middle" x="746.5" y="-236.8" font-family="Verdana" font-size="9.00">HTML</text>
<text text-anchor="middle" x="746.5" y="-226.8" font-family="Verdana" font-size="9.00">templates</text>
</g>
<!-- install&#45;&gt;template -->
<g id="edge11" class="edge">
<title>install&#45;&gt;template</title>
<path fill="none" stroke="black" d="M806.24,-250.78C796.65,-248.04 786.38,-245.11 777.16,-242.47"/>
<polygon fill="black" stroke="black" points="805.35,-254.17 815.93,-253.55 807.27,-247.44 805.35,-254.17"/>
</g>
<!-- test -->
<g id="node25" class="node">
<title>test</title>
<polygon fill="cornsilk" stroke="black" points="148,-198 94,-198 94,-162 148,-162 148,-198"/>
<text text-anchor="middle" x="121" y="-182.8" font-family="Verdana" font-size="9.00">unit</text>
<text text-anchor="middle" x="121" y="-172.8" font-family="Verdana" font-size="9.00">testing</text>
</g>
<!-- interp&#45;&gt;test -->
<g id="edge12" class="edge">
<title>interp&#45;&gt;test</title>
<path fill="none" stroke="black" d="M176.7,-210.93C167.01,-205.45 156.94,-199.75 148.11,-194.76"/>
<polygon fill="black" stroke="black" points="175.01,-213.99 185.43,-215.87 178.45,-207.9 175.01,-213.99"/>
</g>
<!-- lint -->
<g id="node12" class="node">
<title>lint</title>
<polygon fill="pink" stroke="black" points="773.5,-360 719.5,-360 719.5,-324 773.5,-324 773.5,-360"/>
<text text-anchor="middle" x="746.5" y="-339.8" font-family="Verdana" font-size="9.00">linting</text>
</g>
<!-- lint&#45;&gt;check -->
<g id="edge13" class="edge">
<title>lint&#45;&gt;check</title>
<path fill="none" stroke="black" d="M709.57,-332.25C697.51,-328.98 684.27,-325.38 673.01,-322.33"/>
<polygon fill="black" stroke="black" points="708.79,-335.66 719.36,-334.91 710.62,-328.91 708.79,-335.66"/>
</g>
<!-- meta -->
<g id="node13" class="node">
<title>meta</title>
<polygon fill="cornsilk" stroke="black" points="366,-198 289,-198 289,-162 366,-162 366,-198"/>
<text text-anchor="middle" x="327.5" y="-182.8" font-family="Verdana" font-size="9.00">meta&#45;</text>
<text text-anchor="middle" x="327.5" y="-172.8" font-family="Verdana" font-size="9.00">programming</text>
</g>
<!-- meta&#45;&gt;mock -->
<g id="edge14" class="edge">
<title>meta&#45;&gt;mock</title>
<path fill="none" stroke="black" d="M278.58,-180C267.32,-180 255.72,-180 245.81,-180"/>
<polygon fill="black" stroke="black" points="278.78,-183.5 288.78,-180 278.78,-176.5 278.78,-183.5"/>
</g>
<!-- mock&#45;&gt;test -->
<g id="edge15" class="edge">
<title>mock&#45;&gt;test</title>
<path fill="none" stroke="black" d="M181.18,-180C170.16,-180 158.27,-180 148.06,-180"/>
<polygon fill="black" stroke="black" points="181.4,-183.5 191.4,-180 181.4,-176.5 181.4,-183.5"/>
</g>
<!-- parse&#45;&gt;re -->
<g id="edge16" class="edge">
<title>parse&#45;&gt;re</title>
<path fill="none" stroke="black" d="M290.98,-89.93C276.22,-97.38 259.39,-105.87 245.78,-112.74"/>
<polygon fill="black" stroke="black" points="292.97,-92.84 300.32,-85.21 289.82,-86.59 292.97,-92.84"/>
</g>
<!-- perf&#45;&gt;meta -->
<g id="edge17" class="edge">
<title>perf&#45;&gt;meta</title>
<path fill="none" stroke="black" d="M391.64,-180C383.15,-180 374.36,-180 366.15,-180"/>
<polygon fill="black" stroke="black" points="391.81,-183.5 401.81,-180 391.81,-176.5 391.81,-183.5"/>
</g>
<!-- persist -->
<g id="node18" class="node">
<title>persist</title>
<polygon fill="pink" stroke="black" points="472,-90 405,-90 405,-54 472,-54 472,-90"/>
<text text-anchor="middle" x="438.5" y="-74.8" font-family="Verdana" font-size="9.00">object</text>
<text text-anchor="middle" x="438.5" y="-64.8" font-family="Verdana" font-size="9.00">persistence</text>
</g>
<!-- persist&#45;&gt;parse -->
<g id="edge18" class="edge">
<title>persist&#45;&gt;parse</title>
<path fill="none" stroke="black" d="M394.7,-72C381.16,-72 366.61,-72 354.61,-72"/>
<polygon fill="black" stroke="black" points="394.8,-75.5 404.8,-72 394.8,-68.5 394.8,-75.5"/>
</g>
<!-- pipe&#45;&gt;cache -->
<g id="edge19" class="edge">
<title>pipe&#45;&gt;cache</title>
<path fill="none" stroke="black" d="M607.55,-126C567.51,-126 504.08,-126 467.68,-126"/>
<polygon fill="black" stroke="black" points="607.68,-129.5 617.68,-126 607.68,-122.5 607.68,-129.5"/>
</g>
<!-- pipe&#45;&gt;df -->
<g id="edge20" class="edge">
<title>pipe&#45;&gt;df</title>
<path fill="none" stroke="black" d="M609.04,-144.78C597.68,-150.89 585.17,-157.61 574.15,-163.53"/>
<polygon fill="black" stroke="black" points="610.7,-147.86 617.86,-140.05 607.39,-141.7 610.7,-147.86"/>
</g>
<!-- plot&#45;&gt;df -->
<g id="edge21" class="edge">
<title>plot&#45;&gt;df</title>
<path fill="none" stroke="black" d="M607.69,-180C596.69,-180 584.73,-180 574.15,-180"/>
<polygon fill="black" stroke="black" points="607.86,-183.5 617.86,-180 607.86,-176.5 607.86,-183.5"/>
</g>
<!-- re&#45;&gt;test -->
<g id="edge22" class="edge">
<title>re&#45;&gt;test</title>
<path fill="none" stroke="black" d="M182.54,-145.77C171.14,-152.21 158.69,-159.25 148.06,-165.26"/>
<polygon fill="black" stroke="black" points="184.42,-148.72 191.4,-140.76 180.98,-142.63 184.42,-148.72"/>
</g>
<!-- server -->
<g id="node22" class="node">
<title>server</title>
<polygon fill="aquamarine" stroke="black" points="773.5,-198 719.5,-198 719.5,-162 773.5,-162 773.5,-198"/>
<text text-anchor="middle" x="746.5" y="-182.8" font-family="Verdana" font-size="9.00">web</text>
<text text-anchor="middle" x="746.5" y="-172.8" font-family="Verdana" font-size="9.00">server</text>
</g>
<!-- ssg -->
<g id="node23" class="node">
<title>ssg</title>
<polygon fill="pink" stroke="black" points="873,-198 813,-198 813,-162 873,-162 873,-198"/>
<text text-anchor="middle" x="843" y="-182.8" font-family="Verdana" font-size="9.00">static site</text>
<text text-anchor="middle" x="843" y="-172.8" font-family="Verdana" font-size="9.00">generator</text>
</g>
<!-- ssg&#45;&gt;build -->
<g id="edge23" class="edge">
<title>ssg&#45;&gt;build</title>
<path fill="none" stroke="black" d="M804.08,-158.33C794.27,-152.72 783.9,-146.8 774.75,-141.57"/>
<polygon fill="black" stroke="black" points="802.46,-161.44 812.88,-163.36 805.93,-155.36 802.46,-161.44"/>
</g>
<!-- ssg&#45;&gt;server -->
<g id="edge24" class="edge">
<title>ssg&#45;&gt;server</title>
<path fill="none" stroke="black" d="M802.6,-180C792.88,-180 782.72,-180 773.8,-180"/>
<polygon fill="black" stroke="black" points="802.88,-183.5 812.88,-180 802.88,-176.5 802.88,-183.5"/>
</g>
<!-- ssg&#45;&gt;template -->
<g id="edge25" class="edge">
<title>ssg&#45;&gt;template</title>
<path fill="none" stroke="black" d="M804.08,-201.67C795.07,-206.82 785.59,-212.24 777.02,-217.13"/>
<polygon fill="black" stroke="black" points="805.93,-204.64 812.88,-196.64 802.46,-198.56 805.93,-204.64"/>
</g>
<!-- template&#45;&gt;check -->
<g id="edge26" class="edge">
<title>template&#45;&gt;check</title>
<path fill="none" stroke="black" d="M714.86,-258.94C699.76,-271.23 681.9,-285.78 668.15,-296.97"/>
<polygon fill="black" stroke="black" points="717.38,-261.41 722.92,-252.38 712.96,-255.98 717.38,-261.41"/>
</g>
<!-- template&#45;&gt;func -->
<g id="edge27" class="edge">
<title>template&#45;&gt;func</title>
<path fill="none" stroke="black" d="M705.84,-234C697.35,-234 688.45,-234 680.19,-234"/>
<polygon fill="black" stroke="black" points="705.92,-237.5 715.92,-234 705.92,-230.5 705.92,-237.5"/>
</g>
<!-- test&#45;&gt;dup -->
<g id="edge28" class="edge">
<title>test&#45;&gt;dup</title>
<path fill="none" stroke="black" d="M83.85,-180C75.3,-180 66.31,-180 58.18,-180"/>
<polygon fill="black" stroke="black" points="83.97,-183.5 93.97,-180 83.97,-176.5 83.97,-183.5"/>
</g>
</g>
</svg>
