<?xml version="1.0" encoding="UTF-8" standalone="no"?>
<!DOCTYPE svg PUBLIC "-//W3C//DTD SVG 1.1//EN"
 "http://www.w3.org/Graphics/SVG/1.1/DTD/svg11.dtd">
<!-- Generated by graphviz version 6.0.1 (20220911.1526)
 -->
<!-- Title: syllabus Pages: 1 -->
<svg width="795pt" height="287pt"
 viewBox="0.00 0.00 795.00 287.00" xmlns="http://www.w3.org/2000/svg" xmlns:xlink="http://www.w3.org/1999/xlink">
<g id="graph0" class="graph" transform="scale(1 1) rotate(0) translate(4 283)">
<title>syllabus</title>
<polygon fill="white" stroke="none" points="-4,4 -4,-283 791,-283 791,4 -4,4"/>
<!-- archive -->
<g id="node1" class="node">
<title>archive</title>
<polygon fill="cornsilk" stroke="black" points="375.5,-225 321.5,-225 321.5,-189 375.5,-189 375.5,-225"/>
<text text-anchor="middle" x="348.5" y="-209.8" font-family="Verdana" font-size="9.00">file</text>
<text text-anchor="middle" x="348.5" y="-199.8" font-family="Verdana" font-size="9.00">archiver</text>
</g>
<!-- glob -->
<g id="node10" class="node">
<title>glob</title>
<polygon fill="cornsilk" stroke="black" points="268.5,-171 214.5,-171 214.5,-135 268.5,-135 268.5,-171"/>
<text text-anchor="middle" x="241.5" y="-155.8" font-family="Verdana" font-size="9.00">match</text>
<text text-anchor="middle" x="241.5" y="-145.8" font-family="Verdana" font-size="9.00">patterns</text>
</g>
<!-- archive&#45;&gt;glob -->
<g id="edge1" class="edge">
<title>archive&#45;&gt;glob</title>
<path fill="none" stroke="black" d="M312.25,-188.87C298.03,-181.56 281.91,-173.27 268.75,-166.5"/>
<polygon fill="black" stroke="black" points="310.78,-192.05 321.27,-193.51 313.98,-185.83 310.78,-192.05"/>
</g>
<!-- mock -->
<g id="node15" class="node">
<title>mock</title>
<polygon fill="cornsilk" stroke="black" points="268.5,-225 214.5,-225 214.5,-189 268.5,-189 268.5,-225"/>
<text text-anchor="middle" x="241.5" y="-209.8" font-family="Verdana" font-size="9.00">mock</text>
<text text-anchor="middle" x="241.5" y="-199.8" font-family="Verdana" font-size="9.00">objects</text>
</g>
<!-- archive&#45;&gt;mock -->
<g id="edge2" class="edge">
<title>archive&#45;&gt;mock</title>
<path fill="none" stroke="black" d="M311.03,-207C297.12,-207 281.54,-207 268.75,-207"/>
<polygon fill="black" stroke="black" points="311.27,-210.5 321.27,-207 311.27,-203.5 311.27,-210.5"/>
</g>
<!-- binary -->
<g id="node2" class="node">
<title>binary</title>
<polygon fill="cornsilk" stroke="black" points="481.5,-117 427.5,-117 427.5,-81 481.5,-81 481.5,-117"/>
<text text-anchor="middle" x="454.5" y="-101.8" font-family="Verdana" font-size="9.00">binary</text>
<text text-anchor="middle" x="454.5" y="-91.8" font-family="Verdana" font-size="9.00">data</text>
</g>
<!-- parse -->
<g id="node18" class="node">
<title>parse</title>
<polygon fill="cornsilk" stroke="black" points="375.5,-171 321.5,-171 321.5,-135 375.5,-135 375.5,-171"/>
<text text-anchor="middle" x="348.5" y="-155.8" font-family="Verdana" font-size="9.00">parsing</text>
<text text-anchor="middle" x="348.5" y="-145.8" font-family="Verdana" font-size="9.00">text</text>
</g>
<!-- binary&#45;&gt;parse -->
<g id="edge3" class="edge">
<title>binary&#45;&gt;parse</title>
<path fill="none" stroke="black" d="M418,-117.43C404.14,-124.63 388.54,-132.73 375.74,-139.38"/>
<polygon fill="black" stroke="black" points="419.99,-120.34 427.26,-112.63 416.77,-114.13 419.99,-120.34"/>
</g>
<!-- build -->
<g id="node3" class="node">
<title>build</title>
<polygon fill="cornsilk" stroke="black" points="688.5,-225 632.5,-225 632.5,-189 688.5,-189 688.5,-225"/>
<text text-anchor="middle" x="660.5" y="-209.8" font-family="Verdana" font-size="9.00">build</text>
<text text-anchor="middle" x="660.5" y="-199.8" font-family="Verdana" font-size="9.00">manager</text>
</g>
<!-- pipe -->
<g id="node21" class="node">
<title>pipe</title>
<polygon fill="cornsilk" stroke="black" points="586,-225 532,-225 532,-189 586,-189 586,-225"/>
<text text-anchor="middle" x="559" y="-209.8" font-family="Verdana" font-size="9.00">pipeline</text>
<text text-anchor="middle" x="559" y="-199.8" font-family="Verdana" font-size="9.00">runner</text>
</g>
<!-- build&#45;&gt;pipe -->
<g id="edge4" class="edge">
<title>build&#45;&gt;pipe</title>
<path fill="none" stroke="black" d="M622.12,-207C610.13,-207 597.13,-207 586.13,-207"/>
<polygon fill="black" stroke="black" points="622.31,-210.5 632.31,-207 622.31,-203.5 622.31,-210.5"/>
</g>
<!-- plot -->
<g id="node22" class="node">
<title>plot</title>
<polygon fill="cornsilk" stroke="black" points="586,-279 532,-279 532,-243 586,-243 586,-279"/>
<text text-anchor="middle" x="559" y="-263.8" font-family="Verdana" font-size="9.00">plotting</text>
<text text-anchor="middle" x="559" y="-253.8" font-family="Verdana" font-size="9.00">graphs</text>
</g>
<!-- build&#45;&gt;plot -->
<g id="edge5" class="edge">
<title>build&#45;&gt;plot</title>
<path fill="none" stroke="black" d="M623.21,-226.7C610.92,-233.36 597.46,-240.67 586.13,-246.82"/>
<polygon fill="black" stroke="black" points="625.19,-229.6 632.31,-221.76 621.85,-223.45 625.19,-229.6"/>
</g>
<!-- cache -->
<g id="node4" class="node">
<title>cache</title>
<polygon fill="cornsilk" stroke="black" points="483.5,-225 425.5,-225 425.5,-189 483.5,-189 483.5,-225"/>
<text text-anchor="middle" x="454.5" y="-204.8" font-family="Verdana" font-size="9.00">file cache</text>
</g>
<!-- cache&#45;&gt;archive -->
<g id="edge6" class="edge">
<title>cache&#45;&gt;archive</title>
<path fill="none" stroke="black" d="M415.12,-207C401.94,-207 387.5,-207 375.52,-207"/>
<polygon fill="black" stroke="black" points="415.36,-210.5 425.36,-207 415.36,-203.5 415.36,-210.5"/>
</g>
<!-- check -->
<g id="node5" class="node">
<title>check</title>
<polygon fill="aquamarine" stroke="black" points="587,-117 531,-117 531,-81 587,-81 587,-117"/>
<text text-anchor="middle" x="559" y="-101.8" font-family="Verdana" font-size="9.00">checking</text>
<text text-anchor="middle" x="559" y="-91.8" font-family="Verdana" font-size="9.00">HTML</text>
</g>
<!-- db -->
<g id="node6" class="node">
<title>db</title>
<polygon fill="pink" stroke="black" points="589,-171 529,-171 529,-135 589,-135 589,-171"/>
<text text-anchor="middle" x="559" y="-155.8" font-family="Verdana" font-size="9.00">key&#45;value</text>
<text text-anchor="middle" x="559" y="-145.8" font-family="Verdana" font-size="9.00">store</text>
</g>
<!-- db&#45;&gt;binary -->
<g id="edge7" class="edge">
<title>db&#45;&gt;binary</title>
<path fill="none" stroke="black" d="M519.86,-132.91C507.09,-126.18 493.15,-118.84 481.52,-112.71"/>
<polygon fill="black" stroke="black" points="518.42,-136.11 528.9,-137.67 521.69,-129.91 518.42,-136.11"/>
</g>
<!-- df -->
<g id="node7" class="node">
<title>df</title>
<polygon fill="cornsilk" stroke="black" points="486,-279 423,-279 423,-243 486,-243 486,-279"/>
<text text-anchor="middle" x="454.5" y="-263.8" font-family="Verdana" font-size="9.00">dataframe</text>
<text text-anchor="middle" x="454.5" y="-253.8" font-family="Verdana" font-size="9.00">operations</text>
</g>
<!-- perf -->
<g id="node19" class="node">
<title>perf</title>
<polygon fill="cornsilk" stroke="black" points="385,-279 312,-279 312,-243 385,-243 385,-279"/>
<text text-anchor="middle" x="348.5" y="-263.8" font-family="Verdana" font-size="9.00">performance</text>
<text text-anchor="middle" x="348.5" y="-253.8" font-family="Verdana" font-size="9.00">profiling</text>
</g>
<!-- df&#45;&gt;perf -->
<g id="edge8" class="edge">
<title>df&#45;&gt;perf</title>
<path fill="none" stroke="black" d="M412.79,-261C403.63,-261 393.98,-261 385.05,-261"/>
<polygon fill="black" stroke="black" points="412.86,-264.5 422.86,-261 412.86,-257.5 412.86,-264.5"/>
</g>
<!-- dup -->
<g id="node8" class="node">
<title>dup</title>
<polygon fill="aquamarine" stroke="black" points="58,-171 0,-171 0,-135 58,-135 58,-171"/>
<text text-anchor="middle" x="29" y="-155.8" font-family="Verdana" font-size="9.00">duplicate</text>
<text text-anchor="middle" x="29" y="-145.8" font-family="Verdana" font-size="9.00">file finder</text>
</g>
<!-- func -->
<g id="node9" class="node">
<title>func</title>
<polygon fill="cornsilk" stroke="black" points="594,-63 524,-63 524,-27 594,-27 594,-63"/>
<text text-anchor="middle" x="559" y="-47.8" font-family="Verdana" font-size="9.00">function def</text>
<text text-anchor="middle" x="559" y="-37.8" font-family="Verdana" font-size="9.00">&amp; call stack</text>
</g>
<!-- interp -->
<g id="node12" class="node">
<title>interp</title>
<polygon fill="cornsilk" stroke="black" points="276,-94 207,-94 207,-58 276,-58 276,-94"/>
<text text-anchor="middle" x="241.5" y="-78.8" font-family="Verdana" font-size="9.00">interpreting</text>
<text text-anchor="middle" x="241.5" y="-68.8" font-family="Verdana" font-size="9.00">expressions</text>
</g>
<!-- func&#45;&gt;interp -->
<g id="edge9" class="edge">
<title>func&#45;&gt;interp</title>
<path fill="none" stroke="black" d="M513.8,-49.34C450.1,-55.6 333.83,-67.03 276.42,-72.67"/>
<polygon fill="black" stroke="black" points="514.33,-52.81 523.94,-48.35 513.64,-45.84 514.33,-52.81"/>
</g>
<!-- test -->
<g id="node26" class="node">
<title>test</title>
<polygon fill="cornsilk" stroke="black" points="159.5,-171 105.5,-171 105.5,-135 159.5,-135 159.5,-171"/>
<text text-anchor="middle" x="132.5" y="-155.8" font-family="Verdana" font-size="9.00">unit</text>
<text text-anchor="middle" x="132.5" y="-145.8" font-family="Verdana" font-size="9.00">testing</text>
</g>
<!-- glob&#45;&gt;test -->
<g id="edge10" class="edge">
<title>glob&#45;&gt;test</title>
<path fill="none" stroke="black" d="M204.13,-153C189.58,-153 173.13,-153 159.78,-153"/>
<polygon fill="black" stroke="black" points="204.32,-156.5 214.32,-153 204.32,-149.5 204.32,-156.5"/>
</g>
<!-- install -->
<g id="node11" class="node">
<title>install</title>
<polygon fill="pink" stroke="black" points="784,-63 730,-63 730,-27 784,-27 784,-63"/>
<text text-anchor="middle" x="757" y="-42.8" font-family="Verdana" font-size="9.00">installer</text>
</g>
<!-- pack -->
<g id="node17" class="node">
<title>pack</title>
<polygon fill="aquamarine" stroke="black" points="688.5,-36 632.5,-36 632.5,0 688.5,0 688.5,-36"/>
<text text-anchor="middle" x="660.5" y="-20.8" font-family="Verdana" font-size="9.00">package</text>
<text text-anchor="middle" x="660.5" y="-10.8" font-family="Verdana" font-size="9.00">manager</text>
</g>
<!-- install&#45;&gt;pack -->
<g id="edge11" class="edge">
<title>install&#45;&gt;pack</title>
<path fill="none" stroke="black" d="M720.25,-34.79C709.83,-31.81 698.62,-28.6 688.81,-25.8"/>
<polygon fill="black" stroke="black" points="719.35,-38.17 729.93,-37.55 721.27,-31.44 719.35,-38.17"/>
</g>
<!-- template -->
<g id="node25" class="node">
<title>template</title>
<polygon fill="cornsilk" stroke="black" points="691,-90 630,-90 630,-54 691,-54 691,-90"/>
<text text-anchor="middle" x="660.5" y="-74.8" font-family="Verdana" font-size="9.00">HTML</text>
<text text-anchor="middle" x="660.5" y="-64.8" font-family="Verdana" font-size="9.00">templates</text>
</g>
<!-- install&#45;&gt;template -->
<g id="edge12" class="edge">
<title>install&#45;&gt;template</title>
<path fill="none" stroke="black" d="M720.24,-55.22C710.65,-57.96 700.38,-60.89 691.16,-63.53"/>
<polygon fill="black" stroke="black" points="721.27,-58.56 729.93,-52.45 719.35,-51.83 721.27,-58.56"/>
</g>
<!-- interp&#45;&gt;test -->
<g id="edge13" class="edge">
<title>interp&#45;&gt;test</title>
<path fill="none" stroke="black" d="M207.07,-100.06C191.47,-111.28 173.22,-124.41 158.8,-134.79"/>
<polygon fill="black" stroke="black" points="209.34,-102.74 215.41,-94.05 205.25,-97.05 209.34,-102.74"/>
</g>
<!-- lint -->
<g id="node13" class="node">
<title>lint</title>
<polygon fill="pink" stroke="black" points="687.5,-144 633.5,-144 633.5,-108 687.5,-108 687.5,-144"/>
<text text-anchor="middle" x="660.5" y="-123.8" font-family="Verdana" font-size="9.00">linting</text>
</g>
<!-- lint&#45;&gt;check -->
<g id="edge14" class="edge">
<title>lint&#45;&gt;check</title>
<path fill="none" stroke="black" d="M623.57,-116.25C611.51,-112.98 598.27,-109.38 587.01,-106.33"/>
<polygon fill="black" stroke="black" points="622.79,-119.66 633.36,-118.91 624.62,-112.91 622.79,-119.66"/>
</g>
<!-- meta -->
<g id="node14" class="node">
<title>meta</title>
<polygon fill="cornsilk" stroke="black" points="171,-252 94,-252 94,-216 171,-216 171,-252"/>
<text text-anchor="middle" x="132.5" y="-236.8" font-family="Verdana" font-size="9.00">meta&#45;</text>
<text text-anchor="middle" x="132.5" y="-226.8" font-family="Verdana" font-size="9.00">programming</text>
</g>
<!-- oop -->
<g id="node16" class="node">
<title>oop</title>
<polygon fill="aquamarine" stroke="black" points="57.5,-252 0.5,-252 0.5,-216 57.5,-216 57.5,-252"/>
<text text-anchor="middle" x="29" y="-236.8" font-family="Verdana" font-size="9.00">class and</text>
<text text-anchor="middle" x="29" y="-226.8" font-family="Verdana" font-size="9.00">objects</text>
</g>
<!-- meta&#45;&gt;oop -->
<g id="edge15" class="edge">
<title>meta&#45;&gt;oop</title>
<path fill="none" stroke="black" d="M83.9,-234C74.86,-234 65.68,-234 57.52,-234"/>
<polygon fill="black" stroke="black" points="83.99,-237.5 93.99,-234 83.99,-230.5 83.99,-237.5"/>
</g>
<!-- mock&#45;&gt;meta -->
<g id="edge16" class="edge">
<title>mock&#45;&gt;meta</title>
<path fill="none" stroke="black" d="M204.43,-216.1C193.71,-218.81 181.94,-221.78 171.13,-224.51"/>
<polygon fill="black" stroke="black" points="205.49,-219.45 214.32,-213.6 203.77,-212.66 205.49,-219.45"/>
</g>
<!-- mock&#45;&gt;test -->
<g id="edge17" class="edge">
<title>mock&#45;&gt;test</title>
<path fill="none" stroke="black" d="M204.98,-189.07C190.22,-181.62 173.39,-173.13 159.78,-166.26"/>
<polygon fill="black" stroke="black" points="203.82,-192.41 214.32,-193.79 206.97,-186.16 203.82,-192.41"/>
</g>
<!-- parse&#45;&gt;glob -->
<g id="edge18" class="edge">
<title>parse&#45;&gt;glob</title>
<path fill="none" stroke="black" d="M311.03,-153C297.12,-153 281.54,-153 268.75,-153"/>
<polygon fill="black" stroke="black" points="311.27,-156.5 321.27,-153 311.27,-149.5 311.27,-156.5"/>
</g>
<!-- perf&#45;&gt;meta -->
<g id="edge19" class="edge">
<title>perf&#45;&gt;meta</title>
<path fill="none" stroke="black" d="M301.67,-255.22C262.77,-250.31 207.63,-243.35 171.24,-238.76"/>
<polygon fill="black" stroke="black" points="301.32,-258.7 311.68,-256.48 302.2,-251.76 301.32,-258.7"/>
</g>
<!-- persist -->
<g id="node20" class="node">
<title>persist</title>
<polygon fill="pink" stroke="black" points="488,-171 421,-171 421,-135 488,-135 488,-171"/>
<text text-anchor="middle" x="454.5" y="-155.8" font-family="Verdana" font-size="9.00">object</text>
<text text-anchor="middle" x="454.5" y="-145.8" font-family="Verdana" font-size="9.00">persistence</text>
</g>
<!-- persist&#45;&gt;parse -->
<g id="edge20" class="edge">
<title>persist&#45;&gt;parse</title>
<path fill="none" stroke="black" d="M410.7,-153C398.85,-153 386.35,-153 375.75,-153"/>
<polygon fill="black" stroke="black" points="410.88,-156.5 420.88,-153 410.88,-149.5 410.88,-156.5"/>
</g>
<!-- pipe&#45;&gt;cache -->
<g id="edge21" class="edge">
<title>pipe&#45;&gt;cache</title>
<path fill="none" stroke="black" d="M521.76,-207C509.28,-207 495.49,-207 483.74,-207"/>
<polygon fill="black" stroke="black" points="521.87,-210.5 531.87,-207 521.87,-203.5 521.87,-210.5"/>
</g>
<!-- pipe&#45;&gt;df -->
<g id="edge22" class="edge">
<title>pipe&#45;&gt;df</title>
<path fill="none" stroke="black" d="M522.71,-225.59C510.87,-231.83 497.78,-238.72 486.32,-244.76"/>
<polygon fill="black" stroke="black" points="524.65,-228.52 531.87,-220.77 521.39,-222.33 524.65,-228.52"/>
</g>
<!-- plot&#45;&gt;df -->
<g id="edge23" class="edge">
<title>plot&#45;&gt;df</title>
<path fill="none" stroke="black" d="M521.65,-261C510.1,-261 497.44,-261 486.32,-261"/>
<polygon fill="black" stroke="black" points="521.87,-264.5 531.87,-261 521.87,-257.5 521.87,-264.5"/>
</g>
<!-- server -->
<g id="node23" class="node">
<title>server</title>
<polygon fill="aquamarine" stroke="black" points="687.5,-279 633.5,-279 633.5,-243 687.5,-243 687.5,-279"/>
<text text-anchor="middle" x="660.5" y="-263.8" font-family="Verdana" font-size="9.00">web</text>
<text text-anchor="middle" x="660.5" y="-253.8" font-family="Verdana" font-size="9.00">server</text>
</g>
<!-- ssg -->
<g id="node24" class="node">
<title>ssg</title>
<polygon fill="pink" stroke="black" points="787,-225 727,-225 727,-189 787,-189 787,-225"/>
<text text-anchor="middle" x="757" y="-209.8" font-family="Verdana" font-size="9.00">static site</text>
<text text-anchor="middle" x="757" y="-199.8" font-family="Verdana" font-size="9.00">generator</text>
</g>
<!-- ssg&#45;&gt;build -->
<g id="edge24" class="edge">
<title>ssg&#45;&gt;build</title>
<path fill="none" stroke="black" d="M716.87,-207C707.42,-207 697.52,-207 688.75,-207"/>
<polygon fill="black" stroke="black" points="716.88,-210.5 726.88,-207 716.88,-203.5 716.88,-210.5"/>
</g>
<!-- ssg&#45;&gt;server -->
<g id="edge25" class="edge">
<title>ssg&#45;&gt;server</title>
<path fill="none" stroke="black" d="M718.14,-228.63C707.97,-234.45 697.19,-240.6 687.8,-245.97"/>
<polygon fill="black" stroke="black" points="719.93,-231.64 726.88,-223.64 716.46,-225.56 719.93,-231.64"/>
</g>
<!-- ssg&#45;&gt;template -->
<g id="edge26" class="edge">
<title>ssg&#45;&gt;template</title>
<path fill="none" stroke="black" d="M742.4,-179.68C730.44,-156.96 711.73,-124.34 691,-99 688.54,-95.99 685.74,-93.01 682.87,-90.18"/>
<polygon fill="black" stroke="black" points="739.39,-181.49 747.1,-188.77 745.61,-178.28 739.39,-181.49"/>
</g>
<!-- template&#45;&gt;check -->
<g id="edge27" class="edge">
<title>template&#45;&gt;check</title>
<path fill="none" stroke="black" d="M620.08,-82.7C609.09,-85.68 597.39,-88.85 587.26,-91.6"/>
<polygon fill="black" stroke="black" points="621.18,-86.02 629.92,-80.03 619.35,-79.27 621.18,-86.02"/>
</g>
<!-- template&#45;&gt;func -->
<g id="edge28" class="edge">
<title>template&#45;&gt;func</title>
<path fill="none" stroke="black" d="M620.12,-61.31C611.54,-58.99 602.54,-56.54 594.19,-54.28"/>
<polygon fill="black" stroke="black" points="619.35,-64.73 629.92,-63.97 621.18,-57.98 619.35,-64.73"/>
</g>
<!-- test&#45;&gt;dup -->
<g id="edge29" class="edge">
<title>test&#45;&gt;dup</title>
<path fill="none" stroke="black" d="M95.08,-153C82.94,-153 69.61,-153 58.19,-153"/>
<polygon fill="black" stroke="black" points="95.36,-156.5 105.36,-153 95.36,-149.5 95.36,-156.5"/>
</g>
</g>
</svg>
