<?xml version="1.0" encoding="UTF-8" standalone="no"?>
<!DOCTYPE svg PUBLIC "-//W3C//DTD SVG 1.1//EN"
 "http://www.w3.org/Graphics/SVG/1.1/DTD/svg11.dtd">
<!-- Generated by graphviz version 6.0.1 (20220911.1526)
 -->
<!-- Pages: 1 -->
<svg width="789pt" height="320pt"
 viewBox="0.00 0.00 789.00 320.00" xmlns="http://www.w3.org/2000/svg" xmlns:xlink="http://www.w3.org/1999/xlink">
<g id="graph0" class="graph" transform="scale(1 1) rotate(0) translate(4 316)">
<polygon fill="white" stroke="none" points="-4,4 -4,-316 785,-316 785,4 -4,4"/>
<!-- dup -->
<g id="node1" class="node">
<title>dup</title>
<polygon fill="aquamarine" stroke="aquamarine" points="366.5,-312 312.5,-312 312.5,-276 366.5,-276 366.5,-312"/>
<text text-anchor="start" x="324" y="-301.1" font-family="Verdana" font-size="8.00">Finding</text>
<text text-anchor="start" x="320.5" y="-292.1" font-family="Verdana" font-size="8.00">Duplicate</text>
<text text-anchor="start" x="330" y="-283.1" font-family="Verdana" font-size="8.00">Files</text>
</g>
<!-- archive -->
<g id="node9" class="node">
<title>archive</title>
<polygon fill="cornsilk" stroke="cornsilk" points="468,-271 414,-271 414,-235 468,-235 468,-271"/>
<text text-anchor="start" x="430" y="-255.6" font-family="Verdana" font-size="8.00">A File</text>
<text text-anchor="start" x="424" y="-246.6" font-family="Verdana" font-size="8.00">Archiver</text>
</g>
<!-- dup&#45;&gt;archive -->
<g id="edge8" class="edge">
<title>dup&#45;&gt;archive</title>
<path fill="none" stroke="black" d="M366.64,-283.23C378.09,-278.51 391.71,-272.9 404.09,-267.8"/>
<polygon fill="black" stroke="black" points="405.77,-270.89 413.69,-263.84 403.11,-264.42 405.77,-270.89"/>
</g>
<!-- glob -->
<g id="node2" class="node">
<title>glob</title>
<polygon fill="aquamarine" stroke="aquamarine" points="366.5,-196 312.5,-196 312.5,-160 366.5,-160 366.5,-196"/>
<text text-anchor="start" x="321" y="-180.6" font-family="Verdana" font-size="8.00">Matching</text>
<text text-anchor="start" x="322.5" y="-171.6" font-family="Verdana" font-size="8.00">Patterns</text>
</g>
<!-- parse -->
<g id="node3" class="node">
<title>parse</title>
<polygon fill="cornsilk" stroke="cornsilk" points="474,-195 408,-195 408,-159 474,-159 474,-195"/>
<text text-anchor="start" x="416" y="-175.1" font-family="Verdana" font-size="8.00">Parsing Text</text>
</g>
<!-- glob&#45;&gt;parse -->
<g id="edge1" class="edge">
<title>glob&#45;&gt;parse</title>
<path fill="none" stroke="black" d="M366.64,-177.74C376.14,-177.64 387.14,-177.53 397.68,-177.43"/>
<polygon fill="black" stroke="black" points="398.03,-180.92 408,-177.32 397.96,-173.92 398.03,-180.92"/>
</g>
<!-- glob&#45;&gt;archive -->
<g id="edge7" class="edge">
<title>glob&#45;&gt;archive</title>
<path fill="none" stroke="black" d="M364.59,-196.16C377.45,-205.85 393.46,-217.92 407.41,-228.44"/>
<polygon fill="black" stroke="black" points="405.7,-231.53 415.79,-234.75 409.91,-225.94 405.7,-231.53"/>
</g>
<!-- check -->
<g id="node10" class="node">
<title>check</title>
<polygon fill="cornsilk" stroke="cornsilk" points="570,-187 516,-187 516,-151 570,-151 570,-187"/>
<text text-anchor="start" x="524.5" y="-171.6" font-family="Verdana" font-size="8.00">An HTML</text>
<text text-anchor="start" x="525" y="-162.6" font-family="Verdana" font-size="8.00">Validator</text>
</g>
<!-- parse&#45;&gt;check -->
<g id="edge10" class="edge">
<title>parse&#45;&gt;check</title>
<path fill="none" stroke="black" d="M474.19,-174.42C484.3,-173.62 495.52,-172.72 505.88,-171.89"/>
<polygon fill="black" stroke="black" points="506.19,-175.38 515.88,-171.09 505.63,-168.4 506.19,-175.38"/>
</g>
<!-- test -->
<g id="node4" class="node">
<title>test</title>
<polygon fill="aquamarine" stroke="aquamarine" points="60.5,-200 6.5,-200 6.5,-164 60.5,-164 60.5,-200"/>
<text text-anchor="start" x="16.5" y="-184.6" font-family="Verdana" font-size="8.00">Running</text>
<text text-anchor="start" x="22.5" y="-175.6" font-family="Verdana" font-size="8.00">Tests</text>
</g>
<!-- interp -->
<g id="node5" class="node">
<title>interp</title>
<polygon fill="cornsilk" stroke="cornsilk" points="165,-200 104,-200 104,-164 165,-164 165,-200"/>
<text text-anchor="start" x="129" y="-184.6" font-family="Verdana" font-size="8.00">An</text>
<text text-anchor="start" x="112" y="-175.6" font-family="Verdana" font-size="8.00">Interpreter</text>
</g>
<!-- test&#45;&gt;interp -->
<g id="edge2" class="edge">
<title>test&#45;&gt;interp</title>
<path fill="none" stroke="black" d="M60.51,-182C70.69,-182 82.59,-182 93.79,-182"/>
<polygon fill="black" stroke="black" points="93.81,-185.5 103.81,-182 93.81,-178.5 93.81,-185.5"/>
</g>
<!-- oop -->
<g id="node6" class="node">
<title>oop</title>
<polygon fill="cornsilk" stroke="cornsilk" points="269,-254 204,-254 204,-218 269,-218 269,-254"/>
<text text-anchor="start" x="212" y="-238.6" font-family="Verdana" font-size="8.00">Objects and</text>
<text text-anchor="start" x="221" y="-229.6" font-family="Verdana" font-size="8.00">Classes</text>
</g>
<!-- interp&#45;&gt;oop -->
<g id="edge3" class="edge">
<title>interp&#45;&gt;oop</title>
<path fill="none" stroke="black" d="M165.23,-198.06C174.58,-203.1 185.06,-208.76 195.02,-214.14"/>
<polygon fill="black" stroke="black" points="193.51,-217.3 203.97,-218.97 196.83,-211.14 193.51,-217.3"/>
</g>
<!-- func -->
<g id="node7" class="node">
<title>func</title>
<polygon fill="cornsilk" stroke="cornsilk" points="271,-200 202,-200 202,-164 271,-164 271,-200"/>
<text text-anchor="start" x="216.5" y="-184.6" font-family="Verdana" font-size="8.00">Functions</text>
<text text-anchor="start" x="210" y="-175.6" font-family="Verdana" font-size="8.00">and Closures</text>
</g>
<!-- interp&#45;&gt;func -->
<g id="edge4" class="edge">
<title>interp&#45;&gt;func</title>
<path fill="none" stroke="black" d="M165.23,-182C173.51,-182 182.68,-182 191.58,-182"/>
<polygon fill="black" stroke="black" points="191.85,-185.5 201.85,-182 191.85,-178.5 191.85,-185.5"/>
</g>
<!-- vm -->
<g id="node24" class="node">
<title>vm</title>
<polygon fill="cornsilk" stroke="cornsilk" points="263.5,-144 209.5,-144 209.5,-108 263.5,-108 263.5,-144"/>
<text text-anchor="start" x="219" y="-128.6" font-family="Verdana" font-size="8.00">A Virtual</text>
<text text-anchor="start" x="219.5" y="-119.6" font-family="Verdana" font-size="8.00">Machine</text>
</g>
<!-- interp&#45;&gt;vm -->
<g id="edge24" class="edge">
<title>interp&#45;&gt;vm</title>
<path fill="none" stroke="black" d="M165.23,-165.35C176.32,-159.14 189,-152.04 200.51,-145.59"/>
<polygon fill="black" stroke="black" points="202.43,-148.53 209.44,-140.59 199.01,-142.42 202.43,-148.53"/>
</g>
<!-- mock -->
<g id="node8" class="node">
<title>mock</title>
<polygon fill="cornsilk" stroke="cornsilk" points="369,-258 310,-258 310,-214 369,-214 369,-258"/>
<text text-anchor="start" x="325.5" y="-247.6" font-family="Verdana" font-size="8.00">Mocks,</text>
<text text-anchor="start" x="319.5" y="-238.6" font-family="Verdana" font-size="8.00">Protocols,</text>
<text text-anchor="start" x="331.5" y="-229.6" font-family="Verdana" font-size="8.00">and</text>
<text text-anchor="start" x="318" y="-220.6" font-family="Verdana" font-size="8.00">Decorators</text>
</g>
<!-- oop&#45;&gt;mock -->
<g id="edge6" class="edge">
<title>oop&#45;&gt;mock</title>
<path fill="none" stroke="black" d="M269.18,-236C278.8,-236 289.48,-236 299.52,-236"/>
<polygon fill="black" stroke="black" points="299.68,-239.5 309.68,-236 299.68,-232.5 299.68,-239.5"/>
</g>
<!-- func&#45;&gt;mock -->
<g id="edge5" class="edge">
<title>func&#45;&gt;mock</title>
<path fill="none" stroke="black" d="M271.13,-199.98C280.61,-205.05 290.99,-210.6 300.69,-215.79"/>
<polygon fill="black" stroke="black" points="299.28,-219 309.75,-220.63 302.58,-212.82 299.28,-219"/>
</g>
<!-- mock&#45;&gt;archive -->
<g id="edge9" class="edge">
<title>mock&#45;&gt;archive</title>
<path fill="none" stroke="black" d="M369.01,-240.87C379.83,-242.72 392.29,-244.85 403.73,-246.8"/>
<polygon fill="black" stroke="black" points="403.42,-250.3 413.87,-248.54 404.6,-243.4 403.42,-250.3"/>
</g>
<!-- ftp -->
<g id="node20" class="node">
<title>ftp</title>
<polygon fill="cornsilk" stroke="cornsilk" points="576,-273 510,-273 510,-237 576,-237 576,-273"/>
<text text-anchor="start" x="518" y="-257.6" font-family="Verdana" font-size="8.00">Transferring</text>
<text text-anchor="start" x="533.5" y="-248.6" font-family="Verdana" font-size="8.00">Files</text>
</g>
<!-- archive&#45;&gt;ftp -->
<g id="edge20" class="edge">
<title>archive&#45;&gt;ftp</title>
<path fill="none" stroke="black" d="M468.01,-253.52C477.66,-253.71 488.87,-253.94 499.6,-254.15"/>
<polygon fill="black" stroke="black" points="499.61,-257.65 509.68,-254.35 499.75,-250.65 499.61,-257.65"/>
</g>
<!-- template -->
<g id="node11" class="node">
<title>template</title>
<polygon fill="cornsilk" stroke="cornsilk" points="676.5,-183 615.5,-183 615.5,-147 676.5,-147 676.5,-183"/>
<text text-anchor="start" x="623.5" y="-167.6" font-family="Verdana" font-size="8.00">A Template</text>
<text text-anchor="start" x="626.5" y="-158.6" font-family="Verdana" font-size="8.00">Expander</text>
</g>
<!-- check&#45;&gt;template -->
<g id="edge11" class="edge">
<title>check&#45;&gt;template</title>
<path fill="none" stroke="black" d="M570.01,-167.97C580.68,-167.55 593.27,-167.05 605.06,-166.58"/>
<polygon fill="black" stroke="black" points="605.29,-170.08 615.14,-166.18 605.01,-163.08 605.29,-170.08"/>
</g>
<!-- lint -->
<g id="node12" class="node">
<title>lint</title>
<polygon fill="pink" stroke="pink" points="673,-129 619,-129 619,-93 673,-93 673,-129"/>
<text text-anchor="start" x="632" y="-113.6" font-family="Verdana" font-size="8.00">A Code</text>
<text text-anchor="start" x="634" y="-104.6" font-family="Verdana" font-size="8.00">Linter</text>
</g>
<!-- check&#45;&gt;lint -->
<g id="edge12" class="edge">
<title>check&#45;&gt;lint</title>
<path fill="none" stroke="black" d="M570.01,-154.06C582.17,-147.08 596.82,-138.67 609.94,-131.13"/>
<polygon fill="black" stroke="black" points="611.8,-134.1 618.73,-126.09 608.31,-128.03 611.8,-134.1"/>
</g>
<!-- layout -->
<g id="node13" class="node">
<title>layout</title>
<polygon fill="pink" stroke="pink" points="781,-206 716,-206 716,-170 781,-170 781,-206"/>
<text text-anchor="start" x="724" y="-186.1" font-family="Verdana" font-size="8.00">Page Layout</text>
</g>
<!-- check&#45;&gt;layout -->
<g id="edge13" class="edge">
<title>check&#45;&gt;layout</title>
<path fill="none" stroke="black" d="M570.29,-180.13C582.7,-184.8 597.86,-189.67 612,-192 643.06,-197.11 678.65,-195.79 705.56,-193.36"/>
<polygon fill="black" stroke="black" points="706.18,-196.82 715.79,-192.35 705.49,-189.85 706.18,-196.82"/>
</g>
<!-- template&#45;&gt;layout -->
<g id="edge14" class="edge">
<title>template&#45;&gt;layout</title>
<path fill="none" stroke="black" d="M676.61,-171.78C685.72,-173.86 695.93,-176.2 705.69,-178.43"/>
<polygon fill="black" stroke="black" points="705.12,-181.89 715.65,-180.71 706.68,-175.07 705.12,-181.89"/>
</g>
<!-- perf -->
<g id="node14" class="node">
<title>perf</title>
<polygon fill="aquamarine" stroke="aquamarine" points="67,-308 0,-308 0,-272 67,-272 67,-308"/>
<text text-anchor="start" x="8" y="-292.6" font-family="Verdana" font-size="8.00">Performance</text>
<text text-anchor="start" x="16.5" y="-283.6" font-family="Verdana" font-size="8.00">Profiling</text>
</g>
<!-- pack -->
<g id="node19" class="node">
<title>pack</title>
<polygon fill="pink" stroke="pink" points="163,-281 106,-281 106,-245 163,-245 163,-281"/>
<text text-anchor="start" x="114" y="-265.6" font-family="Verdana" font-size="8.00">A Package</text>
<text text-anchor="start" x="117" y="-256.6" font-family="Verdana" font-size="8.00">Manager</text>
</g>
<!-- perf&#45;&gt;pack -->
<g id="edge19" class="edge">
<title>perf&#45;&gt;pack</title>
<path fill="none" stroke="black" d="M67.19,-281.08C76.37,-278.58 86.43,-275.84 95.88,-273.26"/>
<polygon fill="black" stroke="black" points="97.09,-276.56 105.81,-270.55 95.24,-269.81 97.09,-276.56"/>
</g>
<!-- persist -->
<g id="node15" class="node">
<title>persist</title>
<polygon fill="aquamarine" stroke="aquamarine" points="64.5,-59 2.5,-59 2.5,-23 64.5,-23 64.5,-59"/>
<text text-anchor="start" x="20" y="-43.6" font-family="Verdana" font-size="8.00">Object</text>
<text text-anchor="start" x="10.5" y="-34.6" font-family="Verdana" font-size="8.00">Persistence</text>
</g>
<!-- binary -->
<g id="node16" class="node">
<title>binary</title>
<polygon fill="cornsilk" stroke="cornsilk" points="166,-82 103,-82 103,-46 166,-46 166,-82"/>
<text text-anchor="start" x="111" y="-62.1" font-family="Verdana" font-size="8.00">Binary Data</text>
</g>
<!-- persist&#45;&gt;binary -->
<g id="edge15" class="edge">
<title>persist&#45;&gt;binary</title>
<path fill="none" stroke="black" d="M64.74,-48.03C73.59,-50.08 83.42,-52.37 92.81,-54.55"/>
<polygon fill="black" stroke="black" points="92.23,-58 102.76,-56.86 93.81,-51.19 92.23,-58"/>
</g>
<!-- db -->
<g id="node17" class="node">
<title>db</title>
<polygon fill="pink" stroke="pink" points="267.5,-36 205.5,-36 205.5,0 267.5,0 267.5,-36"/>
<text text-anchor="start" x="213.5" y="-16.1" font-family="Verdana" font-size="8.00">A Database</text>
</g>
<!-- persist&#45;&gt;db -->
<g id="edge17" class="edge">
<title>persist&#45;&gt;db</title>
<path fill="none" stroke="black" d="M64.59,-37.56C99.23,-33.59 156.29,-27.06 194.85,-22.65"/>
<polygon fill="black" stroke="black" points="195.67,-26.08 205.2,-21.47 194.87,-19.13 195.67,-26.08"/>
</g>
<!-- binary&#45;&gt;db -->
<g id="edge16" class="edge">
<title>binary&#45;&gt;db</title>
<path fill="none" stroke="black" d="M166.05,-49.95C175.54,-45.58 186.13,-40.71 196.13,-36.11"/>
<polygon fill="black" stroke="black" points="197.86,-39.17 205.48,-31.81 194.94,-32.81 197.86,-39.17"/>
</g>
<!-- binary&#45;&gt;vm -->
<g id="edge23" class="edge">
<title>binary&#45;&gt;vm</title>
<path fill="none" stroke="black" d="M164.69,-82.1C175.9,-89.05 188.81,-97.05 200.51,-104.31"/>
<polygon fill="black" stroke="black" points="198.83,-107.38 209.17,-109.68 202.52,-101.43 198.83,-107.38"/>
</g>
<!-- build -->
<g id="node18" class="node">
<title>build</title>
<polygon fill="aquamarine" stroke="aquamarine" points="60.5,-254 6.5,-254 6.5,-218 60.5,-218 60.5,-254"/>
<text text-anchor="start" x="19" y="-238.6" font-family="Verdana" font-size="8.00">A Build</text>
<text text-anchor="start" x="16" y="-229.6" font-family="Verdana" font-size="8.00">Manager</text>
</g>
<!-- build&#45;&gt;pack -->
<g id="edge18" class="edge">
<title>build&#45;&gt;pack</title>
<path fill="none" stroke="black" d="M60.51,-243.09C71.43,-246.07 84.34,-249.59 96.24,-252.84"/>
<polygon fill="black" stroke="black" points="95.36,-256.23 105.93,-255.48 97.2,-249.47 95.36,-256.23"/>
</g>
<!-- http -->
<g id="node21" class="node">
<title>http</title>
<polygon fill="pink" stroke="pink" points="680,-275 612,-275 612,-239 680,-239 680,-275"/>
<text text-anchor="start" x="620" y="-259.6" font-family="Verdana" font-size="8.00">Serving Web</text>
<text text-anchor="start" x="634" y="-250.6" font-family="Verdana" font-size="8.00">Pages</text>
</g>
<!-- ftp&#45;&gt;http -->
<g id="edge21" class="edge">
<title>ftp&#45;&gt;http</title>
<path fill="none" stroke="black" d="M576.23,-255.64C584.28,-255.8 593.04,-255.97 601.53,-256.14"/>
<polygon fill="black" stroke="black" points="601.61,-259.64 611.68,-256.34 601.75,-252.64 601.61,-259.64"/>
</g>
<!-- viewer -->
<g id="node22" class="node">
<title>viewer</title>
<polygon fill="aquamarine" stroke="aquamarine" points="263.5,-90 209.5,-90 209.5,-54 263.5,-54 263.5,-90"/>
<text text-anchor="start" x="225.5" y="-74.6" font-family="Verdana" font-size="8.00">A File</text>
<text text-anchor="start" x="222.5" y="-65.6" font-family="Verdana" font-size="8.00">Viewer</text>
</g>
<!-- undo -->
<g id="node23" class="node">
<title>undo</title>
<polygon fill="pink" stroke="pink" points="367.5,-88 311.5,-88 311.5,-52 367.5,-52 367.5,-88"/>
<text text-anchor="start" x="319.5" y="-72.6" font-family="Verdana" font-size="8.00">Undo and</text>
<text text-anchor="start" x="329.5" y="-63.6" font-family="Verdana" font-size="8.00">Redo</text>
</g>
<!-- viewer&#45;&gt;undo -->
<g id="edge22" class="edge">
<title>viewer&#45;&gt;undo</title>
<path fill="none" stroke="black" d="M263.51,-71.48C274.93,-71.26 288.54,-70.99 301.02,-70.74"/>
<polygon fill="black" stroke="black" points="301.24,-74.24 311.17,-70.54 301.1,-67.24 301.24,-74.24"/>
</g>
<!-- debugger -->
<g id="node25" class="node">
<title>debugger</title>
<polygon fill="pink" stroke="pink" points="372,-142 307,-142 307,-106 372,-106 372,-142"/>
<text text-anchor="start" x="315" y="-122.1" font-family="Verdana" font-size="8.00">A Debugger</text>
</g>
<!-- viewer&#45;&gt;debugger -->
<g id="edge26" class="edge">
<title>viewer&#45;&gt;debugger</title>
<path fill="none" stroke="black" d="M263.51,-85.39C273.93,-90.76 286.19,-97.07 297.74,-103.02"/>
<polygon fill="black" stroke="black" points="296.32,-106.22 306.81,-107.68 299.52,-99.99 296.32,-106.22"/>
</g>
<!-- vm&#45;&gt;debugger -->
<g id="edge25" class="edge">
<title>vm&#45;&gt;debugger</title>
<path fill="none" stroke="black" d="M263.51,-125.48C273.62,-125.28 285.47,-125.05 296.71,-124.83"/>
<polygon fill="black" stroke="black" points="296.88,-128.32 306.81,-124.63 296.74,-121.33 296.88,-128.32"/>
</g>
</g>
</svg>
