<?xml version="1.0" encoding="UTF-8" standalone="no"?>
<!DOCTYPE svg PUBLIC "-//W3C//DTD SVG 1.1//EN"
 "http://www.w3.org/Graphics/SVG/1.1/DTD/svg11.dtd">
<!-- Generated by graphviz version 8.0.5 (20230430.1635)
 -->
<!-- Pages: 1 -->
<svg width="771pt" height="563pt"
 viewBox="0.00 0.00 771.00 562.75" xmlns="http://www.w3.org/2000/svg" xmlns:xlink="http://www.w3.org/1999/xlink">
<g id="graph0" class="graph" transform="scale(1 1) rotate(0) translate(4 558.75)">
<polygon fill="white" stroke="none" points="-4,4 -4,-558.75 767,-558.75 767,4 -4,4"/>
<!-- oop -->
<g id="node1" class="node">
<title>oop</title>
<polygon fill="aquamarine" stroke="aquamarine" points="155.12,-318 90.38,-318 90.38,-282 155.12,-282 155.12,-318"/>
<text text-anchor="start" x="98.38" y="-302.9" font-family="Verdana" font-size="8.00">Objects and</text>
<text text-anchor="start" x="107.75" y="-292.4" font-family="Verdana" font-size="8.00">Classes</text>
</g>
<!-- interp -->
<g id="node6" class="node">
<title>interp</title>
<polygon fill="cornsilk" stroke="cornsilk" points="251.75,-268 191.5,-268 191.5,-232 251.75,-232 251.75,-268"/>
<text text-anchor="start" x="216.38" y="-252.9" font-family="Verdana" font-size="8.00">An</text>
<text text-anchor="start" x="199.5" y="-242.4" font-family="Verdana" font-size="8.00">Interpreter</text>
</g>
<!-- oop&#45;&gt;interp -->
<g id="edge2" class="edge">
<title>oop&#45;&gt;interp</title>
<path fill="none" stroke="black" d="M155.47,-283.63C163.81,-279.32 172.9,-274.63 181.58,-270.15"/>
<polygon fill="black" stroke="black" points="182.85,-272.92 190.13,-265.22 179.64,-266.7 182.85,-272.92"/>
</g>
<!-- reflect -->
<g id="node8" class="node">
<title>reflect</title>
<polygon fill="cornsilk" stroke="cornsilk" points="451.75,-328 396.75,-328 396.75,-292 451.75,-292 451.75,-328"/>
<text text-anchor="start" x="404.75" y="-307.65" font-family="Verdana" font-size="8.00">Reflection</text>
</g>
<!-- oop&#45;&gt;reflect -->
<g id="edge6" class="edge">
<title>oop&#45;&gt;reflect</title>
<path fill="none" stroke="black" d="M155.52,-301.06C211.24,-302.92 326.32,-306.76 385.82,-308.75"/>
<polygon fill="black" stroke="black" points="385.48,-312.27 395.59,-309.11 385.72,-305.28 385.48,-312.27"/>
</g>
<!-- dup -->
<g id="node2" class="node">
<title>dup</title>
<polygon fill="aquamarine" stroke="aquamarine" points="451.25,-554.75 397.25,-554.75 397.25,-515.25 451.25,-515.25 451.25,-554.75"/>
<text text-anchor="start" x="409.25" y="-543.15" font-family="Verdana" font-size="8.00">Finding</text>
<text text-anchor="start" x="405.5" y="-532.65" font-family="Verdana" font-size="8.00">Duplicate</text>
<text text-anchor="start" x="415.25" y="-522.15" font-family="Verdana" font-size="8.00">Files</text>
</g>
<!-- archive -->
<g id="node9" class="node">
<title>archive</title>
<polygon fill="cornsilk" stroke="cornsilk" points="552.38,-500 498.38,-500 498.38,-464 552.38,-464 552.38,-500"/>
<text text-anchor="start" x="514.5" y="-484.9" font-family="Verdana" font-size="8.00">A File</text>
<text text-anchor="start" x="508.5" y="-474.4" font-family="Verdana" font-size="8.00">Archiver</text>
</g>
<!-- dup&#45;&gt;archive -->
<g id="edge9" class="edge">
<title>dup&#45;&gt;archive</title>
<path fill="none" stroke="black" d="M451.55,-520.94C462.87,-514.89 476.27,-507.72 488.48,-501.19"/>
<polygon fill="black" stroke="black" points="489.78,-503.93 496.95,-496.13 486.48,-497.76 489.78,-503.93"/>
</g>
<!-- pack -->
<g id="node19" class="node">
<title>pack</title>
<polygon fill="pink" stroke="pink" points="553.62,-554 497.12,-554 497.12,-518 553.62,-518 553.62,-554"/>
<text text-anchor="start" x="505.12" y="-538.9" font-family="Verdana" font-size="8.00">A Package</text>
<text text-anchor="start" x="508.12" y="-528.4" font-family="Verdana" font-size="8.00">Manager</text>
</g>
<!-- dup&#45;&gt;pack -->
<g id="edge23" class="edge">
<title>dup&#45;&gt;pack</title>
<path fill="none" stroke="black" d="M451.55,-535.27C462.16,-535.37 474.6,-535.5 486.17,-535.61"/>
<polygon fill="black" stroke="black" points="485.87,-539.12 495.91,-535.72 485.95,-532.12 485.87,-539.12"/>
</g>
<!-- glob -->
<g id="node3" class="node">
<title>glob</title>
<polygon fill="aquamarine" stroke="aquamarine" points="54,-467 0,-467 0,-431 54,-431 54,-467"/>
<text text-anchor="start" x="8.62" y="-451.9" font-family="Verdana" font-size="8.00">Matching</text>
<text text-anchor="start" x="10.5" y="-441.4" font-family="Verdana" font-size="8.00">Patterns</text>
</g>
<!-- parse -->
<g id="node4" class="node">
<title>parse</title>
<polygon fill="cornsilk" stroke="cornsilk" points="155.5,-433 90,-433 90,-397 155.5,-397 155.5,-433"/>
<text text-anchor="start" x="98" y="-412.65" font-family="Verdana" font-size="8.00">Parsing Text</text>
</g>
<!-- glob&#45;&gt;parse -->
<g id="edge1" class="edge">
<title>glob&#45;&gt;parse</title>
<path fill="none" stroke="black" d="M54.11,-439.53C61.97,-436.68 70.81,-433.48 79.43,-430.35"/>
<polygon fill="black" stroke="black" points="80.56,-433.3 88.77,-426.6 78.18,-426.72 80.56,-433.3"/>
</g>
<!-- glob&#45;&gt;archive -->
<g id="edge8" class="edge">
<title>glob&#45;&gt;archive</title>
<path fill="none" stroke="black" d="M54.21,-456.85C91.02,-467.17 160.29,-484 220.62,-484 220.62,-484 220.62,-484 323,-484 380.24,-484 446.63,-483.18 487.06,-482.59"/>
<polygon fill="black" stroke="black" points="487.04,-486.08 496.99,-482.43 486.94,-479.08 487.04,-486.08"/>
</g>
<!-- check -->
<g id="node10" class="node">
<title>check</title>
<polygon fill="cornsilk" stroke="cornsilk" points="248.62,-421 194.62,-421 194.62,-385 248.62,-385 248.62,-421"/>
<text text-anchor="start" x="203.62" y="-405.9" font-family="Verdana" font-size="8.00">An HTML</text>
<text text-anchor="start" x="204" y="-395.4" font-family="Verdana" font-size="8.00">Validator</text>
</g>
<!-- parse&#45;&gt;check -->
<g id="edge10" class="edge">
<title>parse&#45;&gt;check</title>
<path fill="none" stroke="black" d="M155.74,-411.04C164.59,-409.94 174.28,-408.74 183.41,-407.61"/>
<polygon fill="black" stroke="black" points="183.67,-410.98 193.16,-406.28 182.81,-404.03 183.67,-410.98"/>
</g>
<!-- test -->
<g id="node5" class="node">
<title>test</title>
<polygon fill="aquamarine" stroke="aquamarine" points="149.75,-264 95.75,-264 95.75,-228 149.75,-228 149.75,-264"/>
<text text-anchor="start" x="105.88" y="-248.9" font-family="Verdana" font-size="8.00">Running</text>
<text text-anchor="start" x="112.25" y="-238.4" font-family="Verdana" font-size="8.00">Tests</text>
</g>
<!-- test&#45;&gt;interp -->
<g id="edge3" class="edge">
<title>test&#45;&gt;interp</title>
<path fill="none" stroke="black" d="M150.22,-247.09C159.52,-247.48 170.19,-247.92 180.36,-248.34"/>
<polygon fill="black" stroke="black" points="179.98,-251.87 190.12,-248.78 180.27,-244.87 179.98,-251.87"/>
</g>
<!-- func -->
<g id="node7" class="node">
<title>func</title>
<polygon fill="cornsilk" stroke="cornsilk" points="356.25,-272 287.75,-272 287.75,-236 356.25,-236 356.25,-272"/>
<text text-anchor="start" x="302.5" y="-256.9" font-family="Verdana" font-size="8.00">Functions</text>
<text text-anchor="start" x="295.75" y="-246.4" font-family="Verdana" font-size="8.00">and Closures</text>
</g>
<!-- interp&#45;&gt;func -->
<g id="edge4" class="edge">
<title>interp&#45;&gt;func</title>
<path fill="none" stroke="black" d="M252.14,-251.2C259.85,-251.51 268.34,-251.86 276.64,-252.2"/>
<polygon fill="black" stroke="black" points="276.23,-255.72 286.36,-252.63 276.51,-248.73 276.23,-255.72"/>
</g>
<!-- template -->
<g id="node11" class="node">
<title>template</title>
<polygon fill="cornsilk" stroke="cornsilk" points="352.12,-364 291.88,-364 291.88,-328 352.12,-328 352.12,-364"/>
<text text-anchor="start" x="299.88" y="-348.9" font-family="Verdana" font-size="8.00">A Template</text>
<text text-anchor="start" x="302.88" y="-338.4" font-family="Verdana" font-size="8.00">Expander</text>
</g>
<!-- interp&#45;&gt;template -->
<g id="edge11" class="edge">
<title>interp&#45;&gt;template</title>
<path fill="none" stroke="black" d="M241.13,-268.06C256.15,-282.71 277.52,-303.57 294.38,-320.02"/>
<polygon fill="black" stroke="black" points="291.64,-322.22 301.24,-326.7 296.53,-317.21 291.64,-322.22"/>
</g>
<!-- persist -->
<g id="node15" class="node">
<title>persist</title>
<polygon fill="cornsilk" stroke="cornsilk" points="352.88,-218 291.12,-218 291.12,-182 352.88,-182 352.88,-218"/>
<text text-anchor="start" x="308.88" y="-202.9" font-family="Verdana" font-size="8.00">Object</text>
<text text-anchor="start" x="299.12" y="-192.4" font-family="Verdana" font-size="8.00">Persistence</text>
</g>
<!-- interp&#45;&gt;persist -->
<g id="edge17" class="edge">
<title>interp&#45;&gt;persist</title>
<path fill="none" stroke="black" d="M252.14,-235C261.31,-230.34 271.57,-225.12 281.31,-220.17"/>
<polygon fill="black" stroke="black" points="282.5,-222.99 289.82,-215.34 279.32,-216.75 282.5,-222.99"/>
</g>
<!-- vm -->
<g id="node24" class="node">
<title>vm</title>
<polygon fill="cornsilk" stroke="cornsilk" points="552.38,-82 498.38,-82 498.38,-46 552.38,-46 552.38,-82"/>
<text text-anchor="start" x="508.12" y="-66.9" font-family="Verdana" font-size="8.00">A Virtual</text>
<text text-anchor="start" x="508.88" y="-56.4" font-family="Verdana" font-size="8.00">Machine</text>
</g>
<!-- interp&#45;&gt;vm -->
<g id="edge28" class="edge">
<title>interp&#45;&gt;vm</title>
<path fill="none" stroke="black" d="M234.43,-231.76C258.87,-195.8 318.9,-116.37 392.25,-83 422.38,-69.3 460.01,-64.97 487.4,-63.82"/>
<polygon fill="black" stroke="black" points="487.2,-67.3 497.09,-63.51 487,-60.3 487.2,-67.3"/>
</g>
<!-- func&#45;&gt;reflect -->
<g id="edge5" class="edge">
<title>func&#45;&gt;reflect</title>
<path fill="none" stroke="black" d="M356.1,-272.49C366.04,-278.04 377,-284.16 387.12,-289.82"/>
<polygon fill="black" stroke="black" points="385.08,-293.25 395.52,-295.07 388.49,-287.13 385.08,-293.25"/>
</g>
<!-- reflect&#45;&gt;archive -->
<g id="edge7" class="edge">
<title>reflect&#45;&gt;archive</title>
<path fill="none" stroke="black" d="M438.04,-328.09C443.8,-336.46 450.56,-346.61 456.25,-356 476.26,-389.05 497.07,-428.4 510.35,-454.22"/>
<polygon fill="black" stroke="black" points="507.55,-455.43 515.21,-462.75 513.78,-452.25 507.55,-455.43"/>
</g>
<!-- perf -->
<g id="node14" class="node">
<title>perf</title>
<polygon fill="pink" stroke="pink" points="558.5,-328 492.25,-328 492.25,-292 558.5,-292 558.5,-328"/>
<text text-anchor="start" x="500.25" y="-312.9" font-family="Verdana" font-size="8.00">Performance</text>
<text text-anchor="start" x="508.88" y="-302.4" font-family="Verdana" font-size="8.00">Profiling</text>
</g>
<!-- reflect&#45;&gt;perf -->
<g id="edge16" class="edge">
<title>reflect&#45;&gt;perf</title>
<path fill="none" stroke="black" d="M452.07,-310C460.99,-310 471.16,-310 481,-310"/>
<polygon fill="black" stroke="black" points="480.88,-313.5 490.88,-310 480.88,-306.5 480.88,-313.5"/>
</g>
<!-- db -->
<g id="node17" class="node">
<title>db</title>
<polygon fill="pink" stroke="pink" points="555.88,-228 494.88,-228 494.88,-192 555.88,-192 555.88,-228"/>
<text text-anchor="start" x="502.88" y="-207.65" font-family="Verdana" font-size="8.00">A Database</text>
</g>
<!-- reflect&#45;&gt;db -->
<g id="edge19" class="edge">
<title>reflect&#45;&gt;db</title>
<path fill="none" stroke="black" d="M446.85,-291.69C450.05,-288.84 453.27,-285.88 456.25,-283 471.67,-268.1 488.1,-250.55 500.96,-236.39"/>
<polygon fill="black" stroke="black" points="502.98,-239.27 507.08,-229.5 497.79,-234.58 502.98,-239.27"/>
</g>
<!-- ftp -->
<g id="node20" class="node">
<title>ftp</title>
<polygon fill="cornsilk" stroke="cornsilk" points="660,-500 594.5,-500 594.5,-464 660,-464 660,-500"/>
<text text-anchor="start" x="602.5" y="-484.9" font-family="Verdana" font-size="8.00">Transferring</text>
<text text-anchor="start" x="618.25" y="-474.4" font-family="Verdana" font-size="8.00">Files</text>
</g>
<!-- archive&#45;&gt;ftp -->
<g id="edge24" class="edge">
<title>archive&#45;&gt;ftp</title>
<path fill="none" stroke="black" d="M552.62,-482C562.05,-482 572.96,-482 583.44,-482"/>
<polygon fill="black" stroke="black" points="583.13,-485.5 593.12,-482 583.12,-478.5 583.13,-485.5"/>
</g>
<!-- check&#45;&gt;template -->
<g id="edge12" class="edge">
<title>check&#45;&gt;template</title>
<path fill="none" stroke="black" d="M248.99,-387.73C259.11,-381.86 270.89,-375.03 281.96,-368.62"/>
<polygon fill="black" stroke="black" points="283.54,-371.17 290.44,-363.13 280.03,-365.11 283.54,-371.17"/>
</g>
<!-- lint -->
<g id="node12" class="node">
<title>lint</title>
<polygon fill="pink" stroke="pink" points="349,-456 295,-456 295,-420 349,-420 349,-456"/>
<text text-anchor="start" x="308.12" y="-440.9" font-family="Verdana" font-size="8.00">A Code</text>
<text text-anchor="start" x="310.38" y="-430.4" font-family="Verdana" font-size="8.00">Linter</text>
</g>
<!-- check&#45;&gt;lint -->
<g id="edge13" class="edge">
<title>check&#45;&gt;lint</title>
<path fill="none" stroke="black" d="M248.99,-412.38C259.9,-416.26 272.75,-420.83 284.54,-425.03"/>
<polygon fill="black" stroke="black" points="282.97,-428.54 293.56,-428.59 285.32,-421.95 282.97,-428.54"/>
</g>
<!-- layout -->
<g id="node13" class="node">
<title>layout</title>
<polygon fill="pink" stroke="pink" points="456.25,-401 392.25,-401 392.25,-365 456.25,-365 456.25,-401"/>
<text text-anchor="start" x="400.25" y="-380.65" font-family="Verdana" font-size="8.00">Page Layout</text>
</g>
<!-- check&#45;&gt;layout -->
<g id="edge15" class="edge">
<title>check&#45;&gt;layout</title>
<path fill="none" stroke="black" d="M248.85,-400.39C282.54,-397.03 341.42,-391.16 381.35,-387.18"/>
<polygon fill="black" stroke="black" points="381.47,-390.58 391.07,-386.11 380.77,-383.62 381.47,-390.58"/>
</g>
<!-- template&#45;&gt;layout -->
<g id="edge14" class="edge">
<title>template&#45;&gt;layout</title>
<path fill="none" stroke="black" d="M352.54,-356.9C361.61,-360.25 371.78,-364 381.51,-367.6"/>
<polygon fill="black" stroke="black" points="380.24,-371.22 390.83,-371.4 382.66,-364.66 380.24,-371.22"/>
</g>
<!-- binary -->
<g id="node16" class="node">
<title>binary</title>
<polygon fill="cornsilk" stroke="cornsilk" points="455.5,-182 393,-182 393,-146 455.5,-146 455.5,-182"/>
<text text-anchor="start" x="401" y="-161.65" font-family="Verdana" font-size="8.00">Binary Data</text>
</g>
<!-- persist&#45;&gt;binary -->
<g id="edge18" class="edge">
<title>persist&#45;&gt;binary</title>
<path fill="none" stroke="black" d="M353.35,-189.1C362.49,-185.82 372.68,-182.16 382.38,-178.67"/>
<polygon fill="black" stroke="black" points="383.43,-181.66 391.66,-174.99 381.06,-175.07 383.43,-181.66"/>
</g>
<!-- persist&#45;&gt;db -->
<g id="edge20" class="edge">
<title>persist&#45;&gt;db</title>
<path fill="none" stroke="black" d="M353.15,-201.5C387.9,-203.22 445.18,-206.07 483.82,-207.99"/>
<polygon fill="black" stroke="black" points="483.52,-211.52 493.68,-208.53 483.86,-204.53 483.52,-211.52"/>
</g>
<!-- build -->
<g id="node18" class="node">
<title>build</title>
<polygon fill="pink" stroke="pink" points="451.25,-274 397.25,-274 397.25,-238 451.25,-238 451.25,-274"/>
<text text-anchor="start" x="410" y="-258.9" font-family="Verdana" font-size="8.00">A Build</text>
<text text-anchor="start" x="407" y="-248.4" font-family="Verdana" font-size="8.00">Manager</text>
</g>
<!-- persist&#45;&gt;build -->
<g id="edge22" class="edge">
<title>persist&#45;&gt;build</title>
<path fill="none" stroke="black" d="M353.35,-216.95C364.14,-222.98 376.38,-229.82 387.57,-236.07"/>
<polygon fill="black" stroke="black" points="385.63,-239.56 396.07,-241.38 389.05,-233.44 385.63,-239.56"/>
</g>
<!-- undo -->
<g id="node23" class="node">
<title>undo</title>
<polygon fill="pink" stroke="pink" points="451.75,-128 396.75,-128 396.75,-92 451.75,-92 451.75,-128"/>
<text text-anchor="start" x="404.75" y="-112.9" font-family="Verdana" font-size="8.00">Undo and</text>
<text text-anchor="start" x="414.5" y="-102.4" font-family="Verdana" font-size="8.00">Redo</text>
</g>
<!-- persist&#45;&gt;undo -->
<g id="edge27" class="edge">
<title>persist&#45;&gt;undo</title>
<path fill="none" stroke="black" d="M342.9,-181.69C356.68,-169.06 375.5,-151.91 392.25,-137 392.85,-136.47 393.46,-135.93 394.07,-135.38"/>
<polygon fill="black" stroke="black" points="395.99,-138.47 401.19,-129.24 391.37,-133.22 395.99,-138.47"/>
</g>
<!-- binary&#45;&gt;db -->
<g id="edge21" class="edge">
<title>binary&#45;&gt;db</title>
<path fill="none" stroke="black" d="M455.8,-178.18C464.92,-182.41 475.05,-187.11 484.67,-191.57"/>
<polygon fill="black" stroke="black" points="482.89,-195.07 493.44,-196.11 485.84,-188.72 482.89,-195.07"/>
</g>
<!-- binary&#45;&gt;vm -->
<g id="edge29" class="edge">
<title>binary&#45;&gt;vm</title>
<path fill="none" stroke="black" d="M446.85,-145.69C450.05,-142.84 453.27,-139.88 456.25,-137 471.67,-122.1 488.1,-104.55 500.96,-90.39"/>
<polygon fill="black" stroke="black" points="502.98,-93.27 507.08,-83.5 497.79,-88.58 502.98,-93.27"/>
</g>
<!-- http -->
<g id="node21" class="node">
<title>http</title>
<polygon fill="pink" stroke="pink" points="763,-500 696,-500 696,-464 763,-464 763,-500"/>
<text text-anchor="start" x="704" y="-484.9" font-family="Verdana" font-size="8.00">Serving Web</text>
<text text-anchor="start" x="717.88" y="-474.4" font-family="Verdana" font-size="8.00">Pages</text>
</g>
<!-- ftp&#45;&gt;http -->
<g id="edge25" class="edge">
<title>ftp&#45;&gt;http</title>
<path fill="none" stroke="black" d="M660.25,-482C668.13,-482 676.72,-482 685.05,-482"/>
<polygon fill="black" stroke="black" points="684.78,-485.5 694.78,-482 684.78,-478.5 684.78,-485.5"/>
</g>
<!-- viewer -->
<g id="node22" class="node">
<title>viewer</title>
<polygon fill="aquamarine" stroke="aquamarine" points="349,-36 295,-36 295,0 349,0 349,-36"/>
<text text-anchor="start" x="311.12" y="-20.9" font-family="Verdana" font-size="8.00">A File</text>
<text text-anchor="start" x="308.5" y="-10.4" font-family="Verdana" font-size="8.00">Viewer</text>
</g>
<!-- viewer&#45;&gt;undo -->
<g id="edge26" class="edge">
<title>viewer&#45;&gt;undo</title>
<path fill="none" stroke="black" d="M342.81,-36.18C357.81,-49.95 378.62,-69.05 395.32,-84.37"/>
<polygon fill="black" stroke="black" points="392.41,-86.36 402.14,-90.55 397.14,-81.21 392.41,-86.36"/>
</g>
<!-- debugger -->
<g id="node25" class="node">
<title>debugger</title>
<polygon fill="pink" stroke="pink" points="659.25,-59 595.25,-59 595.25,-23 659.25,-23 659.25,-59"/>
<text text-anchor="start" x="603.25" y="-38.65" font-family="Verdana" font-size="8.00">A Debugger</text>
</g>
<!-- viewer&#45;&gt;debugger -->
<g id="edge30" class="edge">
<title>viewer&#45;&gt;debugger</title>
<path fill="none" stroke="black" d="M349.38,-20C401.99,-23.99 520.34,-32.97 583.94,-37.79"/>
<polygon fill="black" stroke="black" points="583.54,-41.35 593.77,-38.61 584.07,-34.37 583.54,-41.35"/>
</g>
<!-- vm&#45;&gt;debugger -->
<g id="edge31" class="edge">
<title>vm&#45;&gt;debugger</title>
<path fill="none" stroke="black" d="M552.62,-57.96C562.33,-55.72 573.59,-53.13 584.35,-50.65"/>
<polygon fill="black" stroke="black" points="584.9,-53.88 593.85,-48.23 583.32,-47.06 584.9,-53.88"/>
</g>
</g>
</svg>
