<?xml version="1.0" encoding="utf-8"?>
<svg version="1.1" id="Layer_1" xmlns="http://www.w3.org/2000/svg" xmlns:xlink="http://www.w3.org/1999/xlink" x="0px" y="0px"
	 viewBox="0 0 1268.079 1646.727" enable-background="new 0 0 1268.079 1646.727" xml:space="preserve">
<g>
	<path fill="#0F0F0E" stroke="#0F0F0E" d="M469.773,107.349c31.63-46.791,85.349-77.447,141.349-83.026
		c66.122-6.824,135.314,23.168,174.473,77.032c-7.902-1.576-15.701-3.547-23.292-6.181c-32.605-10.018-66.454-15.846-100.49-17.962
		c-25.47-2.696-51.002,0-76.389,2.116c-33.082,4.48-66.06,11.304-97.337,23.188C482.176,104.777,476.016,106.291,469.773,107.349z"
		/>
	<path fill="#020202" stroke="#020202" d="M585.424,79.328c25.387-2.116,50.919-4.812,76.389-2.116
		c34.036,2.116,67.885,7.944,100.49,17.962c7.591,2.634,15.39,4.604,23.292,6.181c6.098,4.708,13.606,6.907,20.596,9.935
		c53.449,22.711,102.087,56.498,142.324,98.353c49.28,51.209,85.764,114.718,104.742,183.246
		c24.578,87.796,20.533,183.308-11.345,268.74c-3.256-4.708-6.907-9.105-10.702-13.357c-2.053,11.242-2.551,23.665-9.52,33.227
		c-3.464,4.625-10.122,2.904-13.896-0.311c-7.757-6.388-12.693-15.452-17.153-24.288c-6.782-14.539-12.175-29.888-14.353-45.837
		c-1.721-15.431,0.892-30.883,1.576-46.294c-27.461,6.409-54.673,13.917-82.383,19.227
		c-99.556,20.202-201.415,28.415-302.921,25.262C486.2,605.939,379.737,592.437,277.214,563.4
		c3.028,14.436,7.529,28.975,5.994,43.888c-1.39,15.597-10.412,28.871-17.215,42.54c-6.098,10.848-11.345,22.587-20.243,31.485
		c-2.945,3.36-9.105,4.21-11.428-0.311c-5.87-9.292-6.16-20.699-8.483-31.153c-5.704-20.637-12.154-41.129-15.618-62.306
		c-19.87-107.708,2.738-222.716,63.094-314.266c44.987-69.15,110.113-125.068,185.465-158.668c4.024-1.804,8.151-3.754,10.993-7.259
		c6.243-1.058,12.403-2.572,18.314-4.833C519.364,90.631,552.342,83.808,585.424,79.328z"/>
	<path fill="#D8AA8B" stroke="#D8AA8B" d="M277.214,563.4c102.522,29.037,208.985,42.54,315.345,45.858
		c101.506,3.153,203.365-5.061,302.921-25.262c27.71-5.31,54.922-12.818,82.383-19.227c-0.684,15.411-3.298,30.862-1.576,46.294
		c2.178,15.95,7.57,31.298,14.353,45.837c4.459,8.836,9.396,17.899,17.153,24.288c3.775,3.215,10.433,4.936,13.896,0.311
		c6.969-9.562,7.467-21.985,9.52-33.227c3.796,4.252,7.446,8.649,10.702,13.357c6.886,15.348,10.495,32.252,9.375,49.114
		c-1.556,31.692-16.427,60.937-34.14,86.573c-16.033,22.255-36.794,45.008-65.479,48.866
		c-10.868,35.26-16.987,72.593-35.882,104.824c-15.493,28.27-39.014,51.209-64.878,70.063
		c-30.966,23.251-65.562,41.191-101.029,56.478c-36.525,15.307-74.356,27.44-112.934,36.421c-9.271,2.219-18.542-0.913-27.44-3.236
		c-9.105-2.593-18.48-4.231-27.523-7.073c-11.968-5.538-24.848-8.628-37.188-13.191c-42.892-15.328-84.602-34.637-122.392-60.231
		c-7.861-5.227-15.058-11.511-23.416-15.991c-8.649-7.197-17.07-14.705-25.055-22.628c-21.446-21.633-37.334-48.534-46.916-77.384
		c-7.073-22.4-12.984-45.132-19.268-67.761c-14.602-2.447-28.311-9.002-39.138-19.123c-23.956-21.55-41.482-49.674-53.076-79.562
		c-11.325-31.692-11.988-70.727,10.308-97.939c2.323,10.453,2.613,21.861,8.483,31.153c2.323,4.521,8.483,3.671,11.428,0.311
		c8.898-8.898,14.145-20.637,20.243-31.485c6.803-13.668,15.825-26.942,17.215-42.54C284.743,592.375,280.242,577.835,277.214,563.4
		z"/>
	<path fill="#020202" stroke="#020202" d="M398.984,1014.245c8.359,4.48,15.556,10.765,23.416,15.991
		c37.79,25.594,79.5,44.904,122.392,60.231c12.341,4.563,25.221,7.653,37.188,13.191c-0.311,12.839,1.908,25.573,2.427,38.391
		c1.348,26.279,1.493,52.744-1.95,78.898c-3.194,29.473-18.293,55.876-34.139,80.33c-37.106,54.88-93.687,96.549-157.652,114.303
		c-43.183,12.901-89.559,18.853-128.365,43.286c-24.723,16.074-45.609,40.134-53.159,69.109c-3.464,12.486-1.97,25.511-0.083,38.122
		c-42.519-38.433-68.86-93.376-76.14-149.915c-1.12-9.79-1.514-19.621-1.452-29.452c0-70.021,31.796-139.462,84.996-185.009
		c29.971-26.092,64.546-45.983,96.507-69.42c22.877-16.842,44.821-35.757,60.978-59.34
		C385.274,1054.814,391.787,1034.239,398.984,1014.245z"/>
	<path fill="#C1977A" stroke="#C1977A" d="M636.945,1113.967c38.578-8.981,76.409-21.114,112.934-36.421
		c0.166,15.929,1.141,31.837,1.079,47.787c-6.969,1.473-13.855,3.277-20.679,5.289c-47.269,13.461-97.109,16.551-145.871,11.428
		c-0.518-12.818-2.738-25.553-2.427-38.391c9.043,2.841,18.418,4.48,27.523,7.073
		C618.402,1113.054,627.673,1116.186,636.945,1113.967z"/>
	<path fill="#D8AA8B" stroke="#D8AA8B" d="M730.279,1130.622c6.824-2.012,13.71-3.816,20.679-5.289
		c1.473,32.688,2.302,65.521,7.073,97.938c2.157,13.959,7.529,28.353,18.791,37.52c9.25,7.487,21.259,9.707,32.314,13.233
		c79.604,24.848,159.207,49.695,238.832,74.46c30.199,9.043,59.92,21.965,84.229,42.415c-12.133-0.145-24.64,0.913-35.633,6.492
		c-14.747,7.363-27.565,17.879-40.549,27.896c-49.612,40.611-106.442,72.967-168.146,91.053
		c-47.393,14.29-96.777,20.202-145.912,24.744c-39.014,4.065-78.38,5.04-117.539,2.551c-82.362-5.33-162.733-25.823-241.798-48.451
		c-40.258-11.594-80.329-23.79-120.318-36.317c38.806-24.433,85.183-30.385,128.365-43.286
		c63.965-17.754,120.546-59.423,157.652-114.303c15.846-24.454,30.945-50.857,34.139-80.33c3.443-26.154,3.298-52.62,1.95-78.898
		C633.17,1147.173,683.01,1144.083,730.279,1130.622z"/>
	<path fill="#D8AA8B" stroke="#D8AA8B" d="M107.782,1407.285c7.467-7.322,15.369-14.208,23.686-20.554
		c-0.062,9.831,0.332,19.662,1.452,29.452C124.084,1414.669,115.622,1411.599,107.782,1407.285z"/>
	<path fill="#CE57B5" stroke="#CE57B5" d="M1096.563,1397.391c10.993-5.579,23.499-6.637,35.633-6.492
		c8.483,3.07,17.319,5.289,25.304,9.562c16.676,8.815,30.531,22.047,42.602,36.359c24.184,29.971,40.486,66.143,47.372,104.016
		c5.019,27.606,3.07,56.789-8.69,82.528H19.446c-5.766-40.258,6.699-80.371,22.628-116.896c16.178-36.4,37.168-71.121,65.707-99.183
		c7.84,4.314,16.302,7.384,25.138,8.898c7.28,56.54,33.621,111.482,76.14,149.915c-1.887-12.61-3.381-25.636,0.083-38.122
		c7.55-28.975,28.436-53.034,53.159-69.109c39.988,12.527,80.06,24.723,120.318,36.317c79.064,22.628,159.435,43.12,241.798,48.451
		c39.159,2.489,78.525,1.514,117.539-2.551c49.135-4.542,98.519-10.453,145.912-24.744c61.704-18.086,118.534-50.442,168.146-91.053
		C1068.998,1415.27,1081.816,1404.754,1096.563,1397.391z"/>
</g>
</svg>
