<?xml version="1.0" encoding="UTF-8" standalone="no"?>
<!DOCTYPE svg PUBLIC "-//W3C//DTD SVG 1.1//EN"
 "http://www.w3.org/Graphics/SVG/1.1/DTD/svg11.dtd">
<!-- Generated by graphviz version 6.0.1 (20220911.1526)
 -->
<!-- Title: split_join Pages: 1 -->
<svg width="166pt" height="204pt"
 viewBox="0.00 0.00 166.19 204.00" xmlns="http://www.w3.org/2000/svg" xmlns:xlink="http://www.w3.org/1999/xlink">
<g id="graph0" class="graph" transform="scale(1 1) rotate(0) translate(4 200)">
<title>split_join</title>
<polygon fill="white" stroke="none" points="-4,4 -4,-200 162.19,-200 162.19,4 -4,4"/>
<!-- head -->
<g id="node1" class="node">
<title>head</title>
<ellipse fill="none" stroke="black" cx="79.1" cy="-178" rx="39.79" ry="18"/>
<text text-anchor="middle" x="79.1" y="-174.3" font-family="Times,serif" font-size="14.00">Head(3)</text>
</g>
<!-- left -->
<g id="node2" class="node">
<title>left</title>
<ellipse fill="none" stroke="black" cx="35.1" cy="-105" rx="35.19" ry="18"/>
<text text-anchor="middle" x="35.1" y="-101.3" font-family="Times,serif" font-size="14.00">Tail(2)</text>
</g>
<!-- head&#45;&gt;left -->
<g id="edge1" class="edge">
<title>head&#45;&gt;left</title>
<path fill="none" stroke="black" d="M68.89,-160.53C63.45,-151.75 56.64,-140.76 50.56,-130.96"/>
<polygon fill="black" stroke="black" points="53.49,-129.03 45.25,-122.38 47.54,-132.72 53.49,-129.03"/>
</g>
<!-- right -->
<g id="node3" class="node">
<title>right</title>
<ellipse fill="none" stroke="black" cx="123.1" cy="-105" rx="35.19" ry="18"/>
<text text-anchor="middle" x="123.1" y="-101.3" font-family="Times,serif" font-size="14.00">Tail(1)</text>
</g>
<!-- head&#45;&gt;right -->
<g id="edge2" class="edge">
<title>head&#45;&gt;right</title>
<path fill="none" stroke="black" d="M89.3,-160.53C94.74,-151.75 101.55,-140.76 107.63,-130.96"/>
<polygon fill="black" stroke="black" points="110.65,-132.72 112.95,-122.38 104.7,-129.03 110.65,-132.72"/>
</g>
<!-- cat -->
<g id="node4" class="node">
<title>cat</title>
<ellipse fill="none" stroke="black" cx="78.1" cy="-18" rx="28.7" ry="18"/>
<text text-anchor="middle" x="78.1" y="-14.3" font-family="Times,serif" font-size="14.00">Cat()</text>
</g>
<!-- left&#45;&gt;cat -->
<g id="edge3" class="edge">
<title>left&#45;&gt;cat</title>
<path fill="none" stroke="black" d="M41.43,-87.02C45.29,-77.19 50.54,-64.69 56.1,-54 57.86,-50.62 59.83,-47.13 61.86,-43.73"/>
<polygon fill="black" stroke="black" points="64.94,-45.4 67.23,-35.06 58.99,-41.71 64.94,-45.4"/>
<text text-anchor="middle" x="75.1" y="-57.8" font-family="Times,serif" font-size="14.00">second</text>
</g>
<!-- right&#45;&gt;cat -->
<g id="edge4" class="edge">
<title>right&#45;&gt;cat</title>
<path fill="none" stroke="black" d="M114.21,-87.21C107.71,-74.94 98.8,-58.1 91.45,-44.22"/>
<polygon fill="black" stroke="black" points="94.44,-42.38 86.66,-35.18 88.25,-45.66 94.44,-42.38"/>
<text text-anchor="middle" x="114.1" y="-57.8" font-family="Times,serif" font-size="14.00">first</text>
</g>
</g>
</svg>
