<?xml version="1.0" encoding="UTF-8" standalone="no"?>
<!DOCTYPE svg PUBLIC "-//W3C//DTD SVG 1.1//EN"
 "http://www.w3.org/Graphics/SVG/1.1/DTD/svg11.dtd">
<!-- Generated by graphviz version 8.0.5 (20230430.1635)
 -->
<!-- Pages: 1 -->
<svg width="851pt" height="408pt"
 viewBox="0.00 0.00 850.50 408.00" xmlns="http://www.w3.org/2000/svg" xmlns:xlink="http://www.w3.org/1999/xlink">
<g id="graph0" class="graph" transform="scale(1 1) rotate(0) translate(4 404)">
<polygon fill="white" stroke="none" points="-4,4 -4,-404 846.5,-404 846.5,4 -4,4"/>
<!-- oop -->
<g id="node1" class="node">
<title>oop</title>
<polygon fill="cornsilk" stroke="cornsilk" points="259.25,-370 194.5,-370 194.5,-334 259.25,-334 259.25,-370"/>
<text text-anchor="start" x="202.5" y="-354.9" font-family="Verdana" font-size="8.00">Objects and</text>
<text text-anchor="start" x="211.88" y="-344.4" font-family="Verdana" font-size="8.00">Classes</text>
</g>
<!-- template -->
<g id="node2" class="node">
<title>template</title>
<polygon fill="cornsilk" stroke="cornsilk" points="449.88,-382 389.62,-382 389.62,-346 449.88,-346 449.88,-382"/>
<text text-anchor="start" x="397.62" y="-366.9" font-family="Verdana" font-size="8.00">A Template</text>
<text text-anchor="start" x="400.62" y="-356.4" font-family="Verdana" font-size="8.00">Expander</text>
</g>
<!-- oop&#45;&gt;template -->
<g id="edge1" class="edge">
<title>oop&#45;&gt;template</title>
<path fill="none" stroke="black" d="M259.39,-353.98C291.98,-356.03 342.95,-359.23 378.44,-361.47"/>
<polygon fill="black" stroke="black" points="378.18,-365.02 388.38,-362.15 378.62,-358.03 378.18,-365.02"/>
</g>
<!-- layout -->
<g id="node3" class="node">
<title>layout</title>
<polygon fill="pink" stroke="pink" points="451.75,-328 387.75,-328 387.75,-292 451.75,-292 451.75,-328"/>
<text text-anchor="start" x="395.75" y="-307.65" font-family="Verdana" font-size="8.00">Page Layout</text>
</g>
<!-- oop&#45;&gt;layout -->
<g id="edge2" class="edge">
<title>oop&#45;&gt;layout</title>
<path fill="none" stroke="black" d="M259.39,-345.06C291.54,-337.99 341.59,-326.98 377.01,-319.18"/>
<polygon fill="black" stroke="black" points="377.49,-322.44 386.5,-316.88 375.98,-315.61 377.49,-322.44"/>
</g>
<!-- perf -->
<g id="node19" class="node">
<title>perf</title>
<polygon fill="cornsilk" stroke="cornsilk" points="555.5,-313 489.25,-313 489.25,-277 555.5,-277 555.5,-313"/>
<text text-anchor="start" x="497.25" y="-297.9" font-family="Verdana" font-size="8.00">Performance</text>
<text text-anchor="start" x="505.88" y="-287.4" font-family="Verdana" font-size="8.00">Profiling</text>
</g>
<!-- template&#45;&gt;perf -->
<g id="edge26" class="edge">
<title>template&#45;&gt;perf</title>
<path fill="none" stroke="black" d="M447.72,-345.51C459.43,-337.48 473.31,-327.96 485.84,-319.36"/>
<polygon fill="black" stroke="black" points="487.42,-321.84 493.68,-313.3 483.46,-316.07 487.42,-321.84"/>
</g>
<!-- dup -->
<g id="node4" class="node">
<title>dup</title>
<polygon fill="aquamarine" stroke="aquamarine" points="349.75,-131.75 295.75,-131.75 295.75,-92.25 349.75,-92.25 349.75,-131.75"/>
<text text-anchor="start" x="307.75" y="-120.15" font-family="Verdana" font-size="8.00">Finding</text>
<text text-anchor="start" x="304" y="-109.65" font-family="Verdana" font-size="8.00">Duplicate</text>
<text text-anchor="start" x="313.75" y="-99.15" font-family="Verdana" font-size="8.00">Files</text>
</g>
<!-- archive -->
<g id="node5" class="node">
<title>archive</title>
<polygon fill="cornsilk" stroke="cornsilk" points="446.75,-128 392.75,-128 392.75,-92 446.75,-92 446.75,-128"/>
<text text-anchor="start" x="408.88" y="-112.9" font-family="Verdana" font-size="8.00">A File</text>
<text text-anchor="start" x="402.88" y="-102.4" font-family="Verdana" font-size="8.00">Archiver</text>
</g>
<!-- dup&#45;&gt;archive -->
<g id="edge3" class="edge">
<title>dup&#45;&gt;archive</title>
<path fill="none" stroke="black" d="M350.21,-111.44C359.89,-111.24 371.03,-111 381.47,-110.78"/>
<polygon fill="black" stroke="black" points="381.51,-114.26 391.43,-110.55 381.36,-107.27 381.51,-114.26"/>
</g>
<!-- http -->
<g id="node6" class="node">
<title>http</title>
<polygon fill="pink" stroke="pink" points="453.25,-182 386.25,-182 386.25,-146 453.25,-146 453.25,-182"/>
<text text-anchor="start" x="394.25" y="-166.9" font-family="Verdana" font-size="8.00">Serving Web</text>
<text text-anchor="start" x="408.12" y="-156.4" font-family="Verdana" font-size="8.00">Pages</text>
</g>
<!-- dup&#45;&gt;http -->
<g id="edge4" class="edge">
<title>dup&#45;&gt;http</title>
<path fill="none" stroke="black" d="M350.21,-126.48C358.36,-130.94 367.54,-135.97 376.47,-140.85"/>
<polygon fill="black" stroke="black" points="374.54,-144.34 385,-146.07 377.9,-138.2 374.54,-144.34"/>
</g>
<!-- persist -->
<g id="node12" class="node">
<title>persist</title>
<polygon fill="pink" stroke="pink" points="553.25,-400 491.5,-400 491.5,-364 553.25,-364 553.25,-400"/>
<text text-anchor="start" x="509.25" y="-384.9" font-family="Verdana" font-size="8.00">Object</text>
<text text-anchor="start" x="499.5" y="-374.4" font-family="Verdana" font-size="8.00">Persistence</text>
</g>
<!-- archive&#45;&gt;persist -->
<g id="edge19" class="edge">
<title>archive&#45;&gt;persist</title>
<path fill="none" stroke="black" d="M446.38,-128.18C449,-130.89 451.38,-133.84 453.25,-137 495.95,-209.06 461.17,-243.08 489.25,-322 493.17,-333.02 498.86,-344.49 504.37,-354.41"/>
<polygon fill="black" stroke="black" points="501.72,-355.83 509.75,-362.75 507.79,-352.34 501.72,-355.83"/>
</g>
<!-- build -->
<g id="node14" class="node">
<title>build</title>
<polygon fill="cornsilk" stroke="cornsilk" points="549.38,-105 495.38,-105 495.38,-69 549.38,-69 549.38,-105"/>
<text text-anchor="start" x="508.12" y="-89.9" font-family="Verdana" font-size="8.00">A Build</text>
<text text-anchor="start" x="505.12" y="-79.4" font-family="Verdana" font-size="8.00">Manager</text>
</g>
<!-- archive&#45;&gt;build -->
<g id="edge20" class="edge">
<title>archive&#45;&gt;build</title>
<path fill="none" stroke="black" d="M447.19,-103.96C458.63,-101.34 472.21,-98.24 484.61,-95.4"/>
<polygon fill="black" stroke="black" points="485.14,-98.64 494.11,-93 483.59,-91.82 485.14,-98.64"/>
</g>
<!-- undo -->
<g id="node15" class="node">
<title>undo</title>
<polygon fill="pink" stroke="pink" points="549.88,-193 494.88,-193 494.88,-157 549.88,-157 549.88,-193"/>
<text text-anchor="start" x="502.88" y="-177.9" font-family="Verdana" font-size="8.00">Undo and</text>
<text text-anchor="start" x="512.62" y="-167.4" font-family="Verdana" font-size="8.00">Redo</text>
</g>
<!-- archive&#45;&gt;undo -->
<g id="edge21" class="edge">
<title>archive&#45;&gt;undo</title>
<path fill="none" stroke="black" d="M447.19,-127.08C458.9,-134.64 472.86,-143.66 485.5,-151.83"/>
<polygon fill="black" stroke="black" points="483.11,-155.1 493.41,-157.58 486.91,-149.22 483.11,-155.1"/>
</g>
<!-- archive&#45;&gt;perf -->
<g id="edge18" class="edge">
<title>archive&#45;&gt;perf</title>
<path fill="none" stroke="black" d="M445.42,-128.29C448.27,-131.02 450.96,-133.95 453.25,-137 469.24,-158.37 496.1,-226.89 510.87,-266.33"/>
<polygon fill="black" stroke="black" points="507.92,-267.46 514.69,-275.61 514.49,-265.02 507.92,-267.46"/>
</g>
<!-- glob -->
<g id="node7" class="node">
<title>glob</title>
<polygon fill="aquamarine" stroke="aquamarine" points="54,-250 0,-250 0,-214 54,-214 54,-250"/>
<text text-anchor="start" x="8.62" y="-234.9" font-family="Verdana" font-size="8.00">Matching</text>
<text text-anchor="start" x="10.5" y="-224.4" font-family="Verdana" font-size="8.00">Patterns</text>
</g>
<!-- parse -->
<g id="node8" class="node">
<title>parse</title>
<polygon fill="cornsilk" stroke="cornsilk" points="157,-250 91.5,-250 91.5,-214 157,-214 157,-250"/>
<text text-anchor="start" x="99.5" y="-229.65" font-family="Verdana" font-size="8.00">Parsing Text</text>
</g>
<!-- glob&#45;&gt;parse -->
<g id="edge5" class="edge">
<title>glob&#45;&gt;parse</title>
<path fill="none" stroke="black" d="M54.28,-232C62.42,-232 71.61,-232 80.57,-232"/>
<polygon fill="black" stroke="black" points="80.29,-235.5 90.29,-232 80.29,-228.5 80.29,-235.5"/>
</g>
<!-- interp -->
<g id="node9" class="node">
<title>interp</title>
<polygon fill="cornsilk" stroke="cornsilk" points="257,-274 196.75,-274 196.75,-238 257,-238 257,-274"/>
<text text-anchor="start" x="221.62" y="-258.9" font-family="Verdana" font-size="8.00">An</text>
<text text-anchor="start" x="204.75" y="-248.4" font-family="Verdana" font-size="8.00">Interpreter</text>
</g>
<!-- parse&#45;&gt;interp -->
<g id="edge6" class="edge">
<title>parse&#45;&gt;interp</title>
<path fill="none" stroke="black" d="M157.37,-239.66C166.48,-241.83 176.51,-244.22 186.01,-246.49"/>
<polygon fill="black" stroke="black" points="184.91,-250.07 195.45,-248.98 186.54,-243.26 184.91,-250.07"/>
</g>
<!-- viewer -->
<g id="node10" class="node">
<title>viewer</title>
<polygon fill="cornsilk" stroke="cornsilk" points="253.88,-220 199.88,-220 199.88,-184 253.88,-184 253.88,-220"/>
<text text-anchor="start" x="216" y="-204.9" font-family="Verdana" font-size="8.00">A File</text>
<text text-anchor="start" x="213.38" y="-194.4" font-family="Verdana" font-size="8.00">Viewer</text>
</g>
<!-- parse&#45;&gt;viewer -->
<g id="edge7" class="edge">
<title>parse&#45;&gt;viewer</title>
<path fill="none" stroke="black" d="M157.37,-222.43C167.44,-219.42 178.64,-216.08 189.01,-212.99"/>
<polygon fill="black" stroke="black" points="189.86,-216.09 198.45,-209.88 187.86,-209.38 189.86,-216.09"/>
</g>
<!-- check -->
<g id="node13" class="node">
<title>check</title>
<polygon fill="cornsilk" stroke="cornsilk" points="349.75,-274 295.75,-274 295.75,-238 349.75,-238 349.75,-274"/>
<text text-anchor="start" x="304.75" y="-258.9" font-family="Verdana" font-size="8.00">An HTML</text>
<text text-anchor="start" x="305.12" y="-248.4" font-family="Verdana" font-size="8.00">Validator</text>
</g>
<!-- interp&#45;&gt;check -->
<g id="edge11" class="edge">
<title>interp&#45;&gt;check</title>
<path fill="none" stroke="black" d="M257.32,-256C265.86,-256 275.31,-256 284.28,-256"/>
<polygon fill="black" stroke="black" points="284.27,-259.5 294.27,-256 284.27,-252.5 284.27,-259.5"/>
</g>
<!-- interp&#45;&gt;build -->
<g id="edge12" class="edge">
<title>interp&#45;&gt;build</title>
<path fill="none" stroke="black" d="M252.47,-237.63C255.03,-234.96 257.37,-232.06 259.25,-229 294.24,-172.06 242.64,-124.21 295.25,-83 349.56,-40.45 435.85,-58.2 484.63,-73.51"/>
<polygon fill="black" stroke="black" points="483.43,-77.13 494.02,-76.92 485.61,-70.48 483.43,-77.13"/>
</g>
<!-- interp&#45;&gt;undo -->
<g id="edge13" class="edge">
<title>interp&#45;&gt;undo</title>
<path fill="none" stroke="black" d="M257.38,-243.08C269.04,-238.27 282.64,-233.01 295.25,-229 304.3,-226.12 422.25,-198.29 484.1,-183.75"/>
<polygon fill="black" stroke="black" points="484.66,-186.98 493.6,-181.28 483.06,-180.17 484.66,-186.98"/>
</g>
<!-- reflect -->
<g id="node17" class="node">
<title>reflect</title>
<polygon fill="cornsilk" stroke="cornsilk" points="350.25,-36 295.25,-36 295.25,0 350.25,0 350.25,-36"/>
<text text-anchor="start" x="303.25" y="-15.65" font-family="Verdana" font-size="8.00">Reflection</text>
</g>
<!-- viewer&#45;&gt;reflect -->
<g id="edge32" class="edge">
<title>viewer&#45;&gt;reflect</title>
<path fill="none" stroke="black" d="M234.06,-183.89C244.47,-154.56 267.14,-95.4 295.25,-50 296.33,-48.25 297.5,-46.5 298.73,-44.76"/>
<polygon fill="black" stroke="black" points="301.89,-47.38 305.15,-37.3 296.31,-43.15 301.89,-47.38"/>
</g>
<!-- test -->
<g id="node11" class="node">
<title>test</title>
<polygon fill="aquamarine" stroke="aquamarine" points="151.25,-370 97.25,-370 97.25,-334 151.25,-334 151.25,-370"/>
<text text-anchor="start" x="107.38" y="-354.9" font-family="Verdana" font-size="8.00">Running</text>
<text text-anchor="start" x="113.75" y="-344.4" font-family="Verdana" font-size="8.00">Tests</text>
</g>
<!-- test&#45;&gt;oop -->
<g id="edge8" class="edge">
<title>test&#45;&gt;oop</title>
<path fill="none" stroke="black" d="M151.69,-352C161.37,-352 172.58,-352 183.32,-352"/>
<polygon fill="black" stroke="black" points="183.24,-355.5 193.24,-352 183.24,-348.5 183.24,-355.5"/>
</g>
<!-- test&#45;&gt;interp -->
<g id="edge9" class="edge">
<title>test&#45;&gt;interp</title>
<path fill="none" stroke="black" d="M144.99,-333.7C149.45,-329.54 154.15,-325.13 158.5,-321 172.04,-308.16 186.99,-293.75 199.36,-281.78"/>
<polygon fill="black" stroke="black" points="201.34,-284.77 206.08,-275.3 196.46,-279.75 201.34,-284.77"/>
</g>
<!-- test&#45;&gt;persist -->
<g id="edge10" class="edge">
<title>test&#45;&gt;persist</title>
<path fill="none" stroke="black" d="M151.62,-364.5C164.29,-369.93 179.88,-375.78 194.5,-379 306.92,-403.8 338.37,-398.56 453.25,-391 462.14,-390.42 471.63,-389.41 480.63,-388.27"/>
<polygon fill="black" stroke="black" points="480.83,-391.64 490.28,-386.84 479.9,-384.7 480.83,-391.64"/>
</g>
<!-- check&#45;&gt;template -->
<g id="edge22" class="edge">
<title>check&#45;&gt;template</title>
<path fill="none" stroke="black" d="M339.35,-274.46C342.98,-278.86 346.79,-283.56 350.25,-288 366.87,-309.3 367.72,-317.33 386.25,-337 386.69,-337.47 387.14,-337.93 387.59,-338.4"/>
<polygon fill="black" stroke="black" points="384.73,-340.45 394.39,-344.79 389.54,-335.37 384.73,-340.45"/>
</g>
<!-- check&#45;&gt;layout -->
<g id="edge24" class="edge">
<title>check&#45;&gt;layout</title>
<path fill="none" stroke="black" d="M350.21,-271.04C358.77,-275.91 368.47,-281.42 377.82,-286.73"/>
<polygon fill="black" stroke="black" points="375.95,-290.27 386.38,-292.17 379.41,-284.18 375.95,-290.27"/>
</g>
<!-- check&#45;&gt;http -->
<g id="edge25" class="edge">
<title>check&#45;&gt;http</title>
<path fill="none" stroke="black" d="M342.52,-237.82C356.61,-224.18 376.1,-205.3 391.85,-190.05"/>
<polygon fill="black" stroke="black" points="393.95,-192.92 398.69,-183.45 389.08,-187.9 393.95,-192.92"/>
</g>
<!-- lint -->
<g id="node20" class="node">
<title>lint</title>
<polygon fill="pink" stroke="pink" points="446.75,-274 392.75,-274 392.75,-238 446.75,-238 446.75,-274"/>
<text text-anchor="start" x="405.88" y="-258.9" font-family="Verdana" font-size="8.00">A Code</text>
<text text-anchor="start" x="408.12" y="-248.4" font-family="Verdana" font-size="8.00">Linter</text>
</g>
<!-- check&#45;&gt;lint -->
<g id="edge23" class="edge">
<title>check&#45;&gt;lint</title>
<path fill="none" stroke="black" d="M350.21,-256C359.89,-256 371.03,-256 381.47,-256"/>
<polygon fill="black" stroke="black" points="381.43,-259.5 391.43,-256 381.43,-252.5 381.43,-259.5"/>
</g>
<!-- pack -->
<g id="node24" class="node">
<title>pack</title>
<polygon fill="pink" stroke="pink" points="650.25,-105 593.75,-105 593.75,-69 650.25,-69 650.25,-105"/>
<text text-anchor="start" x="601.75" y="-89.9" font-family="Verdana" font-size="8.00">A Package</text>
<text text-anchor="start" x="604.75" y="-79.4" font-family="Verdana" font-size="8.00">Manager</text>
</g>
<!-- build&#45;&gt;pack -->
<g id="edge31" class="edge">
<title>build&#45;&gt;pack</title>
<path fill="none" stroke="black" d="M549.79,-87C559.96,-87 571.78,-87 582.83,-87"/>
<polygon fill="black" stroke="black" points="582.54,-90.5 592.54,-87 582.54,-83.5 582.54,-90.5"/>
</g>
<!-- func -->
<g id="node16" class="node">
<title>func</title>
<polygon fill="aquamarine" stroke="aquamarine" points="158.5,-312 90,-312 90,-276 158.5,-276 158.5,-312"/>
<text text-anchor="start" x="104.75" y="-296.9" font-family="Verdana" font-size="8.00">Functions</text>
<text text-anchor="start" x="98" y="-286.4" font-family="Verdana" font-size="8.00">and Closures</text>
</g>
<!-- func&#45;&gt;template -->
<g id="edge14" class="edge">
<title>func&#45;&gt;template</title>
<path fill="none" stroke="black" d="M158.87,-301.66C185.99,-307.86 225.1,-316.88 259.25,-325 300.11,-334.72 346.77,-346.17 379.02,-354.14"/>
<polygon fill="black" stroke="black" points="377.83,-357.7 388.38,-356.7 379.51,-350.9 377.83,-357.7"/>
</g>
<!-- func&#45;&gt;viewer -->
<g id="edge15" class="edge">
<title>func&#45;&gt;viewer</title>
<path fill="none" stroke="black" d="M144.44,-275.56C158.23,-262.42 177.33,-244.43 194.5,-229 194.98,-228.56 195.47,-228.13 195.97,-227.69"/>
<polygon fill="black" stroke="black" points="197.97,-230.7 203.16,-221.47 193.35,-225.45 197.97,-230.7"/>
</g>
<!-- reflect&#45;&gt;archive -->
<g id="edge16" class="edge">
<title>reflect&#45;&gt;archive</title>
<path fill="none" stroke="black" d="M342.52,-36.18C356.61,-49.82 376.1,-68.7 391.85,-83.95"/>
<polygon fill="black" stroke="black" points="389.08,-86.1 398.69,-90.55 393.95,-81.08 389.08,-86.1"/>
</g>
<!-- ftp -->
<g id="node18" class="node">
<title>ftp</title>
<polygon fill="pink" stroke="pink" points="452.5,-36 387,-36 387,0 452.5,0 452.5,-36"/>
<text text-anchor="start" x="395" y="-20.9" font-family="Verdana" font-size="8.00">Transferring</text>
<text text-anchor="start" x="410.75" y="-10.4" font-family="Verdana" font-size="8.00">Files</text>
</g>
<!-- reflect&#45;&gt;ftp -->
<g id="edge17" class="edge">
<title>reflect&#45;&gt;ftp</title>
<path fill="none" stroke="black" d="M350.72,-18C358.5,-18 367.19,-18 375.69,-18"/>
<polygon fill="black" stroke="black" points="375.66,-21.5 385.66,-18 375.66,-14.5 375.66,-21.5"/>
</g>
<!-- db -->
<g id="node21" class="node">
<title>db</title>
<polygon fill="cornsilk" stroke="cornsilk" points="652.5,-313 591.5,-313 591.5,-277 652.5,-277 652.5,-313"/>
<text text-anchor="start" x="599.5" y="-292.65" font-family="Verdana" font-size="8.00">A Database</text>
</g>
<!-- perf&#45;&gt;db -->
<g id="edge27" class="edge">
<title>perf&#45;&gt;db</title>
<path fill="none" stroke="black" d="M555.88,-295C563.74,-295 572.23,-295 580.41,-295"/>
<polygon fill="black" stroke="black" points="580.27,-298.5 590.27,-295 580.27,-291.5 580.27,-298.5"/>
</g>
<!-- vm -->
<g id="node23" class="node">
<title>vm</title>
<polygon fill="cornsilk" stroke="cornsilk" points="742.5,-313 688.5,-313 688.5,-277 742.5,-277 742.5,-313"/>
<text text-anchor="start" x="698.25" y="-297.9" font-family="Verdana" font-size="8.00">A Virtual</text>
<text text-anchor="start" x="699" y="-287.4" font-family="Verdana" font-size="8.00">Machine</text>
</g>
<!-- db&#45;&gt;vm -->
<g id="edge30" class="edge">
<title>db&#45;&gt;vm</title>
<path fill="none" stroke="black" d="M652.96,-295C660.77,-295 669.28,-295 677.42,-295"/>
<polygon fill="black" stroke="black" points="677.17,-298.5 687.17,-295 677.17,-291.5 677.17,-298.5"/>
</g>
<!-- binary -->
<g id="node22" class="node">
<title>binary</title>
<polygon fill="aquamarine" stroke="aquamarine" points="155.5,-179 93,-179 93,-143 155.5,-143 155.5,-179"/>
<text text-anchor="start" x="101" y="-158.65" font-family="Verdana" font-size="8.00">Binary Data</text>
</g>
<!-- binary&#45;&gt;http -->
<g id="edge28" class="edge">
<title>binary&#45;&gt;http</title>
<path fill="none" stroke="black" d="M155.83,-161.31C208.21,-161.85 315.27,-162.94 375.36,-163.56"/>
<polygon fill="black" stroke="black" points="374.97,-167.06 385.01,-163.67 375.04,-160.06 374.97,-167.06"/>
</g>
<!-- binary&#45;&gt;viewer -->
<g id="edge29" class="edge">
<title>binary&#45;&gt;viewer</title>
<path fill="none" stroke="black" d="M155.99,-173.52C166.5,-177.81 178.36,-182.64 189.29,-187.09"/>
<polygon fill="black" stroke="black" points="187.82,-190.68 198.4,-191.21 190.46,-184.2 187.82,-190.68"/>
</g>
<!-- debugger -->
<g id="node25" class="node">
<title>debugger</title>
<polygon fill="pink" stroke="pink" points="842.5,-313 778.5,-313 778.5,-277 842.5,-277 842.5,-313"/>
<text text-anchor="start" x="786.5" y="-292.65" font-family="Verdana" font-size="8.00">A Debugger</text>
</g>
<!-- vm&#45;&gt;debugger -->
<g id="edge33" class="edge">
<title>vm&#45;&gt;debugger</title>
<path fill="none" stroke="black" d="M742.9,-295C750.52,-295 759.03,-295 767.35,-295"/>
<polygon fill="black" stroke="black" points="767.09,-298.5 777.09,-295 767.09,-291.5 767.09,-298.5"/>
</g>
</g>
</svg>
