<?xml version="1.0" encoding="UTF-8" standalone="no"?>
<!DOCTYPE svg PUBLIC "-//W3C//DTD SVG 1.1//EN"
 "http://www.w3.org/Graphics/SVG/1.1/DTD/svg11.dtd">
<!-- Generated by graphviz version 8.0.5 (20230430.1635)
 -->
<!-- Pages: 1 -->
<svg width="574pt" height="552pt"
 viewBox="0.00 0.00 574.25 551.50" xmlns="http://www.w3.org/2000/svg" xmlns:xlink="http://www.w3.org/1999/xlink">
<g id="graph0" class="graph" transform="scale(1 1) rotate(0) translate(4 547.5)">
<polygon fill="white" stroke="none" points="-4,4 -4,-547.5 570.25,-547.5 570.25,4 -4,4"/>
<!-- oop -->
<g id="node1" class="node">
<title>oop</title>
<polygon fill="aquamarine" stroke="aquamarine" points="250.38,-471.5 185.62,-471.5 185.62,-435.5 250.38,-435.5 250.38,-471.5"/>
<text text-anchor="start" x="193.62" y="-456.4" font-family="Verdana" font-size="8.00">Objects and</text>
<text text-anchor="start" x="203" y="-445.9" font-family="Verdana" font-size="8.00">Classes</text>
</g>
<!-- interp -->
<g id="node2" class="node">
<title>interp</title>
<polygon fill="cornsilk" stroke="cornsilk" points="288.12,-399.5 227.88,-399.5 227.88,-363.5 288.12,-363.5 288.12,-399.5"/>
<text text-anchor="start" x="252.75" y="-384.4" font-family="Verdana" font-size="8.00">An</text>
<text text-anchor="start" x="235.88" y="-373.9" font-family="Verdana" font-size="8.00">Interpreter</text>
</g>
<!-- oop&#45;&gt;interp -->
<g id="edge1" class="edge">
<title>oop&#45;&gt;interp</title>
<path fill="none" stroke="black" d="M227.89,-435.2C232.39,-427.31 237.83,-417.8 242.83,-409.05"/>
<polygon fill="black" stroke="black" points="246.3,-411.02 248.23,-400.6 240.23,-407.55 246.3,-411.02"/>
</g>
<!-- func -->
<g id="node10" class="node">
<title>func</title>
<polygon fill="cornsilk" stroke="cornsilk" points="292.25,-327.5 223.75,-327.5 223.75,-291.5 292.25,-291.5 292.25,-327.5"/>
<text text-anchor="start" x="238.5" y="-312.4" font-family="Verdana" font-size="8.00">Functions</text>
<text text-anchor="start" x="231.75" y="-301.9" font-family="Verdana" font-size="8.00">and Closures</text>
</g>
<!-- interp&#45;&gt;func -->
<g id="edge8" class="edge">
<title>interp&#45;&gt;func</title>
<path fill="none" stroke="black" d="M258,-363.2C258,-355.74 258,-346.82 258,-338.47"/>
<polygon fill="black" stroke="black" points="261.5,-338.6 258,-328.6 254.5,-338.6 261.5,-338.6"/>
</g>
<!-- template -->
<g id="node11" class="node">
<title>template</title>
<polygon fill="cornsilk" stroke="cornsilk" points="370.12,-327.5 309.88,-327.5 309.88,-291.5 370.12,-291.5 370.12,-327.5"/>
<text text-anchor="start" x="317.88" y="-312.4" font-family="Verdana" font-size="8.00">A Template</text>
<text text-anchor="start" x="320.88" y="-301.9" font-family="Verdana" font-size="8.00">Expander</text>
</g>
<!-- interp&#45;&gt;template -->
<g id="edge9" class="edge">
<title>interp&#45;&gt;template</title>
<path fill="none" stroke="black" d="M278.27,-363.2C288.32,-354.61 300.63,-344.11 311.61,-334.74"/>
<polygon fill="black" stroke="black" points="313.35,-337 318.68,-327.85 308.8,-331.68 313.35,-337"/>
</g>
<!-- persist -->
<g id="node12" class="node">
<title>persist</title>
<polygon fill="cornsilk" stroke="cornsilk" points="172.88,-327.5 111.12,-327.5 111.12,-291.5 172.88,-291.5 172.88,-327.5"/>
<text text-anchor="start" x="128.88" y="-312.4" font-family="Verdana" font-size="8.00">Object</text>
<text text-anchor="start" x="119.12" y="-301.9" font-family="Verdana" font-size="8.00">Persistence</text>
</g>
<!-- interp&#45;&gt;persist -->
<g id="edge10" class="edge">
<title>interp&#45;&gt;persist</title>
<path fill="none" stroke="black" d="M229.03,-363.02C214.11,-354.01 195.73,-342.92 179.72,-333.26"/>
<polygon fill="black" stroke="black" points="181.97,-329.93 171.6,-327.76 178.36,-335.92 181.97,-329.93"/>
</g>
<!-- dup -->
<g id="node3" class="node">
<title>dup</title>
<polygon fill="aquamarine" stroke="aquamarine" points="561,-255.5 507,-255.5 507,-216 561,-216 561,-255.5"/>
<text text-anchor="start" x="519" y="-243.9" font-family="Verdana" font-size="8.00">Finding</text>
<text text-anchor="start" x="515.25" y="-233.4" font-family="Verdana" font-size="8.00">Duplicate</text>
<text text-anchor="start" x="525" y="-222.9" font-family="Verdana" font-size="8.00">Files</text>
</g>
<!-- archive -->
<g id="node4" class="node">
<title>archive</title>
<polygon fill="cornsilk" stroke="cornsilk" points="492,-180 438,-180 438,-144 492,-144 492,-180"/>
<text text-anchor="start" x="454.12" y="-164.9" font-family="Verdana" font-size="8.00">A File</text>
<text text-anchor="start" x="448.12" y="-154.4" font-family="Verdana" font-size="8.00">Archiver</text>
</g>
<!-- dup&#45;&gt;archive -->
<g id="edge2" class="edge">
<title>dup&#45;&gt;archive</title>
<path fill="none" stroke="black" d="M515.51,-215.52C507.44,-207.13 497.87,-197.18 489.24,-188.21"/>
<polygon fill="black" stroke="black" points="492.11,-186.1 482.65,-181.32 487.06,-190.95 492.11,-186.1"/>
</g>
<!-- pack -->
<g id="node5" class="node">
<title>pack</title>
<polygon fill="pink" stroke="pink" points="566.25,-180 509.75,-180 509.75,-144 566.25,-144 566.25,-180"/>
<text text-anchor="start" x="517.75" y="-164.9" font-family="Verdana" font-size="8.00">A Package</text>
<text text-anchor="start" x="520.75" y="-154.4" font-family="Verdana" font-size="8.00">Manager</text>
</g>
<!-- dup&#45;&gt;pack -->
<g id="edge3" class="edge">
<title>dup&#45;&gt;pack</title>
<path fill="none" stroke="black" d="M535.07,-215.52C535.49,-208.07 535.97,-199.4 536.42,-191.26"/>
<polygon fill="black" stroke="black" points="539.97,-191.5 537.03,-181.32 532.98,-191.11 539.97,-191.5"/>
</g>
<!-- ftp -->
<g id="node16" class="node">
<title>ftp</title>
<polygon fill="cornsilk" stroke="cornsilk" points="497.75,-108 432.25,-108 432.25,-72 497.75,-72 497.75,-108"/>
<text text-anchor="start" x="440.25" y="-92.9" font-family="Verdana" font-size="8.00">Transferring</text>
<text text-anchor="start" x="456" y="-82.4" font-family="Verdana" font-size="8.00">Files</text>
</g>
<!-- archive&#45;&gt;ftp -->
<g id="edge15" class="edge">
<title>archive&#45;&gt;ftp</title>
<path fill="none" stroke="black" d="M465,-143.7C465,-136.24 465,-127.32 465,-118.97"/>
<polygon fill="black" stroke="black" points="468.5,-119.1 465,-109.1 461.5,-119.1 468.5,-119.1"/>
</g>
<!-- glob -->
<g id="node6" class="node">
<title>glob</title>
<polygon fill="aquamarine" stroke="aquamarine" points="466,-543.5 412,-543.5 412,-507.5 466,-507.5 466,-543.5"/>
<text text-anchor="start" x="420.62" y="-528.4" font-family="Verdana" font-size="8.00">Matching</text>
<text text-anchor="start" x="422.5" y="-517.9" font-family="Verdana" font-size="8.00">Patterns</text>
</g>
<!-- glob&#45;&gt;archive -->
<g id="edge5" class="edge">
<title>glob&#45;&gt;archive</title>
<path fill="none" stroke="black" d="M445.27,-507.28C454.33,-480.82 470,-428.42 470,-382.5 470,-382.5 470,-382.5 470,-308.5 470,-267.67 468.01,-220.43 466.54,-191.13"/>
<polygon fill="black" stroke="black" points="470,-191.27 465.99,-181.46 463.01,-191.63 470,-191.27"/>
</g>
<!-- parse -->
<g id="node7" class="node">
<title>parse</title>
<polygon fill="cornsilk" stroke="cornsilk" points="441.75,-471.5 376.25,-471.5 376.25,-435.5 441.75,-435.5 441.75,-471.5"/>
<text text-anchor="start" x="384.25" y="-451.15" font-family="Verdana" font-size="8.00">Parsing Text</text>
</g>
<!-- glob&#45;&gt;parse -->
<g id="edge4" class="edge">
<title>glob&#45;&gt;parse</title>
<path fill="none" stroke="black" d="M431.58,-507.2C428.28,-499.48 424.31,-490.21 420.62,-481.61"/>
<polygon fill="black" stroke="black" points="423.49,-480.42 416.33,-472.6 417.05,-483.17 423.49,-480.42"/>
</g>
<!-- check -->
<g id="node8" class="node">
<title>check</title>
<polygon fill="cornsilk" stroke="cornsilk" points="436,-399.5 382,-399.5 382,-363.5 436,-363.5 436,-399.5"/>
<text text-anchor="start" x="391" y="-384.4" font-family="Verdana" font-size="8.00">An HTML</text>
<text text-anchor="start" x="391.38" y="-373.9" font-family="Verdana" font-size="8.00">Validator</text>
</g>
<!-- parse&#45;&gt;check -->
<g id="edge6" class="edge">
<title>parse&#45;&gt;check</title>
<path fill="none" stroke="black" d="M409,-435.2C409,-427.74 409,-418.82 409,-410.47"/>
<polygon fill="black" stroke="black" points="412.5,-410.6 409,-400.6 405.5,-410.6 412.5,-410.6"/>
</g>
<!-- check&#45;&gt;template -->
<g id="edge16" class="edge">
<title>check&#45;&gt;template</title>
<path fill="none" stroke="black" d="M391.94,-363.2C383.67,-354.8 373.58,-344.57 364.51,-335.36"/>
<polygon fill="black" stroke="black" points="367.37,-333.27 357.86,-328.6 362.39,-338.18 367.37,-333.27"/>
</g>
<!-- lint -->
<g id="node17" class="node">
<title>lint</title>
<polygon fill="pink" stroke="pink" points="442,-327.5 388,-327.5 388,-291.5 442,-291.5 442,-327.5"/>
<text text-anchor="start" x="401.12" y="-312.4" font-family="Verdana" font-size="8.00">A Code</text>
<text text-anchor="start" x="403.38" y="-301.9" font-family="Verdana" font-size="8.00">Linter</text>
</g>
<!-- check&#45;&gt;lint -->
<g id="edge17" class="edge">
<title>check&#45;&gt;lint</title>
<path fill="none" stroke="black" d="M410.48,-363.2C411.12,-355.74 411.89,-346.82 412.6,-338.47"/>
<polygon fill="black" stroke="black" points="416.17,-338.87 413.53,-328.6 409.19,-338.27 416.17,-338.87"/>
</g>
<!-- test -->
<g id="node9" class="node">
<title>test</title>
<polygon fill="aquamarine" stroke="aquamarine" points="322,-471.5 268,-471.5 268,-435.5 322,-435.5 322,-471.5"/>
<text text-anchor="start" x="278.12" y="-456.4" font-family="Verdana" font-size="8.00">Running</text>
<text text-anchor="start" x="284.5" y="-445.9" font-family="Verdana" font-size="8.00">Tests</text>
</g>
<!-- test&#45;&gt;interp -->
<g id="edge7" class="edge">
<title>test&#45;&gt;interp</title>
<path fill="none" stroke="black" d="M285.85,-435.2C281.73,-427.4 276.77,-418.01 272.18,-409.33"/>
<polygon fill="black" stroke="black" points="274.81,-407.81 267.04,-400.6 268.62,-411.08 274.81,-407.81"/>
</g>
<!-- reflect -->
<g id="node13" class="node">
<title>reflect</title>
<polygon fill="cornsilk" stroke="cornsilk" points="308.5,-253.75 253.5,-253.75 253.5,-217.75 308.5,-217.75 308.5,-253.75"/>
<text text-anchor="start" x="261.5" y="-233.4" font-family="Verdana" font-size="8.00">Reflection</text>
</g>
<!-- func&#45;&gt;reflect -->
<g id="edge11" class="edge">
<title>func&#45;&gt;reflect</title>
<path fill="none" stroke="black" d="M263.57,-291.13C266.12,-283.17 269.21,-273.53 272.07,-264.6"/>
<polygon fill="black" stroke="black" points="275.68,-265.8 275.4,-255.21 269.02,-263.66 275.68,-265.8"/>
</g>
<!-- layout -->
<g id="node18" class="node">
<title>layout</title>
<polygon fill="pink" stroke="pink" points="391,-253.75 327,-253.75 327,-217.75 391,-217.75 391,-253.75"/>
<text text-anchor="start" x="335" y="-233.4" font-family="Verdana" font-size="8.00">Page Layout</text>
</g>
<!-- template&#45;&gt;layout -->
<g id="edge18" class="edge">
<title>template&#45;&gt;layout</title>
<path fill="none" stroke="black" d="M344.6,-291.13C346.71,-283.17 349.26,-273.53 351.63,-264.6"/>
<polygon fill="black" stroke="black" points="355.2,-265.77 354.38,-255.21 348.43,-263.98 355.2,-265.77"/>
</g>
<!-- binary -->
<g id="node19" class="node">
<title>binary</title>
<polygon fill="cornsilk" stroke="cornsilk" points="235.25,-253.75 172.75,-253.75 172.75,-217.75 235.25,-217.75 235.25,-253.75"/>
<text text-anchor="start" x="180.75" y="-233.4" font-family="Verdana" font-size="8.00">Binary Data</text>
</g>
<!-- persist&#45;&gt;binary -->
<g id="edge19" class="edge">
<title>persist&#45;&gt;binary</title>
<path fill="none" stroke="black" d="M157.01,-291.13C164.49,-282.47 173.69,-271.83 181.96,-262.26"/>
<polygon fill="black" stroke="black" points="185.02,-265.06 188.91,-255.21 179.73,-260.49 185.02,-265.06"/>
</g>
<!-- build -->
<g id="node20" class="node">
<title>build</title>
<polygon fill="pink" stroke="pink" points="155,-253.75 101,-253.75 101,-217.75 155,-217.75 155,-253.75"/>
<text text-anchor="start" x="113.75" y="-238.65" font-family="Verdana" font-size="8.00">A Build</text>
<text text-anchor="start" x="110.75" y="-228.15" font-family="Verdana" font-size="8.00">Manager</text>
</g>
<!-- persist&#45;&gt;build -->
<g id="edge20" class="edge">
<title>persist&#45;&gt;build</title>
<path fill="none" stroke="black" d="M138.61,-291.13C137.07,-283.26 135.22,-273.75 133.49,-264.89"/>
<polygon fill="black" stroke="black" points="136.76,-264.35 131.41,-255.21 129.89,-265.69 136.76,-264.35"/>
</g>
<!-- undo -->
<g id="node21" class="node">
<title>undo</title>
<polygon fill="pink" stroke="pink" points="82.5,-253.75 27.5,-253.75 27.5,-217.75 82.5,-217.75 82.5,-253.75"/>
<text text-anchor="start" x="35.5" y="-238.65" font-family="Verdana" font-size="8.00">Undo and</text>
<text text-anchor="start" x="45.25" y="-228.15" font-family="Verdana" font-size="8.00">Redo</text>
</g>
<!-- persist&#45;&gt;undo -->
<g id="edge21" class="edge">
<title>persist&#45;&gt;undo</title>
<path fill="none" stroke="black" d="M120.94,-291.13C110.01,-282.12 96.49,-270.96 84.53,-261.11"/>
<polygon fill="black" stroke="black" points="87.11,-257.87 77.17,-254.21 82.66,-263.27 87.11,-257.87"/>
</g>
<!-- reflect&#45;&gt;archive -->
<g id="edge12" class="edge">
<title>reflect&#45;&gt;archive</title>
<path fill="none" stroke="black" d="M308.71,-220.25C311.82,-218.76 314.96,-217.31 318,-216 354.38,-200.29 397.1,-185.26 427.08,-175.24"/>
<polygon fill="black" stroke="black" points="428.12,-178.25 436.52,-171.78 425.92,-171.6 428.12,-178.25"/>
</g>
<!-- perf -->
<g id="node14" class="node">
<title>perf</title>
<polygon fill="pink" stroke="pink" points="319.12,-180 252.88,-180 252.88,-144 319.12,-144 319.12,-180"/>
<text text-anchor="start" x="260.88" y="-164.9" font-family="Verdana" font-size="8.00">Performance</text>
<text text-anchor="start" x="269.5" y="-154.4" font-family="Verdana" font-size="8.00">Profiling</text>
</g>
<!-- reflect&#45;&gt;perf -->
<g id="edge13" class="edge">
<title>reflect&#45;&gt;perf</title>
<path fill="none" stroke="black" d="M282.21,-217.38C282.76,-209.51 283.42,-200 284.04,-191.14"/>
<polygon fill="black" stroke="black" points="287.58,-191.68 284.78,-181.46 280.6,-191.19 287.58,-191.68"/>
</g>
<!-- db -->
<g id="node15" class="node">
<title>db</title>
<polygon fill="pink" stroke="pink" points="234.5,-180 173.5,-180 173.5,-144 234.5,-144 234.5,-180"/>
<text text-anchor="start" x="181.5" y="-159.65" font-family="Verdana" font-size="8.00">A Database</text>
</g>
<!-- reflect&#45;&gt;db -->
<g id="edge14" class="edge">
<title>reflect&#45;&gt;db</title>
<path fill="none" stroke="black" d="M262.36,-217.38C252.88,-208.55 241.18,-197.65 230.76,-187.93"/>
<polygon fill="black" stroke="black" points="233.44,-185.71 223.73,-181.46 228.66,-190.84 233.44,-185.71"/>
</g>
<!-- http -->
<g id="node23" class="node">
<title>http</title>
<polygon fill="pink" stroke="pink" points="498.5,-36 431.5,-36 431.5,0 498.5,0 498.5,-36"/>
<text text-anchor="start" x="439.5" y="-20.9" font-family="Verdana" font-size="8.00">Serving Web</text>
<text text-anchor="start" x="453.38" y="-10.4" font-family="Verdana" font-size="8.00">Pages</text>
</g>
<!-- ftp&#45;&gt;http -->
<g id="edge24" class="edge">
<title>ftp&#45;&gt;http</title>
<path fill="none" stroke="black" d="M465,-71.7C465,-64.24 465,-55.32 465,-46.97"/>
<polygon fill="black" stroke="black" points="468.5,-47.1 465,-37.1 461.5,-47.1 468.5,-47.1"/>
</g>
<!-- binary&#45;&gt;db -->
<g id="edge22" class="edge">
<title>binary&#45;&gt;db</title>
<path fill="none" stroke="black" d="M204,-217.38C204,-209.6 204,-200.21 204,-191.44"/>
<polygon fill="black" stroke="black" points="207.5,-191.46 204,-181.46 200.5,-191.46 207.5,-191.46"/>
</g>
<!-- vm -->
<g id="node22" class="node">
<title>vm</title>
<polygon fill="cornsilk" stroke="cornsilk" points="123,-180 69,-180 69,-144 123,-144 123,-180"/>
<text text-anchor="start" x="78.75" y="-164.9" font-family="Verdana" font-size="8.00">A Virtual</text>
<text text-anchor="start" x="79.5" y="-154.4" font-family="Verdana" font-size="8.00">Machine</text>
</g>
<!-- binary&#45;&gt;vm -->
<g id="edge23" class="edge">
<title>binary&#45;&gt;vm</title>
<path fill="none" stroke="black" d="M177.86,-217.38C163.9,-208.11 146.52,-196.56 131.37,-186.5"/>
<polygon fill="black" stroke="black" points="133.54,-183.08 123.28,-180.46 129.67,-188.91 133.54,-183.08"/>
</g>
<!-- debugger -->
<g id="node25" class="node">
<title>debugger</title>
<polygon fill="pink" stroke="pink" points="64,-108 0,-108 0,-72 64,-72 64,-108"/>
<text text-anchor="start" x="8" y="-87.65" font-family="Verdana" font-size="8.00">A Debugger</text>
</g>
<!-- vm&#45;&gt;debugger -->
<g id="edge27" class="edge">
<title>vm&#45;&gt;debugger</title>
<path fill="none" stroke="black" d="M80.18,-143.7C72.58,-135.39 63.34,-125.28 54.99,-116.14"/>
<polygon fill="black" stroke="black" points="57.97,-114.12 48.64,-109.1 52.8,-118.85 57.97,-114.12"/>
</g>
<!-- viewer -->
<g id="node24" class="node">
<title>viewer</title>
<polygon fill="aquamarine" stroke="aquamarine" points="67,-327.5 13,-327.5 13,-291.5 67,-291.5 67,-327.5"/>
<text text-anchor="start" x="29.12" y="-312.4" font-family="Verdana" font-size="8.00">A File</text>
<text text-anchor="start" x="26.5" y="-301.9" font-family="Verdana" font-size="8.00">Viewer</text>
</g>
<!-- viewer&#45;&gt;undo -->
<g id="edge25" class="edge">
<title>viewer&#45;&gt;undo</title>
<path fill="none" stroke="black" d="M43.63,-291.13C45.28,-283.26 47.27,-273.75 49.12,-264.89"/>
<polygon fill="black" stroke="black" points="52.73,-265.71 51.35,-255.21 45.88,-264.28 52.73,-265.71"/>
</g>
<!-- viewer&#45;&gt;debugger -->
<g id="edge26" class="edge">
<title>viewer&#45;&gt;debugger</title>
<path fill="none" stroke="black" d="M30.87,-291.38C25.99,-281.26 20.49,-268.01 18,-255.5 8.58,-208.23 17.58,-152.07 24.86,-119.11"/>
<polygon fill="black" stroke="black" points="28.48,-120 27.33,-109.47 21.66,-118.42 28.48,-120"/>
</g>
</g>
</svg>
