<?xml version="1.0" encoding="UTF-8" standalone="no"?>
<!DOCTYPE svg PUBLIC "-//W3C//DTD SVG 1.1//EN"
 "http://www.w3.org/Graphics/SVG/1.1/DTD/svg11.dtd">
<!-- Generated by graphviz version 7.1.0 (20230121.1956)
 -->
<!-- Title: split_join Pages: 1 -->
<svg width="166pt" height="350pt"
 viewBox="0.00 0.00 166.19 350.00" xmlns="http://www.w3.org/2000/svg" xmlns:xlink="http://www.w3.org/1999/xlink">
<g id="graph0" class="graph" transform="scale(1 1) rotate(0) translate(4 346)">
<title>split_join</title>
<polygon fill="white" stroke="none" points="-4,4 -4,-346 162.19,-346 162.19,4 -4,4"/>
<!-- read -->
<g id="node1" class="node">
<title>read</title>
<ellipse fill="none" stroke="black" cx="79.1" cy="-324" rx="67.69" ry="18"/>
<text text-anchor="middle" x="79.1" y="-320.3" font-family="Times,serif" font-size="14.00">Read(&#39;input.txt&#39;)</text>
</g>
<!-- head -->
<g id="node2" class="node">
<title>head</title>
<ellipse fill="none" stroke="black" cx="79.1" cy="-251" rx="39.79" ry="18"/>
<text text-anchor="middle" x="79.1" y="-247.3" font-family="Times,serif" font-size="14.00">Head(3)</text>
</g>
<!-- read&#45;&gt;head -->
<g id="edge1" class="edge">
<title>read&#45;&gt;head</title>
<path fill="none" stroke="black" d="M79.1,-305.81C79.1,-298.23 79.1,-289.1 79.1,-280.54"/>
<polygon fill="black" stroke="black" points="82.6,-280.54 79.1,-270.54 75.6,-280.54 82.6,-280.54"/>
</g>
<!-- left -->
<g id="node3" class="node">
<title>left</title>
<ellipse fill="none" stroke="black" cx="35.1" cy="-178" rx="35.19" ry="18"/>
<text text-anchor="middle" x="35.1" y="-174.3" font-family="Times,serif" font-size="14.00">Tail(2)</text>
</g>
<!-- head&#45;&gt;left -->
<g id="edge2" class="edge">
<title>head&#45;&gt;left</title>
<path fill="none" stroke="black" d="M68.67,-233.17C63.44,-224.74 57,-214.34 51.16,-204.92"/>
<polygon fill="black" stroke="black" points="54.19,-203.16 45.94,-196.5 48.24,-206.85 54.19,-203.16"/>
</g>
<!-- right -->
<g id="node4" class="node">
<title>right</title>
<ellipse fill="none" stroke="black" cx="123.1" cy="-178" rx="35.19" ry="18"/>
<text text-anchor="middle" x="123.1" y="-174.3" font-family="Times,serif" font-size="14.00">Tail(1)</text>
</g>
<!-- head&#45;&gt;right -->
<g id="edge3" class="edge">
<title>head&#45;&gt;right</title>
<path fill="none" stroke="black" d="M89.52,-233.17C94.75,-224.74 101.19,-214.34 107.03,-204.92"/>
<polygon fill="black" stroke="black" points="109.96,-206.85 112.25,-196.5 104.01,-203.16 109.96,-206.85"/>
</g>
<!-- cat -->
<g id="node5" class="node">
<title>cat</title>
<ellipse fill="none" stroke="black" cx="78.1" cy="-91" rx="28.7" ry="18"/>
<text text-anchor="middle" x="78.1" y="-87.3" font-family="Times,serif" font-size="14.00">Cat()</text>
</g>
<!-- left&#45;&gt;cat -->
<g id="edge4" class="edge">
<title>left&#45;&gt;cat</title>
<path fill="none" stroke="black" d="M41.43,-160.02C45.29,-150.19 50.54,-137.69 56.1,-127 57.7,-123.92 59.48,-120.75 61.32,-117.63"/>
<polygon fill="black" stroke="black" points="64.17,-119.69 66.44,-109.34 58.21,-116.02 64.17,-119.69"/>
<text text-anchor="middle" x="75.1" y="-130.8" font-family="Times,serif" font-size="14.00">second</text>
</g>
<!-- right&#45;&gt;cat -->
<g id="edge5" class="edge">
<title>right&#45;&gt;cat</title>
<path fill="none" stroke="black" d="M114.21,-160.21C107.88,-148.25 99.25,-131.96 92.02,-118.29"/>
<polygon fill="black" stroke="black" points="95.3,-117.01 87.52,-109.81 89.11,-120.28 95.3,-117.01"/>
<text text-anchor="middle" x="114.1" y="-130.8" font-family="Times,serif" font-size="14.00">first</text>
</g>
<!-- write -->
<g id="node6" class="node">
<title>write</title>
<ellipse fill="none" stroke="black" cx="78.1" cy="-18" rx="36.29" ry="18"/>
<text text-anchor="middle" x="78.1" y="-14.3" font-family="Times,serif" font-size="14.00">Write()</text>
</g>
<!-- cat&#45;&gt;write -->
<g id="edge6" class="edge">
<title>cat&#45;&gt;write</title>
<path fill="none" stroke="black" d="M78.1,-72.81C78.1,-65.23 78.1,-56.1 78.1,-47.54"/>
<polygon fill="black" stroke="black" points="81.6,-47.54 78.1,-37.54 74.6,-47.54 81.6,-47.54"/>
</g>
</g>
</svg>
