<?xml version="1.0" encoding="utf-8"?>
<!-- Generator: Adobe Illustrator 27.7.0, SVG Export Plug-In . SVG Version: 6.00 Build 0)  -->
<svg version="1.1" id="Layer_1" xmlns="http://www.w3.org/2000/svg" xmlns:xlink="http://www.w3.org/1999/xlink" x="0px" y="0px"
	 viewBox="0 0 618.3 182.9" style="enable-background:new 0 0 618.3 182.9;" xml:space="preserve">
<style type="text/css">
	.st0{fill:none;stroke:#000000;stroke-miterlimit:10;}
	.st1{fill:none;stroke:#000000;}
	.st2{font-family:'ArialMT';}
	.st3{font-size:12px;}
	.st4{fill:none;stroke:#000000;stroke-miterlimit:1.42;}
	.st5{stroke:#000000;stroke-miterlimit:10;}
	.st6{fill:none;stroke:#000000;stroke-miterlimit:10;stroke-dasharray:3,3;}
</style>
<g>
	<path pointer-events="stroke" class="st0" d="M295.5,110.5v-20h130V68.6"/>
	<path pointer-events="all" class="st0" d="M425.5,61.6l3.5,7h-7L425.5,61.6z"/>
	<path pointer-events="stroke" class="st0" d="M385.5,110.5v-20h40V68.6"/>
	<path pointer-events="all" class="st0" d="M425.5,61.6l3.5,7h-7L425.5,61.6z"/>
	<path pointer-events="stroke" class="st0" d="M565.5,110.5v-20h-140V68.6"/>
	<path pointer-events="all" class="st0" d="M425.5,61.6l3.5,7h-7L425.5,61.6z"/>
	<rect x="0.5" y="0.5" pointer-events="all" class="st1" width="70" height="20"/>
	<g transform="translate(-0.5 -0.5)">
		<text transform="matrix(1 0 0 1 29.1631 14.5)" class="st2 st3">Lit</text>
	</g>
	<rect x="0.5" y="20.5" pointer-events="all" class="st1" width="70" height="20"/>
	<g transform="translate(-0.5 -0.5)">
		<text transform="matrix(1 0 0 1 4.5 34.5)" class="st2 st3">__init__()</text>
	</g>
	<rect x="0.5" y="40.5" pointer-events="all" class="st1" width="70" height="20"/>
	<g transform="translate(-0.5 -0.5)">
		<text transform="matrix(1 0 0 1 4.5 54.5)" class="st2 st3">match()</text>
	</g>
	<rect x="90.5" y="0.5" pointer-events="all" class="st1" width="70" height="20"/>
	<g transform="translate(-0.5 -0.5)">
		<text transform="matrix(1 0 0 1 115.1611 14.5)" class="st2 st3">Any</text>
	</g>
	<rect x="90.5" y="20.5" pointer-events="all" class="st1" width="70" height="20"/>
	<g transform="translate(-0.5 -0.5)">
		<text transform="matrix(1 0 0 1 94.5 34.5)" class="st2 st3">__init__()</text>
	</g>
	<rect x="90.5" y="40.5" pointer-events="all" class="st1" width="70" height="20"/>
	<g transform="translate(-0.5 -0.5)">
		<text transform="matrix(1 0 0 1 94.5 54.5)" class="st2 st3">match()</text>
	</g>
	<rect x="180.5" y="0.5" pointer-events="all" class="st1" width="70" height="20"/>
	<g transform="translate(-0.5 -0.5)">
		<text transform="matrix(1 0 0 1 199.8262 14.5)" class="st2 st3">Either</text>
	</g>
	<rect x="180.5" y="20.5" pointer-events="all" class="st1" width="70" height="20"/>
	<g transform="translate(-0.5 -0.5)">
		<text transform="matrix(1 0 0 1 184.5 34.5)" class="st2 st3">__init__()</text>
	</g>
	<rect x="180.5" y="40.5" pointer-events="all" class="st1" width="70" height="20"/>
	<g transform="translate(-0.5 -0.5)">
		<text transform="matrix(1 0 0 1 184.5 54.5)" class="st2 st3">match()</text>
	</g>
	<path pointer-events="all" class="st4" d="M270.9,35l0.1-10l39.4,0.5l20.4-0.3l-0.1-10.5L350,30l-18.8,15.7l-0.1-10.5l-20.6,0.3
		L270.9,35z"/>
	<path pointer-events="all" class="st1" d="M330.9,25.2l-0.1-10.5L350,30l-18.8,15.7l-0.1-10.5"/>
	<rect x="260.5" y="110.5" pointer-events="all" class="st1" width="70" height="20"/>
	<g transform="translate(-0.5 -0.5)">
		<text transform="matrix(1 0 0 1 289.1631 124.5)" class="st2 st3">Lit</text>
	</g>
	<rect x="260.5" y="130.5" pointer-events="all" class="st1" width="70" height="20"/>
	<g transform="translate(-0.5 -0.5)">
		<text transform="matrix(1 0 0 1 264.5 144.5)" class="st2 st3">__init__()</text>
	</g>
	<rect x="260.5" y="150.5" pointer-events="all" class="st1" width="70" height="20"/>
	<g transform="translate(-0.5 -0.5)">
		<text transform="matrix(1 0 0 1 264.5 164.5)" class="st2 st3">_match()</text>
	</g>
	<rect x="350.5" y="110.5" pointer-events="all" class="st1" width="70" height="20"/>
	<g transform="translate(-0.5 -0.5)">
		<text transform="matrix(1 0 0 1 375.1611 124.5)" class="st2 st3">Any</text>
	</g>
	<rect x="350.5" y="130.5" pointer-events="all" class="st1" width="70" height="20"/>
	<g transform="translate(-0.5 -0.5)">
		<text transform="matrix(1 0 0 1 354.5 144.5)" class="st2 st3">__init__()</text>
	</g>
	<rect x="350.5" y="150.5" pointer-events="all" class="st1" width="70" height="20"/>
	<g transform="translate(-0.5 -0.5)">
		<text transform="matrix(1 0 0 1 354.5 164.5)" class="st2 st3">_match()</text>
	</g>
	<rect x="440.5" y="110.5" pointer-events="all" class="st1" width="70" height="20"/>
	<g transform="translate(-0.5 -0.5)">
		<text transform="matrix(1 0 0 1 459.8262 124.5)" class="st2 st3">Either</text>
	</g>
	<rect x="440.5" y="130.5" pointer-events="all" class="st1" width="70" height="20"/>
	<g transform="translate(-0.5 -0.5)">
		<text transform="matrix(1 0 0 1 444.5 144.5)" class="st2 st3">__init__()</text>
	</g>
	<rect x="440.5" y="150.5" pointer-events="all" class="st1" width="70" height="20"/>
	<g transform="translate(-0.5 -0.5)">
		<text transform="matrix(1 0 0 1 444.5 164.5)" class="st2 st3">_match()</text>
	</g>
	<rect x="530.5" y="110.5" pointer-events="all" class="st1" width="70" height="20"/>
	<g transform="translate(-0.5 -0.5)">
		<text transform="matrix(1 0 0 1 555.1641 124.5)" class="st2 st3">Null</text>
	</g>
	<rect x="530.5" y="130.5" pointer-events="all" class="st1" width="70" height="20"/>
	<g transform="translate(-0.5 -0.5)">
		<text transform="matrix(1 0 0 1 534.5 144.5)" class="st2 st3">__init__()</text>
	</g>
	<rect x="530.5" y="150.5" pointer-events="all" class="st1" width="70" height="20"/>
	<g transform="translate(-0.5 -0.5)">
		<text transform="matrix(1 0 0 1 534.5 164.5)" class="st2 st3">_match()</text>
	</g>
	<rect x="390.5" y="0.5" pointer-events="all" class="st1" width="70" height="20"/>
	<g transform="translate(-0.5 -0.5)">
		<text transform="matrix(1 0 0 1 409.1611 14.5)" class="st2 st3">Match</text>
	</g>
	<rect x="390.5" y="20.5" pointer-events="all" class="st1" width="70" height="20"/>
	<g transform="translate(-0.5 -0.5)">
		<text transform="matrix(1 0 0 1 394.5 34.5)" class="st2 st3">__init__()</text>
	</g>
	<rect x="390.5" y="40.5" pointer-events="all" class="st1" width="70" height="20"/>
	<g transform="translate(-0.5 -0.5)">
		<text transform="matrix(1 0 0 1 394.5 54.5)" class="st2 st3">match()</text>
	</g>
	<path pointer-events="stroke" class="st0" d="M475.5,110.5v-20h-50V68.6"/>
	<path pointer-events="all" class="st5" d="M425.5,61.6l3.5,7h-7L425.5,61.6z"/>
	<g>
		<g>
			<polyline class="st6" points="460.5,50.5 610.1,50.5 610.1,181.2 392.4,181.2 295.5,181.2 295.5,176.2 			"/>
			<g>
				<polygon points="299.4,177.3 295.5,170.5 291.6,177.3 				"/>
			</g>
		</g>
	</g>
	<g>
		<g>
			<line class="st6" x1="386.6" y1="181.2" x2="386.6" y2="175.5"/>
			<g>
				<polygon points="390.1,176.5 386.6,170.5 383.1,176.5 				"/>
			</g>
		</g>
	</g>
</g>
<g>
	<g>
		<line class="st6" x1="482.7" y1="181.2" x2="482.7" y2="175.5"/>
		<g>
			<polygon points="486.2,176.5 482.7,170.5 479.2,176.5 			"/>
		</g>
	</g>
</g>
<g>
	<g>
		<line class="st6" x1="569.7" y1="181.2" x2="569.7" y2="175.5"/>
		<g>
			<polygon points="573.2,176.5 569.7,170.5 566.2,176.5 			"/>
		</g>
	</g>
</g>
</svg>
