<?xml version="1.0" encoding="utf-8"?>

<!DOCTYPE svg PUBLIC "-//W3C//DTD SVG 1.1//EN" "http://www.w3.org/Graphics/SVG/1.1/DTD/svg11.dtd">
<svg version="1.1" id="Layer_1" xmlns="http://www.w3.org/2000/svg" xmlns:xlink="http://www.w3.org/1999/xlink" x="0px" y="0px"
	 viewBox="0 0 1365.06 1674.648" enable-background="new 0 0 1365.06 1674.648" xml:space="preserve">
<g>
	<path opacity="0.47" fill="#6C4648" stroke="#6C4648" stroke-width="1.8031" enable-background="new    " d="M952.594,123.462
		c0.324,0.288,1.01,0.829,1.334,1.082C953.604,124.291,952.919,123.75,952.594,123.462z"/>
	<path opacity="0.45" fill="#694546" stroke="#694546" stroke-width="1.8031" enable-background="new    " d="M1039.071,220.577
		c0.252,0.397,0.721,1.154,0.974,1.515C1039.792,221.731,1039.323,220.974,1039.071,220.577z"/>
	<path opacity="0.47" fill="#6D4649" stroke="#6D4649" stroke-width="1.8031" enable-background="new    " d="M1064.567,267.53
		c0.216,0.541,0.613,1.587,0.793,2.092C1065.18,269.117,1064.783,268.071,1064.567,267.53z"/>
	<path opacity="0.66" fill="#94484B" stroke="#94484B" stroke-width="1.8031" enable-background="new    " d="M1066.442,273.047
		c1.154,1.154,3.065,7.429,3.065,7.429C1068.75,278.637,1067.199,274.887,1066.442,273.047z"/>
	<path opacity="0.66" fill="#93484A" stroke="#93484A" stroke-width="1.8031" enable-background="new    " d="M1073.835,292.196
		c0,0,3.354,5.337,3.39,6.96C1076.395,297.425,1074.7,293.927,1073.835,292.196z"/>
	<path opacity="0.73" fill="#A24B4E" stroke="#A24B4E" stroke-width="1.8031" enable-background="new    " d="M1077.441,302.618
		c0,0,3.245,5.626,3.281,7.248C1079.893,308.064,1078.271,304.421,1077.441,302.618z"/>
	<path opacity="0.73" fill="#A34A4E" stroke="#A34A4E" stroke-width="1.8031" enable-background="new    " d="M1081.011,313.401
		c0,0,3.282,5.626,3.318,7.249C1083.5,318.846,1081.841,315.204,1081.011,313.401z"/>
	<path opacity="0.64" fill="#8F4B4E" stroke="#8F4B4E" stroke-width="1.8031" enable-background="new    " d="M1084.69,324.255
		c0,0,3.101,5.734,3.101,7.393C1086.997,329.809,1085.447,326.095,1084.69,324.255z"/>
	<path fill="#F9D5B4" stroke="#F9D5B4" stroke-width="1.8031" d="M457.643,432.838c32.239-15.975,60.043-39.921,83.556-66.931
		c7.645,13.343,13.054,27.804,20.231,41.363c31.951,61.233,82.077,113.307,143.347,145.51
		c43.996,22.899,93.906,36.062,143.707,31.915c-16.913-33.069-33.574-66.751-41.94-103.174
		c23.116,20.88,45.871,42.157,70.754,60.909c43.599,33.393,84.998,73.999,103.967,126.758c6.888,17.166,6.96,35.954,12.477,53.444
		c9.34-23.873,14.569-49.117,18.788-74.324c4.291-26.253,1.983-52.867,2.596-79.336c6.888,35.701,6.599,72.304,6.852,108.511
		c0.361,63.145-7.861,126.001-19.221,188.028c-4.075,17.815-9.845,35.233-16.012,52.434c-9.628,23.621-25.496,43.924-41.724,63.289
		c-11.504,7.645-19.834,18.969-31.338,26.542c-24.414,18.608-50.847,34.62-78.579,47.782c-10.025,4.905-20.411,9.376-28.994,16.661
		c-34.295,17.021-71.764,26.974-108.619,37c-19.762,6.094-39.632-2.344-58.601-7.285c-27.119-8.294-54.814-15.976-79.878-29.463
		c-27.083-17.959-58.709-27.84-85.287-46.628c-27.155-19.438-55.355-38.803-74.288-66.967
		c-23.729-30.833-32.131-69.456-43.058-105.986c-1.443-4.724-2.38-9.629-1.983-14.533c2.993-17.887-2.885-35.377-4.688-53.011
		c-3.751-28.597-1.587-57.519-0.144-86.224c0.974-61.991,7.681-125.532,33.43-182.618
		C398.717,482.135,423.492,450.328,457.643,432.838z"/>
	<path fill="#CE0007" stroke="#CE0007" stroke-width="1.8031" d="M1107.68,569.013c6.142-68.807-1.783-140.778-13.458-208.67
		c-5.909-34.365-16.283-68.081-31.451-99.505c-0.315-0.652-0.632-1.303-0.951-1.954c-6.244-12.843-13.608-25.075-21.775-36.793
		c-0.252-0.361-0.721-1.118-0.974-1.515c-22.935-36.351-52.218-68.518-85.142-96.033c-0.325-0.252-1.01-0.793-1.334-1.082
		C865.232,45.767,730.971,4.563,625.8,69.477c-0.361,0.252-1.082,0.757-1.443,1.01c-28.813,18.68-50.522,45.545-69.166,73.962
		c2.598-3.961-22.578-10.236-24.738-10.823c-14.57-3.959-27.061-6.311-42.464-6.265c-40.965,0.121-89.914,8.402-126.036,28.399
		c-33.714,18.664-58.742,51.057-73.046,86.419c-2.491,6.158-5.585,12.24-7.747,18.506c-5.237,15.182-9.203,31.114-11.762,46.991
		c-4.374,27.14-3.4,56.109-3.985,83.577c-0.675,31.692,0.819,63.328,0.819,94.934c2.382,35.826,10.365,69.332,18.797,104.123
		c10.286,42.436,20.726,84.837,30.852,127.311c9.087,38.118,21.637,75.225,32.6,112.802c1.478,1.983,4.436,5.95,5.914,7.934
		c2.993-17.887-2.885-35.377-4.688-53.011c-3.751-28.597-1.587-57.519-0.144-86.224c0.974-61.991,7.681-125.532,33.43-182.618
		c15.723-34.367,40.498-66.174,74.648-83.664c32.239-15.975,60.043-39.921,83.556-66.931c7.645,13.343,13.054,27.804,20.231,41.363
		c31.951,61.233,82.077,113.307,143.347,145.51c43.996,22.9,93.906,36.062,143.707,31.915
		c-16.913-33.069-33.574-66.751-41.94-103.174c23.116,20.88,45.871,42.157,70.754,60.909
		c43.599,33.393,84.998,73.999,103.967,126.758c6.888,17.166,6.96,35.954,12.477,53.444c9.34-23.873,14.569-49.117,18.788-74.324
		c4.291-26.253,1.983-52.867,2.596-79.337c6.888,35.702,6.599,72.305,6.852,108.511c0.361,63.145-7.861,126.001-19.221,188.028
		c8.222-9.665,11.54-22.214,17.093-33.393c20.603-41.474,39.222-84.478,54.497-128.198c5.846-16.733,11.12-33.67,15.625-50.815
		c4.459-16.972,6.767-34.422,11.774-51.142C1104.863,591.551,1106.663,580.404,1107.68,569.013z"/>
	<path fill="#F9D5B4" stroke="#F9D5B4" stroke-width="1.8031" d="M267.992,636.625c6.094-8.979,15.687-14.389,24.017-21.024
		c5.878,34.439,15.903,68.013,23.873,102.02c9.087,38.118,21.637,75.225,32.6,112.802c-15.254-3.029-26.181-14.822-38.55-23.224
		c-24.486-27.876-47.386-59.719-54.273-97.043C250.394,685.417,252.63,657.505,267.992,636.625z"/>
	<path fill="#F9D5B4" stroke="#F9D5B4" stroke-width="1.8031" d="M1019.85,832.117c33.105-69.564,64.479-141.111,78.76-217.274
		c-0.18,3.029-0.505,9.124-0.685,12.189c16.625,18.572,27.119,43.311,23.729,68.554c-6.635,47.602-33.538,91.273-70.177,121.854
		C1041.415,823.354,1030.669,827.862,1019.85,832.117z"/>
	<path fill="#F2B78B" stroke="#F2B78B" stroke-width="1.8031" d="M559.013,1072.471c25.063,13.487,52.759,21.168,79.878,29.463
		c18.968,4.941,38.839,13.379,58.601,7.285c36.855-10.025,74.324-19.978,108.619-37c1.442,16.769,2.164,33.862,0.108,50.595
		l-2.596,0.974c-60.873,18.139-125.929,24.919-188.641,12.838c-19.365-3.318-38.19-9.016-57.447-12.838
		C557.462,1106.694,557.751,1089.528,559.013,1072.471z"/>
	<path fill="#F9D5B4" stroke="#F9D5B4" stroke-width="1.8031" d="M557.535,1123.787c19.257,3.823,38.082,9.52,57.447,12.838
		c62.712,12.081,127.768,5.301,188.641-12.838c4.399,26.397,4.399,53.119,4.904,79.805c4.039,25.965,7.825,60.368,37.36,69.564
		c70.682,21.565,141.183,44.032,211.828,65.777c-83.988,110.602-206.383,190.84-340.606,225.965
		c-12.225,2.885-24.811,7.826-37.469,4.688c-114.064-24.883-221.349-82.185-303.679-165.164
		c-22.214-22.034-43.563-45.258-60.837-71.403c8.691,0.18,17.057-2.164,25.171-5.157c56.834-17.598,113.595-35.377,170.357-53.156
		c10.241-4.039,24.053-5.59,28.525-17.346c13.595-19.978,12.045-44.825,16.372-67.616
		C555.046,1167.711,558.292,1145.785,557.535,1123.787z"/>
	<path fill="#0DDBA0" stroke="#0DDBA0" stroke-width="1.8031" d="M309.299,1334.974c1.953-0.63,3.896-1.279,5.827-1.955
		c17.274,26.145,38.623,49.369,60.837,71.403c82.33,82.979,189.614,140.281,303.679,165.164c12.658,3.137,25.243-1.803,37.469-4.688
		c134.223-35.124,256.617-115.362,340.606-225.965c4.364-3.101,9.412-0.108,13.92,1.046c33.61,11.179,68.734,18.932,99.856,36.495
		c71.042,38.839,119.149,113.343,133.141,192.139c0.613,1.803,1.839,5.409,2.452,7.212c3.859,19.978,5.806,40.281,8.258,60.512
		c-118.86,2.128-237.829,0.108-356.726,0.397c-302.993,0.072-605.987,0.036-908.98,0c3.39-93.653,41.796-192.283,121.313-246.845
		c13.273-9.882,27.991-17.643,43.224-24.033c15.34-6.435,31.269-10.705,46.898-16.254c9.9-3.515,20.187-6.231,30.296-9.211
		C297.356,1338.625,303.37,1336.888,309.299,1334.974z"/>
	<path opacity="0.29" fill="#334640" stroke="#334640" stroke-width="1.8031" enable-background="new    " d="M1304.632,1568.612
		l3.101,0.793l1.298,3.678l-1.947,2.741C1306.471,1574.022,1305.245,1570.415,1304.632,1568.612z"/>
</g>
</svg>
